<?xml version="1.0" encoding="UTF-8"?>
<svg id="Capa_2" data-name="Capa 2" xmlns="http://www.w3.org/2000/svg" viewBox="0 0 534.35 529.36">
  <defs>
    <style>
      .cls-1 {
        fill: #ece9da;
      }

      .cls-1, .cls-2, .cls-3, .cls-4 {
        stroke-width: 0px;
      }

      .cls-2 {
        fill: #000;
      }

      .cls-3 {
        fill: #bda1ec;
      }

      .cls-4 {
        fill: #fff;
      }
    </style>
  </defs>
  <g id="Capa_1-2" data-name="Capa 1">
    <g>
      <path class="cls-2" d="M338.95,329.07c8.19,0,16.1-.05,24.01.01,15.95.13,31.89.44,47.84.44,18.41,0,36.82-.24,55.23-.45,9.86-.11,17.21,4.3,21.56,12.88,2.97,5.86,4.93,12.26,7.1,18.5,2.73,7.84,5.2,15.76,7.83,23.64,2.61,7.8,5.18,15.61,7.95,23.35,4.12,11.54,8.51,22.99,12.56,34.55,3.81,10.87,7.48,21.8,10.92,32.79,1.4,4.46-1.02,7.19-5.71,7.18-8.57-.02-17.13-.08-25.7-.13-1.05,0-2.11,0-3.47,0-.08,1.39-.21,2.53-.21,3.68.05,12.2.2,24.4.09,36.59-.02,1.99-.64,4.38-1.86,5.87-1.96,2.38-5.32,1.54-6.47-1.38-.69-1.77-1.14-3.72-1.21-5.62-.22-5.61-.37-11.24-.22-16.85.17-6.27.61-12.54,1.09-18.8.2-2.64-.59-3.54-3.36-3.52-17.88.13-35.77.12-53.65.07-4.81-.01-9.63-.43-14.44-.41-9.2.05-18.39.4-27.59.42-44.76.07-89.53.07-134.29.08-22.8,0-45.6,0-68.41,0-41.96,0-83.93,0-125.89,0-7.6,0-15.21.07-22.81-.01-2.28-.03-3.22.57-3.17,3.08.25,12.83.34,25.66.45,38.5.03,3.84-1.43,5.44-4.71,5.4-3.36-.03-4.27-1.11-4.27-5.27,0-12.85-.03-25.69.13-38.54.04-2.93-.94-3.49-3.74-3.42-6.94.17-13.9.1-20.83-.31-3.76-.22-4.35-1.37-3.2-4.82,5.41-16.2,10.92-32.37,16.35-48.57,2.79-8.31,5.37-16.69,8.23-24.98,3.16-9.17,6.62-18.25,9.79-27.42,3.42-9.89,6.51-19.9,10.02-29.75,2.93-8.22,8.84-13.8,17.29-15.76,4.92-1.14,10.21-.9,15.34-.94,8.03-.06,16.06.28,24.09.27,17.77-.02,35.53-.12,53.3-.33,1.47-.02,4.02-.9,4.19-1.76.45-2.27.14-4.82-.49-7.09-.15-.56-2.75-.97-4.02-.64-19.02,4.91-39.94-7.71-44.88-27.25-1.88-7.43-1.28-14.61,2.41-21.48.48-.89.46-2.65-.12-3.39-7.23-9.35-13.59-19.27-17.83-30.3-2.9-7.54-5.15-15.36-7.19-23.19-3.51-13.48-3.53-27.39-3.04-41.12.54-15.26,2.4-30.49,4.08-45.68.51-4.61,2.2-9.11,3.54-13.6,1.43-4.81,3.21-9.51,4.62-14.32,3.18-10.84,9.6-20.03,14.99-29.73,7.11-12.79,16.96-23.37,27.94-32.84,5.72-4.93,12.04-9.21,18.36-13.37,4.54-2.99,9.42-5.51,14.33-7.86,13-6.23,26.83-9.57,40.93-12.54,15.74-3.32,31.41-3.34,47.22-2.43,7.45.43,14.99.64,22.3,1.99,12.91,2.37,25.59,5.64,37.9,10.52,16.78,6.65,31.88,15.91,45.86,27.15,2.23,1.79,4.27,3.92,6.01,6.18,7.33,9.5,14.81,19.08,18.56,30.59,3.67,11.26,6.04,22.87,6.1,34.91.1,17.78-5.11,34.19-12.42,49.99-4.52,9.76-8.42,19.68-10.69,30.12-2.91,13.34-3.03,26.83,1.49,39.91,1.3,3.74,3.91,7.06,6.13,10.44.43.66,1.86,1.09,2.73.97,10.58-1.52,21.24-2.68,31.68-4.9,12.39-2.62,24.83-5.31,36.09-11.68,4.27-2.42,5.43-1.97,8.17,1.99,2.3,3.33,4.79,5.92,9.32,5.4,3.43-.39,4.71,2.29,5.54,4.8,1,3.03,3.15,3.91,5.84,3.9,3.71-.01,6.07,1.54,7.2,5.1.87,2.74,2.77,4.3,5.59,5.21,6.22,1.99,6.77,5.53,1.86,9.96-12.08,10.9-26.7,16.3-42.29,19.58-10.99,2.31-21.92,4.98-33.01,6.68-20.08,3.07-39.91,2.35-58.76-6.41-1.71-.8-2.93-1.03-3.91.96-1.6,3.27-4.63,4.6-7.92,5.48-2.79.74-5.59,1.5-8.39,2.2-1.99.5-2.79,1.77-2.76,3.75.19,11.12.36,22.24.55,33.35,0,.19.15.38.17.45ZM9.97,472.47c.92.14,1.83.4,2.75.41,17.23.22,34.45.58,51.68.56,24.38-.03,48.76-.42,73.14-.52,25.47-.1,50.94-.06,76.41-.04,17.76.01,35.53.06,53.29.14,17.65.07,35.3.28,52.95.26,28.9-.04,57.8-.25,86.7-.32,19.69-.05,39.38.04,59.07.03,9.85,0,19.69-.15,29.54-.16,8.34-.01,16.68.12,25.02.08,4.09-.02,4.37-.69,2.74-4.29-1.5-3.3-2.88-6.67-4.04-10.1-1.8-5.36-3.24-10.83-5.06-16.18-3.4-10.01-7.04-19.95-10.44-29.96-2.13-6.27-3.83-12.68-6.06-18.91-2.98-8.31-6.5-16.42-9.38-24.76-2.5-7.23-4.37-14.67-6.65-21.98-.39-1.26-1.28-2.5-2.24-3.44-3.93-3.8-8.46-5.98-14.17-5.36-3.07.33-6.2.1-9.31.08-23.77-.15-47.54-.4-71.3-.42-15.84-.02-31.69.21-47.53.5-2.27.04-4.55.98-6.79,1.64-7.05,2.09-14.03,4.46-21.14,6.29-5.58,1.44-11.27,2.61-16.99,3.27-8.39.96-16.84,1.29-25.25,2.06-.98.09-2.54,1.17-2.67,1.98-.45,2.79-.35,5.87,2.39,7.49,3.35,1.98,4.21,4.84,4.24,8.35.01,1.16.4,2.31.6,3.47,1.76,9.88,3.55,19.76,5.27,29.65.43,2.5-.51,4.59-2.92,5.47-3.69,1.35-7.45,3.16-11.27,3.39-10.67.64-21.38.77-32.07.7-5.75-.04-11.69-.2-16.79-3.41-1.51-.95-3.22-2.87-3.37-4.49-.76-8.1,1.27-15.45,8.21-20.39,3.8-2.7,8.12-4.72,12.33-6.79,5.77-2.83,11.66-3.48,17.52-.07.44.26,1.08.5,1.53.39,1.33-.34,2.61-.86,3.91-1.31-.67-1.32-1.04-3.05-2.1-3.86-1.66-1.27-3.81-1.9-5.73-2.84-2.12-1.04-2.55-2.58-.92-4.35,1.44-1.57,3.02-3.03,4.64-4.42,2.13-1.82,1.81-4.19.97-6.19-.43-1.02-2.38-1.87-3.7-1.96-5.11-.36-10.28-.05-15.36-.59-12.74-1.35-25.44-3.05-38.15-4.59-4.55-.55-5.72.58-4.72,5.03.28,1.22,1.56,2.65,2.74,3.16,3.83,1.68,5.41,4.45,5.56,8.52.12,3.08.63,6.17,1.24,9.2,1.42,7.13,3.1,14.21,4.5,21.34.9,4.57-.35,7.6-4.73,8.91-5.67,1.7-11.6,3.03-17.49,3.41-8.28.54-16.65.43-24.93-.12-5.04-.34-10.09-1.7-14.96-3.2-4.36-1.34-5.84-4.22-5.18-8.75.9-6.13,3.29-11.85,8.39-15.41,10.02-6.99,20.39-13.52,33.5-7.31,1.09.52,3.68.06,4.17-.76,1.13-1.92-.1-3.71-2.07-4.64-2.31-1.1-4.68-2.12-7.07-3.03-3.07-1.18-3.3-2.07-.84-4.26,1.12-1,2.43-1.81,3.41-2.91.74-.82,1.49-1.96,1.55-3,.15-2.88.06-5.78-.21-8.65-.08-.84-.9-2.02-1.66-2.34-7.02-2.85-14.05-5.7-21.96-4.28-1.97.36-4.06.07-6.09.08-26.56.02-53.11.02-79.67.07-6.67.01-11.35,3.49-13.58,9.73-4.46,12.46-8.97,24.91-13.41,37.37-.86,2.41-1.45,4.92-2.31,7.33-2.26,6.34-4.72,12.61-6.89,18.97-3.1,9.1-5.94,18.28-9.04,27.38-3.77,11.07-7.69,22.08-11.72,33.62ZM238.71,138.2c2.29-2.97,4.24-6.05,6.72-8.63,6.33-6.58,15.6-6.8,22.51-.81,7.63,6.61,11.32,15.38,13.45,24.92.58,2.61,1.51,3.84,4.38,3.9,14.45.31,28.39,3.21,41.77,8.7,2.46,1.01,3.71.28,4.71-2.04,3.34-7.75,8.47-14.31,13.85-20.73,5.21-6.22,10.24-12.6,15.13-19.07.92-1.22,1.69-3.87,1.03-4.76-3.92-5.33-7.88-10.75-12.58-15.37-9.26-9.08-19.22-17.48-31.03-23.08-9.05-4.29-18.27-8.53-27.83-11.38-13.13-3.91-26.76-5.55-40.52-6.21-15.27-.73-30.03,1.21-44.67,5.59-8.62,2.58-16.85,5.97-24.23,10.82-15.18,9.99-27.53,22.74-37.1,38.45-14.49,23.8-21.87,49.77-25.69,77.02-.27,1.92-.24,4.29.65,5.89,2.81,5.02,5.98,9.84,9.21,14.61,11.18,16.48,25.78,29.04,43.8,37.55,2.08.98,4.37,1.49,6.85,2.32,0-4.57.13-8.61-.11-12.63-.05-.83-1.34-1.89-2.3-2.32-3.21-1.45-6.58-2.57-9.8-4.01-3.61-1.61-5.75-4.55-5.93-8.48-.26-5.76-.28-11.53-.23-17.3.07-9.95.8-19.93.27-29.85-.46-8.55,3.48-13.58,10.55-16.9,7.82-3.67,16.23-5.37,24.74-6.41,2.44-.3,3.36-1.09,3.44-3.5.26-8.19,3.85-15.11,8.99-21.17,6.88-8.11,17.19-8.4,24.87-.96,1.81,1.75,3.34,3.8,5.1,5.82ZM368.75,114.03c.73-.52,1.03-.67,1.23-.9.28-.32.56-.67.7-1.07,2.61-7.65,6.56-14.69,8.23-22.84,1.74-8.49.01-15.94-3.14-23.32-3.29-7.7-9.08-13.72-15.11-19.35-9.86-9.21-21.46-15.85-33.53-21.75-11.59-5.67-23.74-9.65-36.33-12.36-6.45-1.39-12.9-3.57-19.41-3.8-18.77-.65-37.59-2.09-56.27,1.64-13.57,2.71-27.01,6-39.59,11.72-16.24,7.39-29.95,18.51-42.43,31.16-7.76,7.86-13.08,17.42-18.59,26.84-7.44,12.71-13.46,25.99-16.44,40.51-.23,1.14-.91,2.21-1.06,3.35-.44,3.31-1.15,6.67-.95,9.96.21,3.47,1.23,6.91,2.08,10.31,2.42,9.64,4.75,19.31,7.5,28.85,1.24,4.3,3.39,8.34,5.13,12.5.47-.09.94-.17,1.41-.26.33-1.83.69-3.65.96-5.49.19-1.26.03-2.61.38-3.81,3.53-11.97,6.09-24.19,10.92-35.84,8.43-20.36,19.71-38.62,35.84-53.73,17.07-15.99,37.44-25.68,60.38-28.98,12.2-1.76,24.77-1.06,37.17-1.19,4.9-.05,9.9.19,14.7,1.11,9.31,1.79,18.53,3.88,27.59,6.96,18,6.13,34.1,15.42,48.38,27.78,5.21,4.5,9.44,10.14,14.11,15.25,2.01,2.2,4.01,4.39,6.14,6.73ZM335.94,283.59c.24.28.48.55.73.83,3.47-.98,6.9-2.18,10.43-2.86,3.34-.65,4.48-2.54,4.28-5.64-.19-2.77-.36-5.54-.63-8.31-1.03-10.52,2.56-21.1-.47-31.56-.46-1.57-1.34-3.96-2.43-4.21-2.83-.65-6.36-2.9-8.75,0-5.09,6.17-12.33,6.78-19.25,8.29-2.12.46-3.45-.96-3.93-2.94-.56-2.32,1.38-2.61,2.86-3.05,3.28-.95,6.58-1.84,9.9-2.63,2.55-.6,3.75-1.94,3.73-4.7-.08-11.23-.02-22.47-.01-33.7,0-5.16-.89-5.98-5.61-3.87-6.53,2.92-13.33,2.73-20.18,2.66-2.41-.02-2.98-1.55-3.07-3.63-.09-2.23,1.19-2.69,3.02-2.77,2.57-.11,5.16-.13,7.69-.54,5.47-.89,11.14-1.25,15.78-4.81,2.54-1.95,2.38-3.86-.61-4.9-6.15-2.14-12.3-4.43-18.63-5.84-8.22-1.83-16.63-2.84-24.95-4.23-2.35-.39-3.37.38-3.17,2.9.21,2.66.15,5.35.12,8.03-.13,10.55-2.09,20.58-7.98,29.61-7.06,10.82-19.96,11.45-27.95,1.28-1.11-1.41-2.25-2.79-3.55-4.39-2.03,2.84-3.66,5.47-5.62,7.82-7.1,8.5-17.67,8.72-25.02.48-2.12-2.38-4.05-5.03-5.56-7.83-5.52-10.21-7.96-21.15-7.29-32.78.23-4.02-.02-4.67-4.01-3.91-7.1,1.36-14.06,3.44-21.02,5.42-1.35.38-2.52,1.59-3.64,2.58-2.26,2-2.12,3,.6,4.52,4.14,2.33,8.45,4.11,13.31,4.27,1.81.06,3.62.41,5.4.73,2.2.4,3.87,1.37,3.61,4.02-.26,2.58-2.15,3.04-4.17,2.95-2.12-.1-4.26-.39-6.33-.84-4.65-1.02-9.26-2.19-14.29-3.39,0,3.28,0,6.24,0,9.19,0,10.06.02,20.12,0,30.17,0,2.37.6,4.05,3.31,4.64,5.41,1.18,10.8,2.51,16.12,4.03,1.52.44,2.79,1.77,4.17,2.69-1.09,1.42-1.91,3.29-3.34,4.14-1.61.95-2.36,1.84-2.38,3.68-.03,3.61-.37,7.22-.35,10.83.01,1.38.28,3.57,1.12,3.98,2.75,1.34,5.81,2.04,9.31,3.16,0-3.54-.28-6.13.11-8.62.22-1.39,1.31-3.31,2.46-3.73,2.2-.81,4,.67,4.55,2.89.46,1.83.79,3.87.47,5.69-.63,3.67.36,5.19,4.28,5.86,7.08,1.22,7.15,1.55,7.79-5.77.23-2.6,1.42-3.29,3.67-3.24,2.75.06,4.11,1.58,4.28,4.89q.33,6.35,6.67,6.3c.64,0,1.3-.1,1.93-.01,3.49.45,5.44-.79,5.55-4.56.04-1.59.4-3.28,2.73-3.16,2.38.12,3.29,1.38,3.53,3.67.5,4.67.6,4.52,5.28,4.72,7.24.31,14.49.75,21.72,1.32,2.52.2,4.51-.13,6.34-2.09,10.72-11.52,29.61-10.27,39.3-2.2,2.63,2.19,5.16,4.5,7.86,6.6.79.62,2.17,1.2,2.99.93,2.57-.85,4.28-4.28,4.13-7.34-.15-3.09-1.85-4.6-4.77-5.08-1.16-.19-2.3-.52-3.42-.87-3.01-.94-4.4-3.2-3.97-6.4.4-2.98,2.25-4.7,5.35-4.96,7.69-.65,16.13,5.15,18.47,12.72,2.24,7.26.06,13.38-4.88,18.78-1.25,1.37-2.5,2.73-3.74,4.1ZM94.55,158.41c-.3,0-.6.01-.89.02-.38,1.61-1.08,3.22-1.09,4.83-.08,9.84-.08,19.68.07,29.51.06,4.16.11,8.41.94,12.46,1.42,7,3.31,13.92,5.24,20.81,3.58,12.77,11.12,23.54,18.09,34.56,2.27,3.58,2.91,3.35,6.15.46,5.91-5.27,15.58-4.67,20.97.95,1.56,1.62,3.93,2.8,6.14,3.4,5.01,1.37,9.76,3.38,12.5,7.76,1.83,2.92,3.88,5.25,6.59,7.2,5.61,4.03,7.09,9.64,5.96,16.16-.35,2-.71,4.02-1.36,5.94-.84,2.51.12,3.57,2.51,3.94,1.69.26,3.35.64,5.02,1,8.24,1.75,16.42,4.04,24.75,5.15,10.26,1.36,20.64,2.15,30.99,2.46,15.83.46,31.68.36,47.52.29,1.48,0,2.96-1.52,4.44-2.33-.81-1.35-1.35-3.03-2.49-4.01-3.95-3.39-8-6.76-8.54-12.31-.41-4.18-.77-8.21-3.27-11.82-.79-1.14-1.09-2.89-.99-4.32.25-3.64-1.43-4.33-4.75-4.43-15.71-.51-31.45-.84-47.11-2.12-17.27-1.41-34.14-4.8-50.24-11.84-15.38-6.72-28.49-16.35-40.05-28.31-9.31-9.64-15.61-21.32-22.11-32.86-6.85-12.16-10.31-25.52-13.88-38.85-.33-1.25-.75-2.47-1.12-3.71ZM386.24,94.93c-.44.03-.88.05-1.33.08-.75,2.74-1.18,5.61-2.3,8.19-5.52,12.75-13.06,24.27-21.9,34.94-8.11,9.79-16.64,19.24-22.26,30.84-.93,1.92-1.04,3.2.33,4.9.76.95,1.02,2.5,1.08,3.79.09,2.11-.25,4.24-.27,6.36-.09,10.79-.02,21.58-.25,32.36-.13,6,.23,6.7,6.24,7.78.95.17,1.9.35,2.82.6,7.82,2.13,9.63,4.67,9.54,12.78-.11,9.83-.04,19.67-.13,29.5-.04,3.81,1.64,6.31,5.18,7.6,4.41,1.62,8.82,3.28,13.25,4.84,10.38,3.65,21.09,2.91,31.79,2.25,3.88-.24,7.75-.65,11.62-.98.11-.39.23-.78.34-1.16-1.39-.98-2.65-2.44-4.2-2.87-10.69-2.95-19.39-9.31-28.04-15.83-16.67-12.59-24.44-29.5-24.18-50.18.06-4.77.82-9.54,1.46-14.29,1.5-11.2,4.98-21.84,9.35-32.2,2.4-5.7,5.16-11.26,7.4-17.03,4.95-12.72,7.15-25.99,6.65-39.61-.16-4.24-1.43-8.44-2.19-12.66ZM258.45,207.1c2.14,2.11,4.16,1.46,6.09.02,4.59-3.41,7.14-8.15,8.57-13.57,3.44-13.08,3.95-26.24.36-39.33-1.92-7-4.39-13.97-10.41-18.75-5.53-4.4-10.63-3.8-14.42,2.12-2.33,3.63-3.56,7.94-5.52,11.83-.87,1.73-2.31,3.18-3.5,4.75-1.2-1.39-2.58-2.67-3.56-4.2-1.96-3.06-3.25-6.64-5.61-9.31-4.93-5.62-11.58-8.94-17.51,0-5.18,7.81-6.04,16.73-7.14,25.56-.45,3.66-.02,7.51.56,11.19.55,3.48,1.81,6.84,2.75,10.26.38-.06.75-.13,1.13-.19.05-.99.25-2,.12-2.97-.74-5.75,1.59-10.47,4.98-14.78,2.6-3.31,5.76-3.78,8.87-.94,2.24,2.05,4.4,4.53,5.64,7.25,4.82,10.58,4.46,21.14-1.11,31.45-.36.67-.51,1.46-1,2.92,1.32-.77,2.16-.97,2.51-1.5,2.34-3.51,4.77-6.99,6.77-10.69,1.46-2.7,2.39-5.71,3.41-8.63.61-1.76,1.33-3.63,1.28-5.43-.13-4.71.61-9.12,2.74-13.35,4.09-8.1,9.62-8.59,15-1.25.32.43.63.87.89,1.34,5.61,10.48,6.52,21.12,1.02,31.94-.76,1.49-1.89,2.8-2.9,4.25ZM167.62,311.49c.24,2.9.62,5.12.55,7.32-.07,2.23-.62,4.45-.89,6.68-.58,4.78,1.21,6.74,6.81,8.78,4.2,1.53,4.82-1.51,6.24-3.96,6.04-10.49,24.33-13.28,31.45-1,2.21,3.81,3.37,8.23,5.17,12.3.37.84,1.42,1.91,2.2,1.94,8.77.39,17.54.67,26.31.83,5.91.11,5.9.01,7.68-5.48.39-1.22.8-2.45,1.34-3.61,2.98-6.44,8.44-10.36,14.88-12,9.52-2.43,18.81,6.11,21.35,14.16.8,2.54,2.11,3.41,4.62,3.29,11.57-.54,22.54-3.68,33.36-7.52,1.98-.7,2.2-2.12,2.1-4.08-.25-4.89-.2-9.8-.26-14.7-.01-.98,0-1.96,0-2.94-1.42.47-2.09,1.11-2.7,1.81-9.38,10.78-20.31,13.43-33.57,8.19-.76-.3-1.68-.27-2.52-.27-15.62,0-31.24.1-46.86.02-8.99-.05-18-.03-26.96-.64-15.18-1.03-30.19-3.33-44.77-7.9-1.6-.5-3.29-.73-5.52-1.22ZM387.46,251.2c2.17,6.48,22.58,17.14,41.86,22.39,21.46,5.84,39.32-3.24,57.34-12.74-1.82-2.48-3.83-4.34-4.73-6.63-1.16-2.98-3-3.64-5.85-3.73-1.61-.05-3.54-.69-4.7-1.76-1.26-1.16-2.08-3.02-2.58-4.73-.54-1.84-1.48-2.34-3.23-2.2-3.14.24-5.82-.67-8.07-3.06-3.58-3.81-5.35-3.88-10.27-1.76-4.91,2.12-9.56,5.06-15.14,5.35-.52.03-1.02.3-1.54.44-5.86,1.56-11.66,3.47-17.6,4.59-8.36,1.58-16.84,2.56-25.5,3.84ZM291.73,304.04c1.14-1.2,1.67-1.88,2.32-2.42,3.57-2.95,7.33-5.62,12.21-5.57,1.11.01,3.17,1,3.13,1.36-.15,1.45-.75,2.99-1.61,4.19-.54.75-1.91.86-2.82,1.4-2.65,1.57-5.47,2.96-7.82,4.9-2.21,1.82-2.27,4.64-.29,6.57,1.67,1.62,4.02,3.13,6.26,3.47,9.13,1.39,18.43-4.81,21.67-13.49,5.66-15.16-2.15-29.32-13.79-36.46-7.68-4.71-15.44-4.35-23.06.18-3.43,2.04-6.12,4.91-6.78,8.92-.3,1.81.59,3.82.94,5.74,1.53-.42,3.07-.84,4.6-1.28,3.86-1.11,7.67-2.42,11.59-3.25,1.77-.38,3.65.18,3.76,2.79.11,2.4-.97,3.34-3.23,3.87-3.41.81-6.87,1.73-10.04,3.18-4.41,2.03-5.49,6.53-2.6,10.44,1.48,2,3.58,3.53,5.58,5.45ZM117.24,284.28c.21,2.02.22,4.08.67,6.04,3.09,13.39,13.01,20.91,26.53,22,7.71.62,14.43-1.61,19.58-7.53,3.54-4.08,6.13-8.66,4.16-14.33-.51-1.47-1.69-3.22-2.99-3.72-.8-.31-2.54,1.38-3.64,2.42-2.87,2.7-5.48,5.69-8.46,8.26-1.89,1.63-4.43,1.62-6.06-.36-1.76-2.13.44-3.32,1.8-4.63,2.53-2.44,5.2-4.78,7.4-7.5,3.01-3.71,1.99-8.1-2.1-10.66-5.29-3.31-6.54-2.8-9.64,2.38-1.98,3.31-4.6,6.29-7.29,9.08-.69.72-3.26.74-3.96.06-.75-.73-.55-2.73-.29-4.08.18-.94,1.22-1.7,1.8-2.59,1.45-2.23,3.04-4.4,4.22-6.76,1.62-3.24.62-6.1-2.82-7.13-2.07-.62-4.78-.67-6.73.16-8.2,3.48-12.42,9.79-12.18,18.9ZM167.7,400.13c0,.13,0,.25.01.38,4.89-.26,9.78-.45,14.66-.84.97-.08,1.89-.88,2.83-1.35-.84-.7-1.6-1.83-2.55-2.03-8.42-1.78-16.88-2.51-25.28.09-.82.25-1.41,1.24-2.11,1.88.84.62,1.65,1.73,2.52,1.78,3.29.21,6.6.09,9.9.09ZM227.11,405.39h32.6c-4.03-6.03-29.35-6.21-32.6,0ZM268.71,344.51c2.05-.33,4.8-.73,7.54-1.22,2.66-.48,3.65-2.25,1.8-4.13-1.64-1.66-4.26-3.27-6.44-3.26-2.82.02-5.32,2.07-6.36,5.11-.97,2.86-.32,3.67,3.46,3.49ZM195.92,333.27c-.43.11-1.65.06-2.22.64-1.12,1.14-2.23,2.55-2.57,4.02-.12.51,1.95,1.98,3.19,2.26,2.48.57,5.08.76,7.63.78.54,0,1.65-1.49,1.55-2.14-.47-2.9-4.08-5.59-7.57-5.57Z"/>
      <path class="cls-4" d="M9.97,472.47c4.03-11.53,7.95-22.55,11.72-33.62,3.1-9.1,5.94-18.28,9.04-27.38,2.17-6.37,4.63-12.64,6.89-18.97.86-2.41,1.45-4.92,2.31-7.33,4.45-12.47,8.96-24.91,13.41-37.37,2.23-6.25,6.91-9.72,13.58-9.73,26.56-.05,53.11-.05,79.67-.07,2.03,0,4.12.28,6.09-.08,7.9-1.43,14.94,1.42,21.96,4.28.77.31,1.59,1.49,1.66,2.34.27,2.87.36,5.78.21,8.65-.05,1.04-.81,2.17-1.55,3-.99,1.1-2.29,1.92-3.41,2.91-2.46,2.19-2.23,3.08.84,4.26,2.39.92,4.75,1.93,7.07,3.03,1.97.94,3.2,2.73,2.07,4.64-.49.83-3.08,1.28-4.17.76-13.1-6.21-23.47.32-33.5,7.31-5.1,3.56-7.49,9.28-8.39,15.41-.67,4.53.81,7.41,5.18,8.75,4.87,1.49,9.92,2.86,14.96,3.2,8.28.55,16.65.66,24.93.12,5.89-.38,11.81-1.71,17.49-3.41,4.38-1.31,5.63-4.34,4.73-8.91-1.4-7.13-3.07-14.21-4.5-21.34-.61-3.03-1.12-6.12-1.24-9.2-.15-4.08-1.73-6.84-5.56-8.52-1.18-.52-2.46-1.94-2.74-3.16-1-4.45.17-5.58,4.72-5.03,12.72,1.54,25.42,3.23,38.15,4.59,5.08.54,10.25.23,15.36.59,1.32.09,3.27.94,3.7,1.96.84,1.99,1.15,4.37-.97,6.19-1.62,1.39-3.2,2.85-4.64,4.42-1.63,1.77-1.2,3.3.92,4.35,1.92.94,4.07,1.57,5.73,2.84,1.06.81,1.42,2.54,2.1,3.86-1.3.45-2.58.97-3.91,1.31-.45.11-1.08-.13-1.53-.39-5.86-3.42-11.75-2.76-17.52.07-4.21,2.07-8.54,4.08-12.33,6.79-6.93,4.94-8.97,12.29-8.21,20.39.15,1.61,1.86,3.54,3.37,4.49,5.1,3.2,11.04,3.37,16.79,3.41,10.69.08,21.41-.06,32.07-.7,3.82-.23,7.58-2.04,11.27-3.39,2.4-.88,3.35-2.97,2.92-5.47-1.72-9.89-3.51-19.77-5.27-29.65-.21-1.16-.59-2.31-.6-3.47-.03-3.51-.89-6.37-4.24-8.35-2.74-1.62-2.85-4.7-2.39-7.49.13-.81,1.69-1.89,2.67-1.98,8.41-.77,16.87-1.1,25.25-2.06,5.72-.65,11.41-1.82,16.99-3.27,7.11-1.84,14.09-4.21,21.14-6.29,2.24-.66,4.52-1.6,6.79-1.64,15.84-.29,31.69-.52,47.53-.5,23.77.03,47.54.28,71.3.42,3.11.02,6.24.25,9.31-.08,5.71-.62,10.25,1.55,14.17,5.36.96.93,1.84,2.17,2.24,3.44,2.28,7.31,4.15,14.75,6.65,21.98,2.88,8.34,6.4,16.45,9.38,24.76,2.23,6.23,3.93,12.65,6.06,18.91,3.41,10.01,7.04,19.94,10.44,29.96,1.82,5.35,3.26,10.83,5.06,16.18,1.15,3.43,2.54,6.8,4.04,10.1,1.63,3.6,1.36,4.27-2.74,4.29-8.34.04-16.68-.1-25.02-.08-9.85.02-19.69.16-29.54.16-19.69.01-39.38-.08-59.07-.03-28.9.07-57.8.28-86.7.32-17.65.02-35.3-.19-52.95-.26-17.76-.07-35.53-.12-53.29-.14-25.47-.02-50.94-.06-76.41.04-24.38.1-48.76.49-73.14.52-17.23.02-34.45-.34-51.68-.56-.91-.01-1.82-.27-2.75-.41ZM276.41,433.26c-.17,1.38-.45,2.64-.45,3.89.01,8.06-7.44,13.64-12.62,14.83-7.3,1.69-16.04-2.26-19.08-8.71-1.21-2.56-1.68-5.48-2.43-8.25-.69-2.53-1.91-3.09-4.2-1.82-2.7,1.5-2.14,4.11-1.74,6.3,1.77,9.64,7.41,16.32,16.63,19.48,8.61,2.96,18.84-.39,24.47-7.69,1.8-2.34,2.93-2.14,4.64-.09,5.86,7,13.47,9.48,22.38,8.34,9.98-1.28,20.06-12.71,19.94-22.56-.05-4.2-2.09-5.66-5.71-3.63-1.13.64-2.02,2.77-2.01,4.21.07,6.84-4.15,10.53-9.48,13.26-10.23,5.23-22.24-3.39-23.44-12.35-.77-5.75-1.46-5.94-6.89-5.23ZM379.38,391.15c.59.73,1,1.18,1.36,1.68,5.75,8.08,13.99,11.5,22.79,9.46,10.66-2.48,17.91-9.83,19.4-19.75.22-1.46.71-3.31.07-4.36-.81-1.31-2.6-2.11-4.12-2.8-.21-.1-1.53,1.63-1.91,2.66-.69,1.9-.93,3.96-1.6,5.87-2.1,6.01-6.15,10.05-12.56,11.01-10.81,1.63-18.09-3.97-19.74-14.83-.14-.94-.26-2.03-.79-2.74-.68-.91-1.85-2.17-2.69-2.08-1.27.13-2.68,1.08-3.54,2.1-.67.79-.85,2.23-.8,3.36.27,5.76-5.6,12.41-10.41,13.68-8.15,2.16-14.92.68-18.89-5.38-2.08-3.18-2.93-7.2-4.12-10.91-.68-2.1-1.96-2.88-4.02-2.89-2.21-.02-2.67,1.51-2.78,3.18-.11,1.58-.25,3.25.11,4.77,2.42,10.41,9.16,16.69,19.36,19.16,9.42,2.29,16.59-1.99,22.75-8.61.71-.76,1.33-1.6,2.14-2.6ZM142.29,439.58c1.73-.21,3.57-.06,5.09-.67,9.58-3.87,16.46-10.21,18.35-20.89.65-3.65-.3-5.31-3.29-5.65-2.9-.33-3.72.86-4.35,4.53-.49,2.86-1.31,5.83-2.73,8.32-3.52,6.17-9.41,6.78-15.87,6.36-7.41-.48-12.94-6.31-13.88-12.5-.27-1.79-.72-3.58-1.35-5.27-.84-2.26-3.64-2.85-5.14-1.06-.68.81-.9,2.11-1.07,3.23-1.06,6.9-4.11,12.43-10.88,15.08-9.25,3.63-21.98-2.14-22.81-15.34-.16-2.5-.81-4.14-3.85-3.62-3.24.55-4.1,1.5-3.52,4.72.34,1.89.93,3.74,1.29,5.63,2.45,12.7,21.99,22.96,35.02,13.17,2.21-1.66,4.15-3.67,6.2-5.52,1.27-1.15,2.6-2.28,3.9-.13,4.32,7.14,11.33,8.85,18.88,9.61ZM411.01,436.25c.28,1.68.34,3.43.89,5.01,3.78,10.85,16.11,20.2,29.2,15.97,11.78-3.81,16.31-11.93,17.79-21.84.38-2.56-.76-3.94-3.51-4.23-2.84-.3-3.83.99-4.15,3.53-.29,2.3-.36,4.79-1.33,6.82-4.32,9.12-13.61,10.85-22.12,7.52-5.27-2.07-8.8-5.98-9.27-12.03-.09-1.16-.2-2.44-.74-3.42-.57-1.01-1.54-2.12-2.58-2.46-3.13-1.04-4.23.46-4.19,5.13Z"/>
      <path class="cls-4" d="M368.75,114.03c-2.13-2.34-4.14-4.54-6.14-6.73-4.68-5.12-8.91-10.75-14.11-15.25-14.28-12.36-30.37-21.65-48.38-27.78-9.05-3.08-18.27-5.18-27.59-6.96-4.8-.92-9.8-1.17-14.7-1.11-12.4.13-24.97-.56-37.17,1.19-22.94,3.3-43.31,12.99-60.38,28.98-16.13,15.11-27.41,33.37-35.84,53.73-4.83,11.66-7.38,23.87-10.92,35.84-.35,1.2-.19,2.55-.38,3.81-.27,1.84-.64,3.66-.96,5.49-.47.09-.94.17-1.41.26-1.74-4.16-3.89-8.2-5.13-12.5-2.75-9.55-5.08-19.21-7.5-28.85-.85-3.41-1.87-6.85-2.08-10.31-.2-3.29.51-6.65.95-9.96.15-1.14.82-2.21,1.06-3.35,2.98-14.52,9-27.81,16.44-40.51,5.51-9.42,10.83-18.97,18.59-26.84,12.49-12.65,26.19-23.77,42.43-31.16,12.59-5.73,26.02-9.01,39.59-11.72,18.68-3.73,37.51-2.29,56.27-1.64,6.51.23,12.95,2.41,19.41,3.8,12.58,2.71,24.73,6.69,36.33,12.36,12.07,5.9,23.66,12.53,33.53,21.75,6.03,5.63,11.82,11.65,15.11,19.35,3.15,7.38,4.89,14.82,3.14,23.32-1.67,8.16-5.63,15.19-8.23,22.84-.13.39-.42.75-.7,1.07-.2.23-.51.38-1.23.9ZM166,41.31c-3.95,0-5.14,1.38-4.29,4.22,1.33,4.4,2.8,8.75,4.31,13.08.34.99.85,2.32,1.64,2.65,1.41.59,3.22.98,4.59.56.73-.22,1.49-2.5,1.18-3.54-1.43-4.81-3.11-9.55-4.96-14.2-.51-1.27-1.92-2.18-2.47-2.77ZM337.51,57.59c1.47,6,2.64,11.31,4.12,16.53.69,2.44,2.78,2.59,5,2.03,2.57-.65,1.8-2.48,1.51-4.1-.42-2.41-.83-4.84-1.46-7.21-.76-2.85-1.62-5.69-2.66-8.46-.68-1.83-2.38-2.26-3.97-1.42-1.06.56-1.77,1.79-2.55,2.64ZM310.16,55.75c4.48.08,5.05-.61,4.36-3.93-.15-.73-.26-1.47-.44-2.19-1.06-4.22-2.06-8.46-3.22-12.65-.65-2.34-2.63-3.35-4.7-2.53-.91.36-1.74,2.56-1.56,3.77.81,5.24,1.87,10.46,3.18,15.6.26,1.02,2.01,1.66,2.37,1.94ZM352.97,70.13c1.39,6.18,2.5,11.48,3.8,16.74.55,2.21,2.22,3.03,4.45,2.47,2.44-.61,2.33-2.54,1.98-4.34-.97-5.01-2.11-9.99-3.12-14.99-.53-2.65-2.54-2.81-4.41-2.29-1.12.31-1.95,1.7-2.7,2.42ZM185.41,53.77c3.53.04,4.64-1.05,3.92-3.78-1.27-4.85-2.81-9.63-4.33-14.4-.24-.75-.89-1.76-1.53-1.92-1.45-.37-3.16-.69-4.48-.24-.74.25-1.55,2.33-1.25,3.22,1.74,5.15,3.73,10.22,5.8,15.25.37.91,1.49,1.51,1.88,1.88ZM158.86,70.56c-1.8-5.35-3.37-10.11-5.03-14.84-.31-.88-.78-1.85-1.48-2.41-.99-.81-2.43-1.95-3.35-1.71-.95.25-1.85,1.9-2.13,3.09-.27,1.12.16,2.48.53,3.65.6,1.91,1.39,3.77,2.14,5.63,1.03,2.57,1.91,5.23,3.23,7.64.41.74,2.14,1.27,3.09,1.07,1.1-.23,2-1.38,2.99-2.13ZM298.08,45.63c-1.53-5.81-2.78-11.08-4.37-16.24-.49-1.58-1.64-3.91-3.81-2.75-1.21.64-2.4,3-2.18,4.34.88,5.23,2.18,10.4,3.73,15.48.26.85,2.57,1.49,3.9,1.44.92-.04,1.79-1.43,2.73-2.26ZM121.06,129.07c-1.54-4.44-2.87-8.48-4.35-12.47-.76-2.06-2.13-3.57-4.63-2.88-2.62.72-2.81,2.85-2.21,4.89,1.12,3.78,2.23,7.62,4.01,11.1.65,1.27,3.12,1.92,4.86,2.17.62.09,1.54-1.82,2.32-2.82ZM125.08,79.39c1.73,4.6,3.05,8.88,5.03,12.83.54,1.08,3.07,1.17,4.69,1.72.4-1.34,1.4-2.84,1.09-4-1.06-4-2.53-7.9-3.92-11.8-.66-1.84-2.2-2.96-3.99-2.19-1.14.49-1.81,2.09-2.89,3.44ZM128.07,110.03c-1.79-4.79-3.27-9.25-5.18-13.51-.39-.86-2.46-1.47-3.64-1.31-.84.11-2.28,1.92-2.09,2.59,1.31,4.61,2.82,9.17,4.66,13.59.32.76,2.56,1.04,3.86.92.78-.07,1.46-1.34,2.38-2.28Z"/>
      <path class="cls-1" d="M335.94,283.59c1.25-1.37,2.49-2.73,3.74-4.1,4.94-5.4,7.12-11.52,4.88-18.78-2.34-7.57-10.78-13.37-18.47-12.72-3.11.26-4.96,1.98-5.35,4.96-.43,3.2.96,5.46,3.97,6.4,1.12.35,2.26.68,3.42.87,2.92.48,4.62,2,4.77,5.08.15,3.07-1.56,6.5-4.13,7.34-.82.27-2.2-.31-2.99-.93-2.7-2.1-5.23-4.41-7.86-6.6-9.68-8.06-28.58-9.32-39.3,2.2-1.83,1.96-3.81,2.29-6.34,2.09-7.23-.58-14.47-1.01-21.72-1.32-4.68-.2-4.78-.05-5.28-4.72-.24-2.29-1.15-3.55-3.53-3.67-2.33-.12-2.69,1.57-2.73,3.16-.11,3.77-2.06,5.02-5.55,4.56-.63-.08-1.28,0-1.93.01q-6.34.05-6.67-6.3c-.17-3.31-1.52-4.82-4.28-4.89-2.25-.05-3.44.64-3.67,3.24-.64,7.32-.72,6.98-7.79,5.77-3.92-.67-4.92-2.19-4.28-5.86.32-1.82-.01-3.86-.47-5.69-.56-2.22-2.35-3.7-4.55-2.89-1.16.42-2.24,2.34-2.46,3.73-.39,2.49-.11,5.08-.11,8.62-3.49-1.12-6.56-1.81-9.31-3.16-.84-.41-1.11-2.6-1.12-3.98-.03-3.61.31-7.22.35-10.83.02-1.85.77-2.73,2.38-3.68,1.43-.85,2.25-2.72,3.34-4.14-1.38-.92-2.65-2.25-4.17-2.69-5.32-1.53-10.71-2.85-16.12-4.03-2.71-.59-3.32-2.27-3.31-4.64.01-10.06,0-20.12,0-30.17,0-2.96,0-5.91,0-9.19,5.03,1.2,9.64,2.37,14.29,3.39,2.07.45,4.21.75,6.33.84,2.02.09,3.92-.37,4.17-2.95.26-2.65-1.41-3.62-3.61-4.02-1.79-.33-3.6-.67-5.4-.73-4.86-.16-9.17-1.94-13.31-4.27-2.71-1.52-2.86-2.52-.6-4.52,1.11-.99,2.28-2.19,3.64-2.58,6.96-1.98,13.93-4.06,21.02-5.42,3.98-.76,4.24-.11,4.01,3.91-.66,11.62,1.78,22.57,7.29,32.78,1.51,2.8,3.44,5.45,5.56,7.83,7.35,8.24,17.91,8.01,25.02-.48,1.96-2.35,3.59-4.98,5.62-7.82,1.3,1.61,2.45,2.99,3.55,4.39,7.98,10.16,20.89,9.53,27.95-1.28,5.89-9.02,7.85-19.06,7.98-29.61.03-2.68.09-5.36-.12-8.03-.19-2.52.82-3.29,3.17-2.9,8.32,1.39,16.73,2.4,24.95,4.23,6.33,1.41,12.48,3.7,18.63,5.84,2.99,1.04,3.16,2.95.61,4.9-4.64,3.56-10.32,3.92-15.78,4.81-2.52.41-5.12.43-7.69.54-1.84.08-3.12.55-3.02,2.77.09,2.08.66,3.61,3.07,3.63,6.85.07,13.65.26,20.18-2.66,4.71-2.11,5.61-1.29,5.61,3.87,0,11.23-.07,22.47.01,33.7.02,2.76-1.18,4.09-3.73,4.7-3.32.79-6.63,1.67-9.9,2.63-1.48.43-3.43.72-2.86,3.05.48,1.98,1.82,3.41,3.93,2.94,6.92-1.51,14.15-2.12,19.25-8.29,2.39-2.9,5.92-.65,8.75,0,1.09.25,1.98,2.64,2.43,4.21,3.03,10.46-.55,21.05.47,31.56.27,2.76.44,5.54.63,8.31.21,3.1-.93,5-4.28,5.64-3.53.68-6.96,1.89-10.43,2.86-.24-.28-.48-.55-.73-.83ZM288.84,235.28c.28-.32.56-.64.84-.95-.79-1.83-1.28-3.88-2.43-5.45-2.3-3.14-5.81-4.22-9.55-4.53-4.2-.35-5.36,1.41-3.78,5.39.6,1.52.82,3.19,1.22,4.79-1.85.21-3.7.45-5.55.59-.5.04-1.03-.27-1.55-.38-5.86-1.22-11.56-1.57-17.22,1.31-3.95,2.01-8.08,1.38-12.02-.65-1.4-.72-2.98-1.37-4.51-1.47-3.72-.24-7.46-.21-11.2-.14-6.1.1-6.02.15-6.01-5.75,0-1.14-.54-2.92-1.35-3.3-4.01-1.86-11.38,1.68-12.77,5.86-1.11,3.35.32,5.09,3.77,4.24,2.2-.55,3.69,0,5.07,1.65,2.32,2.78,5.28,3.76,8.89,3.29,2.86-.37,5.76-.46,8.64-.51,1.02-.02,2.08.36,3.06.72,4.1,1.48,8.16,3.1,12.29,4.48.9.3,2.13,0,3.09-.34,3.51-1.27,6.94-2.77,10.46-3.98,1.02-.35,2.28-.16,3.41-.02,4.18.51,8.35,1.2,12.54,1.58,1.04.09,2.68-.42,3.16-1.19,2.64-4.3,6.27-6.25,11.49-5.2ZM177.38,204.58s.08,0,.12,0c0,.85-.05,1.71,0,2.56.27,3.76.94,4.44,4.53,3.63,1.09-.25,2.47-1.67,2.68-2.75.44-2.27.23-4.67.19-7.02-.04-2.65-1.54-3.69-4.11-3.78-2.64-.1-2.9,1.67-3.14,3.52-.17,1.27-.19,2.55-.28,3.83ZM317.19,204.3c.26,2.1.19,3.78.73,5.24.44,1.19,1.84,3.09,2.39,2.96,1.31-.32,3.26-1.57,3.38-2.61.37-3.32.17-6.73-.16-10.08-.08-.84-1.61-2.26-2.27-2.15-1.17.19-2.65,1.11-3.16,2.14-.73,1.45-.7,3.29-.91,4.5Z"/>
      <path class="cls-3" d="M94.55,158.41c.38,1.23.79,2.46,1.12,3.71,3.57,13.33,7.03,26.69,13.88,38.85,6.5,11.54,12.8,23.22,22.11,32.86,11.55,11.96,24.67,21.59,40.05,28.31,16.09,7.04,32.97,10.42,50.24,11.84,15.66,1.28,31.4,1.61,47.11,2.12,3.32.11,5,.8,4.75,4.43-.1,1.43.2,3.18.99,4.32,2.51,3.62,2.86,7.64,3.27,11.82.54,5.55,4.59,8.92,8.54,12.31,1.14.98,1.68,2.65,2.49,4.01-1.48.81-2.96,2.32-4.44,2.33-15.84.07-31.69.17-47.52-.29-10.35-.3-20.73-1.09-30.99-2.46-8.33-1.11-16.5-3.39-24.75-5.15-1.67-.36-3.34-.74-5.02-1-2.39-.37-3.35-1.43-2.51-3.94.64-1.92,1.01-3.94,1.36-5.94,1.13-6.52-.35-12.13-5.96-16.16-2.72-1.95-4.76-4.28-6.59-7.2-2.75-4.38-7.49-6.39-12.5-7.76-2.21-.61-4.58-1.78-6.14-3.4-5.39-5.62-15.06-6.21-20.97-.95-3.24,2.89-3.88,3.12-6.15-.46-6.97-11.01-14.51-21.78-18.09-34.56-1.93-6.89-3.82-13.81-5.24-20.81-.82-4.05-.87-8.3-.94-12.46-.15-9.84-.15-19.68-.07-29.51.01-1.61.71-3.22,1.09-4.83.3,0,.6-.01.89-.02Z"/>
      <path class="cls-3" d="M386.24,94.93c.76,4.22,2.03,8.42,2.19,12.66.51,13.62-1.7,26.89-6.65,39.61-2.24,5.76-5,11.32-7.4,17.03-4.37,10.37-7.85,21.01-9.35,32.2-.63,4.75-1.4,9.52-1.46,14.29-.26,20.68,7.5,37.59,24.18,50.18,8.64,6.53,17.35,12.88,28.04,15.83,1.55.43,2.81,1.89,4.2,2.87-.11.39-.23.78-.34,1.16-3.87.33-7.74.74-11.62.98-10.69.66-21.4,1.4-31.79-2.25-4.44-1.56-8.84-3.22-13.25-4.84-3.54-1.3-5.22-3.79-5.18-7.6.09-9.83.02-19.67.13-29.5.09-8.11-1.72-10.65-9.54-12.78-.93-.25-1.88-.43-2.82-.6-6.01-1.07-6.37-1.78-6.24-7.78.23-10.78.15-21.57.25-32.36.02-2.12.36-4.25.27-6.36-.06-1.3-.31-2.84-1.08-3.79-1.37-1.71-1.26-2.99-.33-4.9,5.63-11.6,14.15-21.05,22.26-30.84,8.84-10.67,16.38-22.19,21.9-34.94,1.12-2.58,1.55-5.45,2.3-8.19.44-.03.88-.05,1.33-.08Z"/>
      <path class="cls-1" d="M258.45,207.1c1.01-1.46,2.14-2.76,2.9-4.25,5.5-10.81,4.59-21.46-1.02-31.94-.25-.47-.57-.91-.89-1.34-5.38-7.35-10.91-6.85-15,1.25-2.14,4.23-2.87,8.64-2.74,13.35.05,1.8-.67,3.68-1.28,5.43-1.01,2.92-1.94,5.93-3.41,8.63-2,3.7-4.44,7.18-6.77,10.69-.35.53-1.18.73-2.51,1.5.49-1.46.64-2.25,1-2.92,5.57-10.3,5.92-20.87,1.11-31.45-1.24-2.72-3.4-5.21-5.64-7.25-3.11-2.84-6.27-2.37-8.87.94-3.39,4.31-5.71,9.04-4.98,14.78.12.97-.07,1.98-.12,2.97-.38.06-.75.13-1.13.19-.95-3.41-2.21-6.78-2.75-10.26-.58-3.68-1.01-7.53-.56-11.19,1.09-8.83,1.96-17.75,7.14-25.56,5.93-8.95,12.58-5.63,17.51,0,2.35,2.68,3.65,6.26,5.61,9.31.98,1.53,2.36,2.81,3.56,4.2,1.18-1.57,2.63-3.02,3.5-4.75,1.96-3.89,3.19-8.2,5.52-11.83,3.8-5.92,8.89-6.52,14.42-2.12,6.01,4.78,8.49,11.75,10.41,18.75,3.59,13.08,3.08,26.25-.36,39.33-1.42,5.42-3.97,10.16-8.57,13.57-1.93,1.43-3.95,2.09-6.09-.02Z"/>
      <path class="cls-4" d="M167.62,311.49c2.23.48,3.92.71,5.52,1.22,14.58,4.57,29.59,6.87,44.77,7.9,8.96.61,17.97.6,26.96.64,15.62.08,31.24-.02,46.86-.02.85,0,1.76-.03,2.52.27,13.26,5.24,24.19,2.59,33.57-8.19.61-.7,1.28-1.34,2.7-1.81,0,.98-.01,1.96,0,2.94.06,4.9,0,9.81.26,14.7.1,1.95-.13,3.38-2.1,4.08-10.82,3.84-21.79,6.97-33.36,7.52-2.5.12-3.82-.76-4.62-3.29-2.54-8.05-11.83-16.6-21.35-14.16-6.44,1.65-11.9,5.57-14.88,12-.54,1.16-.95,2.39-1.34,3.61-1.77,5.49-1.77,5.59-7.68,5.48-8.77-.17-17.55-.44-26.31-.83-.78-.03-1.83-1.11-2.2-1.94-1.8-4.07-2.96-8.48-5.17-12.3-7.11-12.28-25.41-9.49-31.45,1-1.41,2.46-2.04,5.5-6.24,3.96-5.6-2.05-7.4-4-6.81-8.78.27-2.23.82-4.44.89-6.68.07-2.2-.31-4.42-.55-7.32Z"/>
      <path class="cls-4" d="M387.46,251.2c8.66-1.27,17.13-2.26,25.5-3.84,5.94-1.12,11.74-3.03,17.6-4.59.52-.14,1.02-.41,1.54-.44,5.57-.29,10.23-3.24,15.14-5.35,4.92-2.12,6.69-2.06,10.27,1.76,2.25,2.4,4.93,3.3,8.07,3.06,1.75-.13,2.69.36,3.23,2.2.5,1.71,1.32,3.57,2.58,4.73,1.16,1.06,3.09,1.71,4.7,1.76,2.85.09,4.69.75,5.85,3.73.89,2.29,2.9,4.16,4.73,6.63-18.01,9.5-35.88,18.59-57.34,12.74-19.28-5.25-39.7-15.9-41.86-22.39ZM459.95,260.62c-.72-1.23-1.19-2.74-2.2-3.65-3.32-3-6.84-5.79-10.28-8.66-1.62-1.34-3.36-2.15-5.09-.33-1.8,1.89-.23,3.59.94,4.73,3.43,3.35,7.09,6.46,10.73,9.58.69.59,1.69.92,2.61,1.11,2.01.43,3.1-.37,3.29-2.78ZM442.85,265.42c-.08-.23-.11-.77-.39-1.01-4.63-3.92-9.24-7.88-14.05-11.57-.48-.37-2.4.85-3.41,1.64-.39.3-.47,1.82-.12,2.15,4.39,4.05,8.79,8.12,13.41,11.9,1.79,1.46,4.63-.52,4.56-3.11Z"/>
      <path class="cls-1" d="M291.73,304.04c-2-1.91-4.1-3.45-5.58-5.45-2.89-3.9-1.81-8.41,2.6-10.44,3.17-1.46,6.63-2.38,10.04-3.18,2.26-.54,3.34-1.47,3.23-3.87-.12-2.62-1.99-3.17-3.76-2.79-3.92.83-7.73,2.14-11.59,3.25-1.53.44-3.07.85-4.6,1.28-.35-1.92-1.24-3.93-.94-5.74.67-4.01,3.35-6.88,6.78-8.92,7.63-4.53,15.38-4.89,23.06-.18,11.64,7.14,19.46,21.3,13.79,36.46-3.24,8.68-12.54,14.88-21.67,13.49-2.24-.34-4.59-1.85-6.26-3.47-1.98-1.93-1.92-4.75.29-6.57,2.36-1.94,5.17-3.33,7.82-4.9.91-.54,2.28-.65,2.82-1.4.86-1.19,1.46-2.73,1.61-4.19.04-.36-2.03-1.35-3.13-1.36-4.89-.05-8.64,2.62-12.21,5.57-.65.54-1.18,1.22-2.32,2.42Z"/>
      <path class="cls-1" d="M117.24,284.28c-.24-9.11,3.98-15.41,12.18-18.9,1.94-.83,4.66-.78,6.73-.16,3.45,1.03,4.44,3.89,2.82,7.13-1.18,2.37-2.78,4.53-4.22,6.76-.58.89-1.61,1.65-1.8,2.59-.26,1.35-.46,3.35.29,4.08.7.69,3.27.66,3.96-.06,2.68-2.79,5.3-5.77,7.29-9.08,3.11-5.18,4.35-5.69,9.64-2.38,4.09,2.56,5.11,6.94,2.1,10.66-2.2,2.72-4.87,5.06-7.4,7.5-1.36,1.31-3.56,2.49-1.8,4.63,1.63,1.98,4.17,2,6.06.36,2.98-2.57,5.59-5.56,8.46-8.26,1.1-1.03,2.84-2.72,3.64-2.42,1.3.5,2.48,2.25,2.99,3.72,1.97,5.66-.62,10.25-4.16,14.33-5.14,5.93-11.87,8.15-19.58,7.53-13.53-1.08-23.44-8.61-26.53-22-.45-1.96-.46-4.03-.67-6.04Z"/>
      <path class="cls-3" d="M167.7,400.13c-3.3,0-6.61.13-9.9-.09-.88-.06-1.68-1.16-2.52-1.78.7-.64,1.29-1.63,2.11-1.88,8.4-2.59,16.86-1.87,25.28-.09.95.2,1.7,1.33,2.55,2.03-.94.47-1.86,1.27-2.83,1.35-4.88.38-9.77.58-14.66.84,0-.13,0-.25-.01-.38Z"/>
      <path class="cls-3" d="M227.11,405.39c3.26-6.21,28.57-6.03,32.6,0h-32.6Z"/>
      <path class="cls-4" d="M268.71,344.51c-3.78.18-4.44-.63-3.46-3.49,1.03-3.04,3.53-5.09,6.36-5.11,2.18-.02,4.81,1.59,6.44,3.26,1.85,1.88.86,3.65-1.8,4.13-2.73.49-5.48.89-7.54,1.22Z"/>
      <path class="cls-4" d="M195.92,333.27c3.5-.02,7.1,2.67,7.57,5.57.11.65-1,2.15-1.55,2.14-2.55-.02-5.15-.21-7.63-.78-1.24-.28-3.31-1.75-3.19-2.26.35-1.48,1.46-2.88,2.57-4.02.57-.58,1.79-.53,2.22-.64Z"/>
      <path class="cls-2" d="M276.41,433.26c5.43-.71,6.12-.52,6.89,5.23,1.2,8.96,13.21,17.58,23.44,12.35,5.34-2.73,9.55-6.42,9.48-13.26-.01-1.44.88-3.57,2.01-4.21,3.63-2.03,5.66-.57,5.71,3.63.12,9.85-9.96,21.28-19.94,22.56-8.91,1.14-16.52-1.34-22.38-8.34-1.71-2.04-2.83-2.24-4.64.09-5.64,7.3-15.86,10.65-24.47,7.69-9.22-3.17-14.85-9.84-16.63-19.48-.4-2.19-.96-4.8,1.74-6.3,2.29-1.27,3.51-.71,4.2,1.82.75,2.77,1.23,5.68,2.43,8.25,3.04,6.45,11.78,10.39,19.08,8.71,5.17-1.19,12.63-6.77,12.62-14.83,0-1.26.28-2.51.45-3.89Z"/>
      <path class="cls-2" d="M379.38,391.15c-.82.99-1.43,1.84-2.14,2.6-6.16,6.62-13.33,10.9-22.75,8.61-10.2-2.47-16.94-8.75-19.36-19.16-.35-1.52-.21-3.18-.11-4.77.11-1.68.57-3.2,2.78-3.18,2.06.01,3.34.79,4.02,2.89,1.19,3.71,2.04,7.73,4.12,10.91,3.97,6.06,10.74,7.54,18.89,5.38,4.81-1.28,10.69-7.92,10.41-13.68-.05-1.13.13-2.57.8-3.36.86-1.02,2.27-1.96,3.54-2.1.83-.09,2,1.17,2.69,2.08.54.71.65,1.8.79,2.74,1.66,10.86,8.94,16.45,19.74,14.83,6.41-.97,10.46-5.01,12.56-11.01.67-1.91.9-3.97,1.6-5.87.38-1.04,1.7-2.76,1.91-2.66,1.52.69,3.31,1.48,4.12,2.8.64,1.05.15,2.9-.07,4.36-1.49,9.92-8.75,17.27-19.4,19.75-8.8,2.04-17.04-1.38-22.79-9.46-.35-.5-.77-.95-1.36-1.68Z"/>
      <path class="cls-2" d="M142.29,439.58c-7.55-.76-14.56-2.47-18.88-9.61-1.3-2.15-2.63-1.02-3.9.13-2.06,1.85-4,3.87-6.2,5.52-13.03,9.79-32.57-.47-35.02-13.17-.36-1.89-.96-3.73-1.29-5.63-.58-3.22.28-4.17,3.52-4.72,3.04-.52,3.69,1.12,3.85,3.62.83,13.2,13.56,18.97,22.81,15.34,6.76-2.65,9.82-8.18,10.88-15.08.17-1.12.39-2.42,1.07-3.23,1.5-1.8,4.3-1.2,5.14,1.06.63,1.69,1.08,3.49,1.35,5.27.95,6.19,6.48,12.03,13.88,12.5,6.45.42,12.35-.19,15.87-6.36,1.42-2.49,2.24-5.46,2.73-8.32.63-3.67,1.45-4.87,4.35-4.53,3,.34,3.94,2,3.29,5.65-1.89,10.67-8.77,17.01-18.35,20.89-1.53.62-3.36.47-5.09.67Z"/>
      <path class="cls-2" d="M411.01,436.25c-.05-4.67,1.06-6.16,4.19-5.13,1.04.34,2.01,1.46,2.58,2.46.55.97.65,2.26.74,3.42.46,6.05,4,9.96,9.27,12.03,8.51,3.34,17.79,1.61,22.12-7.52.96-2.03,1.04-4.52,1.33-6.82.32-2.54,1.31-3.84,4.15-3.53,2.75.29,3.89,1.66,3.51,4.23-1.48,9.91-6.01,18.03-17.79,21.84-13.08,4.23-25.42-5.12-29.2-15.97-.55-1.58-.61-3.34-.89-5.01Z"/>
      <path class="cls-2" d="M166,41.31c.55.59,1.97,1.5,2.47,2.77,1.85,4.66,3.54,9.4,4.96,14.2.31,1.04-.46,3.32-1.18,3.54-1.37.42-3.18.02-4.59-.56-.79-.33-1.3-1.67-1.64-2.65-1.5-4.34-2.98-8.69-4.31-13.08-.86-2.84.33-4.22,4.29-4.22Z"/>
      <path class="cls-2" d="M337.51,57.59c.78-.84,1.49-2.08,2.55-2.64,1.59-.84,3.29-.41,3.97,1.42,1.03,2.77,1.9,5.6,2.66,8.46.63,2.37,1.03,4.8,1.46,7.21.28,1.62,1.06,3.45-1.51,4.1-2.22.57-4.31.41-5-2.03-1.48-5.22-2.65-10.53-4.12-16.53Z"/>
      <path class="cls-2" d="M310.16,55.75c-.36-.28-2.12-.92-2.37-1.94-1.31-5.14-2.37-10.36-3.18-15.6-.19-1.2.64-3.41,1.56-3.77,2.07-.82,4.05.19,4.7,2.53,1.17,4.19,2.17,8.43,3.22,12.65.18.72.29,1.46.44,2.19.69,3.32.12,4.01-4.36,3.93Z"/>
      <path class="cls-2" d="M352.97,70.13c.76-.72,1.58-2.11,2.7-2.42,1.87-.52,3.87-.36,4.41,2.29,1.01,5,2.15,9.98,3.12,14.99.35,1.81.46,3.73-1.98,4.34-2.23.56-3.91-.26-4.45-2.47-1.3-5.26-2.41-10.56-3.8-16.74Z"/>
      <path class="cls-2" d="M185.41,53.77c-.38-.37-1.5-.97-1.88-1.88-2.07-5.03-4.06-10.1-5.8-15.25-.3-.89.51-2.96,1.25-3.22,1.33-.46,3.03-.14,4.48.24.65.17,1.29,1.17,1.53,1.92,1.52,4.78,3.06,9.56,4.33,14.4.71,2.73-.39,3.82-3.92,3.78Z"/>
      <path class="cls-2" d="M158.86,70.56c-.99.75-1.89,1.9-2.99,2.13-.95.2-2.69-.33-3.09-1.07-1.32-2.41-2.21-5.07-3.23-7.64-.75-1.87-1.53-3.72-2.14-5.63-.37-1.17-.8-2.54-.53-3.65.28-1.19,1.19-2.85,2.13-3.09.92-.24,2.36.9,3.35,1.71.69.57,1.17,1.53,1.48,2.41,1.65,4.73,3.22,9.49,5.03,14.84Z"/>
      <path class="cls-2" d="M298.08,45.63c-.94.83-1.81,2.22-2.73,2.26-1.33.05-3.64-.59-3.9-1.44-1.55-5.07-2.85-10.25-3.73-15.48-.23-1.34.97-3.7,2.18-4.34,2.17-1.16,3.33,1.17,3.81,2.75,1.59,5.17,2.84,10.44,4.37,16.24Z"/>
      <path class="cls-2" d="M121.06,129.07c-.78,1-1.7,2.91-2.32,2.82-1.74-.25-4.21-.9-4.86-2.17-1.77-3.48-2.89-7.32-4.01-11.1-.6-2.04-.41-4.18,2.21-4.89,2.5-.68,3.87.83,4.63,2.88,1.48,3.99,2.81,8.03,4.35,12.47Z"/>
      <path class="cls-2" d="M125.08,79.39c1.08-1.35,1.75-2.95,2.89-3.44,1.79-.77,3.33.34,3.99,2.19,1.4,3.91,2.87,7.8,3.92,11.8.31,1.16-.69,2.65-1.09,4-1.62-.55-4.15-.64-4.69-1.72-1.98-3.95-3.29-8.23-5.03-12.83Z"/>
      <path class="cls-2" d="M128.07,110.03c-.93.94-1.6,2.21-2.38,2.28-1.3.12-3.55-.17-3.86-.92-1.84-4.41-3.36-8.98-4.66-13.59-.19-.67,1.25-2.48,2.09-2.59,1.18-.16,3.25.45,3.64,1.31,1.91,4.26,3.4,8.71,5.18,13.51Z"/>
      <path class="cls-2" d="M288.84,235.28c-5.22-1.05-8.85.9-11.49,5.2-.48.78-2.12,1.29-3.16,1.19-4.19-.38-8.36-1.07-12.54-1.58-1.13-.14-2.39-.33-3.41.02-3.53,1.22-6.95,2.71-10.46,3.98-.96.35-2.19.64-3.09.34-4.14-1.38-8.19-3-12.29-4.48-.98-.36-2.04-.73-3.06-.72-2.88.05-5.78.14-8.64.51-3.61.47-6.57-.51-8.89-3.29-1.38-1.65-2.87-2.2-5.07-1.65-3.45.85-4.87-.88-3.77-4.24,1.38-4.18,8.76-7.72,12.77-5.86.81.37,1.35,2.16,1.35,3.3,0,5.9-.08,5.85,6.01,5.75,3.73-.06,7.48-.09,11.2.14,1.53.1,3.12.75,4.51,1.47,3.95,2.03,8.08,2.66,12.02.65,5.65-2.87,11.36-2.53,17.22-1.31.52.11,1.05.42,1.55.38,1.85-.14,3.7-.39,5.55-.59-.4-1.6-.62-3.27-1.22-4.79-1.58-3.98-.42-5.74,3.78-5.39,3.74.31,7.25,1.39,9.55,4.53,1.15,1.57,1.64,3.62,2.43,5.45-.28.32-.56.64-.84.95Z"/>
      <path class="cls-2" d="M177.38,204.58c.09-1.28.12-2.56.28-3.83.24-1.85.49-3.62,3.14-3.52,2.58.09,4.07,1.13,4.11,3.78.04,2.35.24,4.75-.19,7.02-.21,1.08-1.6,2.5-2.68,2.75-3.59.82-4.26.13-4.53-3.63-.06-.85,0-1.71,0-2.56-.04,0-.08,0-.12,0Z"/>
      <path class="cls-2" d="M317.19,204.3c.21-1.21.18-3.04.91-4.5.52-1.03,1.99-1.95,3.16-2.14.66-.11,2.18,1.31,2.27,2.15.33,3.34.53,6.76.16,10.08-.12,1.05-2.07,2.29-3.38,2.61-.55.14-1.95-1.77-2.39-2.96-.54-1.46-.47-3.15-.73-5.24Z"/>
      <path class="cls-2" d="M459.95,260.62c-.19,2.42-1.29,3.21-3.29,2.78-.91-.19-1.92-.52-2.61-1.11-3.64-3.12-7.3-6.23-10.73-9.58-1.17-1.14-2.74-2.84-.94-4.73,1.73-1.82,3.47-1.01,5.09.33,3.44,2.87,6.96,5.66,10.28,8.66,1.01.91,1.48,2.41,2.2,3.65Z"/>
      <path class="cls-2" d="M442.85,265.42c.07,2.58-2.77,4.57-4.56,3.11-4.62-3.78-9.02-7.84-13.41-11.9-.36-.33-.27-1.85.12-2.15,1.02-.78,2.93-2,3.41-1.64,4.81,3.69,9.42,7.65,14.05,11.57.28.24.3.78.39,1.01Z"/>
    </g>
  </g>
</svg>