<?xml version="1.0" encoding="UTF-8"?>
<svg id="Capa_2" data-name="Capa 2" xmlns="http://www.w3.org/2000/svg" viewBox="0 0 439.9 383.94">
  <defs>
    <style>
      .cls-1 {
        fill: #ece9da;
      }

      .cls-1, .cls-2, .cls-3, .cls-4, .cls-5, .cls-6, .cls-7, .cls-8, .cls-9 {
        stroke-width: 0px;
      }

      .cls-2 {
        fill: #ffeab8;
      }

      .cls-2, .cls-3, .cls-4, .cls-5, .cls-6, .cls-7, .cls-9 {
        fill-rule: evenodd;
      }

      .cls-3 {
        fill: #9d87cc;
      }

      .cls-4 {
        fill: #ff814e;
      }

      .cls-5 {
        fill: #d1b26b;
      }

      .cls-6 {
        fill: #ffdd8c;
      }

      .cls-7 {
        fill: #010052;
      }

      .cls-8 {
        fill: #232323;
      }

      .cls-9 {
        fill: #bda1ec;
      }
    </style>
  </defs>
  <g id="Capa_1-2" data-name="Capa 1">
    <g>
      <g>
        <path class="cls-1" d="M111.55,251.83c-1.39,2.82-4.32,7.43-8.25,6.69-1.97-.38-3.16-1.77-3.83-2.87-1.27-2.09-1.65-4.9-.97-7.14.52-1.73-.45-3.54-2.18-4.07-1.73-.52-3.54.46-4.06,2.19-1.21,3.98-.59,8.74,1.62,12.39,1.21,1.99,2.81,3.56,4.67,4.6-1.01,1.86-3.06,4.06-7.17,4.06h-.02c-.06.02-.09,0-.14,0-3.37.15-5.77-.69-7.27-2.58-3.56-4.43-2.06-13.86-1.2-17.11.47-1.74-.55-3.52-2.29-3.99-1.74-.47-3.53.55-4.01,2.29-.38,1.42-3.38,13.28,1.24,21.2-4.18.01-7.31-.84-9.26-2.6-3.23-2.9-4.02-8.03-2.47-16.15.35-1.76-.82-3.48-2.59-3.81-1.77-.33-3.48.82-3.82,2.59-.91,4.79-1.62,11.07.54,16.46-2.42-.87-4.18-2.77-4.98-5.56-3.58-12.39,3.95-29.99,15.49-36.22,9.38-5.05,21.28-4.76,29.62.71,7.29,4.8,15.59,20.29,11.32,28.91Z"/>
        <path class="cls-1" d="M428.7,254.87c-1.89,1.96-4.42,3.06-7.68,3.34,3.82-4.05,6.2-9.71,6.62-15.99.12-1.8-1.24-3.35-3.04-3.46-1.81-.15-3.35,1.24-3.48,3.04-.4,6.18-3.4,11.68-7.81,14.36-2.81,1.7-6,2.2-9.36,1.47.36-.31.71-.63,1.06-.99,6.82-7.02,6.2-20.37,6.17-20.93-.09-1.74-1.53-3.1-3.25-3.1-.06,0-.13,0-.18.01-1.8.09-3.18,1.62-3.08,3.43.16,3.05-.3,11.89-4.34,16.04-1.55,1.6-3.52,2.35-6.11,2.28h-.01c-4.06,0-6.34-2.28-7.58-4.38,1.83-.56,3.14-1.53,4.02-2.44,4.66-4.85,3.43-13.72,3.28-14.71-.28-1.78-1.96-2.99-3.73-2.72-1.77.26-2.99,1.93-2.73,3.72.26,1.7.53,7.05-1.53,9.2-.48.49-1.36,1.09-3.43.87-.05,0-.09-.01-.15-.01-3.28-.4-5.65-1.85-7.05-4.3-2.38-4.15-1.82-10.89,1.53-18.47,7.1-16.05,22.64-15.64,31.26-13.96,13.22,2.57,24.51,14.74,25.18,27.14.54,9.97-.99,16.89-4.57,20.57Z"/>
        <path class="cls-1" d="M308.72,63.06c-3.67-.58-7.43-1.12-11.22-1.62-.13,8.98-1.74,30.64-13.55,42.1-4.86,4.73-10.8,7.12-17.65,7.12h-.47c-10.54-.17-17.49-8.16-21.59-15.28-4.94,8.37-13.36,16.17-25.6,14.03-18.72-3.27-26.82-27.33-26.85-51.09-2.32.3-4.6.61-6.82.96-27.34,4.21-35.88,10.17-36.57,12.74-.28,1.04-.15,1.76.44,2.57,3.63,4.96,19.23,7.85,29.15,8.32,2.7.13,4.79,2.42,4.66,5.12-.13,2.69-2.42,4.81-5.11,4.65-3.69-.16-19-1.19-29.28-6.48v49.17c2.15,2.34,6.36,6.03,10.46,6.32,2.69.2,4.72,2.53,4.52,5.22-.18,2.58-2.32,4.55-4.87,4.55-.13,0-.24,0-.36-.01-7.22-.52-13.12-5.48-16.23-8.68-2.05,1.08-4.72,3.67-4.98,9.87-.48,11.54-.16,39.89-.03,49.1,6.99,3.34,28.79,12.28,58.91,10.46,2.69-.14,5.02,1.9,5.18,4.59s-1.9,5.02-4.59,5.18c-2.99.18-5.93.26-8.76.26-16.04,0-29.4-2.69-39.26-5.65v45.01c1.09,2.21,11.8,18.45,89.54,19.94,75.67,1.44,104.28-11.84,111.24-15.94v-51.09c-1.32-.78-4.38-1.97-10.51-1.84-7.35,3.97-21.08,8.36-46.53,9.56h-.24c-2.59,0-4.75-2.04-4.88-4.66-.13-2.69,1.96-4.99,4.66-5.12,22.44-1.07,34.43-4.65,40.59-7.54.82-1.06,2.05-1.8,3.48-1.91.78-.51,1.35-.94,1.74-1.29v-50.75c-2.09.31-4.35.49-6.79.49-2.7,0-4.89-2.19-4.89-4.89s2.19-4.89,4.89-4.89c9.99,0,16-3.63,18.48-5.54v-48.2c-10.01,4.28-24.78,4.79-31.12,4.79-1.37,0-2.34-.02-2.79-.03-2.7-.08-4.83-2.34-4.75-5.04.08-2.69,2.32-4.81,5.04-4.74,10.17.3,28.21-1.1,33.38-6.12.37-.36.6-.67.74-.96.03-.07.07-.14.09-.21.08-.2.12-.38.13-.55-.55-.85-5.41-6.39-41.03-12ZM166.4,118.62c0,2.7-2.19,4.89-4.89,4.89s-4.89-2.19-4.89-4.89v-12.26c0-2.7,2.19-4.9,4.89-4.9s4.89,2.2,4.89,4.9v12.26ZM186.76,189.51c0,2.7-2.19,4.89-4.89,4.89s-4.89-2.19-4.89-4.89v-12.26c0-2.7,2.19-4.9,4.89-4.9s4.89,2.2,4.89,4.9v12.26ZM195.58,248.13c0,2.7-2.19,4.89-4.89,4.89s-4.89-2.19-4.89-4.89v-12.26c0-2.7,2.19-4.89,4.89-4.89s4.89,2.19,4.89,4.89v12.26ZM312.1,235.88c0-2.7,2.2-4.89,4.9-4.89s4.89,2.19,4.89,4.89v12.26c0,2.7-2.2,4.89-4.89,4.89s-4.9-2.19-4.9-4.89v-12.26ZM327.44,108.75c0-2.7,2.19-4.89,4.89-4.89s4.89,2.19,4.89,4.89v12.27c0,2.7-2.19,4.89-4.89,4.89s-4.89-2.19-4.89-4.89v-12.27ZM212.62,194.34c0,2.7-2.2,4.9-4.89,4.9s-4.9-2.2-4.9-4.9v-12.26c0-2.7,2.2-4.89,4.9-4.89s4.89,2.19,4.89,4.89v12.26ZM224.37,253.28c0,2.7-2.19,4.89-4.89,4.89s-4.89-2.19-4.89-4.89v-12.27c0-2.69,2.19-4.89,4.89-4.89s4.89,2.2,4.89,4.89v12.27ZM274.53,222.12c-9.38,1.93-17.68,2.58-24.59,2.58-13.72,0-22-2.53-22.52-2.7-2.58-.81-4.01-3.56-3.2-6.13.82-2.57,3.54-4.01,6.12-3.2.29.08,17.02,5.04,42.23-.13,2.65-.54,5.24,1.16,5.78,3.81.54,2.66-1.16,5.24-3.81,5.78ZM287.25,194.34c0,2.7-2.19,4.9-4.89,4.9s-4.89-2.2-4.89-4.9v-12.26c0-2.7,2.19-4.89,4.89-4.89s4.89,2.19,4.89,4.89v12.26ZM298.84,142.61c-.76.41-1.58.61-2.37.61-1.73,0-3.4-.9-4.28-2.51-.02-.03-.05-.07-.07-.1-1.29,1.8-3.37,4.17-6.71,6.84-6.31,5.04-13.42,2.06-17.65.28-.79-.32-1.83-.76-2.39-.92-.76.23-2.32.91-3.5,1.43-4.21,1.83-9.93,4.33-15.64,4.33-2.44,0-4.88-.46-7.19-1.62-7.26-3.63-9.15-4.13-19.01-3.04-10.42,1.16-14.71-3.38-17.02-5.83-.21-.22-.49-.51-.64-.66-.59-.33-1.07-.78-1.46-1.29-.02.15-.03.25-.03.25-.15,2.6-2.3,4.63-4.88,4.63-.09,0-.18-.01-.28-.01-2.7-.15-4.76-2.46-4.61-5.16.03-.69.51-6.78,5.33-10.68,2.18-1.76,6.04-3.65,12.07-2.7,2.67.43,4.49,2.93,4.07,5.6-.24,1.48-1.14,2.69-2.34,3.42,1.63,1.73,3.27,3.3,8.71,2.7,11.31-1.25,15.2-.62,24.47,4.02,3.65,1.82,10.21-1.04,14.55-2.93,3.05-1.32,5.26-2.29,7.37-2.29s4.1.85,6.23,1.74c4.14,1.74,6.25,2.31,7.76,1.1,1.73-1.38,2.95-2.6,3.8-3.57-.55-.14-1.09-.25-1.59-.33-2.66-.47-4.44-3-3.97-5.66.47-2.67,3-4.44,5.66-3.98,2.26.4,13.66,2.73,17.54,9.7,1.31,2.36.46,5.34-1.9,6.65ZM310.75,175.95v12.27c0,2.7-2.19,4.89-4.89,4.89s-4.89-2.19-4.89-4.89v-12.27c0-2.7,2.19-4.89,4.89-4.89s4.89,2.19,4.89,4.89Z"/>
        <path class="cls-8" d="M439.78,233.94c-.83-15.46-14.2-30.04-30.44-33.19-.85-.16-1.67-.29-2.5-.4l.12-.05c-11.87-32.47-48.24-43.99-59.82-46.89v-5.1c6.74-2.79,10.17-6.44,10.4-6.69.82-.91,1.28-2.08,1.28-3.3v-59.42c.47-1.29.73-2.65.73-4.05,0-9.47-13.43-15.55-46.33-20.98-5.11-.85-10.4-1.61-15.73-2.32.1,3.9.07,7.26.03,9.7,0,.06,0,.12-.01.18,3.79.51,7.55,1.05,11.22,1.62,35.62,5.62,40.48,11.15,41.03,12-.01.17-.05.36-.13.55-.02.07-.06.14-.09.21-.14.29-.37.6-.74.96-5.17,5.02-23.2,6.42-33.38,6.12-2.72-.07-4.96,2.05-5.04,4.74-.08,2.7,2.05,4.96,4.75,5.04.45.01,1.42.03,2.79.03,6.34,0,21.11-.51,31.12-4.79v48.2c-2.49,1.91-8.49,5.54-18.48,5.54-2.7,0-4.89,2.19-4.89,4.89s2.19,4.89,4.89,4.89c2.44,0,4.7-.18,6.79-.49v50.75c-.39.35-.96.78-1.74,1.29-.86.58-2,1.22-3.48,1.91-6.16,2.89-18.15,6.47-40.59,7.54-2.7.13-4.79,2.43-4.66,5.12.13,2.62,2.29,4.66,4.88,4.66h.24c25.45-1.21,39.18-5.59,46.53-9.56,6.12-.13,9.18,1.06,10.51,1.84v51.09c-6.96,4.1-35.57,17.38-111.24,15.94-77.74-1.5-88.44-17.73-89.54-19.94v-45.01c9.85,2.96,23.21,5.65,39.26,5.65,2.83,0,5.77-.08,8.76-.26,2.69-.16,4.75-2.49,4.59-5.18s-2.49-4.73-5.18-4.59c-30.12,1.82-51.93-7.12-58.91-10.46-.13-9.21-.45-37.55.03-49.1.26-6.2,2.93-8.79,4.98-9.87,3.11,3.2,9.01,8.16,16.23,8.68.12.01.23.01.36.01,2.54,0,4.68-1.97,4.87-4.55.2-2.69-1.83-5.03-4.52-5.22-4.1-.29-8.31-3.98-10.46-6.32v-49.17c10.28,5.29,25.58,6.32,29.28,6.48,2.69.16,4.98-1.96,5.11-4.65.13-2.7-1.96-4.99-4.66-5.12-9.92-.47-25.53-3.36-29.15-8.32-.59-.81-.71-1.53-.44-2.57.69-2.57,9.23-8.53,36.57-12.74,2.22-.35,4.5-.66,6.82-.96,0-1.43.02-2.85.08-4.27.07-1.88.21-3.76.38-5.64-2.99.36-5.94.76-8.78,1.2-40.87,6.28-43.62,16.5-44.53,19.86-.61,2.27-.62,4.48-.08,6.56-.25.6-.39,1.24-.39,1.93v55.55c-5.09,2.23-10.99,7.7-11.44,18.71-.14,3.12-.21,7.35-.24,12.07-14.67,3.43-37.83,20.92-43.2,47.76-5.5.23-11.04,1.68-16.08,4.4-14.18,7.65-23.07,28.51-18.67,43.77,1.96,6.76,7.47,10.86,14.5,10.86.24,0,.48-.01.73-.02.46-.01.9-.13,1.28-.31,3.08,2.2,7.15,3.28,12.29,3.28,2.27,0,4.75-.22,7.45-.63,1.54.49,3.33.83,5.46.83.29,0,.59-.01.9-.02,7.91-.01,11.98-5.02,13.64-9.14,4.81-.4,9.2-4.02,12.34-10.35,6.03-12.19-4.1-31-13.6-37.25-1.34-.89-2.75-1.66-4.2-2.32,3.68-18.13,18.46-30,27.18-33.82.06,11.98.22,22.66.23,23.49.03,1.71.96,3.29,2.44,4.15.36.21,3.51,2,9.01,4.2v49.17c0,.18.01.38.03.58.43,3.65,5.43,19.35,58.1,25.77-.18,11.23.68,20.98,2.61,29.16-6.93,3.53-8.53,9.72-8.53,9.72,0,0,10.62,4.29,16.93,9.52,1.66,1.38,3.02,2.81,3.81,4.26,1.05,1.91,1.09,3.83-.51,5.62-7.38,8.23-7.31,2.93-16.71-5.88-8.62-4.93-19.78-7.37-30.48-6.56-11.01.83-21.53,5.09-28.29,13.61-13.52,17.04-3.79,29.38-3.79,29.38h222.27s11.75-12.34-12.87-35.85c-16.98-13.51-44.6-3.52-44.6-3.52,0,0-7.64,2.57-11.75,7.75-4.11,5.18-15.09,5.77-8.72-5.4,6.38-9.4,13.42-11.75,13.42-11.75,0,0,4.25-6.96-4.02-10.68,2.19-11.59.68-23.51-.05-27.99,54.02-4.29,70.82-17.38,71.66-18.07,1.14-.93,1.81-2.32,1.81-3.8v-55.83c0-.84-.22-1.66-.62-2.39-.56-.99-3.19-4.8-11.06-6.4v-33.28c10.82,3.23,32.89,11.96,42.51,31.05-8.4,2.58-14.92,8.38-18.79,17.12-4.26,9.64-4.7,18.29-1.22,24.35,2.08,3.65,5.54,6.13,9.85,7.16,1.63,4.66,6.02,10.91,14.64,10.91h.48c.59,0,1.15-.03,1.7-.09.31.73.89,1.35,1.67,1.69,2.98,1.32,6,1.98,8.92,1.98s5.83-.68,8.48-2.03c.39,1.32,1.59,2.32,3.05,2.36.24.01.49.01.74.01,5.95,0,10.73-1.82,14.21-5.41,4.96-5.1,7.05-13.43,6.4-25.47ZM100.23,222.92c7.29,4.8,15.59,20.29,11.32,28.91-1.39,2.82-4.32,7.43-8.25,6.69-1.97-.38-3.16-1.77-3.83-2.87-1.27-2.09-1.65-4.9-.97-7.14.52-1.73-.45-3.54-2.18-4.07-1.73-.52-3.54.46-4.06,2.19-1.21,3.98-.59,8.74,1.62,12.39,1.21,1.99,2.81,3.56,4.67,4.6-1.01,1.86-3.06,4.06-7.17,4.06h-.02c-.06.02-.09,0-.14,0-3.37.15-5.77-.69-7.27-2.58-3.56-4.43-2.06-13.86-1.2-17.11.47-1.74-.55-3.52-2.29-3.99-1.74-.47-3.53.55-4.01,2.29-.38,1.42-3.38,13.28,1.24,21.2-4.18.01-7.31-.84-9.26-2.6-3.23-2.9-4.02-8.03-2.47-16.15.35-1.76-.82-3.48-2.59-3.81-1.77-.33-3.48.82-3.82,2.59-.91,4.79-1.62,11.07.54,16.46-2.42-.87-4.18-2.77-4.98-5.56-3.58-12.39,3.95-29.99,15.49-36.22,9.38-5.05,21.28-4.76,29.62.71ZM269.21,315.81h-.37c-7.64,2.36-11.75,4.71-11.75,4.71l-16.37,42.7c-4.51-14.08-11.6-34.94-17.14-45.63-2.92-.85-5.58-1.42-8.02-1.75-1.61-5.95-2.77-14.21-2.67-25.6,7.46.54,15.66.91,24.71,1.08,3.88.08,7.64.12,11.3.12,8.59,0,16.53-.2,23.89-.55l-3.74.7c1.05,5.63,1.81,16.01.15,24.23ZM428.7,254.87c-1.89,1.96-4.42,3.06-7.68,3.34,3.82-4.05,6.2-9.71,6.62-15.99.12-1.8-1.24-3.35-3.04-3.46-1.81-.15-3.35,1.24-3.48,3.04-.4,6.18-3.4,11.68-7.81,14.36-2.81,1.7-6,2.2-9.36,1.47.36-.31.71-.63,1.06-.99,6.82-7.02,6.2-20.37,6.17-20.93-.09-1.74-1.53-3.1-3.25-3.1-.06,0-.13,0-.18.01-1.8.09-3.18,1.62-3.08,3.43.16,3.05-.3,11.89-4.34,16.04-1.55,1.6-3.52,2.35-6.11,2.28h-.01c-4.06,0-6.34-2.28-7.58-4.38,1.83-.56,3.14-1.53,4.02-2.44,4.66-4.85,3.43-13.72,3.28-14.71-.28-1.78-1.96-2.99-3.73-2.72-1.77.26-2.99,1.93-2.73,3.72.26,1.7.53,7.05-1.53,9.2-.48.49-1.36,1.09-3.43.87-.05,0-.09-.01-.15-.01-3.28-.4-5.65-1.85-7.05-4.3-2.38-4.15-1.82-10.89,1.53-18.47,7.1-16.05,22.64-15.64,31.26-13.96,13.22,2.57,24.51,14.74,25.18,27.14.54,9.97-.99,16.89-4.57,20.57Z"/>
        <path class="cls-8" d="M272.56,212.54c-25.2,5.17-41.94.21-42.22.12-2.58-.8-5.32.63-6.12,3.2-.81,2.58.62,5.33,3.2,6.14.51.16,8.8,2.7,22.51,2.7,6.92,0,15.22-.65,24.6-2.57,2.65-.54,4.35-3.13,3.81-5.78-.54-2.65-3.13-4.36-5.78-3.81Z"/>
        <path class="cls-8" d="M335.6,203c-.86.58-2,1.22-3.48,1.91.82-1.06,2.05-1.8,3.48-1.91Z"/>
        <path class="cls-8" d="M282.36,177.19c-2.7,0-4.89,2.19-4.89,4.89v12.26c0,2.7,2.19,4.89,4.89,4.89s4.89-2.19,4.89-4.89v-12.26c0-2.7-2.19-4.89-4.89-4.89Z"/>
        <path class="cls-8" d="M219.48,236.12c-2.7,0-4.89,2.19-4.89,4.89v12.26c0,2.7,2.19,4.89,4.89,4.89s4.89-2.19,4.89-4.89v-12.26c0-2.7-2.19-4.89-4.89-4.89Z"/>
        <path class="cls-8" d="M190.68,230.98c-2.7,0-4.89,2.19-4.89,4.89v12.26c0,2.7,2.19,4.89,4.89,4.89s4.89-2.19,4.89-4.89v-12.26c0-2.7-2.19-4.89-4.89-4.89Z"/>
        <path class="cls-8" d="M207.72,177.19c-2.7,0-4.89,2.19-4.89,4.89v12.26c0,2.7,2.19,4.89,4.89,4.89s4.89-2.19,4.89-4.89v-12.26c0-2.7-2.19-4.89-4.89-4.89Z"/>
        <path class="cls-8" d="M181.87,172.35c-2.7,0-4.89,2.19-4.89,4.89v12.26c0,2.7,2.19,4.89,4.89,4.89s4.89-2.19,4.89-4.89v-12.26c0-2.7-2.19-4.89-4.89-4.89Z"/>
        <path class="cls-8" d="M305.87,171.06c-2.7,0-4.89,2.19-4.89,4.89v12.26c0,2.7,2.19,4.89,4.89,4.89s4.89-2.19,4.89-4.89v-12.26c0-2.7-2.19-4.89-4.89-4.89Z"/>
        <path class="cls-8" d="M317,253.03c2.7,0,4.89-2.19,4.89-4.89v-12.26c0-2.7-2.19-4.89-4.89-4.89s-4.89,2.19-4.89,4.89v12.26c0,2.7,2.19,4.89,4.89,4.89Z"/>
        <path class="cls-8" d="M332.34,125.91c2.7,0,4.89-2.19,4.89-4.89v-12.26c0-2.7-2.19-4.89-4.89-4.89s-4.89,2.19-4.89,4.89v12.26c0,2.7,2.19,4.89,4.89,4.89Z"/>
        <path class="cls-8" d="M161.51,101.46c-2.7,0-4.89,2.19-4.89,4.89v12.26c0,2.7,2.19,4.89,4.89,4.89s4.89-2.19,4.89-4.89v-12.26c0-2.7-2.19-4.89-4.89-4.89Z"/>
        <path class="cls-8" d="M298.84,142.61c-.76.41-1.58.61-2.37.61-1.73,0-3.4-.9-4.28-2.51-.02-.03-.05-.07-.07-.1-1.29,1.8-3.37,4.17-6.71,6.84-6.31,5.04-13.42,2.06-17.65.28-.79-.32-1.83-.76-2.39-.92-.76.23-2.32.91-3.5,1.43-4.21,1.83-9.93,4.33-15.64,4.33-2.44,0-4.88-.46-7.19-1.62-7.26-3.63-9.15-4.13-19.01-3.04-10.42,1.16-14.71-3.38-17.02-5.83-.21-.22-.49-.51-.64-.66-.59-.33-1.07-.78-1.46-1.29-.02.15-.03.25-.03.25-.15,2.6-2.3,4.63-4.88,4.63-.09,0-.18-.01-.28-.01-2.7-.15-4.76-2.46-4.61-5.16.03-.69.51-6.78,5.33-10.68,2.18-1.76,6.04-3.65,12.07-2.7,2.67.43,4.49,2.93,4.07,5.6-.24,1.48-1.14,2.69-2.34,3.42,1.63,1.73,3.27,3.3,8.71,2.7,11.31-1.25,15.2-.62,24.47,4.02,3.65,1.82,10.21-1.04,14.55-2.93,3.05-1.32,5.26-2.29,7.37-2.29s4.1.85,6.23,1.74c4.14,1.74,6.25,2.31,7.76,1.1,1.73-1.38,2.95-2.6,3.8-3.57-.55-.14-1.09-.25-1.59-.33-2.66-.47-4.44-3-3.97-5.66.47-2.67,3-4.44,5.66-3.98,2.26.4,13.66,2.73,17.54,9.7,1.31,2.36.46,5.34-1.9,6.65Z"/>
        <path class="cls-1" d="M287.09,70.5c-1.2,10.06-4.24,20.46-9.95,26.03-3.02,2.92-6.56,4.35-10.84,4.35-.1,0-.21,0-.31-.01-11.28-.17-17.07-18.95-17.12-19.14-.6-2.09-2.52-3.53-4.7-3.53h-.07c-2.2.02-4.11,1.52-4.67,3.65-.05.21-5.48,20.3-19.1,17.93-12.73-2.22-18.91-22.61-18.74-42.52.01-.94.02-1.89.07-2.82.09-2.34.28-4.71.54-7.07,2.12-18.33,9.69-36.3,23.04-37.56,2.83-.25,6.13,2.57,9.2,6.54-7.75,1.38-13.8,13.41-13.8,28.04,0,.61.01,1.22.03,1.83.12,3.45.58,6.73,1.31,9.74,2.41,9.78,7.73,16.6,13.95,16.6s11.32-6.53,13.79-15.99c.78-2.98,1.28-6.26,1.44-9.71.03-.81.06-1.63.06-2.46,0-4.05-.46-7.9-1.3-11.37,1.17-.83,1.97-2.14,2.07-3.65.22-3.05,1.93-11.84,7.22-15.74,2.93-2.18,6.7-2.69,11.5-1.6,3.23.74,6.02,2.55,8.33,5.41-7.96.96-14.27,13.17-14.27,28.1,0,.83.02,1.65.06,2.46.17,3.54.69,6.92,1.51,9.97,2.5,9.32,7.7,15.73,13.72,15.73,2.54,0,4.95-1.15,7.05-3.19Z"/>
        <path class="cls-8" d="M297.47,51.55c-.49-17.06-3.98-44.37-24.61-49.08-7.66-1.76-14.24-.64-19.54,3.3-3.51,2.62-5.93,6.16-7.57,9.66-4.81-7.83-12.2-16.25-21.45-15.36-19.47,1.84-29.84,24.77-32.05,48.35-.17,1.88-.31,3.76-.38,5.64-.06,1.42-.08,2.84-.08,4.27.03,23.75,8.13,47.82,26.85,51.09,12.23,2.14,20.66-5.66,25.6-14.03,4.1,7.12,11.05,15.11,21.59,15.28h.47c6.86,0,12.8-2.39,17.65-7.12,11.81-11.46,13.42-33.12,13.55-42.1.01-.07.01-.13.01-.18.03-2.44.07-5.8-.03-9.7ZM277.14,96.53c-3.02,2.92-6.56,4.35-10.84,4.35-.1,0-.21,0-.31-.01-11.28-.17-17.07-18.95-17.12-19.14-.6-2.09-2.52-3.53-4.7-3.53h-.07c-2.2.02-4.11,1.52-4.67,3.65-.05.21-5.48,20.3-19.1,17.93-12.73-2.22-18.91-22.61-18.74-42.52.01-.94.02-1.89.07-2.82.09-2.34.28-4.71.54-7.07,2.12-18.33,9.69-36.3,23.04-37.56,2.83-.25,6.13,2.57,9.2,6.54-7.75,1.38-13.8,13.41-13.8,28.04,0,.61.01,1.22.03,1.83.12,3.45.58,6.73,1.31,9.74,2.41,9.78,7.73,16.6,13.95,16.6s11.32-6.53,13.79-15.99c.78-2.98,1.28-6.26,1.44-9.71.03-.81.06-1.63.06-2.46,0-4.05-.46-7.9-1.3-11.37,1.17-.83,1.97-2.14,2.07-3.65.22-3.05,1.93-11.84,7.22-15.74,2.93-2.18,6.7-2.69,11.5-1.6,3.23.74,6.02,2.55,8.33,5.41-7.96.96-14.27,13.17-14.27,28.1,0,.83.02,1.65.06,2.46.17,3.54.69,6.92,1.51,9.97,2.5,9.32,7.7,15.73,13.72,15.73,2.54,0,4.95-1.15,7.05-3.19-1.2,10.06-4.24,20.46-9.95,26.03Z"/>
        <path class="cls-8" d="M211.42,341.34c-1.37-1.28-2.64-2.69-3.81-4.26,1.66,1.38,3.02,2.81,3.81,4.26Z"/>
      </g>
      <g>
        <path class="cls-7" d="M116.06,233.77c.31,0,.62,0,.92-.02,2.91-.06,5.83-.28,8.73-.59,4.49-.48,9.11-.67,13.62-.68,3.64,0,7.35.11,10.97.53,1.94.23,4.21.5,5.42,2.25.7,1.02.82,2.22.56,3.4-.26,1.21-.79,2.3-1.91,2.94-1.51.87-3.24.34-4.85.18-5.9-.61-12.02-.78-17.94-.33-3.16.24-6.32.54-9.47.83-1.33.12-2.65.24-3.99.31,1.21,1.25,2.38,2.55,3.5,3.87,6.11,7.28,10.85,15.73,13.93,24.71,7.21,20.99,8.01,40.79,5.38,62.58.56,4.97,1.31,10.02,2.2,14.94.4,2.23.85,4.46,1.38,6.66.4,1.66.88,3.44,1.53,5.03.92,2.23,2.03,4.21,3.2,6.31.97,1.73,1.92,3.51,2.18,5.51.19,1.46-.02,2.87-.52,4.25-.23.62-.55,1.19-.96,1.71-1.98,2.46-5.49,2.93-8.45,2.94-3.46.02-7.08-.54-10.49-1.08-.86-.14-1.72-.28-2.58-.42-2.84-.46-5.81-.92-8.69-.8-3.72.15-7.63,1.32-11.18,2.37-5.84,1.72-12.18,2.43-18.25,2.67-7.99.32-16.08-.13-24.03-.95-6.79-.7-13.77-1.46-20.6-1.43-4.81.02-9.65.44-14.45.85-6.71.57-14.11-.19-20.43-2.61-4.35-1.67-10.02-4.95-10.73-10.06-.49-3.51,2.34-7.04,4.39-9.61,2.54-3.2,5.24-6.33,7.1-9.99.53-1.05.96-2.15,1.31-3.27,1-3.18,1.46-6.65,1.61-9.98.07-1.53.09-3.18-.02-4.72-.24-1.36-.42-2.75-.58-4.12-.43-3.54-.7-7.12-.83-10.68-.38-10.42.4-21.32,3.18-31.4,5.59-20.27,13.36-35.62,29.64-48.36-.7-.76-1.19-1.72-1.36-2.83-.15-1.01,0-1.95.38-2.77-1.04-.7-1.82-1.68-2.04-3-.22-1.31.1-2.57.79-3.59-1.32-1.27-3.28-2.72-4.12-3.32-6.67-4.77-11.92-15.33-15.22-22.6-1.31-2.88-1.73-6.09-1.1-9.2.45-2.2,1.53-4.68,3.26-6.18,5.61-4.82,13.9-7.18,21.1-8.81.87-2.4,1.39-5.44,1.22-7.79-.1-1.4-.39-2.86.01-4.23.54-1.83,2.12-2.97,3.64-3.97,6.18-4.08,14.53-6.25,21.81-7.17,9.06-1.15,18.65-.67,27.5,1.63,6.39,1.66,12.54,4.32,17.93,8.16,3.47,2.48,5.35,4.52,5.54,8.97.1,2.22.17,4.36.09,6.55,1.16.93,2.31,1.92,3.39,2.91,3.03,2.74,5.95,5.75,8.42,9,1.19,1.57,2.3,3.22,3.23,4.96,2.5,4.66,1.56,8.99-1.48,13.16-5.64,7.74-14.28,14.67-22.52,19.99.44.74.69,1.58.69,2.5,0,1.22-.43,2.32-1.16,3.19.08.23.14.46.19.69Z"/>
        <path class="cls-9" d="M125.97,235.6c2.28-.24,5.05-.44,8-.56.66.4,2.48,1.63,3.92,3.71-2.08.01-4.26.09-6.48.26-1.74.13-3.4.3-5,.46-.77-1.5-1.77-2.72-2.72-3.64.79-.07,1.56-.15,2.29-.23h0ZM136.95,234.96c1.03.91,2.21,2.17,3.13,3.81,2.96.05,5.62.21,7.76.4,1.09-2.72.03-3.93.03-3.93-3.39-.28-7.21-.35-10.92-.28h0ZM124.39,239.68c-1.01-1.7-2.33-2.91-3.29-3.64-3.02.21-6.26.31-9.33.14,1.04.98,2.16,2.31,2.98,3.99,3.19.09,6.31-.17,9.64-.5h0ZM112.56,240.06c-2.68-.22-5.46-.72-8.5-1.68l-.07-.02s-.08-.07-.12-.11c-1.88-1.37-2.76-3.28-3.18-4.65,1.53.75,3.12,1.29,4.65,1.68.04.01.08.02.13.03.91.23,1.88.41,2.88.55.73.44,2.76,1.83,4.22,4.2h0ZM100.2,236.99c-1.27-.55-2.34-1.11-3.24-1.65-.44-.26-.88-.57-1.27-.91-.51-.44-.93-.92-1.13-1.41-.14-.35-.15-.72.06-1.08.05-.09.12-.18.2-.28.76-.88,2.27-.1,3.69.72.11.77.49,2.69,1.69,4.6Z"/>
        <path class="cls-3" d="M136.92,237.53c.33.37.66.78.97,1.23-2.08.01-4.26.09-6.48.26-1.74.13-3.4.3-5,.46-.23-.46-.49-.89-.76-1.29,5.02-.44,7.75-.75,11.27-.65h0ZM97.32,231.75s-.48.12-.56,1.09c-.06.7,1.18,1.57,2.51,2.32.24.58.54,1.2.93,1.82-1.27-.55-2.34-1.11-3.24-1.65-.44-.26-.88-.57-1.27-.91-.51-.44-.93-.92-1.13-1.41-.14-.35-.15-.72.06-1.08.05-.09.12-.18.2-.28.55-.64,1.49-.41,2.5.08h0ZM102.12,236.5c1.84.65,5.12,1.55,9.29,1.99.4.46.79.98,1.15,1.56-2.68-.22-5.46-.72-8.5-1.68l-.07-.02s-.08-.07-.12-.11c-.71-.52-1.29-1.12-1.74-1.74h0ZM113.9,238.69c1.92.11,3.99.1,6.16-.06,1.25-.09,2.38-.18,3.43-.27.32.4.62.83.91,1.31-3.33.33-6.44.59-9.64.5-.26-.53-.55-1.02-.85-1.48h0ZM139.37,237.65c4.95.27,8.83.5,8.93-1.21.08.64.01,1.54-.46,2.73-2.14-.18-4.81-.35-7.76-.4-.22-.4-.46-.77-.71-1.13Z"/>
        <path class="cls-9" d="M86.77,229.98h-1.96c-1.18-1.91-2.66-3.28-4.07-4.24l5.9-.05s.1,0,.14,0l2.73-.02c-1.25,1.17-2.19,2.65-2.75,4.3h0ZM82.57,230.01c-1.92-2.56-4.43-3.75-5.79-4.24l-9.03.07c1.41.96,2.91,2.33,4.1,4.25l10.72-.08h0ZM69.61,230.11l-10.48.08c-1.31-1.98-2.95-3.34-4.43-4.25l9.05-.07c1.32.47,3.89,1.65,5.85,4.24h0ZM56.84,230.21c-2.75-3.34-6.43-4.13-6.44-4.13-.09-.02-.18-.05-.26-.1h-1.44c-1.72.02-3.86.51-3.47,2.39.39,1.87,2.81,1.91,4.29,1.9l7.33-.06Z"/>
        <path class="cls-3" d="M86.77,229.98h-1.96c-.42-.67-.88-1.29-1.37-1.84,1.18-.02,1.93-.05,2.09-.07,1.11-.2,2.58-1.76,3.99-2.39-1.25,1.17-2.19,2.65-2.75,4.3h0ZM48.7,225.99s-.56.21-.39,1.1c.16.89,1.55,1.2,3.42,1.18.31,0,1.44,0,3.1,0,.69.52,1.38,1.17,2.02,1.95l-7.33.06c-1.47.01-3.9-.03-4.29-1.9-.39-1.87,1.75-2.36,3.47-2.37h0ZM57.59,228.26c2.9,0,6.55,0,10.26-.02.61.52,1.21,1.14,1.77,1.87l-10.48.08c-.48-.73-1-1.37-1.55-1.93h0ZM70.47,228.23c3.87-.01,7.6-.03,10.38-.06.59.52,1.18,1.13,1.72,1.84l-10.72.08c-.43-.69-.89-1.31-1.38-1.86Z"/>
        <path class="cls-9" d="M86.49,235.87l-3.4.03c-1.21-1.67-2.65-2.86-3.96-3.69l7.16-.05c-.08.69-.1,1.4-.05,2.12.04.55.13,1.08.26,1.59h0ZM80.71,235.92c-2.69-2.93-6.01-3.65-6.02-3.65-.03,0-.05-.01-.08-.02l-8.1.06c1.31.84,2.72,2.03,3.9,3.69l10.3-.08h0ZM68.05,236.02l-10.32.08c-1.16-1.66-2.54-2.85-3.84-3.7l4.69-.04c.16.04.34.04.5,0l3.09-.02c.81.22,3.59,1.14,5.87,3.68h0ZM55.39,236.12c-2.09-2.37-4.61-3.36-5.67-3.69-1.54.02-2.98.19-2.8,1.88.21,1.91,2.31,1.86,4.29,1.84l4.18-.03Z"/>
        <path class="cls-3" d="M86.49,235.87l-3.4.03c-.34-.47-.7-.9-1.07-1.3,1.08-.02,1.77-.03,1.91-.03.99-.03,1.36-2.4.48-2.4h0,1.87c-.08.68-.1,1.39-.05,2.11.04.55.13,1.08.26,1.59h0ZM49.72,232.44s-.62.55-.45,1.37c.18.82,1.15,1.2,3.33,1.2.24,0,.82,0,1.65-.01.39.34.77.71,1.14,1.14l-4.18.03c-1.98.02-4.08.07-4.29-1.84-.19-1.69,1.26-1.86,2.8-1.88h0ZM56.84,234.96c2.67-.03,6.27-.08,9.98-.14.42.35.84.75,1.24,1.2l-10.32.08c-.29-.41-.59-.79-.9-1.15h0ZM69.44,234.79c3.66-.05,7.23-.1,9.91-.15.46.37.92.79,1.36,1.28l-10.3.08c-.31-.44-.64-.84-.97-1.22Z"/>
        <path class="cls-6" d="M126.63,257.75c2.42,4.05,4.75,8.8,6.61,14.23,7.81,22.75,11.32,62.04-3.42,84.41-.33.5-.19,1.17.31,1.5.5.33,1.17.19,1.5-.31,4.19-6.35,6.45-12.7,7.66-17.4.93,6.57,2.55,16.46,4.48,21.15,3.04,7.36,6.51,9.68,4.82,14.29-1.69,4.61-11.21,2.98-19.79,1.58-8.58-1.4-11.27-1.23-20.96,1.63-9.69,2.86-23.61,3.45-41.34,1.63-17.72-1.82-21.08-1.81-35.5-.58-14.42,1.23-27.65-4.26-28.53-10.57-.61-4.4,7.22-10.22,11.25-18.16,1.96-3.86,2.76-8.56,3.06-12.36,2.06,5.95,5.66,13.48,11.56,17.85.48.36,1.16.26,1.52-.23.36-.48.26-1.16-.23-1.52-17.68-13.1-15.83-51.12-11.07-68.38,5.76-20.9,13.71-35.8,30.2-48.16l38.59-.32c.44.79,1,1.51,1.65,2.12.81.77,1.77,1.38,2.82,1.77,1.06.4,2.2.58,3.38.49,1.03-.07,2.09-.35,3.13-.86,2.05.73,10.88,4.12,15.61,9.68,1.19,1.4,2.12,3.02,2.84,4.62.96,2.14,1.51,4.22,1.74,5.63v.05c.59,3.67.98,6.09,4.51,6.06,1.79-.02,2.9-.81,3.52-2.16.53-1.14.64-2.67.52-4.42-.07-.98-.2-2.08-.44-3.26Z"/>
        <path class="cls-5" d="M131.64,357.58c4.19-6.35,6.45-12.7,7.66-17.4.62,4.43,1.57,10.37,2.71,15.21h0s-3.06-7.13-10.37,2.19h0ZM148.46,370.58c1.29,3.49-5.04,4.55-12.16,1.34-7.12-3.21-17.57-4.85-29.84-1.11-12.26,3.74-25.57,2.92-40.87,1.4-15.3-1.52-23.48-1.59-39.13-1.3-15.65.29-4.84-18.97,1.89-14.27-5.9-4.37-9.5-11.9-11.56-17.85-.3,3.8-1.1,8.5-3.06,12.36-4.03,7.94-11.86,13.76-11.25,18.16.88,6.31,14.11,11.79,28.53,10.57,14.42-1.23,17.77-1.23,35.5.58,17.72,1.82,31.65,1.23,41.34-1.63,9.69-2.86,12.38-3.04,20.96-1.63,8.58,1.4,18.1,3.04,19.79-1.58.7-1.9.52-3.41-.14-5.04h0ZM28.44,356.7c.47.28,1.09.16,1.43-.29.36-.48.26-1.16-.23-1.52-17.68-13.1-15.83-51.12-11.07-68.38,5.76-20.9,13.71-35.8,30.2-48.16l12.52-.1h0s-21.25,12.96-28.49,43.56c-7.24,30.59-7.01,62.38,20.67,72.31,27.61,9.9-11.88,11.62-25.03,2.59Z"/>
        <path class="cls-9" d="M101.02,239.66c.76.28,1.56.55,2.42.8,1.27.38,2.66.71,4.17.99.1.48.2,1.2.21,2.15-2.8-1.65-5.51-2.83-7.26-3.53.15-.13.31-.27.46-.42h0ZM109.55,241.77c1.45.2,3,.35,4.66.43,1.02.95,2.28,2.2,3.69,3.74.12,1.09.26,3.63-.7,6.07-.48-.76-1.01-1.5-1.6-2.19-1.66-1.96-3.78-3.66-5.96-5.09.07-1.22.01-2.21-.1-2.97h0ZM119.83,248.2c2.58,3.27,4.2,6.65,4.84,10.82-1.97,1.27-4.29.65-4.29.65-.33-1.38-.86-3.03-1.61-4.71-.14-.32-.29-.64-.45-.95,1.09-1.97,1.44-4.12,1.51-5.81Z"/>
        <path class="cls-3" d="M101.02,239.66c.76.28,1.56.55,2.42.8,1.27.38,2.66.71,4.17.99.1.48.2,1.2.21,2.15-2.8-1.65-5.51-2.83-7.26-3.53.15-.13.31-.27.46-.42h0ZM109.65,242.66s4.93,2.81,8.1,7.44c-.12.63-.3,1.27-.55,1.92-.48-.76-1.01-1.5-1.6-2.19-1.66-1.96-3.78-3.66-5.96-5.09.05-.79.04-1.48,0-2.08h0ZM119.07,252.31c2.48,4.58,2.21,5.79,3.52,5.57,1.39-.23,1.5-1.5,1.5-1.53.24.85.43,1.74.57,2.66-1.97,1.27-4.29.65-4.29.65-.33-1.38-.86-3.03-1.61-4.71-.14-.32-.29-.64-.45-.95.31-.56.56-1.13.75-1.7Z"/>
        <path class="cls-9" d="M104.53,232.79c-1.17-.37-2.34-.84-3.47-1.44-.15-.08-.3-.16-.45-.25,1.26-.51,2.11-1.44,2.65-2.24.53.86.85,1.77,1.04,2.58,0,.05.02.11.04.16.09.43.15.84.19,1.19h0ZM97.92,229.62c.08-.01.16-.02.25-.01,2.21.21,3.38-1.39,3.85-2.27-.78-.72-1.8-1.33-3.13-1.7-.02,0-.04-.01-.07-.02-1.13-.32-2.2-.42-3.19-.35-1.01.07-1.95.33-2.79.74.71.62,1.48,1.59,2,3.13.99-.27,2.04,0,3.08.48h0ZM93.21,230.2l-.05.05c-.16.19-.3.38-.42.58-.61,1.03-.6,2.05-.21,3.02.02.05.04.09.06.14-1.63,1.21-2.26,2.87-2.48,4.19-.96-1.07-1.6-2.49-1.71-4.06-.08-1.06.03-2.1.31-3.07.44-1.56,1.3-2.94,2.49-3.97.59.36,1.51,1.21,2.01,3.12h0ZM93.68,235.52c-1.62,1.24-1.82,3.1-1.81,4.04.23.12.47.23.71.32.77.29,1.6.42,2.47.36,1.21-.09,2.48-.56,3.72-1.51-1.12-.51-2.09-1.03-2.92-1.53-.54-.32-1.08-.7-1.57-1.12-.21-.18-.41-.37-.6-.57Z"/>
        <path class="cls-3" d="M89.45,229.27s-1.17,4.37,1.2,7.15c-.27.61-.44,1.22-.53,1.77-.96-1.07-1.6-2.49-1.71-4.06-.08-1.06.03-2.1.31-3.07.18-.63.42-1.23.73-1.79h0ZM92.17,237.65c1.39.72,2.65.3,3.65-.46l.03.02c.83.49,1.8,1.01,2.92,1.53-1.24.95-2.51,1.42-3.72,1.51-.87.06-1.7-.07-2.47-.36-.24-.09-.48-.2-.71-.32,0-.47.04-1.17.29-1.91Z"/>
        <path class="cls-3" d="M102.11,231.87c-.35-.16-.71-.33-1.05-.52-.15-.08-.3-.16-.45-.25.47-.19.89-.45,1.25-.73.24.61.3,1.16.25,1.49h0ZM94.5,228.29c.7-.6,1.74-1.07,3.24-.9,1.41.15,2.41.72,3.09,1.42-.64.52-1.51.91-2.68.8-.08,0-.17,0-.25.01-1.04-.47-2.09-.75-3.08-.48-.1-.31-.21-.59-.33-.85Z"/>
        <path class="cls-3" d="M113.53,233.77c.04.1.08.22.11.34-1.51.01-4.07-.09-6.89-.72,0-.25-.03-.54-.06-.86,1.54.2,4.14.59,6.84,1.24Z"/>
        <path class="cls-3" d="M110.7,230.96c-1.92-.35-3.55-.56-4.46-.67-.4-1.37-1.11-2.88-2.34-4.16.63.08,1.23.15,1.81.23,1.31.68,3.45,2.08,5,4.6Z"/>
        <path class="cls-9" d="M114.58,229.89c.03,1.07-.66,1.38-1.58,1.38-.84-1.77-1.97-3.15-3.1-4.21.5.1.95.2,1.36.3,1.6.38,3.28.87,3.32,2.53Z"/>
        <path class="cls-6" d="M53.77,161.28c13.37-8.82,44.48-11.68,64.46,2.57,2.99,2.13,4.36,3.56,4.51,7.08.58,13.45-4.51,27.72-15.33,36.26-.47.37-.55,1.05-.18,1.52.37.47,1.05.55,1.52.18,11.35-8.96,14.86-23.07,15.85-28.89,3.26,2.71,10.02,8.81,13.56,15.4,1.8,3.34,1.57,6.63-1.3,10.56-3.5,4.8-10.56,12.21-22.73,19.93-.79-.24-2.17-.63-4.21-1.03,4.16-3.68,7.22-10.23,7.23-10.25.26-.54.02-1.19-.52-1.45-.54-.26-1.19-.02-1.45.52-.01.02-3.73,7.98-8.19,10.67-2.1-.32-4.65-.63-7.67-.85-1.36-.37-2.65-.49-3.86-.41-.73.05-1.43.18-2.1.38l-4.66.04c4.35-7.29,6.62-17.7,6.63-17.73.13-.59-.25-1.17-.83-1.29-.59-.13-1.17.25-1.29.83,0,.03-2.46,11.3-7.08,18.21l-5.59.04c1.65-2.81,2.06-5.63,2.06-5.64.08-.59-.33-1.14-.93-1.23-.59-.08-1.14.33-1.23.93,0,0-.47,3.25-2.53,5.96l-11.09.08c-4.13-6.23-5.52-15.78-5.52-15.81-.09-.59-.64-1.01-1.23-.92-.59.09-1.01.64-.92,1.23,0,.03,1.29,8.93,5.13,15.52l-10.99.08c-2.8-2.14-3.77-6.46-3.77-6.47-.13-.59-.72-.95-1.3-.82-.59.13-.95.72-.82,1.3,0,.01.75,3.34,2.86,6.01l-4.67.04c-.9-.92-2.35-2.18-4.65-3.83-4.53-3.24-9.16-10.06-14.41-21.62-2.53-5.56-.46-10.8,1.53-12.5,3.73-3.21,9.1-5.69,19.05-8.05-1.39,5.33-4.19,19.89,2.84,31.51.31.51.98.68,1.49.37.51-.31.68-.98.37-1.49-5.09-8.41-4.68-18.53-3.61-25.05.81-4.95,3.38-11.13,3.03-15.92-.24-3.24-.81-3.75,2.55-5.97Z"/>
        <path class="cls-5" d="M53.77,161.28c3.24-2.13,7.51-3.92,12.42-5.19-.16.09-3.1,1.86-2.81,8.23.29,6.54-4.44,12.9-3.15,27.03,1.28,14.13,9,31.92,20.61,25.6-.21.17-.36.41-.39.7,0,0-.47,3.25-2.53,5.96l-11.09.08c-4.13-6.23-5.52-15.78-5.52-15.81-.09-.59-.64-1.01-1.23-.92-.59.09-1.01.64-.92,1.23,0,.03,1.29,8.93,5.13,15.52l-10.99.08c-2.8-2.14-3.77-6.46-3.77-6.47-.13-.59-.72-.95-1.3-.82-.59.13-.95.72-.82,1.3,0,.01.75,3.34,2.86,6.01l-4.67.04c-.9-.92-2.35-2.18-4.65-3.83-4.53-3.24-9.16-10.06-14.41-21.62-2.53-5.56-.46-10.8,1.53-12.5,1.64-1.41,3.6-2.68,6.13-3.86,0,.01-5.68,6.85-1.13,16.53,4.55,9.69,10.86,17.92,14.54,17.28s2.9-5.3,1.88-7.3l-.02-.03c.16.28.32.57.49.85.31.51.98.68,1.49.37.51-.31.68-.98.37-1.49-5.09-8.41-4.68-18.53-3.61-25.05.81-4.95,3.38-11.13,3.03-15.92-.24-3.24-.81-3.75,2.55-5.97h0ZM107.28,207.33c-.34.39-.37.97-.04,1.39.37.47,1.05.55,1.52.18,11.35-8.96,14.86-23.07,15.85-28.89,1.87,1.55,4.88,4.22,7.78,7.45-.05-.03-1.51-1.07-3.35,3.64-1.87,4.79-5.25,11.09-8.29,15.18-3.04,4.09-3.56,8.41-1.58,10.57,1.97,2.14,5.32,1.64,6.4.77-3.17,2.64-6.96,5.44-11.44,8.28-.79-.24-2.17-.63-4.21-1.03,4.16-3.68,7.22-10.23,7.23-10.25.26-.54.02-1.19-.52-1.45-.54-.26-1.19-.02-1.45.52-.01.02-3.73,7.98-8.19,10.67-2.1-.32-4.65-.63-7.67-.85-1.36-.37-2.65-.49-3.86-.41-.73.05-1.43.18-2.1.38l-4.66.04c4.35-7.29,6.62-17.7,6.63-17.73,0,0,.07,4.69,2.34,6.44s9.59-4.89,9.59-4.89h0ZM89.99,215.82c-4.25,7.07-7.39,2.12-7.39,2.12,0,0-.41,2.83-2.06,5.64l5.59-.04c1.53-2.29,2.82-5.04,3.86-7.72Z"/>
        <path class="cls-4" d="M67.34,315.55c.5.41,1.15.96,1.94,1.66.78.71,1.67,1.39,2.68,2.07,1.51,1.01,3,1.79,4.47,2.35,1.48.56,3.02.84,4.63.84,1.51,0,2.77-.16,3.77-.5,1.02-.34,1.82-.8,2.41-1.36.58-.56,1.01-1.21,1.26-1.95.25-.74.37-1.52.37-2.35,0-.92-.34-1.75-1.04-2.47s-1.55-1.36-2.56-1.92c-1.01-.56-2.06-1.05-3.15-1.45-1.09-.4-2.04-.74-2.84-1.01-3.55-1.24-6.65-2.57-9.32-4.01-2.66-1.43-4.88-3.05-6.65-4.81s-3.11-3.7-3.99-5.81c-.89-2.11-1.33-4.48-1.33-7.08,0-2.28.38-4.38,1.15-6.31.78-1.92,1.88-3.64,3.31-5.15,1.42-1.51,3.16-2.79,5.23-3.84,2.07-1.05,4.39-1.82,6.98-2.32v-6.18c0-.53.16-.99.49-1.38.33-.38.81-.58,1.46-.58h8.34c.44,0,.92.18,1.4.53.49.35.72.83.72,1.42v5.94c1.66.3,3.28.71,4.87,1.26,1.58.55,3.15,1.26,4.72,2.11,1.01.59,1.97,1.2,2.87,1.83s1.69,1.26,2.37,1.85,1.23,1.15,1.63,1.69c.4.53.59.99.59,1.38s-.09.74-.28,1.06c-.19.33-.49.69-.87,1.11l-6.79,7.23c-.5.5-1.01.75-1.51.75-.41,0-.78-.12-1.12-.35-.34-.24-.72-.53-1.14-.89l-.4-.35c-.59-.5-1.24-1.02-1.97-1.55s-1.51-1.02-2.34-1.45-1.7-.78-2.63-1.06c-.92-.28-1.85-.41-2.79-.41s-1.91.09-2.77.25c-.86.16-1.61.41-2.26.77-.67.35-1.18.83-1.57,1.4-.38.58-.58,1.27-.58,2.1s.21,1.55.62,2.16c.41.61,1.04,1.17,1.86,1.69s1.86,1.01,3.09,1.46c1.23.47,2.65.96,4.27,1.49,3.13,1.04,6.03,2.13,8.68,3.27,2.65,1.14,4.92,2.48,6.85,4.04,1.92,1.55,3.43,3.42,4.51,5.57,1.08,2.17,1.61,4.79,1.61,7.87,0,2.78-.49,5.34-1.46,7.66-.98,2.34-2.32,4.39-4.07,6.2-1.74,1.82-3.8,3.31-6.18,4.51-2.37,1.21-4.97,2.06-7.81,2.56v6.36c0,1.3-.71,1.95-2.13,1.95h-8.34c-1.3,0-1.95-.65-1.95-1.95v-6.49c-2.34-.5-4.6-1.27-6.79-2.31-2.19-1.03-4.26-2.26-6.21-3.68-1.18-.86-2.17-1.7-2.99-2.53s-1.46-1.49-1.94-2l-.13-.13c-.03-.06-.06-.1-.09-.12-.03-.01-.06-.03-.09-.06-.03-.06-.06-.1-.09-.12-.03-.01-.06-.03-.09-.06-.68-.74-1.02-1.35-1.02-1.79,0-.5.34-1.06,1.02-1.69l7.67-7.32c.62-.44,1.12-.67,1.51-.67.27,0,.55.09.84.27.3.18.65.44,1.06.8Z"/>
        <path class="cls-2" d="M35.28,182.66c1.54-.57,4.92-1.8,8.13-2.69,2.07-.58,1.99.63,1.85,1.53-.14.9-.05,1.67-1.68,1.88-1.85.23-5.41.5-8.56,1.17-.98.21-.83-1.48.25-1.88Z"/>
        <path class="cls-2" d="M68.65,156.95c6.64-1.26,30.18-4.52,48.09,8.35,2.32,1.67,3.76,3.62,3.84,6.87.16,6.32-.91,18.84-10.54,29.73-1.99,2.24-2.65,1.08-1.19-1.02,2.64-3.78,8.39-13.22,8.08-27.08-.07-3.25-1.06-5.02-3.55-6.82-5.53-3.99-18.69-10.44-44.74-8.28-1.97.16-2.44-1.29,0-1.76Z"/>
        <path class="cls-2" d="M132.95,190.02c1.01,1.17,2.94,3.42,4.26,7.09.64,1.78.67,3.83-.06,5.3-1.33,2.68-4.25,7.25-10.86,13.26-1.61,1.47-2.11,1.26-.57-.64,2.06-2.54,6.66-7.63,8.82-12.57.71-1.63.92-3.2.22-5.41-.52-1.67-1.31-3.93-2.56-6.41-.58-1.15-.41-1.96.75-.61Z"/>
        <path class="cls-2" d="M63.66,239.75c3.92-.05,13.07-.16,18.92-.2,3.29-.02,4.33.12,5.51,1.6,1.18,1.49.49,2.43-2.31,2.19-4.41-.39-12.56-.66-22.42-1.61-2.02-.2-2.25-1.94.3-1.98Z"/>
        <path class="cls-2" d="M132.32,276.47c3.89,13.47,11.39,47.66-2.78,75.27-1.74,3.4-2.11,2.37-1.14-1.1,2.51-8.98,9.6-37.57-1.98-71.4-1.39-4.06-2.06-6.23.63-7.67,2.68-1.44,4.03.6,5.27,4.89Z"/>
        <path class="cls-2" d="M146.33,369.17c-1.06-1.63-2.85-4.91-4.65-10.63-.68-2.15-1.94-3.78-3.56-3.57-1.62.21-1.61,2.07-.8,4.24,1.25,3.33,3.48,7.61,7.74,11.16,1.97,1.64,2.27.36,1.26-1.19Z"/>
      </g>
    </g>
  </g>
</svg>