<?xml version="1.0" encoding="UTF-8"?>
<svg id="Capa_2" data-name="Capa 2" xmlns="http://www.w3.org/2000/svg" viewBox="0 0 434.58 503.78">
  <defs>
    <style>
      .cls-1 {
        fill: #ece9da;
      }

      .cls-1, .cls-2, .cls-3, .cls-4 {
        stroke-width: 0px;
      }

      .cls-2 {
        fill: #000;
      }

      .cls-3 {
        fill: #bda1ec;
      }

      .cls-4 {
        fill: #fff;
      }
    </style>
  </defs>
  <g id="Capa_1-2" data-name="Capa 1">
    <g>
      <path class="cls-2" d="M157.31,384.05c-1.09-.45-2.07-.96-3.11-1.25-8.44-2.4-16.96-4.56-25.33-7.18-6.53-2.05-10.2-7.63-10.12-14.27.09-7.62.17-15.25.27-22.87.03-1.88.04-3.76.2-5.63.57-6.46.59-6.46-5.59-7.74-10.38-2.15-11.99-4.1-12.03-14.62q-.04-9.45-9.15-9.42c-7.32.03-13.77-2.51-19.58-6.78-5.61-4.13-10.56-8.88-14.34-14.86-.79-1.25-2.99-2.35-4.49-2.29-13.86.57-22.63-6.98-29.01-18.13-1.37-2.4-3.08-3.38-5.37-4.48-3.71-1.79-7.92-3.58-10.4-6.62-4.95-6.06-3.34-14.6,2.4-20.04,1.15-1.09,1.83-3.22,1.84-4.87.06-6.34,2.16-11.48,7.7-14.89.98-.6,2.1-1.44,3.13-1.42,3.66.07,5.37-1.54,6.76-5,2.4-5.98,8.3-8.82,14.68-7.77,7.85,1.3,13.98,5.18,17.61,12.51.52,1.05,1.28,2,1.7,3.08.9,2.33,2.15,2,3.75.75,1.65-1.28,3.23-2.85,5.12-3.57,7.52-2.87,15.57-.74,19.15,4.76,4.11,6.32,3.32,15.19-2.6,21.02-2.95,2.9-3.8,5.79-3.46,9.68.91,10.46-3.57,18.98-10.44,26.33-2.45,2.62-2.49,4.15-.18,7.01,5.1,6.31,11.28,9.64,19.41,9.42,2.79-.07,3.59-.99,3.03-3.92-.87-4.48-.91-9.12-1.74-13.61-1.05-5.68,1.3-9.95,6.12-11.71,6.68-2.44,6.52-7.01,5.53-12.35-1.87-10.15-3.55-20.35-5.78-30.43-2.05-9.23.49-15.38,8.34-20.58,12.25-8.1,26.09-11.36,40.12-14.32,2.7-.57,5.55-1.49,7.75-3.07,1.23-.88,1.92-3.54,1.7-5.25-1.28-9.73-.12-19.25,2.16-28.66,1.68-6.92,4.5-13.31,10.13-18.14,6.03-5.19,13.65-6.23,20.54-2.22,2.81,1.64,5.32,3.8,7.96,5.73,1.02.75,2.02,1.51,3,2.25,2.16-3.22,3.95-6.36,6.2-9.13,4.77-5.9,12.46-7.19,19.3-4.2,9.36,4.09,13.75,12.07,18.02,20.63,4.01,8.02,5.35,16.41,6.03,25.11.11,1.39.99,2.72,1.51,4.07,1.3-.66,2.76-1.11,3.86-2.02,4.82-3.96,8.66-2.78,9.74,3.21,1.82,10.03,4.05,20.03,5.18,30.14,1.32,11.82.85,23.7-2.36,35.3-.22.79-.38,1.71-.89,2.28-3.78,4.24-2.19,8.76-.21,12.84,6.05,12.49,7.52,25.71,5.87,39.16-.99,8.08-3.26,16.05-7.87,23.13-.89,1.37-.97,3.94-.34,5.52,5.02,12.71,7.02,25.94,5.21,39.35-1.37,10.18-4.4,20.14-6.91,30.14-.31,1.24-1.77,2.44-2.99,3.16-1.77,1.05-3.8,1.65-6.28,2.67,1.49,1.88,2.62,3.63,4.07,5.04,1.57,1.53,3.19,1.1,4.47-.65,1.59-2.19,4.04-3.81,6.27-2.34,1.52,1.01,2.7,4.05,2.43,5.95-.67,4.72-2.11,9.35-3.5,13.94-3.24,10.72-7.53,20.98-14.17,30.1-2.14,2.93-4.53,5.68-6.84,8.49-.44.54-.96,1.31-1.53,1.4-2.26.36-4.82,1.21-6.77.5-1.93-.7-1.59-5.58,0-7.68,2.97-3.93,5.91-7.88,8.81-11.86,1.38-1.88,1.35-3.62.08-5.81-2.41-4.15-4.55-8.49-6.36-12.93-.62-1.53-.45-3.87.3-5.37,2.13-4.23,1.92-7.79-1.57-11.16-2.27-2.19-4.17-4.8-6.6-6.79-1.09-.9-3.07-1.1-4.6-1.01-16.25,1-32.35-.34-48.4-2.69-.93-.14-1.89-.21-2.76-.52-2.41-.85-3.87.04-5.27,2.09-3.95,5.76-8.53,10.74-15.11,13.83-6.33,2.97-12.83,4.07-19.71,4.23-2.26.05-4.72.86-6.69,2.01-4.41,2.56-8.69,5.07-14.09,4.61-3.22-.28-5.23-1.63-5.95-4.91-.37-1.7-.73-3.68-1.82-4.87-.96-1.06-2.92-1.2-4.44-1.75-.4,1.42-1.43,3.01-1.09,4.22,3.37,12.05.75,23.18-5.97,33.13-4.87,7.21-13.02,9.9-21.37,10.8-5.18.56-10.54.34-15.74-.26-5.97-.69-8.67-3.59-8.53-9.65.16-6.75.33-13.79,2.25-20.16,4.89-16.21,11.01-32.03,21.24-45.78,2.98-4.01,6.51-7.72,10.25-11.03,4.85-4.3,9.06-4.27,14.4-.59,7.72,5.32,15.3,10.87,23.12,16.04,4.48,2.96,9.48,5.15,12.41,10.03.32.54,1.09.89,1.72,1.16,4.17,1.76,13.79-1.4,16.63-5.73ZM128.9,326.82c-.06.15-.28.46-.29.78-.52,10.76-.98,21.53-1.56,32.29-.18,3.27,1.13,5.58,4.09,6.64,5.28,1.89,10.63,3.57,15.99,5.23,7.6,2.35,15.13,5.01,23.29,4.63,1.95-.09,3.93.55,5.9.83,4.86.7,9.69,1.72,14.58,2,11.23.65,22.49,1.22,33.74,1.27,10.17.05,20.36-.53,30.52-1.08,1.43-.08,3.61-1.25,4.04-2.43,7.05-19.17,8.72-38.52,1.66-58.17-1.11-3.09-2.41-3.27-5.13-2.59-11.82,2.92-23.65,5.79-35.55,8.35-3.25.7-6.77.54-10.1.18-.98-.11-2.45-2.27-2.41-3.44.04-1.16,1.55-3.07,2.67-3.28,7.7-1.4,15.54-2.07,23.19-3.7,8.3-1.77,16.46-4.22,24.59-6.66,1.46-.44,2.91-2.03,3.68-3.46,4.14-7.74,6.79-15.94,6.9-24.84.15-11.95-3.22-23.19-7-34.32-.31-.9-2.48-2.01-3.33-1.71-2.72.95-5.44,2.22-7.77,3.92-3.5,2.54-7.24,3.06-10.99,1.58-4-1.57-7.52-.96-10.53,1.56-6.23,5.19-12.97,4.85-20.25,3.09-2.79-.67-5.96-.15-8.9.25-2.29.31-4.47,1.65-6.75,1.85-2.58.23-5.68.48-7.75-.7-3.24-1.86-5.99-3.1-9.74-1.6-2.15.86-3.75.02-3.61-2.95.24-5.07,4.35-9.44,9.96-10.16,4.64-.59,5.68.33,5.6,5-.06,3.8.25,3.9,4,3.27,5.06-.84,10.22-2.18,15.24-1.85,8.67.57,16.78.33,23.72-5.81,2.09-1.85,4.47-1.96,7.2-.8,4.29,1.82,8.32,1.9,12.47-1.43,2.57-2.06,6.4-2.5,9.62-3.8.85-.34,1.98-1.02,2.18-1.76,1.31-4.98,2.86-9.97,3.48-15.06,1.65-13.41.42-26.72-2.76-39.82-.3-1.22-1.89-2.74-3.13-3.02-4.91-1.1-6.17-.12-6.45,4.92-.42,7.56-2.38,14.78-6.5,20.96-2.77,4.16-6.56,8.43-10.91,10.56-5.78,2.82-12,.97-16.86-3.61-2.61-2.46-4.99-5.18-7.72-8.04-.58,1-1.01,1.92-1.6,2.74-2.24,3.12-4.16,6.59-6.87,9.23-6.3,6.14-14.03,6.49-20.95,1-3.17-2.52-6.31-5.47-8.4-8.87-2.98-4.85-5.23-10.2-7.3-15.53-1.27-3.27-2.87-5.02-6.45-4.08-6.32,1.65-12.7,3.1-18.92,5.06-6.66,2.1-13.24,4.53-19.71,7.17-2.6,1.06-5.21,2.69-7.15,4.7-3.62,3.74-2.98,6.14,2.1,6.76,7.17.89,14.45.94,21.69,1.24,2.57.1,5.2-.42,7.72-.08,1.3.18,2.44,1.61,3.65,2.48-1,1.23-1.78,2.86-3.06,3.59-1.34.76-3.18.88-4.79.86-8.06-.12-16.12-.38-24.18-.59-3.81-.1-4.09.17-3.39,3.95,1.96,10.71,4.15,21.38,5.88,32.13,1.06,6.59,1.48,7.43,8.07,8.39,1.04.15,2.11.23,3.16.22,6.92-.04,13.84-.2,20.75-.1,1.35.02,3.25.66,3.87,1.65.64,1.03.47,3.08-.17,4.23-.55.98-2.25,1.84-3.45,1.85-9.96.09-19.93.22-29.86-.28-2.45-.12-5.19-2.14-7.04-4.02-1.54-1.56-2.48-2.99-4.85-1.95-2.42,1.07-4.42,2.51-3.99,5.49.67,4.69,1.54,9.35,2.39,14.42,1.92-.55,4.11-1.24,6.34-1.81,3.07-.78,5.21.65,6.83,3.1,1.69,2.55,1.35,5.07-.91,6.94-2.33,1.91-4.86,3.7-7.56,5.01-3.43,1.66-5.25,3.55-3.65,7.6.76,1.93,1.01,4.11,1.21,6.2.83,8.76.33,7.6,9.19,8.55,14.8,1.59,29.67,2.48,44.52,3.61,2.66.2,5.03.51,4.94,4.01-.1,3.71-2.98,3.16-5.15,3.1-8.55-.23-17.1-.7-25.64-1.01-3.14-.11-6.28-.02-9.54-.02ZM170.92,173.78c-.05.8-.29,1.5-.11,2.07,2.15,6.78,3.8,13.79,6.74,20.2,1.88,4.09,5.31,7.71,8.72,10.79,4.32,3.9,9.08,3.01,12.98-1.34,3.93-4.37,5.36-9.79,6.87-15.24.62-2.25.88-5.64,4-5.35,1.58.15,3.13,2.62,4.34,4.29,2.94,4.07,5.14,8.82,8.6,12.33,5.54,5.6,11.48,4.68,15.93-1.77,1.45-2.1,2.65-4.45,3.53-6.84,6.77-18.45,4.07-36.5-2.64-54.29-2.1-5.58-5.34-10.44-10.4-13.88-2.86-1.95-5.84-2.7-9.47-1.4,1.82,2.68,3.54,5.03,5.06,7.5,4.51,7.38,4.25,15.6,3.25,23.64-.53,4.26-2.24,8.68-4.5,12.35-3.62,5.89-9.68,6.11-13.48.38-2.71-4.09-4.84-8.98-5.71-13.78-1.39-7.68-4.42-14.41-9.23-20.25-2.05-2.49-5.25-4.18-8.18-5.75-3.12-1.66-5.79-.27-8.07,2.23,2.53,2.31,5.26,4.19,7.21,6.69,6.45,8.27,6.27,18.03,4.88,27.64-.59,4.12-2.62,8.25-4.85,11.84-2.48,3.98-5.92,4.55-10.06,2.37-1.94-1.02-3.48-2.81-5.43-4.44ZM45.51,225.77c-5.47-.62-9.18-3.41-11.95-7.91-1.99-3.23-7.98-3.48-9.57-.64-2.59,4.62-1.42,9.73,3.09,12.66,1.75,1.14,4.07,1.56,5.56,2.93,1.14,1.05,2.07,3.2,1.82,4.63-.19,1.05-2.4,2.33-3.79,2.43-1.6.12-3.38-.76-4.91-1.55-1.86-.97-3.51-2.34-5.3-3.46-2.66-1.66-4.07-1.06-4.83,1.97-1.27,5.03,1.77,9.88,6.82,9.64,5.35-.25,8.05,2.05,9.49,6.76.27.89.72,1.74,1.19,2.55,3.67,6.34,9.16,10.98,16.2,11.93,13.76,1.87,29.64-6.84,28.52-25.06-.46-7.44.36-12.41,6.61-16.5,2.51-1.64,2.49-8.19.61-10.11-2.06-2.1-6.79-2.2-9.4.23-1.65,1.54-3.23,3.53-3.92,5.62-.73,2.22-1.67,3.13-3.9,3.02-1.52-.08-3.05.02-4.58.02-3.59,0-6.06,1.7-8.18,4.6-3.25,4.45-2.41,8.93-1.22,13.72.97,3.92-.73,5.37-4.47,3.78-1.44-.61-2.87-2.49-3.29-4.06-1.57-5.88.19-17.23,7.72-22.36,4.82-3.28,4.68-3.49,2.26-8.89-.29-.64-.45-1.45-.94-1.88-2.51-2.2-4.88-4.71-7.74-6.31-2.56-1.44-5.65-.8-7.81,1.37-2.03,2.04-1.49,4.68-.22,6.89,1.32,2.29,2.79,4.64,4.72,6.38,2.5,2.25,3.28,4.42,1.41,7.58ZM65.89,437.74c1.05-.94,2.14-1.72,2.99-2.7,13.98-16.13,20.78-35.66,26.1-55.83.59-2.23,0-4.78-.06-7.86-13.75,10.47-33.59,58.22-29.03,66.39Z"/>
      <path class="cls-3" d="M185.64,473.67c-1.28-.4-2.54-.98-3.86-1.18-7.86-1.25-15.73-2.47-23.61-3.57-2.64-.37-5.42-.02-7.99-.62-5.6-1.33-11.67-2.11-16.49-4.93-4.07-2.38-5.93-7.56-5.85-12.88.12-7.38,0-14.76-.03-22.15,0-.82-.13-1.66,0-2.46.52-3.21,2.73-5.39,5.22-5.26,3.15.16,5.27,2.32,5.29,5.87.05,7.15-.1,14.3-.13,21.45-.03,6.25,2.95,8.9,9.25,8.55,2.09-.12,4.24.05,6.3.41,10.95,1.92,21.88,3.94,32.82,5.92.46.08.92.18,1.39.25,10.93,1.67,21.85,3.38,32.78,4.98,9.97,1.46,19.99,2.65,29.94,4.24,7.49,1.2,14.88,3.89,22.35,4.04,11.06.22,21.46,3.64,32.25,4.97,16.05,1.98,32.05,4.41,48.04,6.86,9.83,1.5,19.6,3.4,29.39,5.12.23.04.46.07.7.11,7.5,1.1,8.78-.26,8.69-7.85-.14-11.51.08-23.02.13-34.53.09-23.37.17-46.75.23-70.12.07-28.41.23-56.81.15-85.22-.07-27.84-.57-55.69-.52-83.53.04-23.14.73-46.27.86-69.41.09-16.33-.37-32.66-.45-48.98-.06-11.27.14-22.55.13-33.82,0-1.73-.09-3.67-.85-5.14-.68-1.31-2.21-2.76-3.59-3.03-7.11-1.39-14.29-2.5-21.46-3.55-8.55-1.26-17.14-2.22-25.68-3.57-13.64-2.15-27.23-4.6-40.87-6.77-13.87-2.21-27.78-4.2-41.66-6.35-10.43-1.62-20.83-3.43-31.27-4.97-7.4-1.09-14.85-1.79-22.25-2.85-5.65-.81-11.24-2.04-16.89-2.85-8.92-1.28-17.89-2.25-26.81-3.58-5.55-.83-11.01-2.17-16.55-3.09-4.46-.74-5.67.02-6.02,4.52-.36,4.66.06,9.37.02,14.06-.1,13.86-.41,27.71-.37,41.56.06,22.07.41,44.13.5,66.2.03,7.63-.17,15.27-.65,22.88-.1,1.55-1.65,3.7-3.07,4.32-2.33,1.01-4.77,0-5.63-2.68-.66-2.09-1.06-4.34-1.08-6.53-.12-12.1-.11-24.19-.09-36.29.06-34.75.17-69.51.18-104.26,0-6.5,2.89-10.63,8.67-13.59,7.91-4.06,15.61-5.45,24.62-3.5,13.03,2.82,26.38,4.15,39.62,5.99,14.27,1.99,28.58,3.7,42.84,5.8,7.15,1.05,14.22,2.67,21.33,4.04,1.38.27,2.75.59,4.15.79,8.8,1.21,17.62,2.29,26.4,3.62,13.78,2.09,27.52,4.42,41.3,6.5,19.36,2.93,38.74,5.69,58.1,8.59,8.11,1.21,13.16,7.1,13.22,15.27.16,21.24.41,42.48.42,63.72,0,21.7-.38,43.4-.33,65.1.05,20.04.58,40.08.66,60.12.05,12.38-.54,24.76-.48,37.14.05,10.09.83,20.17.92,30.26.09,10.33-.4,20.65-.43,30.98-.03,11.03.23,22.06.27,33.09.03,7.51-.18,15.02-.12,22.53.03,3.98.56,7.96.56,11.94,0,14.8-.09,29.6-.23,44.4-.02,1.88.54,2.83,2.41,3.13,4.28.68,8.55,1.44,12.83,2.17,1.5.26,3.04.41,4.5.82,4.93,1.38,6.4,5.63,2.92,9.32-6.68,7.08-13.63,13.92-20.52,20.81-3.97,3.98-8.15,7.76-12.03,11.82-3.67,3.84-7.74,5.62-13.21,4.79-23.04-3.48-46.14-6.6-69.18-10.11-17.6-2.68-35.13-5.78-52.7-8.63-1.96-.32-3.97-.4-5.95-.4-34.27-.02-68.54-.02-102.81-.02-1.29,0-2.58-.07-3.87-.01-3.21.15-4.82-1.33-4.85-4.57-.04-4.03.94-5.39,4.76-5.37,9.74.05,19.47.31,29.21.48,1.34.02,2.68,0,4.02,0,.04-.43.08-.86.12-1.28Z"/>
      <path class="cls-2" d="M328.37,119.19c0,7.63.11,15.27-.03,22.9-.14,7.55-4.47,11.74-11.97,10.75-11.37-1.5-22.69-3.49-33.96-5.66-5.37-1.04-7.54-4.02-7.59-9.51-.14-16.44-.17-32.88-.12-49.32.02-5.18,4.2-9.18,9.28-8.82,3.43.25,6.81,1.18,10.22,1.81,1.5.28,2.98.63,4.49.87,7.39,1.17,14.79,2.28,22.18,3.46,4.69.74,7.15,3.72,7.41,9.22.19,4.1.12,8.22.14,12.33.02,3.99,0,7.99,0,11.98h-.05ZM305.78,116.98c-.1,0-.2,0-.3,0,0,7.15-.07,14.31.06,21.46.02,1.24.58,3.29,1.36,3.56,2.85.96,5.89,1.46,8.89,1.8.76.08,2.33-1.04,2.39-1.72.59-6.04,1.19-12.11,1.28-18.17.11-7.23-.58-14.48-.37-21.7.2-7.06.02-7.73-6.82-9.31-1.03-.24-2.08-.33-3.11-.59-2.46-.61-3.44.36-3.42,2.85.06,7.27.02,14.55.02,21.83ZM297.45,96.93c-.14-6.31-1.15-7.4-7.51-7.89-1.4-.11-2.91-.39-4.17.02-.98.32-2.32,1.58-2.35,2.46-.28,8.67-.21,8.67,8.25,10.32.8.16,1.62.26,2.41.45,2.5.61,3.5-.47,3.38-2.91-.04-.82,0-1.64,0-2.46ZM297.45,117c.06-5.46-.31-5.92-5.7-6.82-1.73-.29-3.52-.76-5.22-.55-1.02.13-2.64,1.31-2.74,2.16-1.02,8.54-2.1,7.62,5.75,9.57.68.17,1.36.37,2.04.51,5.36,1.07,5.8.7,5.86-4.87ZM287.8,128.72c-3.7-.76-4.58.93-4.7,4.41-.12,3.63,1.22,5.24,4.64,5.57,2.22.21,4.43.76,6.63.69.97-.03,2.44-1.01,2.77-1.9,1.56-4.2-.42-7.46-4.8-8.28-1.49-.28-3.02-.34-4.54-.5Z"/>
      <path class="cls-2" d="M298.88,296.29c-1.69,6.32-3.48,12.62-5.01,18.98-.49,2.06-.71,4.37-.3,6.41.96,4.82,2.56,9.52,3.58,14.33,2.19,10.38.81,20.55-2.48,30.49-1.25,3.76-5.65,5.4-9.16,3.61-.59-.3-1.14-1.46-1.07-2.17.23-2.33.58-4.67,1.18-6.94,3.14-11.94,2.89-23.73-1.92-35.15-1.89-4.48-1.79-8.57.04-12.87,2.84-6.68,4.1-13.65,4.24-20.92.03-1.58,1.14-3.71,2.43-4.59,2.83-1.93,5.85-.61,6.92,2.74.6,1.87.74,3.89,1.09,5.85.16.08.32.15.49.23Z"/>
      <path class="cls-2" d="M0,412.29c-.18-14.52,3.45-26.74,12.09-37.25.78-.95,1.99-2.24,2.95-2.19,1.92.09,4.25.49,5.59,1.69,2.01,1.79.84,4.23-.59,6.02-5.49,6.91-8.62,14.88-9.41,23.51-.54,5.88.25,11.88.5,17.83.05,1.28.46,2.54.48,3.82.03,2.14,0,4.46-2.73,4.99-2.72.53-5.27.03-6.49-2.83-.73-1.7-1.24-3.56-1.47-5.39-.47-3.72-.69-7.47-.92-10.18Z"/>
      <path class="cls-2" d="M297.44,213.02c-1.56,8.74-2.99,17.51-4.81,26.2-.34,1.63-2.01,3.55-3.56,4.25-3.99,1.78-6.8-.26-6.37-4.6.48-4.88,1.72-9.69,2.24-14.57.64-6.04.89-12.12,1.28-18.19.11-1.64.11-3.28.19-4.92.14-2.95,1.09-4.93,4.64-4.64,3.82.3,4.98,1.33,5.13,5.11.15,3.75.37,7.49.55,11.24.23.04.46.08.7.13Z"/>
      <path class="cls-2" d="M44.83,372.31c2.44.2,4.23.87,4.84,3.46.53,2.28.33,4.14-2.05,5.31-10.93,5.36-16.15,14.48-17.11,26.33-.24,2.98-1.98,3.59-4.58,3.41-2.59-.18-4.45-.69-4.6-3.93-.67-14.75,6.08-25.33,18.24-32.86,1.53-.94,3.5-1.17,5.26-1.72Z"/>
      <path class="cls-2" d="M115.01,484.43c-4.46,0-8.91-.08-13.37.03-3.27.08-4.63-1.56-4.95-4.63-.32-3.04.75-4.83,3.93-4.88,9.25-.16,18.5-.39,27.74-.31,2.74.03,5.41.98,5.07,4.83-.32,3.59-1.71,4.92-5.76,4.95-4.22.03-8.44,0-12.67,0Z"/>
      <path class="cls-2" d="M301.91,71.15c-1.6,1.48-2.64,3.22-3.97,3.48-1.88.36-4.94.31-5.74-.81-1.13-1.58-1.48-4.68-.69-6.47,1.64-3.69,4.13-7.05,6.52-10.35,1.68-2.33,4.12-2.54,5.95-.29,3.16,3.89,6.16,7.94,8.89,12.14,1.57,2.4.42,6.38-1.78,7.46-2.83,1.39-5.18.86-6.86-2.01-.63-1.08-1.49-2.01-2.34-3.13Z"/>
      <path class="cls-2" d="M78.59,484.4c-1.75,0-3.5.03-5.25,0-3.17-.06-4.56-1.95-4.85-4.88-.31-3.09,1.35-4.67,4.22-4.82,3.83-.2,7.69-.31,11.52-.1,3.04.17,4.61,2.03,4.17,5.22-.4,2.83-1.53,4.88-4.91,4.64-1.62-.12-3.26-.02-4.9-.02,0,0,0-.02,0-.03Z"/>
      <path class="cls-1" d="M128.9,326.82c3.26,0,6.4-.1,9.54.02,8.55.31,17.09.78,25.64,1.01,2.17.06,5.05.61,5.15-3.1.1-3.5-2.28-3.81-4.94-4.01-14.85-1.13-29.72-2.02-44.52-3.61-8.86-.95-8.35.21-9.19-8.55-.2-2.09-.45-4.27-1.21-6.2-1.6-4.05.22-5.94,3.65-7.6,2.7-1.31,5.23-3.09,7.56-5.01,2.26-1.86,2.6-4.38.91-6.94-1.62-2.44-3.76-3.88-6.83-3.1-2.22.57-4.42,1.26-6.34,1.81-.85-5.07-1.72-9.73-2.39-14.42-.42-2.98,1.57-4.43,3.99-5.49,2.37-1.04,3.31.38,4.85,1.95,1.86,1.88,4.59,3.9,7.04,4.02,9.93.5,19.91.37,29.86.28,1.2-.01,2.9-.87,3.45-1.85.64-1.15.81-3.2.17-4.23-.62-.99-2.52-1.63-3.87-1.65-6.91-.1-13.83.06-20.75.1-1.05,0-2.12-.07-3.16-.22-6.59-.96-7.01-1.8-8.07-8.39-1.72-10.75-3.91-21.42-5.88-32.13-.69-3.78-.42-4.05,3.39-3.95,8.06.21,16.12.47,24.18.59,1.61.02,3.45-.1,4.79-.86,1.29-.72,2.06-2.36,3.06-3.59-1.21-.87-2.35-2.3-3.65-2.48-2.52-.34-5.15.18-7.72.08-7.24-.3-14.52-.35-21.69-1.24-5.07-.63-5.72-3.02-2.1-6.76,1.94-2.01,4.54-3.64,7.15-4.7,6.47-2.64,13.05-5.06,19.71-7.17,6.22-1.96,12.6-3.41,18.92-5.06,3.58-.93,5.18.81,6.45,4.08,2.07,5.33,4.32,10.68,7.3,15.53,2.09,3.41,5.23,6.35,8.4,8.87,6.92,5.5,14.65,5.14,20.95-1,2.71-2.65,4.63-6.11,6.87-9.23.58-.81,1.02-1.73,1.6-2.74,2.73,2.86,5.11,5.58,7.72,8.04,4.87,4.58,11.09,6.43,16.86,3.61,4.35-2.13,8.14-6.4,10.91-10.56,4.12-6.18,6.08-13.4,6.5-20.96.28-5.04,1.54-6.02,6.45-4.92,1.24.28,2.84,1.79,3.13,3.02,3.18,13.1,4.41,26.41,2.76,39.82-.63,5.09-2.17,10.08-3.48,15.06-.19.74-1.33,1.42-2.18,1.76-3.22,1.3-7.05,1.74-9.62,3.8-4.15,3.33-8.17,3.25-12.47,1.43-2.73-1.16-5.11-1.04-7.2.8-6.93,6.13-15.04,6.37-23.72,5.81-5.02-.33-10.18,1.01-15.24,1.85-3.76.62-4.06.53-4-3.27.07-4.67-.96-5.59-5.6-5-5.61.72-9.72,5.08-9.96,10.16-.14,2.96,1.46,3.81,3.61,2.95,3.75-1.5,6.49-.26,9.74,1.6,2.06,1.18,5.16.93,7.75.7,2.29-.2,4.46-1.54,6.75-1.85,2.94-.4,6.1-.92,8.9-.25,7.28,1.75,14.03,2.1,20.25-3.09,3.02-2.52,6.54-3.13,10.53-1.56,3.75,1.48,7.49.96,10.99-1.58,2.33-1.69,5.05-2.97,7.77-3.92.85-.3,3.03.82,3.33,1.71,3.79,11.13,7.15,22.37,7,34.32-.11,8.9-2.76,17.1-6.9,24.84-.77,1.43-2.22,3.02-3.68,3.46-8.14,2.44-16.3,4.89-24.59,6.66-7.64,1.63-15.49,2.3-23.19,3.7-1.12.2-2.63,2.11-2.67,3.28-.04,1.18,1.43,3.34,2.41,3.44,3.33.36,6.85.52,10.1-.18,11.9-2.56,23.73-5.43,35.55-8.35,2.72-.67,4.02-.49,5.13,2.59,7.05,19.66,5.39,39-1.66,58.17-.43,1.18-2.61,2.35-4.04,2.43-10.17.55-20.35,1.13-30.52,1.08-11.25-.06-22.5-.63-33.74-1.27-4.88-.28-9.72-1.31-14.58-2-1.97-.28-3.95-.92-5.9-.83-8.17.37-15.7-2.29-23.29-4.63-5.36-1.66-10.71-3.34-15.99-5.23-2.97-1.06-4.27-3.37-4.09-6.64.58-10.76,1.03-21.53,1.56-32.29.02-.32.23-.64.29-.78ZM237.93,288.92c-.65-2.81-.95-5.77-2.11-8.35-.48-1.07-3.09-2.15-4.19-1.74-1.34.49-2.91,2.52-2.95,3.92-.09,2.98.47,6.07,1.34,8.94.35,1.15,2.15,2.43,3.42,2.6,3.16.42,4.1-1.02,4.49-5.37ZM124.6,229.33c.86,4.2,1.32,7.58,2.34,10.78.31.97,2.09,1.91,3.29,2.04,1.81.2,3.73-.61,3.53-2.89-.31-3.58-.66-7.24-1.72-10.64-.39-1.25-2.87-2.66-4.28-2.55-1.22.1-2.27,2.26-3.17,3.25ZM257.38,355.19c-.15-.08-.29-.17-.44-.25-.11-1.75.17-3.66-.44-5.21-.53-1.35-1.94-2.51-3.24-3.31-.56-.35-2.13.14-2.69.75-2.41,2.61-2.91,10.71-1.03,13.81,1.42,2.33,3.49,2.86,5.1.72,1.37-1.82,1.86-4.31,2.74-6.51ZM212.75,353.34c-.14-.05-.27-.11-.41-.16-.11-1.04.14-2.34-.4-3.08-1.02-1.42-2.44-3.44-3.78-3.51-1.29-.06-3.7,1.91-3.84,3.18-.38,3.53-.32,7.27.49,10.71.71,3.02,3.9,3.22,5.45.39,1.25-2.28,1.69-5.01,2.48-7.54ZM145.75,347.22c.07,1.69.08,3.21.23,4.71.19,1.88.84,3.42,3.14,3.43,2.28,0,3.84-.83,4.05-3.34.24-2.78.52-5.57.74-8.35.25-3.12-1.68-4.05-4.32-4.21-2.65-.16-3.4,1.55-3.59,3.74-.12,1.39-.17,2.79-.25,4.02ZM146.27,295.92c-.34-1.58-.97-3.95-1.35-6.35-.43-2.73-2.23-2.73-4.36-2.66-2.62.08-2.14,1.96-2.19,3.5-.06,2.21-.12,4.44.06,6.64.31,3.77,2.38,6.48,4.61,5.95,3.33-.78,2.93-3.71,3.21-7.08ZM176.63,297.2c-.25-1.91-.53-3.99-.8-6.08-.26-1.98-.7-3.92-3.31-3.5-2.41.39-4.18,1.68-4,4.45.14,2.1.3,4.23.81,6.26.61,2.42.22,6.17,4.12,5.77,4.06-.41,2.87-4.07,3.18-6.9ZM182.09,352.66c-.13-1.77.12-3.69-.52-5.22-.46-1.08-2.22-2.37-3.26-2.25-1.23.14-3.19,1.63-3.27,2.64-.25,3.48-.03,7.04.52,10.49.15.96,1.99,2.19,3.13,2.27.86.06,2.31-1.34,2.67-2.38.59-1.73.52-3.69.73-5.55Z"/>
      <path class="cls-1" d="M170.92,173.78c1.95,1.63,3.49,3.42,5.43,4.44,4.14,2.18,7.59,1.61,10.06-2.37,2.23-3.59,4.26-7.73,4.85-11.84,1.39-9.61,1.57-19.37-4.88-27.64-1.95-2.5-4.68-4.38-7.21-6.69,2.28-2.5,4.95-3.89,8.07-2.23,2.94,1.56,6.13,3.26,8.18,5.75,4.81,5.85,7.84,12.58,9.23,20.25.87,4.81,3,9.7,5.71,13.78,3.8,5.73,9.87,5.51,13.48-.38,2.26-3.68,3.96-8.09,4.5-12.35,1.01-8.04,1.26-16.26-3.25-23.64-1.51-2.48-3.24-4.82-5.06-7.5,3.63-1.3,6.6-.55,9.47,1.4,5.06,3.44,8.3,8.3,10.4,13.88,6.71,17.79,9.41,35.84,2.64,54.29-.88,2.39-2.08,4.74-3.53,6.84-4.45,6.45-10.39,7.37-15.93,1.77-3.47-3.51-5.67-8.26-8.6-12.33-1.21-1.68-2.76-4.15-4.34-4.29-3.12-.29-3.37,3.1-4,5.35-1.51,5.46-2.95,10.87-6.87,15.24-3.9,4.35-8.66,5.24-12.98,1.34-3.41-3.08-6.85-6.7-8.72-10.79-2.94-6.42-4.6-13.43-6.74-20.2-.18-.57.06-1.27.11-2.07Z"/>
      <path class="cls-1" d="M45.51,225.77c1.88-3.17,1.09-5.33-1.41-7.58-1.93-1.74-3.4-4.09-4.72-6.38-1.27-2.21-1.81-4.85.22-6.89,2.16-2.16,5.25-2.81,7.81-1.37,2.86,1.61,5.23,4.11,7.74,6.31.49.43.65,1.23.94,1.88,2.42,5.4,2.56,5.61-2.26,8.89-7.53,5.13-9.29,16.48-7.72,22.36.42,1.57,1.85,3.45,3.29,4.06,3.74,1.59,5.44.13,4.47-3.78-1.19-4.79-2.04-9.27,1.22-13.72,2.12-2.9,4.58-4.6,8.18-4.6,1.53,0,3.05-.1,4.58-.02,2.23.11,3.17-.8,3.9-3.02.69-2.09,2.27-4.08,3.92-5.62,2.61-2.43,7.34-2.33,9.4-.23,1.88,1.92,1.91,8.47-.61,10.11-6.25,4.09-7.07,9.06-6.61,16.5,1.12,18.22-14.76,26.93-28.52,25.06-7.04-.96-12.54-5.59-16.2-11.93-.47-.81-.92-1.66-1.19-2.55-1.44-4.71-4.14-7.01-9.49-6.76-5.05.24-8.09-4.61-6.82-9.64.76-3.03,2.17-3.63,4.83-1.97,1.79,1.12,3.44,2.49,5.3,3.46,1.52.79,3.31,1.67,4.91,1.55,1.39-.1,3.6-1.38,3.79-2.43.26-1.43-.67-3.58-1.82-4.63-1.49-1.37-3.8-1.79-5.56-2.93-4.51-2.93-5.68-8.04-3.09-12.66,1.59-2.83,7.58-2.59,9.57.64,2.77,4.5,6.48,7.29,11.95,7.91Z"/>
      <path class="cls-3" d="M65.89,437.74c-4.56-8.17,15.27-55.92,29.03-66.39.06,3.09.65,5.63.06,7.86-5.32,20.18-12.12,39.7-26.1,55.83-.85.98-1.93,1.76-2.99,2.7Z"/>
      <path class="cls-4" d="M305.78,116.98c0-7.28.04-14.55-.02-21.83-.02-2.49.96-3.46,3.42-2.85,1.02.25,2.08.35,3.11.59,6.85,1.59,7.02,2.25,6.82,9.31-.21,7.22.48,14.47.37,21.7-.09,6.07-.69,12.13-1.28,18.17-.07.68-1.63,1.81-2.39,1.72-3.01-.33-6.04-.84-8.89-1.8-.78-.26-1.34-2.31-1.36-3.56-.13-7.15-.06-14.31-.06-21.46.1,0,.2,0,.3,0Z"/>
      <path class="cls-4" d="M297.45,96.93c0,.82-.03,1.64,0,2.46.12,2.44-.88,3.52-3.38,2.91-.79-.19-1.61-.3-2.41-.45-8.46-1.65-8.53-1.65-8.25-10.32.03-.88,1.37-2.14,2.35-2.46,1.26-.41,2.78-.12,4.17-.02,6.36.49,7.37,1.58,7.51,7.89Z"/>
      <path class="cls-4" d="M297.45,117c-.06,5.57-.5,5.94-5.86,4.87-.69-.14-1.36-.34-2.04-.51-7.85-1.95-6.77-1.03-5.75-9.57.1-.86,1.72-2.04,2.74-2.16,1.69-.21,3.48.26,5.22.55,5.4.9,5.76,1.36,5.7,6.82Z"/>
      <path class="cls-4" d="M287.8,128.72c1.51.16,3.05.22,4.54.5,4.38.82,6.36,4.08,4.8,8.28-.33.89-1.8,1.87-2.77,1.9-2.2.07-4.41-.48-6.63-.69-3.42-.33-4.76-1.94-4.64-5.57.12-3.49,1-5.18,4.7-4.41Z"/>
      <path class="cls-2" d="M237.93,288.92c-.38,4.35-1.33,5.79-4.49,5.37-1.28-.17-3.08-1.45-3.42-2.6-.87-2.87-1.43-5.96-1.34-8.94.04-1.41,1.61-3.43,2.95-3.92,1.1-.4,3.71.67,4.19,1.74,1.16,2.58,1.46,5.54,2.11,8.35Z"/>
      <path class="cls-2" d="M124.6,229.33c.89-.99,1.94-3.15,3.17-3.25,1.41-.12,3.89,1.29,4.28,2.55,1.05,3.4,1.4,7.06,1.72,10.64.2,2.28-1.73,3.09-3.53,2.89-1.2-.13-2.98-1.08-3.29-2.04-1.02-3.2-1.48-6.58-2.34-10.78Z"/>
      <path class="cls-2" d="M257.38,355.19c-.88,2.19-1.37,4.69-2.74,6.51-1.62,2.14-3.69,1.61-5.1-.72-1.88-3.09-1.39-11.19,1.03-13.81.57-.61,2.13-1.09,2.69-.75,1.3.8,2.71,1.96,3.24,3.31.61,1.55.33,3.46.44,5.21.15.08.29.17.44.25Z"/>
      <path class="cls-2" d="M212.75,353.34c-.8,2.53-1.24,5.25-2.48,7.54-1.55,2.83-4.74,2.64-5.45-.39-.8-3.44-.87-7.19-.49-10.71.14-1.27,2.55-3.25,3.84-3.18,1.34.07,2.75,2.08,3.78,3.51.53.74.29,2.04.4,3.08.14.05.27.11.41.16Z"/>
      <path class="cls-2" d="M145.75,347.22c.07-1.23.12-2.63.25-4.02.19-2.19.95-3.9,3.59-3.74,2.64.16,4.57,1.09,4.32,4.21-.22,2.79-.5,5.57-.74,8.35-.21,2.51-1.77,3.34-4.05,3.34-2.31,0-2.96-1.54-3.14-3.43-.15-1.51-.15-3.03-.23-4.71Z"/>
      <path class="cls-2" d="M146.27,295.92c-.28,3.37.11,6.3-3.21,7.08-2.23.52-4.3-2.19-4.61-5.95-.18-2.2-.12-4.43-.06-6.64.04-1.53-.43-3.41,2.19-3.5,2.12-.07,3.93-.07,4.36,2.66.38,2.4,1,4.76,1.35,6.35Z"/>
      <path class="cls-2" d="M176.63,297.2c-.32,2.83.88,6.49-3.18,6.9-3.9.4-3.51-3.35-4.12-5.77-.51-2.03-.67-4.16-.81-6.26-.18-2.77,1.59-4.06,4-4.45,2.61-.42,3.06,1.52,3.31,3.5.27,2.08.55,4.17.8,6.08Z"/>
      <path class="cls-2" d="M182.09,352.66c-.21,1.86-.14,3.82-.73,5.55-.36,1.04-1.8,2.44-2.67,2.38-1.14-.08-2.98-1.31-3.13-2.27-.54-3.45-.76-7.01-.52-10.49.07-1.02,2.04-2.5,3.27-2.64,1.03-.12,2.8,1.17,3.26,2.25.65,1.53.39,3.45.52,5.22Z"/>
    </g>
  </g>
</svg>