<svg width="20" height="18" viewBox="0 0 20 18" fill="none" xmlns="http://www.w3.org/2000/svg">
<path d="M17.7778 1.125H2.22222C0.994792 1.125 0 2.13223 0 3.375V14.625C0 15.8678 0.994792 16.875 2.22222 16.875H17.7778C19.0052 16.875 20 15.8678 20 14.625V3.375C20 2.13223 19.0035 1.125 17.7778 1.125ZM6.11111 4.5C7.33854 4.5 8.33333 5.50723 8.33333 6.75C8.33333 7.99277 7.33854 9 6.11111 9C4.88368 9 3.88889 7.99277 3.88889 6.75C3.88889 5.50723 4.88542 4.5 6.11111 4.5ZM9.44444 13.5H2.77778C2.47083 13.5 2.22222 13.2469 2.22222 12.9375C2.22222 11.3836 3.46597 10.125 5 10.125H7.22222C8.75625 10.125 10 11.3843 10 12.9375C10 13.2469 9.75 13.5 9.44444 13.5ZM17.2222 11.25H12.7778C12.4722 11.25 12.2222 10.9969 12.2222 10.6875C12.2222 10.3781 12.4722 10.125 12.7778 10.125H17.2222C17.5278 10.125 17.7778 10.3781 17.7778 10.6875C17.7778 10.9969 17.5278 11.25 17.2222 11.25ZM17.2222 9H12.7778C12.4722 9 12.2222 8.74687 12.2222 8.4375C12.2222 8.12813 12.4722 7.875 12.7778 7.875H17.2222C17.5278 7.875 17.7778 8.12813 17.7778 8.4375C17.7778 8.74687 17.5278 9 17.2222 9ZM17.2222 6.75H12.7778C12.4722 6.75 12.2222 6.49687 12.2222 6.1875C12.2222 5.87813 12.4722 5.625 12.7778 5.625H17.2222C17.5278 5.625 17.7778 5.87813 17.7778 6.1875C17.7778 6.49687 17.5278 6.75 17.2222 6.75Z" fill="#4EEC91"/>
</svg>
