<?xml version="1.0" encoding="utf-8"?>
<!-- Generator: Adobe Illustrator 27.4.0, SVG Export Plug-In . SVG Version: 6.00 Build 0)  -->
<svg version="1.1" id="Layer_1" xmlns="http://www.w3.org/2000/svg" xmlns:xlink="http://www.w3.org/1999/xlink" x="0px" y="0px"
	 viewBox="0 0 488 484.5" style="enable-background:new 0 0 488 484.5;" xml:space="preserve">
<style type="text/css">
	.st0{fill:#232323;}
	.st1{fill:#EBE8DA;}
</style>
<g>
	<path class="st0" d="M380.5,341.3c-1.2-6.4-12.9-44.4-15.9-38.3C368.5,314.2,373.5,336.8,380.5,341.3z"/>
	<path class="st0" d="M339.4,446.5c-14.5,9.9,2.9,31.7,16.1,20.5C370.7,458.1,351.5,433.9,339.4,446.5z M355.1,456.7
		c0.4,10.4-15.1,10.2-15.2,0.1C339.5,446.8,355.6,446.1,355.1,456.7z"/>
	<path class="st1" d="M56.6,277.2c10.7,0.1,4.7-15-3.4-12.8C45.3,264.8,50.4,278.5,56.6,277.2z"/>
	<path class="st1" d="M104.8,162.7c20.4,4,6.6-47,29.1-16l0,0c0,1,0.6,1.6,1.5,1.9c0,0,0,0,0,0l0,0c0,0,0,0,0,0
		c18.2,21.3,28-20.9,21.7-33.3c-13.1,19.8-29.8-4-29-20.5c-4.1-11.9,14.2-27.3-1.1-21c-16.6,15.2-3.8,39.5-15,56.5
		C91.2,140,82.1,98.5,92.4,85.1c4.2-3.4-1-5.2-4.1-3.1C68.2,101.4,79,151.8,104.8,162.7z"/>
	<path class="st1" d="M308.7,116.4c25.2-4.1,10.6-30.3,22.8-43.5c3.3-3.4-5-11.3-6.6-4.2c-0.4,6-11.4,15.3-12.7,5.4
		c5.1-6.3,6.3-24.5-6.3-18.1c-4.7,4.3,0.6,20.9-10.6,16.7c-5-4.2,5.2-16.4-4.4-19.5c-11.9-2-14.8,24.7-1.2,20.1
		c23.3,0,27,42,4.7,11.9c-7.5-7.5-15.5,7.9-22.3,1.4c-5.9-6.5-16.4,3.5-8.3,8.4C283.2,97.8,284.5,123.9,308.7,116.4z"/>
	<path class="st1" d="M64.1,289.4c0.4,7.1,12.5,19.8,0.9,21.8c-4.5-4.2-9.3-11-15.8-4.1c-17.5,17.1-10.7-13.9,3.9-12.6
		c10.5-5.9-13.4-16.3-17.4-2.4l0,0c-2.7,3-8.1,7.7-10.4,0.5c0.6-10.1,12.7-12.2,15.1-19.5c-2.2-6.5-13.1-2.9-15.9,1
		c-23.9,21,9.3,61.9,34.8,49.3C87.7,321.8,69.3,267.9,64.1,289.4z"/>
	<path class="st0" d="M133.3,445.9c-20.7,12.1,11.2,36.2,20,16.1C158.9,451.6,143.4,437.7,133.3,445.9z M142.1,464.3
		c-7.8,1.6-11.9-8.5-6.7-13.7C145.2,442.6,153.5,460.9,142.1,464.3z"/>
	<path class="st1" d="M307.1,238.8c-2.8-8.2-13.6-0.5-19.9-4.1c-11.2-0.2-20,5.5-29,11.6c2.7,6.4,18.7-5.9,25.5-6.5
		c31.5,4.2-34.3,22.3-42.3,23.9c-14.2,1.9-28.8,6.1-43.9,4.9c-3.1-8.1,4.3-11.9,11.4-13.3c16.1-2.7,76.9-26.5,72.9-44.2
		c-6.9-18.9-3.7-14.7-18.5-4.5c-7.6,7.8-19,2.6-14.4-8.3c7.2-5.9,16.7-11.5,21.2-19.3c1.9-11.6-16.7-14.7-21.7-6.7
		c-12.4,18-38.7,17.1-11.2-2.9c2.7-12.3-10.3-29.3-12.4-43.2c-6.1-2.3-32.8,26.5-31.3,5.6c58.9-27.2-3.9-21-26-12.7
		c3.4,24-12.7,61.8-38.7,36.9c-2.4-1.9-3.8-1.5-4.8,1.5c-24.3,43.8-40.2-18.9-51.1-2.7c-6.1,1.3-24.5,13.4-11.3,16.6
		c7.4,2.8,23-8.6,25.3,2.4c-14.4,19-36.1-10.4-19.4,30.6c13.6,30.3,3.3,17.4,34.1,20.7c-2.1,13.3,7.2,25.2,9.7,37.6
		c-0.6,25.8,47.9,1.1,64,3.8c17.9,12.5-32.9,11.4-36.5,18.2c2.6,9,2.4,39.5,14.3,38.2c52.9,0,107.8-10,155.8-35.2
		C325.8,280.1,307.3,253.2,307.1,238.8z M235.3,227.7c-0.1,0-0.3,0-0.4,0.1c-8.8,3.2-8.8-9-9.3-14.9
		C232,203,239.1,221.6,235.3,227.7z M222.9,155.5c-7.1,4.2-8.3-7.3-10.9-11.7C214.8,128.1,230.7,149,222.9,155.5z M75.7,201.9
		c-3.1-5.6-5.7-20.2,5.4-13.7C85.5,194.7,86.6,210.7,75.7,201.9z M164.3,300.7c-5.8-10.1,5.9-17.3,9.4-5.2
		C175.4,304.6,167.4,313.6,164.3,300.7z M125.7,257c-4.4-3.1-4.8-8.5-6.6-13.1C121.5,227.5,138.5,254.7,125.7,257z M143.7,238
		c8.1-1.7,5.4,7.5,10.6,10.9C153.2,265.4,136.1,245.4,143.7,238z M169.2,248c-6.3-7.1-0.5-20.4,7.5-9.3
		C181.3,246.2,176.1,259.6,169.2,248z M186.4,186.5c-6.5-0.3-3.9,17.3-16.8,15.4c-9.7-1.6-16.2,0.9-22.5,8.2
		c-9.2,3.7-21.4-2.8-28.6,5.8c-5.6,1.7-11.8-5.1-15.9-1.4c-12,3.4-6.1-15.6,2-15c8.7,8.7,13.3,4,24.5,2.7c12.6,3.8,19-8.1,29-11
		c27.4,2.5,8.9-5.6,14.6-14.1C179.3,169.4,200.7,183.5,186.4,186.5z M198.1,305.2c-5.7,0.9-5.4-6.1-7.6-10.6
		C191,274.1,209.7,299.4,198.1,305.2z M268.2,284.5c-9.2,17.8-17.4-26.6-1.1-10.2C267.7,277.9,268.7,280.7,268.2,284.5z M289,276.9
		c-8,0.9-8-12.5-5.6-17.4C291.1,257.9,294.2,273.6,289,276.9z"/>
	<path class="st0" d="M440,375.4c-60.4,18.7-129.9,9.2-195,11.6c-23.2,0.1-41,5.5-42.5-24.1c-4.1-7.6-3.6-18.7-11.3-23.6
		c-5-1.4-0.2-7.9,2.9-8.1c24.6-1.6,49.3-10.7,72.6-14.6c16.2,22,45,11.2,65.8,12.5c5.4-1.8,4-9.7,8.4-13c10.8-6.6-4.5,21,3,32.7
		c5,20,32.9,35.1,49.2,20.9c2.2-25.9-10.1-54.1-21.2-77.4c-9.6-30.7-23.9-16.1-41.1-1c-15.7,10.8-11.1,6.7-16.9,21.9
		c-9.3,2.6-24.2,5-30.6-3c7.3-3,15.9-6.2,23.4-10.4c18.5-8.2,20.4-13,16.2-32c-6.4-12.1-0.8-34.4-14.5-40.5
		c-15.8-4.9-21.2,5.4-16.1-9.5c0.6-10.9-10.3-22.5-6.8-31.6c11.1-13.3,20.3-29.7,24.4-46.8c0.8-23.3,31.9-20.1,25.1-51.5
		c15.9-29.6,0.9-23.8-17.6-40.4c-7-7-14.3,2.6-20.9-1.4c-6.7-5.5-17.3-1.1-21.2,5.8c-7.8,8.6,1.4,22.8-4.3,23.6
		c-12.3-3.2-25.2,8.1-19.1,20.1c3,11.1,15.8,7,20.5,14.9c20.3,29.7,36.9,2.3,8.1,57c-5.5,4.1-5.7-10.5-15.2-8.4
		c-9.3-0.6-20.8,6.1-21.4-8.2c-1.2-9.4-8.8-16.9-10-26.7c-3.1-11.9-6.9-23.4-21.7-21.1c-11.5-1.1-22.7,1.4-34,2.4
		c-4-0.6-10.8,5.8-13,0c-2.7-24-36.9-63-52.8-27.7c-1.2,3.4-2.5,3.6-5.3,1.1c-21.7-21.1-41.1,8.9-37.5,30.7
		c-3.5,11.1,9.2,26.5,1.2,33.9c-21.7,11.6-29.5,23.6-18.9,46.9c10.4,12.7,6.9,41.8,26.3,43.9c5.1,0.8,13.3-3,14.9,3.7
		c5.3,12.4,6.9,23.8-7.2,30.7c-19.8,15.4-8.9-1-21.2-10.6c-9.6-9.6-18.7-0.1-27.7,1.9c-15.6-2.4-27.3,13.3-29,27.3
		c-10.3,51.1,80.9,68.4,76.8,10.7c-2.7-6-2.1-9.9,4.7-12.5c27-22.1,1.1-2.2,38,1c8,12.6,2.5,35.9,17.1,42.4
		c58.4,9.8,6.3,2.4,19.5,26.1c6.6,1.1,12.8,19.3,2.9,10.9c-13.5-18.7-50.3-14.8-60.8,5.6c-4.7,19.1-11.7,15.3-28.8,12.8
		c-12.3-3-26.3-20.1-36.3-2.8c-21.5,66,101.4,42.3,138,46.6c70.9-0.1,144,0.4,215.2,0.1C424.6,432.9,471.5,403,440,375.4z
		 M380.5,341.3c-7-4.5-12-27.1-15.9-38.3C367.6,296.8,379.3,334.9,380.5,341.3z M263.8,95c-8.1-4.9,2.4-14.9,8.3-8.4
		c6.8,6.5,14.8-8.8,22.3-1.4c22.3,30.1,18.6-11.9-4.7-11.9c-13.6,4.6-10.7-22.1,1.2-20.1c9.6,3.1-0.6,15.2,4.4,19.5
		c11.2,4.2,5.9-12.4,10.6-16.7c12.6-6.4,11.3,11.8,6.3,18.1c1.4,9.9,12.3,0.6,12.7-5.4c1.6-7.1,10,0.7,6.6,4.2
		c-12.2,13.3,2.4,39.4-22.8,43.5C284.5,123.9,283.2,97.8,263.8,95z M53.1,264.4c8.1-2.3,14.1,12.8,3.4,12.8
		C50.4,278.5,45.3,264.8,53.1,264.4z M59.3,323.5c-25.5,12.6-58.7-28.3-34.8-49.3c2.9-3.9,13.7-7.5,15.9-1
		c-2.4,7.3-14.5,9.4-15.1,19.5c2.3,7.1,7.6,2.5,10.4-0.5l0,0c3.9-13.9,27.8-3.5,17.4,2.4c-14.6-1.3-21.3,29.7-3.9,12.6
		c6.5-7,11.3-0.2,15.8,4.1c11.6-2.1-0.5-14.7-0.9-21.8C69.3,267.9,87.7,321.8,59.3,323.5z M88.3,82c3.1-2,8.2-0.3,4.1,3.1
		C82.1,98.5,91.2,140,112,130.4c11.2-17-1.7-41.4,15-56.5c15.2-6.3-3,9.1,1.1,21c-0.8,16.6,15.9,40.4,29,20.5
		c6.3,12.4-3.5,54.6-21.7,33.3c-0.9-0.3-1.5-0.9-1.5-1.9l0,0c-22.5-31-8.7,20-29.1,16C79,151.8,68.2,101.4,88.3,82z M153,323
		c-11.9,1.3-11.7-29.2-14.3-38.2c3.5-6.8,54.3-5.7,36.5-18.2c-16-2.6-64.6,22-64-3.8c-2.5-12.3-11.8-24.2-9.7-37.6
		c-30.8-3.3-20.5,9.6-34.1-20.7c-16.7-40.9,5-11.6,19.4-30.6c-2.3-11-17.9,0.4-25.3-2.4c-13.2-3.2,5.2-15.3,11.3-16.6
		c10.9-16.2,26.8,46.6,51.1,2.7c1.1-2.9,2.5-3.4,4.8-1.5c25.9,24.9,42-12.9,38.7-36.9c22.1-8.2,84.9-14.4,26,12.7
		c-1.5,20.9,25.2-8,31.3-5.6c2.1,13.9,15.1,30.8,12.4,43.2c-27.5,19.9-1.2,20.9,11.2,2.9c5-8,23.6-4.9,21.7,6.7
		c-4.5,7.8-14,13.5-21.2,19.3c-4.6,10.9,6.8,16.1,14.4,8.3c14.8-10.3,11.7-14.5,18.5,4.5c4,17.6-56.8,41.5-72.9,44.2
		c-7.1,1.4-14.5,5.1-11.4,13.3c15,1.2,29.6-3,43.9-4.9c8-1.6,73.8-19.6,42.3-23.9c-6.8,0.6-22.7,12.9-25.5,6.5
		c9-6.2,17.8-11.8,29-11.6c6.3,3.6,17.1-4.1,19.9,4.1c0.2,14.4,18.7,41.3,1.7,49C260.8,313.1,205.9,323,153,323z M438,394.5
		c-10.6,16.2-32.7,15.6-49.9,15.9c-105.6-1.9-210.6,3.3-316-1.6c-9.6,0.1-37.1-23.7-14.5-22.8c24.3,19.9,56.6,8.6,85,11.7
		c63.9-0.1,127.3,0.5,191.1,0.5c31.7-3,68.8,8.5,95.9-11.7C434.4,380.4,442.8,390.6,438,394.5z"/>
	<polygon class="st0" points="135.3,148.7 135.3,148.7 135.3,148.7 	"/>
	<path class="st0" d="M325.7,451c-8.8,32.7,45,39.4,45.1,5.5C371.6,430.6,329.6,424.4,325.7,451z M355.6,467
		c-13.2,11.2-30.7-10.6-16.1-20.5C351.5,433.9,370.7,458.1,355.6,467z"/>
	<path class="st0" d="M117.7,457.3c-0.3,28.9,45.2,28.1,46.1,0C164.3,426.5,117.3,425.5,117.7,457.3z M153.3,462
		c-8.8,20.1-40.7-4-20-16.1C143.4,437.7,158.9,451.6,153.3,462z"/>
	<path class="st0" d="M330.3,31.2c7.2,8.3,20.9,11.5,22.4,25.1c-1.2,9.1,8.8,18.4,9.8,4.5C364.5,46.9,341,14.8,330.3,31.2z"/>
	<path class="st0" d="M322.6,15.2c11.2-0.4,21.1,3.5,28.3,12.2c23.5,4-9.2-25.7-20.5-21.5C323.9,5,314.2,10,322.6,15.2z"/>
	<path class="st0" d="M411.6,198.9c5,1.8,12-4.9,4.9-6.2c-9.3,1-48.2-6.9-47.9,3.8C380.5,202.2,397.9,196.6,411.6,198.9z"/>
	<path class="st0" d="M407.4,335.1c6.9,5.9,19.5,1,28.3,2.5c5-0.6,30.5,3.1,21.4-6.2c-12.3-1.7-25,0-37.5-0.7
		C415.9,332.1,406.2,328.5,407.4,335.1z"/>
	<path class="st0" d="M400.3,218.5c-6.3-1.1-40.9,0.3-19.2,6.8c13.6-0.3,27.4,0.7,40.9-0.4C434.9,215.5,405.6,219,400.3,218.5z"/>
	<path class="st0" d="M432.3,347.4c-15.3,8.9,18.4,6.2,23.4,6.4c7-1.9,21,3.9,24.8-3.2C469.5,342.3,447,349.8,432.3,347.4z"/>
	<path class="st0" d="M394.9,209.9c-3.8-9.8-34.2-1.4-45.9-4.1c-15.7,7.5,16.2,6.9,21.2,6.4C377.9,211.1,388.6,215,394.9,209.9z"/>
	<path class="st0" d="M172.6,177.1c-5.7,8.5,12.7,16.6-14.6,14.1c-10,2.9-16.4,14.8-29,11c-11.2,1.3-15.8,6-24.5-2.7
		c-8.1-0.6-13.9,18.4-2,15c4-3.7,10.3,3.1,15.9,1.4c7.1-8.6,19.4-2.1,28.6-5.8c6.3-7.3,12.9-9.7,22.5-8.2
		c12.9,1.9,10.4-15.6,16.8-15.4C200.7,183.5,179.3,169.4,172.6,177.1z"/>
	<path class="st0" d="M222.9,155.5c7.8-6.4-8.2-27.4-10.9-11.7C214.6,148.2,215.8,159.6,222.9,155.5z"/>
	<path class="st0" d="M169.2,248c6.9,11.7,12.1-1.8,7.5-9.3C168.7,227.5,162.9,240.9,169.2,248z"/>
	<path class="st0" d="M75.7,201.9c10.8,8.8,9.7-7.2,5.4-13.7C70,181.7,72.6,196.3,75.7,201.9z"/>
	<path class="st0" d="M190.5,294.7c2.2,4.4,1.9,11.5,7.6,10.6C209.7,299.4,191,274.1,190.5,294.7z"/>
	<path class="st0" d="M164.3,300.7c3,12.9,11.1,3.9,9.4-5.2C170.3,283.4,158.6,290.6,164.3,300.7z"/>
	<path class="st0" d="M268.2,284.5c0.4-3.8-0.6-6.6-1.1-10.2C250.9,258,259,302.3,268.2,284.5z"/>
	<path class="st0" d="M235,227.8c0.1-0.1,0.3-0.1,0.4-0.1c3.7-6.1-3.3-24.7-9.7-14.8C226.1,218.8,226.2,231,235,227.8z"/>
	<path class="st0" d="M143.7,238c-7.5,7.3,9.5,27.3,10.6,10.9C149.1,245.6,151.8,236.4,143.7,238z"/>
	<path class="st0" d="M119.1,243.8c1.8,4.6,2.3,10.1,6.6,13.1C138.5,254.7,121.5,227.5,119.1,243.8z"/>
	<path class="st0" d="M283.4,259.5c-2.4,4.9-2.4,18.3,5.6,17.4C294.2,273.6,291.1,257.9,283.4,259.5z"/>
	<path class="st0" d="M339.9,456.8c0.1,10.1,15.6,10.3,15.2-0.1C355.6,446.1,339.5,446.8,339.9,456.8z"/>
	<path class="st0" d="M135.4,450.6c-5.2,5.2-1.1,15.3,6.7,13.7C153.5,460.9,145.2,442.6,135.4,450.6z"/>
</g>
</svg>
