<?xml version="1.0" encoding="UTF-8"?>
<svg id="Capa_2" data-name="Capa 2" xmlns="http://www.w3.org/2000/svg" viewBox="0 0 473.48 490.47">
  <defs>
    <style>
      .cls-1 {
        fill: #846fb2;
      }

      .cls-1, .cls-2, .cls-3, .cls-4, .cls-5, .cls-6, .cls-7, .cls-8, .cls-9, .cls-10, .cls-11, .cls-12, .cls-13, .cls-14, .cls-15, .cls-16, .cls-17, .cls-18, .cls-19, .cls-20, .cls-21, .cls-22, .cls-23, .cls-24, .cls-25, .cls-26 {
        stroke-width: 0px;
      }

      .cls-2 {
        fill: #ece9da;
      }

      .cls-3 {
        fill: #ff7d47;
      }

      .cls-4, .cls-16 {
        fill: #c5d3e2;
      }

      .cls-5 {
        fill: #1c1c1c;
      }

      .cls-6 {
        fill: #ff814e;
      }

      .cls-6, .cls-7, .cls-8, .cls-9, .cls-11, .cls-13, .cls-16, .cls-18, .cls-21, .cls-24, .cls-25 {
        fill-rule: evenodd;
      }

      .cls-7 {
        fill: #efc41a;
      }

      .cls-8 {
        fill: #f49e1c;
      }

      .cls-9 {
        fill: #8d9aa9;
      }

      .cls-10 {
        fill: #fbe69f;
      }

      .cls-27 {
        fill: none;
        stroke: #232323;
        stroke-linecap: round;
        stroke-linejoin: round;
        stroke-width: 6px;
      }

      .cls-11 {
        fill: #ab95db;
      }

      .cls-12 {
        fill: #f17cb1;
      }

      .cls-13 {
        fill: #c5b0f4;
      }

      .cls-14 {
        fill: #f5f1f6;
      }

      .cls-15, .cls-24 {
        fill: #bda1ec;
      }

      .cls-17 {
        fill: #706199;
      }

      .cls-18 {
        fill: #424242;
      }

      .cls-19 {
        fill: #fafcff;
      }

      .cls-20 {
        fill: #232323;
      }

      .cls-21 {
        fill: #0c0c0c;
      }

      .cls-22 {
        fill: #832a33;
      }

      .cls-23 {
        fill: #f8bcd6;
      }

      .cls-25, .cls-26 {
        fill: #fefefe;
      }
    </style>
  </defs>
  <g id="Capa_1-2" data-name="Capa 1">
    <g>
      <g>
        <path class="cls-2" d="M227.49,112c-4.08,9.84-10.52,16.19-17.79,16.23-12.49.07-22.71-18.48-22.84-41.44-.13-22.96,9.89-41.62,22.38-41.69,7.59-.04,14.34,6.79,18.5,17.31h0c4.08-9.84,10.52-16.19,17.79-16.23,12.49-.07,22.71,18.48,22.84,41.44s-9.89,41.62-22.38,41.69c-7.59.04-14.34-6.79-18.5-17.31h0Z"/>
        <path class="cls-2" d="M283.11,93.28c-3.06-.48-6.2-.93-9.36-1.35-.11,7.49-1.45,25.55-11.3,35.12-4.05,3.95-9,5.94-14.73,5.94h-.39c-8.79-.14-14.59-6.81-18.01-12.75-4.12,6.98-11.15,13.49-21.35,11.7-15.62-2.73-22.37-22.8-22.4-42.61-1.94.25-3.84.51-5.69.8-22.81,3.51-29.93,8.49-30.51,10.63-.23.86-.12,1.47.36,2.14,3.02,4.14,16.04,6.55,24.32,6.94,2.26.11,3.99,2.02,3.89,4.27-.11,2.25-2.02,4.01-4.26,3.88-3.08-.13-15.85-.99-24.42-5.4v41.01c1.8,1.95,5.31,5.03,8.73,5.27,2.25.16,3.94,2.11,3.77,4.36-.15,2.15-1.94,3.79-4.06,3.79-.11,0-.2,0-.3,0-6.02-.43-10.94-4.57-13.54-7.24-1.71.9-3.94,3.06-4.16,8.24-.4,9.63-.13,33.27-.03,40.95,5.83,2.78,24.02,10.24,49.14,8.73,2.25-.12,4.19,1.58,4.32,3.83s-1.58,4.19-3.83,4.32c-2.5.15-4.94.22-7.31.22-13.38,0-24.53-2.25-32.74-4.71v37.54c.91,1.84,9.84,15.39,74.68,16.64,63.12,1.2,86.98-9.88,92.79-13.3v-42.61c-1.1-.65-3.66-1.64-8.76-1.54-6.13,3.31-17.59,6.97-38.81,7.98h-.2c-2.16,0-3.96-1.7-4.07-3.89-.11-2.25,1.63-4.17,3.89-4.27,18.72-.89,28.72-3.88,33.86-6.29.68-.88,1.71-1.5,2.9-1.59.65-.42,1.12-.79,1.45-1.08v-42.33c-1.75.26-3.63.41-5.66.41-2.26,0-4.08-1.82-4.08-4.08s1.82-4.08,4.08-4.08c8.33,0,13.34-3.02,15.42-4.62v-40.2c-8.35,3.57-20.67,3.99-25.96,3.99-1.14,0-1.95-.02-2.32-.03-2.26-.07-4.03-1.95-3.96-4.2.07-2.25,1.94-4.01,4.2-3.95,8.49.25,23.53-.92,27.84-5.11.31-.3.5-.56.61-.8.03-.06.06-.12.08-.17.07-.16.1-.32.11-.46-.46-.71-4.51-5.33-34.22-10.01ZM164.4,139.62c0,2.26-1.82,4.08-4.08,4.08s-4.08-1.82-4.08-4.08v-10.22c0-2.26,1.82-4.09,4.08-4.09s4.08,1.83,4.08,4.09v10.22ZM181.38,198.76c0,2.26-1.82,4.08-4.08,4.08s-4.08-1.82-4.08-4.08v-10.22c0-2.26,1.82-4.09,4.08-4.09s4.08,1.83,4.08,4.09v10.22ZM188.73,247.66c0,2.26-1.82,4.08-4.08,4.08s-4.08-1.82-4.08-4.08v-10.22c0-2.26,1.82-4.08,4.08-4.08s4.08,1.82,4.08,4.08v10.22ZM285.93,237.43c0-2.26,1.83-4.08,4.09-4.08s4.08,1.82,4.08,4.08v10.22c0,2.26-1.83,4.08-4.08,4.08s-4.09-1.82-4.09-4.08v-10.22ZM298.73,131.4c0-2.26,1.82-4.08,4.08-4.08s4.08,1.82,4.08,4.08v10.23c0,2.26-1.82,4.08-4.08,4.08s-4.08-1.82-4.08-4.08v-10.23ZM202.95,202.79c0,2.26-1.83,4.09-4.08,4.09s-4.09-1.83-4.09-4.09v-10.22c0-2.26,1.83-4.08,4.09-4.08s4.08,1.82,4.08,4.08v10.22ZM212.75,251.95c0,2.26-1.82,4.08-4.08,4.08s-4.08-1.82-4.08-4.08v-10.23c0-2.25,1.82-4.08,4.08-4.08s4.08,1.83,4.08,4.08v10.23ZM254.59,225.96c-7.82,1.61-14.74,2.15-20.51,2.15-11.44,0-18.35-2.11-18.79-2.26-2.15-.67-3.34-2.97-2.67-5.12.68-2.14,2.96-3.34,5.11-2.67.24.07,14.2,4.2,35.22-.11,2.21-.45,4.37.97,4.82,3.18.45,2.22-.97,4.37-3.18,4.82ZM265.2,202.79c0,2.26-1.82,4.09-4.08,4.09s-4.08-1.83-4.08-4.09v-10.22c0-2.26,1.82-4.08,4.08-4.08s4.08,1.82,4.08,4.08v10.22ZM274.87,159.64c-.63.35-1.32.51-1.98.51-1.44,0-2.83-.75-3.57-2.09-.02-.03-.04-.06-.06-.09-1.08,1.5-2.81,3.48-5.6,5.7-5.26,4.2-11.19,1.72-14.73.23-.66-.27-1.53-.63-2-.77-.63.19-1.94.76-2.92,1.19-3.51,1.53-8.28,3.61-13.05,3.61-2.04,0-4.07-.38-6-1.35-6.06-3.02-7.63-3.45-15.86-2.53-8.69.97-12.27-2.82-14.2-4.87-.17-.18-.41-.42-.54-.55-.49-.28-.89-.65-1.22-1.08-.02.12-.03.21-.03.21-.12,2.17-1.92,3.86-4.07,3.86-.08,0-.15,0-.23,0-2.26-.12-3.97-2.05-3.85-4.3.03-.58.42-5.65,4.44-8.91,1.81-1.47,5.04-3.04,10.07-2.26,2.23.36,3.74,2.45,3.4,4.68-.2,1.24-.95,2.25-1.95,2.85,1.36,1.44,2.73,2.76,7.27,2.26,9.44-1.05,12.68-.52,20.41,3.35,3.04,1.52,8.51-.86,12.13-2.45,2.54-1.1,4.39-1.91,6.14-1.91s3.42.71,5.19,1.45c3.46,1.45,5.21,1.93,6.47.92,1.44-1.15,2.46-2.17,3.17-2.98-.46-.12-.91-.21-1.32-.28-2.22-.39-3.71-2.51-3.31-4.72.39-2.23,2.51-3.71,4.72-3.32,1.88.34,11.39,2.28,14.63,8.09,1.09,1.97.38,4.45-1.58,5.55ZM284.81,187.45v10.23c0,2.26-1.82,4.08-4.08,4.08s-4.08-1.82-4.08-4.08v-10.23c0-2.26,1.82-4.08,4.08-4.08s4.08,1.82,4.08,4.08Z"/>
        <path class="cls-20" d="M314.85,169v-4.25c5.63-2.32,8.49-5.38,8.68-5.58.68-.76,1.07-1.74,1.07-2.76v-49.56c.39-1.08.6-2.21.6-3.38,0-7.9-11.2-12.97-38.65-17.5-4.26-.71-8.68-1.34-13.12-1.94.09,3.25.06,6.06.03,8.09,0,.05,0,.1,0,.15,3.16.42,6.3.87,9.36,1.35,29.71,4.68,33.76,9.3,34.22,10.01,0,.14-.04.3-.11.46-.02.06-.05.12-.08.17-.12.24-.31.5-.61.8-4.31,4.19-19.35,5.36-27.84,5.11-2.27-.06-4.14,1.71-4.2,3.95-.07,2.26,1.71,4.14,3.96,4.2.37,0,1.18.03,2.32.03,5.29,0,17.61-.42,25.96-3.99v40.2c-2.07,1.59-7.08,4.62-15.42,4.62-2.26,0-4.08,1.82-4.08,4.08s1.82,4.08,4.08,4.08c2.04,0,3.92-.15,5.66-.41v42.33c-.33.29-.8.65-1.45,1.08-.72.48-1.67,1.02-2.9,1.59-5.14,2.41-15.14,5.39-33.86,6.29-2.26.11-3.99,2.03-3.89,4.27.11,2.19,1.91,3.89,4.07,3.89h.2c21.22-1.01,32.68-4.67,38.81-7.98,5.11-.11,7.66.88,8.76,1.54v42.61c-5.81,3.42-29.67,14.5-92.79,13.3-64.85-1.25-73.77-14.79-74.68-16.64v-37.54c8.22,2.47,19.36,4.71,32.74,4.71,2.36,0,4.81-.07,7.31-.22,2.25-.13,3.96-2.07,3.83-4.32s-2.07-3.95-4.32-3.83c-25.12,1.52-43.31-5.94-49.14-8.73-.11-7.68-.37-31.32.03-40.95.22-5.17,2.45-7.33,4.16-8.24,2.59,2.67,7.52,6.81,13.54,7.24.1,0,.19,0,.3,0,2.12,0,3.91-1.64,4.06-3.79.16-2.25-1.53-4.2-3.77-4.36-3.42-.24-6.93-3.32-8.73-5.27v-41.01c8.57,4.42,21.34,5.27,24.42,5.4,2.25.13,4.16-1.63,4.26-3.88.11-2.26-1.63-4.17-3.89-4.27-8.27-.39-21.29-2.8-24.32-6.94-.49-.67-.6-1.28-.36-2.14.58-2.14,7.7-7.11,30.51-10.63,1.85-.29,3.75-.55,5.69-.8,0-1.19.02-2.38.07-3.56.06-1.56.17-3.14.32-4.7-2.5.3-4.95.63-7.32,1-34.09,5.24-36.38,13.77-37.14,16.57-.51,1.89-.52,3.73-.07,5.47-.21.5-.33,1.04-.33,1.61v46.34c-4.24,1.86-9.17,6.42-9.54,15.61-.12,2.6-.17,6.13-.2,10.07v14.2c.05,9.99.18,18.9.19,19.59.03,1.43.8,2.75,2.04,3.47.3.17,2.93,1.67,7.52,3.5v41.01c0,.15,0,.32.03.48.36,3.04,4.53,16.14,48.46,21.49-.15,9.37.57,17.5,2.18,24.33-5.78,2.95-7.11,8.11-7.11,8.11,0,0,8.86,3.58,14.12,7.94,1.38,1.15,2.52,2.34,3.18,3.55.87,1.59.91,3.2-.42,4.68-6.15,6.86-6.1,2.45-13.94-4.91-7.19-4.11-16.5-6.14-25.42-5.47-9.19.69-17.96,4.24-23.6,11.36-11.28,14.22-3.16,24.51-3.16,24.51h185.4s9.8-10.29-10.73-29.9c-14.16-11.27-37.2-2.94-37.2-2.94,0,0-6.37,2.14-9.8,6.46-3.43,4.32-12.59,4.81-7.28-4.5,5.32-7.84,11.19-9.8,11.19-9.8,0,0,3.54-5.81-3.35-8.91,1.82-9.67.57-19.61-.04-23.35,45.06-3.58,59.08-14.5,59.78-15.07.95-.78,1.51-1.94,1.51-3.17v-46.57c0-.7-.18-1.38-.52-2-.47-.83-2.66-4-9.23-5.34v-41.84ZM249.85,304.45h-.31c-6.37,1.97-9.8,3.93-9.8,3.93l-13.65,35.61c-3.76-11.74-9.68-29.14-14.29-38.06-2.44-.71-4.66-1.18-6.69-1.46-1.34-4.96-2.31-11.86-2.23-21.35,6.22.45,13.07.76,20.61.9,3.24.07,6.37.1,9.43.1,7.16,0,13.79-.16,19.93-.46l-3.12.59c.87,4.69,1.51,13.35.12,20.21Z"/>
        <path class="cls-20" d="M252.98,218.34c-21.02,4.31-34.99.17-35.22.1-2.15-.67-4.43.53-5.11,2.67-.68,2.15.52,4.44,2.67,5.12.43.13,7.34,2.25,18.78,2.25,5.77,0,12.7-.54,20.52-2.14,2.21-.45,3.63-2.61,3.18-4.82-.45-2.21-2.61-3.63-4.82-3.18Z"/>
        <path class="cls-20" d="M261.15,188.85c-2.25,0-4.08,1.83-4.08,4.08v10.23c0,2.25,1.83,4.08,4.08,4.08s4.08-1.83,4.08-4.08v-10.23c0-2.25-1.83-4.08-4.08-4.08Z"/>
        <path class="cls-20" d="M208.7,238c-2.25,0-4.08,1.83-4.08,4.08v10.23c0,2.25,1.83,4.08,4.08,4.08s4.08-1.83,4.08-4.08v-10.23c0-2.25-1.83-4.08-4.08-4.08Z"/>
        <path class="cls-20" d="M184.68,233.72c-2.25,0-4.08,1.83-4.08,4.08v10.23c0,2.25,1.83,4.08,4.08,4.08s4.08-1.83,4.08-4.08v-10.23c0-2.25-1.83-4.08-4.08-4.08Z"/>
        <path class="cls-20" d="M198.89,188.85c-2.25,0-4.08,1.83-4.08,4.08v10.23c0,2.25,1.83,4.08,4.08,4.08s4.08-1.83,4.08-4.08v-10.23c0-2.25-1.83-4.08-4.08-4.08Z"/>
        <path class="cls-20" d="M177.33,184.81c-2.25,0-4.08,1.83-4.08,4.08v10.23c0,2.25,1.83,4.08,4.08,4.08s4.08-1.83,4.08-4.08v-10.23c0-2.25-1.83-4.08-4.08-4.08Z"/>
        <path class="cls-20" d="M280.76,183.74c-2.25,0-4.08,1.83-4.08,4.08v10.23c0,2.25,1.83,4.08,4.08,4.08s4.08-1.83,4.08-4.08v-10.23c0-2.25-1.83-4.08-4.08-4.08Z"/>
        <path class="cls-20" d="M160.35,125.68c-2.25,0-4.08,1.83-4.08,4.08v10.23c0,2.25,1.83,4.08,4.08,4.08s4.08-1.83,4.08-4.08v-10.23c0-2.25-1.83-4.08-4.08-4.08Z"/>
        <path class="cls-20" d="M274.9,160.01c-.63.35-1.32.51-1.98.51-1.44,0-2.83-.75-3.57-2.09-.02-.03-.04-.06-.06-.09-1.08,1.5-2.81,3.48-5.6,5.7-5.26,4.2-11.19,1.72-14.73.23-.66-.27-1.53-.63-2-.77-.63.19-1.94.76-2.92,1.19-3.51,1.53-8.28,3.61-13.05,3.61-2.04,0-4.07-.38-6-1.35-6.06-3.02-7.63-3.45-15.86-2.53-8.69.97-12.27-2.82-14.2-4.87-.17-.18-.41-.42-.54-.55-.49-.28-.89-.65-1.22-1.08-.02.12-.03.21-.03.21-.12,2.17-1.92,3.86-4.07,3.86-.08,0-.15,0-.23,0-2.26-.12-3.97-2.05-3.85-4.3.03-.58.42-5.65,4.44-8.91,1.81-1.47,5.04-3.04,10.07-2.26,2.23.36,3.74,2.45,3.4,4.68-.2,1.24-.95,2.25-1.95,2.85,1.36,1.44,2.73,2.76,7.27,2.26,9.44-1.05,12.68-.52,20.41,3.35,3.04,1.52,8.51-.86,12.13-2.45,2.54-1.1,4.39-1.91,6.14-1.91s3.42.71,5.19,1.45c3.46,1.45,5.21,1.93,6.47.92,1.44-1.15,2.46-2.17,3.17-2.98-.46-.12-.91-.21-1.32-.28-2.22-.39-3.71-2.51-3.31-4.72.39-2.23,2.51-3.71,4.72-3.32,1.88.34,11.39,2.28,14.63,8.09,1.09,1.97.38,4.45-1.58,5.55Z"/>
        <path class="cls-20" d="M201.98,325.77c-1.14-1.07-2.2-2.25-3.18-3.55,1.38,1.15,2.52,2.34,3.18,3.55Z"/>
        <path class="cls-27" d="M228.53,112c-4.08,9.84-10.52,16.19-17.79,16.23-12.49.07-22.71-18.48-22.84-41.44-.13-22.96,9.89-41.62,22.38-41.69,7.59-.04,14.34,6.79,18.5,17.31h0c4.08-9.84,10.52-16.19,17.79-16.23,12.49-.07,22.71,18.48,22.84,41.44s-9.89,41.62-22.38,41.69c-7.59.04-14.34-6.79-18.5-17.31h0Z"/>
        <path class="cls-20" d="M214.85,58.14c-5.97,0-10.97,7.73-12.36,18.15l8.83,5.83-9.06,3.64c.94,11.51,6.21,20.34,12.59,20.34,7.04,0,12.75-10.74,12.75-23.98s-5.71-23.98-12.75-23.98Z"/>
        <path class="cls-20" d="M251.49,58.14c-5.97,0-10.97,7.73-12.36,18.15l8.83,5.83-9.06,3.64c.94,11.51,6.21,20.34,12.59,20.34,7.04,0,12.75-10.74,12.75-23.98s-5.71-23.98-12.75-23.98Z"/>
      </g>
      <g>
        <path class="cls-12" d="M228.57,210.51c-27.39,0-49.59,22.2-49.59,49.59s22.2,49.59,49.59,49.59,49.59-22.2,49.59-49.59-22.2-49.59-49.59-49.59ZM228.57,294.05c-18.72,0-33.95-15.23-33.95-33.95s15.23-33.95,33.95-33.95,33.95,15.23,33.95,33.95-15.23,33.95-33.95,33.95Z"/>
        <path class="cls-23" d="M228.57,219.76c25.83,0,47.04,19.75,49.38,44.97.14-1.52.22-3.06.22-4.62,0-27.39-22.2-49.59-49.59-49.59s-49.59,22.2-49.59,49.59c0,1.56.08,3.1.22,4.63,2.33-25.22,23.55-44.97,49.38-44.97Z"/>
        <path class="cls-22" d="M228.57,297.09c-20.39,0-36.99-16.59-36.99-36.99s16.59-36.98,36.99-36.98,36.98,16.59,36.98,36.98-16.59,36.99-36.98,36.99ZM228.57,229.19c-17.04,0-30.91,13.87-30.91,30.91s13.87,30.91,30.91,30.91,30.91-13.87,30.91-30.91-13.87-30.91-30.91-30.91Z"/>
        <path class="cls-22" d="M228.57,312.73c-14.06,0-27.27-5.47-37.22-15.41-9.94-9.94-15.42-23.16-15.42-37.22s5.47-27.27,15.42-37.22c9.94-9.94,23.16-15.41,37.22-15.41s27.27,5.47,37.22,15.41c9.94,9.94,15.41,23.16,15.41,37.22s-5.47,27.27-15.41,37.22c-9.94,9.94-23.16,15.41-37.22,15.41ZM228.57,213.55c-25.67,0-46.56,20.88-46.56,46.56s20.89,46.56,46.56,46.56,46.56-20.89,46.56-46.56-20.88-46.56-46.56-46.56Z"/>
      </g>
      <path class="cls-2" d="M217.58,213.48c.02,2.62-.43,7.16-3.64,8.08-1.61.45-3.02-.13-3.93-.7-1.73-1.09-3.06-3.04-3.4-4.95-.26-1.48-1.66-2.47-3.15-2.22-1.48.26-2.47,1.67-2.21,3.15.59,3.42,2.84,6.73,5.86,8.63,1.65,1.03,3.43,1.6,5.21,1.68-.06,1.77-.76,4.17-3.82,5.72h-.02s-.07.04-.1.06c-2.46,1.38-4.56,1.65-6.39.81-4.31-1.97-6.73-9.55-7.31-12.3-.3-1.47-1.73-2.42-3.2-2.12-1.47.3-2.43,1.74-2.13,3.21.25,1.2,2.46,11.16,8.87,15.33-3.11,1.57-5.76,2.11-7.88,1.54-3.5-.95-6-4.48-7.9-11.1-.4-1.44-1.91-2.28-3.36-1.87-1.45.42-2.28,1.91-1.88,3.36,1.12,3.91,2.94,8.86,6.57,12.06-2.13.25-4.15-.5-5.8-2.27-7.31-7.89-8.3-23.83-2.04-32.79,5.09-7.28,14.07-11.53,22.34-10.57,7.23.84,19.23,9.27,19.28,17.3Z"/>
      <path class="cls-20" d="M181.53,194.47c-4.01,2.23-7.59,5.39-10.33,9.3-7.7,11.02-6.51,29.89,2.5,39.61,3.99,4.3,9.64,5.29,14.88,2.66.18-.09.36-.19.53-.29.34-.18.62-.43.84-.71,3.12.48,6.55-.24,10.39-2.16,1.69-.85,3.46-1.94,5.31-3.26,1.33-.21,2.79-.63,4.38-1.43.21-.11.43-.23.66-.35,5.89-2.97,7.05-8.23,6.74-11.92,3.43-2.1,5.35-6.44,5.31-12.33-.08-11.34-14.68-21.57-24.1-22.66-1.33-.16-2.67-.2-4-.16l-13.09,3.71Z"/>
      <path class="cls-2" d="M198,196.32c7.23.84,19.23,9.27,19.28,17.3.02,2.62-.43,7.16-3.64,8.08-1.61.45-3.02-.13-3.93-.7-1.73-1.09-3.06-3.04-3.4-4.95-.26-1.48-1.66-2.47-3.15-2.22-1.48.26-2.47,1.67-2.21,3.15.59,3.42,2.84,6.73,5.86,8.63,1.65,1.03,3.43,1.6,5.21,1.68-.06,1.77-.76,4.17-3.82,5.72h-.02s-.07.04-.1.06c-2.46,1.38-4.56,1.65-6.39.81-4.31-1.97-6.73-9.55-7.31-12.3-.3-1.47-1.73-2.42-3.2-2.12-1.47.3-2.43,1.74-2.13,3.21.25,1.2,2.46,11.16,8.87,15.33-3.11,1.57-5.76,2.11-7.88,1.54-3.5-.95-6-4.48-7.9-11.1-.4-1.44-1.91-2.28-3.36-1.87-1.45.42-2.28,1.91-1.88,3.36,1.12,3.91,2.94,8.86,6.57,12.06-2.13.25-4.15-.5-5.8-2.27-7.31-7.89-8.3-23.83-2.04-32.79,5.09-7.28,14.07-11.53,22.34-10.57Z"/>
      <path class="cls-20" d="M302.8,145.71c2.25,0,4.08-1.83,4.08-4.08v-10.23c0-2.25-1.83-4.08-4.08-4.08s-4.08,1.83-4.08,4.08v10.23c0,2.25,1.83,4.08,4.08,4.08Z"/>
      <path class="cls-3" d="M276.67,274.55c-5.4-21.54-24.89-37.49-48.1-37.49s-42.7,15.95-48.1,37.49h96.21Z"/>
      <path class="cls-22" d="M183.61,274.55c5.34-19.82,23.47-34.45,44.96-34.45s39.62,14.63,44.96,34.45h6.28c-2.21-9.43-7-18.09-14.02-25.11-9.94-9.94-23.16-15.41-37.22-15.41s-27.27,5.47-37.22,15.41c-7.02,7.02-11.81,15.68-14.02,25.11h6.28Z"/>
      <path class="cls-26" d="M150.94,180.91l-29.2,73.78c8.57,3.12,14.33,2.64,23.8,2.64l30.25-76.42h-24.85Z"/>
      <polygon class="cls-26" points="202.13 180.91 185.07 180.91 154.82 257.33 171.88 257.33 202.13 180.91"/>
      <path class="cls-26" d="M304.71,180.91l-29.2,73.78c8.57,3.12,14.33,2.64,23.8,2.64l30.25-76.42h-24.85Z"/>
      <polygon class="cls-26" points="355.9 180.91 338.83 180.91 308.58 257.33 325.65 257.33 355.9 180.91"/>
      <g>
        <path class="cls-20" d="M36.8,422.94h61.21c6.03,0,10.92,4.89,10.92,10.92v42.55c0,6.02-4.89,10.92-10.92,10.92h-61.21c-6.02,0-10.92-4.89-10.92-10.92v-42.55c0-6.03,4.89-10.92,10.92-10.92Z"/>
        <path class="cls-21" d="M98.02,422.94h-61.21c-7.28,0-10.92,3.64-10.92,10.92v27.93c.93-.17,1.95-.25,3.04-.25h61.21c7.28,0,10.92,3.64,10.92,10.92v14.61c5.25-.93,7.87-4.49,7.87-10.67v-42.55c0-7.28-3.64-10.92-10.92-10.92Z"/>
        <path class="cls-5" d="M98.02,490.33c-66.9,0-66.71,1.2-71.53-3.61-4.81-4.81-3.61-7.39-3.61-52.86,0-8.71,4.75-13.92,13.92-13.92,66.89,0,66.71-1.2,71.53,3.61,4.81,4.81,3.61,7.39,3.61,52.86,0,8.71-4.75,13.92-13.92,13.92ZM36.8,425.95c-5.62,0-7.91,2.29-7.91,7.91v42.55c0,5.62,2.29,7.91,7.91,7.91h61.21c5.62,0,7.91-2.29,7.91-7.91v-42.55c0-5.62-2.29-7.91-7.91-7.91h-61.21Z"/>
        <path class="cls-18" d="M66.01,451.87c1,0,1.87.37,2.61,1.12.75.75,1.12,1.62,1.12,2.61s-.37,1.87-1.12,2.61c-.75.75-1.62,1.12-2.61,1.12h-27.06c-1,0-1.87-.37-2.61-1.12-.75-.75-1.12-1.62-1.12-2.61s.37-1.87,1.12-2.61c.75-.75,1.62-1.12,2.61-1.12h27.06Z"/>
        <path class="cls-18" d="M90.74,471.46c.93,0,1.71.31,2.33.93.62.62.93,1.4.93,2.33s-.31,1.71-.93,2.33c-.62.62-1.4.93-2.33.93h-28.93c-.93,0-1.71-.31-2.33-.93-.62-.62-.93-1.4-.93-2.33s.31-1.71.93-2.33c.62-.62,1.4-.93,2.33-.93h28.93Z"/>
      </g>
      <g>
        <path class="cls-20" d="M375.46,422.94h61.21c6.03,0,10.92,4.89,10.92,10.92v42.55c0,6.02-4.89,10.92-10.92,10.92h-61.21c-6.02,0-10.92-4.89-10.92-10.92v-42.55c0-6.03,4.89-10.92,10.92-10.92Z"/>
        <path class="cls-21" d="M436.68,422.94h-61.21c-7.28,0-10.92,3.64-10.92,10.92v27.93c.93-.17,1.95-.25,3.04-.25h61.21c7.28,0,10.92,3.64,10.92,10.92v14.61c5.25-.93,7.87-4.49,7.87-10.67v-42.55c0-7.28-3.64-10.92-10.92-10.92Z"/>
        <path class="cls-5" d="M436.68,490.33c-66.9,0-66.71,1.2-71.53-3.61-4.81-4.81-3.61-7.39-3.61-52.86,0-8.71,4.75-13.92,13.92-13.92,66.89,0,66.71-1.2,71.53,3.61,4.81,4.81,3.61,7.39,3.61,52.86,0,8.71-4.75,13.92-13.92,13.92ZM375.46,425.95c-5.62,0-7.91,2.29-7.91,7.91v42.55c0,5.62,2.29,7.91,7.91,7.91h61.21c5.62,0,7.91-2.29,7.91-7.91v-42.55c0-5.62-2.29-7.91-7.91-7.91h-61.21Z"/>
        <path class="cls-18" d="M404.67,451.87c1,0,1.87.37,2.61,1.12.75.75,1.12,1.62,1.12,2.61s-.37,1.87-1.12,2.61c-.75.75-1.62,1.12-2.61,1.12h-27.06c-1,0-1.87-.37-2.61-1.12-.75-.75-1.12-1.62-1.12-2.61s.37-1.87,1.12-2.61c.75-.75,1.62-1.12,2.61-1.12h27.06Z"/>
        <path class="cls-18" d="M429.4,471.46c.93,0,1.71.31,2.33.93.62.62.93,1.4.93,2.33s-.31,1.71-.93,2.33c-.62.62-1.4.93-2.33.93h-28.93c-.93,0-1.71-.31-2.33-.93-.62-.62-.93-1.4-.93-2.33s.31-1.71.93-2.33c.62-.62,1.4-.93,2.33-.93h28.93Z"/>
      </g>
      <path class="cls-7" d="M347.54,451.78c-4.13,4.13,13.28,2.89-216.76,2.89-5.5,0-9.89-4.38-9.89-9.89s4.38-9.89,9.89-9.89c230.06,0,212.63-1.24,216.76,2.89,3.88,3.88,3.88,10.11,0,14Z"/>
      <path class="cls-22" d="M340.54,457.68h-209.76c-3.55,0-6.62-1.27-9.12-3.77-8.1-8.1-2.41-22.02,9.12-22.02h209.76c3.55,0,6.62,1.27,9.12,3.77,8.02,8.02,2.5,22.02-9.12,22.02ZM130.78,437.9c-6.16,0-9.21,7.42-4.87,11.75,3.12,3.12-12.37,2.01,214.63,2.01,6.22,0,9.16-7.47,4.87-11.76-3.12-3.12,12.37-2.01-214.63-2.01Z"/>
      <path class="cls-24" d="M447.37,401.03H25.73c-10.76,0-18.56-10.65-17.43-23.66l2.24-25.7c1.1-12.64,10.48-22.79,20.95-22.79h410.11c10.47,0,19.84,10.15,20.95,22.79l2.24,25.7c1.14,13.02-6.66,23.66-17.43,23.66Z"/>
      <path class="cls-22" d="M447.37,404.04H25.73c-5.34,0-10.34-2.25-14.09-6.34-9.35-10.2-6.22-21.89-4.09-46.29,1.17-13.4,11.22-25.53,23.94-25.53h410.11c5.92,0,11.67,2.71,16.2,7.63,8.6,9.34,7.7,17.41,9.99,43.61,1.25,14.31-7.48,26.93-20.42,26.93ZM31.5,331.89c-8.93,0-16.99,8.99-17.95,20.04l-2.24,25.7c-.92,10.55,4.97,20.39,14.43,20.39h421.64c3.69,0,7.02-1.52,9.66-4.39,7.09-7.74,4.81-15.6,2.53-41.71-.96-11.05-9.02-20.04-17.95-20.04H31.5Z"/>
      <path class="cls-11" d="M25.73,392.32c-2.07,0-3.91-.85-5.45-2.54-2.47-2.69-3.7-7.05-3.3-11.66l2.24-25.7c.36-4.14,2.07-8.14,4.69-10.99,2.28-2.48,4.97-3.84,7.58-3.84h410.11c2.6,0,5.3,1.37,7.58,3.84,2.62,2.85,4.33,6.85,4.69,10.99l2.24,25.7c.4,4.61-.83,8.96-3.3,11.66-1.54,1.68-3.38,2.54-5.45,2.54H25.73Z"/>
      <g>
        <path class="cls-24" d="M407.26,267.56c0,5.2,1.54,9.61,4.62,13.24,3,3.72,6.65,5.57,10.96,5.57h23.08c4.31,0,8-1.86,11.08-5.57,3-3.62,4.5-8.03,4.5-13.24,0-5.2-1.5-9.66-4.5-13.37-3.08-3.62-6.77-5.43-11.08-5.43h-23.08c-4.31,0-7.96,1.81-10.96,5.43-3.08,3.72-4.62,8.17-4.62,13.37Z"/>
        <path class="cls-11" d="M411.88,254.19c5.14-6.2,10.03-5.43,16.88-5.43,1.4,5.81,2.85,14.16.87,18.07-2.28,4.49,16.76,15.74,29.65,10.53-2.64,5.12-7.32,9.02-13.36,9.02-25.14,0-28.36,1.46-34.04-5.57-6.25-7.36-6.13-19.21,0-26.61Z"/>
        <path class="cls-22" d="M409.56,252.27c6.93-8.37,12.78-6.52,36.36-6.52,16.94,0,24.48,23.58,13.39,36.97-6.95,8.39-11.74,6.66-36.47,6.66-16.13,0-24.94-23.03-13.28-37.11ZM445.92,251.76c-24.15,0-26.93-1.44-31.73,4.34-8.53,10.31-2.17,27.26,8.65,27.26,24.06,0,26.89,1.49,31.84-4.48,7.93-9.58,2.85-27.12-8.76-27.12Z"/>
      </g>
      <g>
        <path class="cls-24" d="M65.84,267.56c0,5.2-1.54,9.61-4.62,13.24-3,3.72-6.65,5.57-10.96,5.57h-23.08c-4.31,0-8-1.86-11.08-5.57-3-3.62-4.5-8.03-4.5-13.24s1.5-9.66,4.5-13.37c3.08-3.62,6.77-5.43,11.08-5.43h23.08c4.31,0,7.96,1.81,10.96,5.43,3.08,3.72,4.62,8.17,4.62,13.37Z"/>
        <path class="cls-11" d="M61.23,254.19c-5.14-6.2-10.03-5.43-16.88-5.43-1.4,5.81-2.85,14.16-.87,18.07,2.28,4.49-16.76,15.74-29.65,10.53,2.64,5.12,7.32,9.02,13.36,9.02,25.14,0,28.36,1.46,34.04-5.57,6.25-7.36,6.13-19.21,0-26.61Z"/>
        <path class="cls-22" d="M50.26,289.38c-24.74,0-29.53,1.73-36.47-6.66-11.09-13.39-3.55-36.97,13.39-36.97,23.58,0,29.42-1.84,36.36,6.52,11.66,14.08,2.85,37.11-13.28,37.11ZM18.42,278.88c4.95,5.98,7.78,4.48,31.84,4.48,10.81,0,17.18-16.95,8.65-27.26-4.79-5.78-7.58-4.34-31.73-4.34-11.62,0-16.69,17.54-8.76,27.12Z"/>
      </g>
      <path class="cls-24" d="M443.65,388.19l-6.79-86.6c-.88-11.26-6.28-20.77-16.16-28.55-9.88-7.75-21.37-11.6-34.51-11.6H87.01c-13.14,0-24.63,3.86-34.51,11.6-9.94,7.79-15.37,17.29-16.25,28.55l-6.79,86.6h414.2Z"/>
      <path class="cls-11" d="M436.86,301.59c-.02-.3-.05-.6-.08-.9-.02-.19-.04-.39-.06-.58,0-.07-.02-.13-.02-.2-1.01-8.15-4.6-15.21-9.66-20.97-1.85-2.06-3.96-4.03-6.33-5.9-3.7-2.9-7.62-5.25-11.76-7.06-.05-.02-.11-.05-.16-.07-.23-.1-.46-.2-.7-.29-.13-.05-.25-.11-.38-.16-.03-.01-.06-.02-.09-.04,13.79,12.94,12.38,23.86,14.16,48.57-7.33-12.75-20.48-21.26-35.49-21.26-42.95,0-57.88,61.89-19.74,83.92-.02,0-86.29-10.47-212.65-3.53-8.1-4.85-25.16-5.27-35.25-3.95,26.23-27.62,8.42-76.44-29.2-76.44-42.95,0-57.88,61.89-19.74,83.92H30.36l-.91,11.54h414.2l-6.79-86.6Z"/>
      <g>
        <path class="cls-1" d="M106.48,276.57s181.16,17.97,260.64-.31c0,0-32.5,21.73-141.5,18.78-108.74-2.94-119.14-18.47-119.14-18.47Z"/>
        <path class="cls-17" d="M376.27,271.72c-39.73,35.66-237.79,36.9-279.45.17,41.01,26.26,239.52,25.95,279.45-.17Z"/>
      </g>
      <ellipse class="cls-14" cx="218.43" cy="273.44" rx="50.26" ry="3.87"/>
      <path class="cls-22" d="M448.93,393.07H24.18l7.21-91.86c.99-12.6,7.08-23.37,18.11-32.01,10.7-8.39,23.32-12.64,37.52-12.64h299.18c14.2,0,26.82,4.25,37.52,12.64,10.97,8.65,17.03,19.42,18.02,32.01l7.21,91.86ZM34.73,383.31h403.65l-6.38-81.34c-.78-9.91-5.46-18.12-14.32-25.11-9.05-7.1-19.36-10.56-31.49-10.56H87.01c-12.13,0-22.43,3.46-31.5,10.56-8.91,6.99-13.62,15.19-14.4,25.1l-6.38,81.34Z"/>
      <path class="cls-16" d="M469.97,428.78c0,9.02-5.6,13.53-16.8,13.53H20.31c-11.2,0-16.8-4.51-16.8-13.53v-27.06c0-9.02,5.6-13.53,16.8-13.53h432.86c11.2,0,16.8,4.51,16.8,13.53v27.06Z"/>
      <path class="cls-9" d="M455.64,426.88H22.78c-11.2,0-16.8-4.51-16.8-13.53v-20.01c-1.64,2.13-2.47,4.92-2.47,8.38v27.06c0,9.02,5.6,13.53,16.8,13.53h432.86c11.2,0,16.8-4.51,16.8-13.53v-7.05c-2.65,3.43-7.42,5.15-14.33,5.15Z"/>
      <path class="cls-16" d="M453.17,388.19H20.31c-11.2,0-16.8,4.51-16.8,13.53v5.47c1.11-7.12,6.63-10.69,16.58-10.69h432.86c11.2,0,16.8,4.51,16.8,13.53v21.59c.14-.89.21-1.84.21-2.84v-27.06c0-9.02-5.6-13.53-16.8-13.53Z"/>
      <path class="cls-22" d="M453.17,445.82H20.31c-17.67,0-20.31-10.68-20.31-17.04v-27.06c0-6.36,2.64-17.04,20.31-17.04h432.86c17.67,0,20.31,10.68,20.31,17.04v27.06c0,6.36-2.64,17.04-20.31,17.04ZM20.31,391.71c-11.7,0-13.28,5.06-13.28,10.02v27.06c0,4.95,1.58,10.02,13.28,10.02h432.86c11.7,0,13.28-5.06,13.28-10.02v-27.06c0-4.95-1.58-10.02-13.28-10.02H20.31Z"/>
      <path class="cls-16" d="M341.97,338.09c0,7.84-2.8,14.52-8.4,20.06-5.54,5.6-12.22,8.4-20.06,8.4h-153.96c-7.84,0-14.56-2.8-20.15-8.4-5.54-5.54-8.3-12.22-8.3-20.06s2.77-14.56,8.3-20.15c5.6-5.54,12.32-8.3,20.15-8.3h153.96c7.84,0,14.53,2.77,20.06,8.3,5.6,5.6,8.4,12.32,8.4,20.15Z"/>
      <path class="cls-9" d="M333.57,317.93c-2.61-2.61,2,1.59,2,11.66,0,15.58-12.66,28.46-28.46,28.46h-153.96c-7.45,0-13.88-2.53-19.31-7.59,4,8.18,13.07,16.08,25.71,16.08h153.96c24.8,0,38.35-30.33,20.06-48.61Z"/>
      <g>
        <rect class="cls-19" x="156.82" y="320.47" width="13.87" height="33.82" rx="3.62" ry="3.62"/>
        <rect class="cls-19" x="187.49" y="320.47" width="13.87" height="33.82" rx="3.62" ry="3.62"/>
        <rect class="cls-19" x="218.15" y="320.47" width="13.87" height="33.82" rx="3.62" ry="3.62"/>
        <rect class="cls-19" x="248.82" y="320.47" width="13.87" height="33.82" rx="3.62" ry="3.62"/>
        <rect class="cls-19" x="279.48" y="320.47" width="13.87" height="33.82" rx="3.62" ry="3.62"/>
        <rect class="cls-19" x="310.14" y="320.47" width="13.87" height="33.82" rx="3.62" ry="3.62"/>
      </g>
      <g>
        <rect class="cls-22" x="152.93" y="320.66" width="13.87" height="33.82" rx="3.62" ry="3.62"/>
        <rect class="cls-22" x="183.6" y="320.66" width="13.87" height="33.82" rx="3.62" ry="3.62"/>
        <rect class="cls-22" x="214.26" y="320.66" width="13.87" height="33.82" rx="3.62" ry="3.62"/>
        <rect class="cls-22" x="244.93" y="320.66" width="13.87" height="33.82" rx="3.62" ry="3.62"/>
        <rect class="cls-22" x="275.59" y="320.66" width="13.87" height="33.82" rx="3.62" ry="3.62"/>
        <rect class="cls-22" x="306.25" y="320.66" width="13.87" height="33.82" rx="3.62" ry="3.62"/>
      </g>
      <path class="cls-22" d="M313.51,369.34h-153.96c-8.57,0-16.02-3.1-22.13-9.22-19.63-19.63-5.72-53.3,22.13-53.3h153.96c8.57,0,15.99,3.07,22.04,9.12,20.02,20.02,5.27,53.39-22.04,53.39ZM141.37,319.91c-16.23,16.43-4.47,43.83,18.17,43.83h153.96c7.36,0,13.1-2.6,18.09-7.59,16.38-16.2,4.52-43.73-18.09-43.73h-153.96c-7.13,0-13.08,2.45-18.17,7.48Z"/>
      <g>
        <g>
          <path class="cls-25" d="M117.94,332.34c0,16.52-13.24,29.86-29.86,29.86s-29.86-13.03-29.86-29.86,13.13-29.86,29.86-29.86,29.86,13.37,29.86,29.86Z"/>
          <path class="cls-22" d="M88.08,364.69c-17.81,0-32.35-14.11-32.35-32.35s14.23-32.35,32.35-32.35,32.35,14.38,32.35,32.35-14.33,32.35-32.35,32.35ZM88.08,304.97c-15.35,0-27.37,12.02-27.37,27.37s12.02,27.37,27.37,27.37,27.37-12.28,27.37-27.37-12.02-27.37-27.37-27.37Z"/>
        </g>
        <g>
          <path class="cls-6" d="M88.08,354.3c-12.31,0-21.96-9.65-21.96-21.96,0-6,2.25-11.55,6.33-15.63,4.08-4.08,9.63-6.33,15.63-6.33,12.31,0,21.96,9.65,21.96,21.96,0,5.9-2.27,11.43-6.39,15.55-4.12,4.13-9.65,6.41-15.57,6.41Z"/>
          <path class="cls-8" d="M105.61,318.97c.51,1.88.78,3.87.78,5.93,0,5.9-2.27,11.43-6.39,15.55-4.12,4.13-9.65,6.41-15.57,6.41-7.24,0-13.56-3.34-17.54-8.59,2.53,9.34,10.93,16.03,21.18,16.03,5.92,0,11.45-2.28,15.57-6.41,4.12-4.13,6.39-9.65,6.39-15.55,0-5.07-1.64-9.69-4.43-13.37Z"/>
          <ellipse class="cls-10" cx="81.52" cy="323.7" rx="6.56" ry="4.73"/>
          <ellipse class="cls-10" cx="94.16" cy="328.88" rx="4.48" ry="2.74"/>
        </g>
      </g>
      <g>
        <g>
          <path class="cls-25" d="M414.89,332.34c0,16.52-13.24,29.86-29.86,29.86s-29.86-13.03-29.86-29.86,13.13-29.86,29.86-29.86,29.86,13.37,29.86,29.86Z"/>
          <path class="cls-22" d="M385.03,364.69c-17.81,0-32.35-14.11-32.35-32.35s14.23-32.35,32.35-32.35,32.35,14.38,32.35,32.35-14.33,32.35-32.35,32.35ZM385.03,304.97c-15.35,0-27.37,12.02-27.37,27.37s12.02,27.37,27.37,27.37,27.37-12.28,27.37-27.37-12.02-27.37-27.37-27.37Z"/>
        </g>
        <g>
          <path class="cls-6" d="M385.03,354.3c-12.31,0-21.96-9.65-21.96-21.96,0-6,2.25-11.55,6.33-15.63,4.08-4.08,9.63-6.33,15.63-6.33,12.31,0,21.96,9.65,21.96,21.96,0,5.9-2.27,11.43-6.39,15.55-4.12,4.13-9.65,6.41-15.57,6.41Z"/>
          <path class="cls-8" d="M402.56,318.97c.51,1.88.78,3.87.78,5.93,0,5.9-2.27,11.43-6.39,15.55-4.12,4.13-9.65,6.41-15.57,6.41-7.24,0-13.56-3.34-17.54-8.59,2.53,9.34,10.93,16.03,21.18,16.03,5.92,0,11.45-2.28,15.57-6.41,4.12-4.13,6.39-9.65,6.39-15.55,0-5.07-1.64-9.69-4.43-13.37Z"/>
          <ellipse class="cls-10" cx="378.46" cy="323.7" rx="6.56" ry="4.73"/>
          <ellipse class="cls-10" cx="391.11" cy="328.88" rx="4.48" ry="2.74"/>
        </g>
      </g>
      <rect class="cls-15" x="156.61" y="379.65" width="160.25" height="67.38" rx="17.58" ry="17.58"/>
      <path class="cls-11" d="M307.93,382.26c.21,1.11.33,2.26.33,3.43v30.67c0,10.09-8.26,18.35-18.35,18.35h-123.55c-3.44,0-6.66-.96-9.42-2.62,1.62,8.47,9.11,14.92,18.03,14.92h123.55c10.09,0,18.35-8.26,18.35-18.35v-30.67c0-6.66-3.59-12.52-8.94-15.74Z"/>
      <path class="cls-22" d="M298.51,449.62h-123.55c-11.55,0-20.95-9.4-20.95-20.95v-30.67c0-11.55,9.4-20.95,20.95-20.95h123.55c11.55,0,20.95,9.4,20.95,20.95v30.67c0,11.55-9.4,20.95-20.95,20.95ZM174.97,382.24c-8.69,0-15.76,7.07-15.76,15.76v30.67c0,8.69,7.07,15.76,15.76,15.76h123.55c8.69,0,15.76-7.07,15.76-15.76v-30.67c0-8.69-7.07-15.76-15.76-15.76h-123.55Z"/>
      <path class="cls-11" d="M422.07,258.56l-13.41-64.9c-2.07-10.04-11.14-17.26-21.67-17.26H86.12c-10.53,0-19.6,7.22-21.67,17.26l-13.41,64.9c-1.03,5.02-.19,9.91,2.01,14.05,9.76-7.47,21.06-11.19,33.96-11.19h299.18c12.87,0,24.16,3.7,33.9,11.14,2.18-4.14,3.01-9.01,1.98-14.01ZM365.74,251.46H107.37c-14.19,0-25.26-11.92-23.79-25.61l1.38-12.87c1.27-11.82,11.54-20.8,23.79-20.8h255.6c12.25,0,22.52,8.98,23.79,20.8l1.38,12.87c1.47,13.69-9.6,25.61-23.79,25.61Z"/>
      <path class="cls-13" d="M73.72,203.02c2.07-10.04,11.14-17.26,21.67-17.26h300.87c3.79,0,7.38.94,10.53,2.6-3.65-7.19-11.25-11.96-19.82-11.96H86.12c-10.53,0-19.6,7.22-21.67,17.26l-13.41,64.9c-1.03,5.02-.19,9.91,2.01,14.05,2.34-1.79,4.76-3.36,7.28-4.72l13.4-64.87Z"/>
      <path class="cls-22" d="M365.74,254.36H107.37c-7.74,0-15.1-3.25-20.19-8.92-9.11-10.14-6.5-19.77-5.1-32.77,1.43-13.34,12.9-23.4,26.68-23.4h255.6c13.78,0,25.25,10.06,26.68,23.4l1.38,12.87c1.69,15.71-11.07,28.83-26.68,28.83ZM108.75,195.07c-10.8,0-19.79,7.83-20.9,18.21l-1.38,12.87c-1.3,12.15,8.62,22.4,20.9,22.4h258.37c6.09,0,11.88-2.55,15.87-7,7.3-8.12,4.96-16.06,3.65-28.27-1.11-10.38-10.1-18.21-20.9-18.21H108.75Z"/>
      <path class="cls-22" d="M51.91,277.79c-7.99-15.08-6.16-10.55,9.18-84.82,2.4-11.62,12.87-19.99,25.02-19.99h300.87c12.15,0,22.62,8.38,25.02,19.99,15.34,74.27,17.15,69.71,9.22,84.78-6.13-4.68-15.99-12.89-35.04-12.89H87.01c-15.46,0-24.4,4.75-35.1,12.94ZM86.12,179.82c-8.88,0-16.58,6.11-18.32,14.53-14.95,72.36-14.62,67.63-13.19,72.97,9.49-6.18,20.36-9.31,32.4-9.31h299.18c12.01,0,22.86,3.11,32.33,9.26,1.44-5.42,1.22-3.1-13.2-72.92-1.74-8.42-9.44-14.53-18.32-14.53H86.12Z"/>
      <g>
        <rect class="cls-4" x="122.18" y="374.1" width="23.28" height="85.23" rx="6.07" ry="6.07"/>
        <path class="cls-9" d="M137.05,374.1v67.65c0,4.66-3.78,8.44-8.44,8.44h-6.4s-.03,0-.04,0v.71c0,4.66,3.78,8.44,8.44,8.44h6.4c4.66,0,8.44-3.78,8.44-8.44v-68.36c0-4.65-3.76-8.42-8.4-8.44Z"/>
        <path class="cls-22" d="M137.01,462.24h-6.4c-6.25,0-11.34-5.09-11.34-11.34v-68.36c0-6.25,5.09-11.34,11.34-11.34h6.4c6.25,0,11.34,5.09,11.34,11.34v68.36c0,6.25-5.09,11.34-11.34,11.34ZM130.61,377c-3.05,0-5.53,2.48-5.53,5.53v68.36c0,3.05,2.48,5.53,5.53,5.53h6.4c3.05,0,5.53-2.48,5.53-5.53v-68.36c0-3.05-2.48-5.53-5.53-5.53h-6.4Z"/>
      </g>
      <g>
        <rect class="cls-4" x="328.03" y="374.1" width="23.28" height="85.23" rx="6.07" ry="6.07"/>
        <path class="cls-9" d="M342.9,374.1v67.65c0,4.66-3.78,8.44-8.44,8.44h-6.4s-.03,0-.04,0v.71c0,4.66,3.78,8.44,8.44,8.44h6.4c4.66,0,8.44-3.78,8.44-8.44v-68.36c0-4.65-3.76-8.42-8.4-8.44Z"/>
        <path class="cls-22" d="M342.86,462.24h-6.4c-6.25,0-11.34-5.09-11.34-11.34v-68.36c0-6.25,5.09-11.34,11.34-11.34h6.4c6.25,0,11.34,5.09,11.34,11.34v68.36c0,6.25-5.09,11.34-11.34,11.34ZM336.46,377c-3.05,0-5.53,2.48-5.53,5.53v68.36c0,3.05,2.48,5.53,5.53,5.53h6.4c3.05,0,5.53-2.48,5.53-5.53v-68.36c0-3.05-2.48-5.53-5.53-5.53h-6.4Z"/>
      </g>
      <path class="cls-2" d="M363.92,90.19c20.5-3.35,8.65-24.62,18.55-35.4,2.72-2.8-4.07-9.16-5.4-3.39-.36,4.91-9.25,12.48-10.36,4.41,4.11-5.16,5.13-19.93-5.12-14.74-3.8,3.47.52,17.04-8.6,13.59-4.06-3.45,4.19-13.36-3.61-15.85-9.65-1.65-12.02,20.11-.94,16.34,18.98,0,21.98,34.17,3.82,9.69-6.08-6.09-12.61,6.39-18.11,1.11-4.8-5.28-13.35,2.86-6.78,6.83,15.81,2.27,16.89,23.52,36.56,17.4Z"/>
      <path class="cls-20" d="M321.28,149.21l-7.73,12.43,1.31,9.94s18.18-12.2,30.25-24.64,16.54-24.19,19.89-38.09c.65-18.99,25.97-16.38,20.44-41.93,12.92-24.06.73-19.38-14.34-32.86-5.7-5.7-11.66,2.14-17.04-1.18-5.47-4.5-14.07-.89-17.23,4.76-6.36,6.99,1.17,18.54-3.51,19.2-10-2.63-20.51,6.57-15.55,16.38,2.47,9.04,12.84,5.72,16.68,12.12,16.48,24.18,30.04,1.85,6.62,46.35-4.37,8.37-19.79,17.53-19.79,17.53Z"/>
      <path class="cls-2" d="M327.36,72.78c-6.57-3.97,1.98-12.11,6.78-6.83,5.5,5.28,12.03-7.2,18.11-1.11,18.17,24.48,15.16-9.7-3.82-9.69-11.09,3.76-8.72-17.99.94-16.34,7.81,2.48-.45,12.4,3.61,15.85,9.12,3.45,4.79-10.12,8.6-13.59,10.25-5.19,9.23,9.58,5.12,14.74,1.11,8.08,10,.5,10.36-4.41,1.33-5.77,8.12.58,5.4,3.39-9.9,10.78,1.95,32.05-18.55,35.4-19.67,6.12-20.75-15.13-36.56-17.4Z"/>
      <path class="cls-20" d="M381.52,20.87c5.83,6.74,17.03,9.37,18.19,20.43-.99,7.4,7.2,14.98,7.94,3.66,1.66-11.27-17.48-37.41-26.12-24.1Z"/>
      <path class="cls-20" d="M375.23,7.88c9.08-.29,17.13,2.88,23.03,9.93,19.16,3.22-7.47-20.94-16.71-17.47-5.28-.79-13.14,3.28-6.32,7.54Z"/>
    </g>
  </g>
</svg>