<?xml version="1.0" encoding="UTF-8"?>
<svg id="Capa_2" data-name="Capa 2" xmlns="http://www.w3.org/2000/svg" viewBox="0 0 480.09 793.79">
  <defs>
    <style>
      .cls-1 {
        fill: #000;
      }

      .cls-1, .cls-2, .cls-3, .cls-4 {
        stroke-width: 0px;
      }

      .cls-2 {
        fill: #f1eee1;
      }

      .cls-3 {
        fill: #fff;
      }

      .cls-4 {
        fill: #bea9ed;
      }
    </style>
  </defs>
  <g id="Layer_1" data-name="Layer 1">
    <g>
      <path class="cls-1" d="M255.31,173.09c5.83-5.15,11.38-10.25,17.13-15.11,8.1-6.83,21.46-8.83,30.51-4.09,7.39,3.87,13.55,9.12,17.98,15.87,4.53,6.89,7.25,14.77,9.49,22.84,3.64,13.09,4.4,26.44,4.8,39.86.11,3.77-.38,7.56-.68,11.34-.18,2.31.81,3.42,3.1,3.56,3.27.2,6.53.46,9.8.75,2.16.19,4.53-.4,6.13,1.9.31.44,1.51.33,2.31.35,6.27.21,12.43.79,17.98,4.18.81.5,2,.75,2.94.62,3.73-.52,7.1.39,10.33,2.16.89.49,1.87,1.04,2.84,1.1,4.12.27,7.43,2.15,10.82,4.39,2.45,1.63,5.78,1.87,8.43,3.27,2.78,1.48,5.16,3.68,7.8,5.44,3.49,2.32,4.79,5.5,4.78,9.66-.02,18.54.18,37.08.22,55.62.02,12.19-.08,24.38-.2,36.57-.02,2.52.31,4.29,3.41,4.7,4.22.56,8.37,1.59,12.55,2.44.5.1,1.08.16,1.44.45,5.34,4.25,10.68,8.5,15.91,12.89.69.58,1,1.91,1.03,2.91.09,2.73-.08,5.48-.11,8.21-.05,4.39-.13,8.77-.07,13.16.04,2.93.3,5.87.49,8.8.04.6.35,1.2.35,1.79-.05,9.72-.13,19.43-.2,29.15,0,.41-.08.85.03,1.23,1.93,6.32,1.06,12.75.85,19.16-.04,1.1.19,2.27.56,3.31,1.09,3.08,1.74,6.11.1,9.2-.18.34-.36.91-.2,1.18,2.35,4.19-.4,7.9-1.21,11.74-.26,1.26-1.45,2.61-2.58,3.36-3.48,2.3-6.99,4.66-10.77,6.38-3.49,1.6-7.27,2.87-11.06,3.46-4.76.74-7.57,2.68-7.3,7.79.09,1.76.36,3.52.57,5.27.12.99.77,2.39.35,2.87-1.88,2.14-.96,4.43-.89,6.73.12,3.79-.1,7.59.06,11.37.29,6.71.85,13.42,1.11,20.13.26,6.65.35,13.31.4,19.96.02,3.47.09,6.99-.45,10.39-.29,1.81-1.51,3.79-2.89,5.03-3.26,2.92-6.54,6.22-10.44,7.9-3.7,1.59-6.64,5.01-11.3,4.76-2.21-.12-4.49,1.21-6.74,1.88-2.92.86-5.86,1.64-8.75,2.58-1.13.36-2.11,1.15-3.22,1.58-1.2.46-2.46.76-3.71,1.08-.47.12-1.17-.11-1.45.16-3.15,2.98-7.32,1.65-10.93,2.67-2.38.67-5.3-.7-7.2,2.09-.32.48-1.96-.07-2.94.11-2.42.44-4.81,1.09-7.23,1.54-1.49.28-3.01.31-4.52.51-5.45.76-10.89,1.54-17.06,2.42,0,2.47,0,5.49,0,8.52.01,11.79.15,23.58,0,35.37-.07,4.97.78,8.96,6.22,10.67,1.92.6,3.52,2.16,5.42,2.84,3.72,1.32,5.23,3.96,5.5,7.69.2,2.76.71,5.49.88,8.25.16,2.62-.73,4.3-3.43,5.75-3.34,1.8-6.37,4.54-8.86,7.46-3.23,3.8-5.99,8.04-8.55,12.33-1.86,3.11-1.18,5.86,1.01,7.06,2.59,1.42,6.17.56,7.69-2.3,6.48-12.26,17.12-17.43,30.36-19.67,14.03-2.38,27.93-2.77,41.82-.25,16.73,3.04,29.73,11.77,38.68,26.54,4.78,7.9,8.27,16.21,9.53,25.29.68,4.93.52,10.03.24,15.02-.24,4.3-2.75,6.75-7.15,6.94-8.99.37-18,.44-27.01.48-20.8.08-41.59.1-62.39.06-27.35-.05-54.71-.16-82.06-.28-4.19-.02-8.39-.06-12.56-.41-4.43-.37-5.86-1.97-6.34-6.36-.42-3.88.88-7.2,2.45-10.8,2.72-6.24,4.24-13,6.44-19.48,1.93-5.7,4.15-11.31,6.16-16.99.61-1.72.87-3.56,1.44-5.3,3.33-10.07,6.7-20.13,10.07-30.18.68-2.03,1.69-3.97,2.16-6.05,1.25-5.5,5.67-7.66,10.15-9.29,3.53-1.28,4.7-3.19,4.65-6.77-.15-13.02-.15-26.04-.03-39.06.03-2.71-.8-3.6-3.46-3.55-14.22.29-28.45.48-42.67.65-7.14.08-14.28.16-21.41.01-6.64-.14-13.28-.65-19.92-.78-.99-.02-2.51.95-2.94,1.86-5.52,11.66-10.81,23.42-16.34,35.07-1.02,2.15-.78,3.42.84,5.06,2.01,2.03,3.6,4.46,5.47,6.64,3.81,4.46,3.43,9.32,1.65,14.42-2.56,7.32-5.2,14.63-7.48,22.04-2.89,9.38-5.38,18.89-8.17,28.31-2.35,7.92-5.02,15.74-7.28,23.69-.72,2.53-2.12,3.98-4.24,5.26-8.63,5.2-17.85,4.55-27.13,2.81-12.5-2.33-24.59-6.03-36.22-11.24-3.62-1.62-7.47-2.75-11.24-4.04-2.13-.73-4.38-1.19-5.34-3.66-.14-.37-.81-.57-1.27-.79-11.12-5.37-22.56-10.19-33.3-16.24-14.5-8.17-28.43-17.29-41.01-28.4-6.05-5.34-11.63-10.92-15.8-17.85-2.82-4.7-3.8-9.94-2.49-15.07.72-2.81,3.18-5.35,5.3-7.6,6.04-6.39,11.98-12.95,18.61-18.68,4.42-3.82,9.86-6.51,15.03-9.36,3.44-1.9,7.1-3.58,10.86-4.7,13.62-4.06,27.23-4.16,40.65,1.04,8.12,3.15,15.32,7.79,21.69,13.69,4.5,4.16,9.37,8.08,13.13,12.85,4.23,5.37,7.29,11.62,8.41,18.58.36,2.22.67,4.48,1.36,6.61.8,2.47,2.05,4.95,5.17,4.8,2.41-.12,5.44-4.19,5.04-6.93-.42-2.91-1.52-5.71-2.22-8.59-.9-3.67-1.69-7.36-2.59-11.03-.2-.83-.71-1.57-1.06-2.37-.47-1.08-1.25-2.15-1.32-3.26-.34-5.54,1.89-8.59,7.45-8.57,5.76.02,11.57.96,17.26,2.02,2.93.55,4.2.2,5.48-2.74,3.46-7.95,7.39-15.7,11.25-23.47,1.04-2.09.68-2.96-1.68-3.19-9.86-.96-19.76-1.69-29.54-3.15-3.74-.56-7.92-.63-11.13-3.57-.73-.67-2.33-.56-3.52-.54-4.19.06-8.41.42-12.17-2.09-.41-.27-.96-.47-1.45-.46-8.49.07-15.68-4.72-23.74-6.52-6.68-1.49-12.64-6.41-18.74-10.09-1.19-.71-2.01-2.65-2.27-4.14-.49-2.8-.49-5.7-.62-8.56-.22-5.16-.52-10.32-.53-15.48-.02-7.65.26-15.3.23-22.96,0-1.77-1.01-3.53-1.09-5.31-.15-3.37.12-6.75.07-10.13-.1-6.12-.57-12.24-.4-18.35.13-4.85.93-9.59-.36-14.5-.45-1.71,1.37-4.15,2.43-6.1,1.2-2.22.93-3.59-1.31-5.03-8.16-5.25-14.06-12.41-15.74-22.11-.88-5.08-1.55-10.75-.15-15.52,1.52-5.16,5.13-9.93,8.58-14.27,8.02-10.1,19.45-15.3,30.97-20.16,2.15-.91,2.58-1.61,1.64-3.78-.59-1.34-.48-3.14-.25-4.67.63-4.21-.52-8.99-5.95-9.58-2.11-.23-4.15-1.07-6.22-1.64-.3-.08-.74-.09-.86-.29-2.13-3.54-6.15-4.61-9.09-7.03-2.3-1.9-3.27-4.71-3.29-7.96-.04-4.9-.88-9.8-.91-14.7-.04-5.92.43-11.85.66-17.77.06-1.42.34-2.92.03-4.26-.77-3.31-.99-6.4-.23-9.89.65-3-.64-6.4-.94-9.64-.41-4.49-1.47-9.09-.88-13.46,1.69-12.6.51-25.13.14-37.7-.06-1.9.53-3.84,1.01-5.71.33-1.27,1.39-2.44,1.46-3.69.38-7.43,7.22-9.95,11.17-14.58,1.59-1.86,4.92-2.25,7.49-3.26,4.17-1.63,8.28-3.45,12.55-4.74,3.87-1.17,7.93-1.74,11.91-2.55,3.28-.67,6.56-1.4,9.86-1.92,2.26-.35,4.58-.28,6.85-.59,2.68-.37,5.3-1.1,7.98-1.42,4.74-.56,9.5-1.31,14.24-1.23,2.42.05,3.01-.41,3.23-2.59.72-7.03,1.18-14.12,2.5-21.04,1.53-8,3.72-15.89,5.94-23.74,1.33-4.71,2.88-9.43,5.02-13.81,4.44-9.07,9.06-18.12,16.43-25.28,3.79-3.68,7.76-7.21,11.91-10.48,15.54-12.25,41.74-1.52,47.79,13.66,1.21,3.03,2.82,5.91,4.34,8.81.51.98,1.34,1.79,1.91,2.54ZM117.97,499.22c.88.55,1.34.96,1.87,1.15,6.98,2.51,13.95,5.08,20.98,7.45,3.94,1.33,7.96,2.54,12.02,3.4,3.79.79,7.71.96,10.73,3.86.32.3.95.36,1.44.39,6.52.37,13.05.63,19.57,1.09,2.41.17,4.8.72,7.17,1.19,1.3.26,2.53.82,3.83,1.05.99.18,2.27-.33,3.01.13,3.84,2.38,8.18,1.32,12.24,2.08,1.25.23,2.46,1.04,3.69,1.03,3.49-.03,6.98-.35,10.47-.53.13,0,.28.18.43.28-.32.19-.63.37-.93.55.05.26.1.52.14.77,1.68-.28,3.37-.48,5.02-.88.98-.23,1.92-1.16,2.81-1.09,2.29.2,4.53.87,6.82,1.21,2.39.35,4.8.61,7.2.75,2.1.12,4.23.17,6.32-.04,2.14-.22,4.25-.82,6.37-1.24.67-.13,1.67-.59,1.95-.32,2.04,2.03,3.79.82,5.65-.23.49-.28,1.2-.2,1.81-.22,5.81-.16,11.65,0,17.43-.55,4.31-.4,7.41.4,9.76,4.37,1.09,1.84,1.92,3.2.91,5.26-.39.79-.08,1.93-.49,2.69-.62,1.14-1.39,2.46-2.46,3.06-4.61,2.59-9.7,1.84-14.71,1.82-5.58-.02-11.17.33-16.75.55-.49.02-.96.33-1.46.44-1.93.41-3.86.89-5.81,1.17-4.89.68-9.78-2.15-14.7-.05-.4.17-.99-.11-1.49-.17-1.76-.21-3.51-.46-5.28-.6-3.12-.25-6.24-.47-9.36-.64-5.23-.29-10.48-.38-15.69-.82-7.4-.63-14.78-1.43-22.16-2.28-4.55-.52-9.07-1.3-13.61-1.93-1.92-.27-3.88-.29-5.76-.71-4.95-1.1-9.85-2.42-14.79-3.53-5.69-1.29-11.41-2.4-17.09-3.73-1-.23-2.36-.93-2.66-1.74-.84-2.33-2.41-2.16-4.39-2.2-6.17-.11-12.08-1.13-16.73-5.85-5.04-5.12-10.65-8.33-18.03-4.73-.9.44-1.91.62-3.04.98.37,2.38,1.02,4.68,1.01,6.98-.01,2.78-.68,5.55-.88,8.34-.16,2.09.18,4.1.63,6.23,1.01,4.84.8,10.08.09,15.02-.19,1.33-.82,2.75-.57,4.31.42,2.61.89,5.23,1.1,7.86.23,2.95.23,5.93.26,8.89.06,8.29.27,16.59.06,24.88-.13,4.95.8,6.45,5.73,7.64,3.77.91,7.87,1.45,11.08,3.38,5.06,3.04,10.34,4.15,16.03,4.51,2.59.16,5.64.11,7.6,1.44,2.54,1.72,4.8,2.26,7.69,1.93,1.78-.21,3.68.15,5.47.49,5.23,1,10.4,2.26,15.65,3.12,2.97.49,6.04.29,9.05.58,2.12.21,4.19.88,6.31,1.07,6.52.59,13.06.97,19.58,1.57,4.05.38,8.06,1.19,12.11,1.49,3.43.26,6.89.07,10.34.08,2.64,0,5.28-.03,7.93,0,1.63.02,3.57-.42,4.83.3,4,2.3,7.98.55,11.95.51,1.53-.02,3.05-.44,4.57-.43,8.05.05,16.09.31,24.14.24,6.32-.05,12.64-.44,18.96-.73,6.02-.28,12.06-.37,18.04-1.01,8.59-.91,17.13-2.23,25.7-3.39,7.33-.99,14.68-1.88,21.99-3.06,2.9-.47,5.67-1.66,8.54-2.38,3.35-.84,6.85-1.19,10.06-2.38,2.56-.95,4.79-2.62,7.74-1.47.4.16,1.39-.26,1.61-.68,1.44-2.68,3.94-1.99,6.21-2.15,1.21-.08,2.54-.08,3.59-.57,3.83-1.79,7.72-3.55,11.27-5.81,1.36-.87,2.27-2.96,2.68-4.67.47-1.93-.02-4.06.2-6.08.37-3.38,1.81-6.69,0-10.11-.49-.93-.41-2.21-.4-3.33.02-6.45.11-12.9.16-19.34.08-9.78.11-19.56.23-29.33.03-2.46-1.11-3.1-3.27-2.5-1.46.41-2.97,1.44-4.32,1.25-5.3-.77-10.09,1.66-15.22,2.08-7.75.64-15.4,2.52-23.11,3.74-4.53.72-9.09,1.27-13.65,1.72-6.23.62-12.57,2.39-18.38-1.88-2.95-2.17-4.15-4.76-3.32-8.5.59-2.64,4.68-6.61,7.18-6.63,3.78-.02,7.56.25,11.35.33.78.02,1.61-.17,2.33-.47,1.69-.7,3.25-1.96,4.99-2.23,4.56-.69,9.17-1.12,13.77-1.4,14.04-.85,27.91-2.59,41.34-7.03,1.05-.35,2.22-.3,3.33-.49,3.18-.54,6.38-.96,9.51-1.7,4.94-1.16,9.79-2.69,14.75-3.77,4.21-.92,5.94-2.93,5.5-7.2-.12-1.22-.24-2.45-.26-3.68-.13-8.25-.2-16.51-.37-24.76-.02-1.2-.46-2.39-.7-3.58-.22-1.09-.95-2.44-.55-3.24,1.69-3.42.12-6.81.3-10.19.19-3.54,1.13-7.23.45-10.59-1.58-7.79-1.89-15.59-1.73-23.47.06-3.16-.06-6.33-.29-9.48-.06-.81-.65-1.9-1.33-2.29-2.03-1.18-4.18-2.14-6.34-3.07-3.94-1.69-7.71-1.85-11.07,1.42-1.39,1.35-2.95,2.52-4.44,3.76-3.5,2.94-6.92,6.03-12.04,5.54-.84-.08-1.96.25-2.58.8-3.1,2.75-8.24,1.5-10.68,5.52-.19.31-.95.35-1.45.38-3.47.25-6.94.6-10.41.63-1.08,0-2.56-.55-3.2-1.37-5.27-6.64-5.16-7.58.82-13.67.07-.07.16-.13.22-.22,1.46-1.95,3.37-2.77,5.83-2.79,5.82-.04,11.36-1.43,16.57-4.01,1.83-.9,3.45-2.29,5.33-2.98,2.01-.74,2.54-1.81,2.49-3.89-.24-9.6-.34-19.21-.42-28.82-.08-10-.11-20-.11-30,0-5.68.1-11.36.15-17.04.02-1.77,0-3.53,0-5.79-2.16.96-3.53,1.59-4.91,2.18-9.41,4-19.24,6.34-29.39,7.29-6.11.58-12.24,1.08-18.37,1.2-4.63.09-7.58-3.09-7.93-7.72-.28-3.69,2.21-7.52,5.56-8.12,4.03-.73,8.14-1.04,12.16-1.81,6.85-1.31,13.86.07,20.79-2.6,6.42-2.47,12.77-4.81,18.53-8.58,2.15-1.41,2.11-2.45-.19-3.81-2.55-1.51-5.1-3.12-7.85-4.19-7.96-3.09-15.93-6.21-24.07-8.75-3.52-1.1-7.29-.8-11.02-2.26-3.5-1.36-7.6-.85-11.56-2.58-4.58-2-10.13-1.79-15.4-2.56-1.42,6.45-2.34,12.65-4.21,18.56-1.87,5.91-4.9,11.44-7.05,17.27-2.21,5.99-5.41,11.27-9.61,16.03-2.35,2.67-4.56,5.47-6.82,8.22-7.08,8.62-15.99,13.89-27.22,14.85-1.52.13-3.07-.13-4.6-.22-.26.41-.51.81-.77,1.22.97.59,2.33.95,2.84,1.81,2.42,4.08,5.05,8.12,6.73,12.51,1.26,3.29,3.32,4.98,6.33,2.86,3.4-2.4,7.06-1.82,10.21-.77,11.1,3.69,20.56,9.34,22.9,22.32.24,1.34,2.27,2.86,3.78,3.33,1.97.63,3.95-.06,5.04-2.38.69-1.47,1.91-2.7,2.97-4.13-.26-.16-.59-.38-.93-.57-4.41-2.44-6.29-6.2-5.19-10.36,1.01-3.83,4.65-6.26,9.41-6.31,6.52-.07,12.69,1.5,18.03,5.15,2.86,1.96,5.33,4.77,7.33,7.65,2.54,3.67,2.04,8.6-.53,11.77-2.74,3.36-6.28,2.94-9.82,1.79-1.91-.62-3.14-.09-4.18,1.48-1.34,2.04-2.43,4.37-4.18,5.99-4.85,4.5-10.36,7.69-17.39,6.87-2.13-.25-4.28-.43-6.42-.45-.77,0-2,.36-2.25.91-2.22,4.84-5.1,9.27-6.37,14.71-1.96,8.43-4.87,16.71-8.08,24.77-3.85,9.67-10.07,17.81-18.42,24.15-3.04,2.31-3.21,2.75-.64,5.56.34.37.73.72,1,1.14,5.76,8.95,13.88,14.72,24.23,16.75,7.24,1.42,14.9,1.88,21.74-1.39,8.75-4.18,16.44-9.99,21.28-18.81,1.33-2.42,2.53-5.01,4.32-7.06,2.03-2.32,4.35-4.9,7.09-5.97,5.48-2.13,11.04-1.28,15.33,3.12,4.34,4.45,4.51,9.74,2.43,15.42-4.6,12.5-13.98,21.19-23.45,29.8-6.7,6.08-14.98,9.4-23.43,11.77-14.82,4.17-29.4,1.84-43.66-3.24-15.18-5.41-24.37-17.73-34-29.53-1.28-6.36-5.55-7.05-11.38-7.62-11.01-1.08-20.76-5.99-28.61-14.07-1.52-1.57-2.55-1.51-4.07-.14-1.59,1.43-3.31,2.8-5.16,3.86-2.64,1.5-3.21,3.68-3,6.47.25,3.37.48,6.76.33,10.13-.28,6-6.81,9.42-12.17,6.65-4-2.07-4.56-5.87-4.86-9.65-.18-2.29-.85-2.51-3.01-2.37-5.48.37-11,.54-16.48.27-4.29-.21-7.78-.29-11.84,2.65-10.91,7.93-22.57,14.82-33.93,22.13-1.08.7-2.13,1.44-3.47,2.35ZM255.09,214.71c-.32,1.52-.43,1.9-.47,2.3-1.32,11.21-4.53,21.86-10.02,31.72-2.77,4.98-6.66,9.09-11.81,11.79-7.1,3.72-15.09,2.01-19.76-4.4-4.72-6.48-6.86-14.02-7.45-21.82-.55-7.23-.29-14.54-.02-21.8.11-3.07-.85-4.21-3.81-4.37-3.57-.19-7.13-.77-10.7-1.07-2.92-.25-5.86-.33-8.36-.47-1.34,4.46-2.95,8.38-3.63,12.46-1.18,7.03-1.96,14.14-2.59,21.25-1.24,14.17-.62,28.14,4.22,41.77,2.79,7.86,4.74,15.76,10.48,22.53,7.04,8.3,17.92,6.88,25.58.82,6.09-4.81,8.38-12.17,13.3-17.74,2.48-2.81,3.64-6.73,5.85-9.83,2.85-3.99,7.96-4.42,11.09-.68,1.92,2.3,3.21,5.45,3.87,8.42,2.17,9.84,5.42,19.06,11.86,27.06,5.93,7.37,13.77,7.95,19.32,5.41,12.63-5.79,18.66-17.22,24.06-29.04,2.48-5.42,4.63-11,6.73-16.58.47-1.25.07-2.83.07-4.66-.86.5-1.25.63-1.52.89-4.94,4.6-14.01,5.39-19.29,1.34-4.61-3.54-7.9-8.2-9.78-13.76-4.16-12.33-3.4-24.93-1.99-37.73-1.24-.11-2.56-.24-3.87-.34-3.06-.24-6.16-.26-9.17-.77-4-.67-7.93-1.73-12.18-2.68ZM257.29,330.93c.1-.29.19-.59.29-.88-5.23-2.1-8.18-6.32-10.72-10.95-2.53-4.63-5.11-9.23-7.7-13.9-2.94,3.32-5.47,6.84-8.64,9.63-6.43,5.65-12.7,11.91-22.3,11.55-2.07,2.38-4.86,2.48-7.54,1.92-7.32-1.54-14.19-4.41-19.33-9.95-6.37-6.87-12.07-14.06-14.88-23.53-3.04-10.26-5.42-20.53-6.37-31.14-.18-2.02-.86-2.84-2.72-2.72-3.05.2-6.11.33-9.12.78-5.25.77-10.53,2.74-15.69,2.43-7.06-.43-13.6,1.3-20.27,2.65-2.3.47-4.37,2.02-6.57,3.04-1.32.61-2.68,1.16-4.03,1.72-1.37.57-3.79.91-3.93,1.69-.51,2.69-2.58,3.13-4.38,4.18-4.48,2.61-5.42,7.14-.16,9.79,7.8,3.92,16.05,5.98,24.63,7.12,5.43.72,10.88,1.48,16.22,2.71,3.9.89,6.72,5.5,6.25,9.05-.51,3.81-4.09,7.08-8.69,6.7-9.06-.75-18.13-1.77-27.08-3.32-5.08-.88-9.94-3.02-15.48-4.78,0,2.29.08,4.39-.02,6.48-.2,4.64,1.48,9.41-1.01,13.9-.24.43.06,1.18.15,1.78.32,2.1.9,4.2.95,6.31.17,8.53.14,17.06.25,25.59.11,8.28.44,16.56.39,24.83-.02,3.82.42,6.82,4.85,7.86,1.63.38,3,1.73,4.57,2.48,1.65.78,3.34,1.64,5.11,1.97,3.48.65,7.02.98,10.53,1.41,1.63.2,2.66-.37,2.3-2.22-.19-1-.4-2.04-.84-2.94-4.55-9.3-3.95-18.82-1.28-28.43.29-1.06.79-2.18,1.51-2.97,4.04-4.43,7.83-9.25,13.56-11.61,7.96-3.28,15.92-4.67,23.6,1.01,1.69,1.25,3.2,1.02,4.62-1.02,2.15-3.09,4.62-5.98,7.19-8.74,6.44-6.92,14.76-8.32,23.46-6.64,9.17,1.77,15.4,7.15,17.09,16.93.51,2.96,2.66,3.42,4.85,1.34,1.39-1.32,2.74-2.7,4.29-3.8,4.45-3.17,9.65-3.08,14.77-3.02,2.88.03,5.31-.17,5.54-3.88.05-.74.57-1.55,1.09-2.14,4.55-5.18,10.09-8.25,17.18-8,1.17.04,2.34-.13,3.51-.2ZM251.74,453.26c15.08.42,24.38-6.73,31.25-18.34,4.51-7.62,8.49-15.35,10.21-24.11.73-3.7,1.36-7.48,2.67-10.99,1.64-4.39,3.91-8.54,5.93-12.78,2.79-5.87.29-12.41-5.73-14.94-3.51-1.47-5.94-.19-6.87,3.47-.95,3.75-2.04,7.46-3.09,11.18-.11.38-.29.76-.52,1.09-1.98,2.78-6.14,4.26-9.59,3.43-3.95-.96-6.05-3.33-6.52-7.49-.69-6.1-.89-12.3-2.12-18.29-.97-4.73-2.87-9.35-4.96-13.73-1.66-3.49-5.26-3.87-8.83-3.49-3.18.34-3.42,3.11-4.37,5.29-1.06,2.45-.18,4.5,1.05,6.65,4.26,7.43,9.03,14.63,10.64,23.29.98,5.31-.75,8.78-5.3,10.23-5.21,1.66-8.63.16-10.78-5.04-1.61-3.87-2.86-7.89-4.37-11.81-2.06-5.32-5.53-9.54-10.31-12.65-3.51-2.28-7.45-.69-8.67,3.3-1.15,3.75-.61,7.05,1.93,10.05.52.61.99,1.31,1.31,2.04,3.19,7.15,6.39,14.3,9.49,21.49,1.14,2.66-.56,9.18-2.96,10.61-3.59,2.15-11.71,2.11-13.44-3.5-.84-2.74-1.44-5.55-2.39-8.25-2.13-6.02-4.6-11.85-9.95-15.87-2.43-1.83-5.21-1.82-8.27.06-2.42,1.48-2.58,3.5-2.15,6.1,1.23,7.34,6.69,11.79,11.26,16.77,2.36,2.57,3.92,5.2,4.92,8.56,2.82,9.44,6.35,18.45,13.69,25.67,7.86,7.72,16.28,13.4,26.85,12ZM172.41,454.62c6.63-.18,13.25-.8,19.02-4.68,2.97-2,5.85-4.12,8.73-6.26,1.96-1.45,4.46-2.86.74-5.27-.75-.49-1.12-1.7-1.48-2.65-1.46-3.82-2.64-7.75-4.31-11.47-1.4-3.11-3.22-6.04-5.06-8.93-2.85-4.48-6.47-8.59-8.61-13.37-1.26-2.82-1.99-4.96-5.19-6.12-5.81-2.1-7.9-8.38-4.26-13.53,4.64-6.57,9.71-12.87,15.02-18.91,2.08-2.36,3.17-4.33,2.57-7.48-.95-4.93-6.29-7.6-10.15-4.34-4.7,3.96-9.61,7.95-11.38,14.41-1.48,5.42-3.22,10.77-4.97,16.1-1.43,4.36-4.88,6.41-9.27,5.72-4.34-.68-7.05-3.74-7.25-8.09-.15-3.37-.15-6.77-.61-10.1-.4-2.89-2.63-4.38-5.37-4.68-4.43-.48-9.7,4.01-9.56,8.48.13,3.95,1.05,7.87,1.63,11.8.61,4.13,1.48,8.25,1.8,12.4.53,6.92.48,13.88,1.11,20.78.8,8.85,3.69,17.25,9.57,23.86,7.07,7.95,15.78,13.45,27.27,12.32ZM20.78,694.71c-.24.3-.47.6-.71.9,1.68,2,3.11,4.31,5.1,5.95,9.15,7.53,18.26,15.12,27.77,22.17,5.47,4.06,11.6,7.24,17.55,10.62,5.57,3.16,11.2,6.25,16.96,9.04,8.17,3.96,16.4,7.83,24.77,11.33,5.73,2.39,11.72,4.17,17.65,6.05,7.75,2.46,15.53,4.82,23.35,7.01,1.06.3,2.45-.6,3.69-.95-.4-1.07-.5-2.48-1.26-3.15-4.45-3.89-8.91-7.82-13.66-11.33-6.16-4.57-12.57-8.82-18.93-13.1-5.06-3.4-9.99-7.11-15.38-9.88-12-6.17-24.26-11.82-36.39-17.75-3.36-1.64-6.51-3.79-9.96-5.19-4.63-1.86-9.41-3.4-14.22-4.75-8.74-2.45-17.55-4.66-26.33-6.97ZM243.18,197.04c.33-.28.66-.56.98-.84-1.77-6.35-3.28-12.79-5.39-19.02-2.39-7.06-7.19-12.16-14.14-15.11-.52-.22-.9-.77-1.38-1.1-.82-.57-1.64-1.49-2.52-1.57-4.66-.41-8.93,1.25-12.59,3.79-6.19,4.29-10.96,10.08-14.96,16.44-1.52,2.41-2.67,5.06-3.87,7.65-.98,2.12-.64,3.46,2.15,3.58,3.06.13,6.11.55,9.16.92,14.19,1.74,28.37,3.51,42.56,5.27ZM310.44,184.04c-.39-.33-1.26-.85-1.84-1.6-1.55-2.03-2.91-4.21-4.46-6.24-8.2-10.75-19.07-9.23-27.58-1.17-4.64,4.4-7.74,10.46-11.45,15.82-1.53,2.21-2.86,4.55-4.68,7.47,18.33,3.83,37.03,4.7,55.64,7.24.63-6.68-1.32-12.21-4.04-17.61.04.79.08,1.57.12,2.36-.21.03-.43.05-.64.08-.34-2.02-.68-4.05-1.06-6.35ZM118.92,423.78c-.49.07-.97.14-1.46.21-.11,1.37-.29,2.73-.3,4.1-.02,3.06.11,6.12.08,9.19-.07,7.86-.24,15.72-.24,23.59,0,2.9,2.27,4.44,4.72,3.04,3.51-2.01,6.84-4.39,10.04-6.89.64-.5.88-2.66.36-3.29-4.02-4.91-6.51-10.52-8.75-16.4-1.68-4.42-6.23-7.72-4.46-13.53ZM100.13,456.58c-4.97,3.23-9.94,5.71-13.06,10.46-2.1,3.18-.99,6.37,2.37,8.24,3.17,1.76,6.17.08,9.26-.15,1.71-.13,2.3-.87,2.21-2.54-.29-5.1-.5-10.2-.77-16.01Z"/>
      <path class="cls-1" d="M412.79,50.44c0,3.56-2.38,6.06-6.33,6.7-16.85,2.72-27.99,12.62-34.56,27.95-1.26,2.94-1.51,6.35-1.93,9.59-.44,3.36-2.81,4.27-5.51,4.85-2.67.57-5.28.33-6.68-2.38-1.11-2.15-2.4-4.5-2.53-6.82-.3-5.43-3.03-9.74-5.83-13.94-2.23-3.35-4.91-6.52-7.9-9.2-6.05-5.45-13.26-8.72-21.37-9.96-5.93-.9-8.8-6.18-6.27-11.71.43-.94,1.69-1.74,2.74-2.1,1.82-.63,3.79-.84,5.67-1.29,14.49-3.45,24.76-12.16,31.12-25.48,1.14-2.39,1.48-5.29,1.69-7.99.32-4.18,3.34-7.95,7.4-8.61,2.95-.48,7.46,3.36,7.63,7.05.37,8.11,4.59,14.72,9.25,20.52,6.61,8.22,15.15,14.24,26.36,15.13,4.94.39,7.06,2.94,7.05,7.69ZM381.23,48.93c-.55-.46-1.27-.99-1.92-1.61-5.11-4.88-12.21-7.69-15.14-14.85-.73-1.79-1.86-1.2-3,.11-5.06,5.81-10.24,11.52-15.82,17.76,5.54,5.48,11.64,11.52,17.36,17.19,6.43-6.46,12.32-12.38,18.51-18.6Z"/>
      <path class="cls-1" d="M437.12,207.15c-4.77.03-7.25-2.3-8.18-7.37-.86-4.71-2.44-8.91-5.46-12.99-3-4.04-6.82-6.9-10.44-10.02-2.1-1.81-5.34-2.31-8.11-3.28-1.05-.37-2.22-.33-3.32-.59-6.87-1.59-6.53-2.77-7.33-9.09-.5-3.96,2.38-6.59,7.25-7.64,10.65-2.29,19.01-7.87,24.22-17.54,1.56-2.9,2.42-6.28,3.06-9.55.83-4.21,3.82-7.37,7.71-7.35,4.56.02,8.01,2.78,8.58,7.05,1.28,9.66,6.56,16.63,14.26,22.2,4.29,3.11,9.36,3.78,14.17,5.28,3.16.98,6.29,4.96,6.57,9.05.17,2.6-1.92,5.37-5.09,6.55-1.43.53-2.92.95-4.42,1.23-12.46,2.31-23.11,13.31-25.05,25.92-.78,5.09-3.9,8.11-8.41,8.13ZM427.04,165.11c3.19,3.39,6.35,6.75,9.53,10.13,3.67-3.49,7.23-6.89,10.69-10.19-2.72-3.05-5.77-6.28-8.58-9.7-1.4-1.71-2.12-2-3.59-.01-2.52,3.41-5.38,6.57-8.05,9.77Z"/>
      <path class="cls-1" d="M81.02,133.44c2.42-.17,3.76,1.02,3.91,3.34.69,10.4,8.22,15.79,15.67,21.06,1.67,1.18,4.34.93,6.55,1.35,2.82.54,4.36,2.51,4.29,5.4-.07,3-2.14,3.64-4.53,3.95-9.52,1.22-19.5,10.58-21.32,19.99-.98,5.04-1.92,6.29-4.81,6.35-2.81.06-3.71-1.14-4.7-6.33-1.68-8.77-11.18-18.06-19.94-19.49-.3-.05-.61-.09-.91-.14-3.83-.68-5.76-2.36-5.65-4.91.1-2.36,2.48-4.38,5.82-4.93,10.11-1.68,19.9-11.65,20.92-21.67.33-3.22,2.18-3.82,4.71-3.96ZM70.53,164.15c3.66,3.47,7.23,6.86,10.61,10.06,3.05-3,6.58-6.45,9.65-9.47-3.56-3.47-7.35-7.17-11.04-10.78-2.71,3-6.04,6.67-9.22,10.19Z"/>
      <path class="cls-2" d="M117.97,499.22c1.34-.91,2.39-1.65,3.47-2.35,11.36-7.31,23.02-14.21,33.93-22.13,4.05-2.94,7.55-2.86,11.84-2.65,5.48.27,11,.1,16.48-.27,2.16-.15,2.83.08,3.01,2.37.3,3.78.86,7.58,4.86,9.65,5.37,2.78,11.9-.65,12.17-6.65.16-3.37-.08-6.76-.33-10.13-.21-2.79.36-4.97,3-6.47,1.85-1.06,3.57-2.42,5.16-3.86,1.53-1.37,2.55-1.43,4.07.14,7.85,8.08,17.6,12.99,28.61,14.07,5.83.57,10.1,1.25,11.38,7.62,9.64,11.8,18.83,24.12,34,29.53,14.26,5.08,28.84,7.41,43.66,3.24,8.46-2.38,16.74-5.69,23.43-11.77,9.48-8.61,18.86-17.29,23.45-29.8,2.09-5.68,1.91-10.97-2.43-15.42-4.29-4.4-9.84-5.25-15.33-3.12-2.74,1.07-5.06,3.65-7.09,5.97-1.79,2.05-2.99,4.64-4.32,7.06-4.85,8.83-12.53,14.63-21.28,18.81-6.83,3.27-14.5,2.8-21.74,1.39-10.35-2.03-18.48-7.8-24.23-16.75-.27-.42-.66-.77-1-1.14-2.57-2.81-2.4-3.26.64-5.56,8.35-6.34,14.58-14.47,18.42-24.15,3.21-8.06,6.11-16.34,8.08-24.77,1.26-5.44,4.15-9.86,6.37-14.71.25-.55,1.48-.91,2.25-.91,2.14.02,4.29.2,6.42.45,7.03.82,12.54-2.37,17.39-6.87,1.74-1.62,2.84-3.95,4.18-5.99,1.04-1.58,2.27-2.1,4.18-1.48,3.54,1.15,7.08,1.57,9.82-1.79,2.58-3.17,3.07-8.1.53-11.77-1.99-2.88-4.46-5.7-7.33-7.65-5.33-3.65-11.51-5.22-18.03-5.15-4.76.05-8.4,2.49-9.41,6.31-1.1,4.16.79,7.92,5.19,10.36.34.19.67.41.93.57-1.06,1.44-2.28,2.66-2.97,4.13-1.09,2.32-3.07,3-5.04,2.38-1.5-.48-3.53-2-3.78-3.33-2.34-12.98-11.8-18.63-22.9-22.32-3.15-1.05-6.81-1.64-10.21.77-3,2.12-5.07.43-6.33-2.86-1.68-4.39-4.31-8.43-6.73-12.51-.51-.86-1.87-1.22-2.84-1.81.26-.41.51-.81.77-1.22,1.54.08,3.09.35,4.6.22,11.23-.96,20.14-6.23,27.22-14.85,2.26-2.75,4.46-5.55,6.82-8.22,4.2-4.76,7.41-10.04,9.61-16.03,2.15-5.83,5.18-11.36,7.05-17.27,1.87-5.9,2.79-12.11,4.21-18.56,5.28.77,10.82.56,15.4,2.56,3.96,1.73,8.06,1.22,11.56,2.58,3.73,1.46,7.51,1.16,11.02,2.26,8.14,2.54,16.11,5.66,24.07,8.75,2.74,1.07,5.29,2.68,7.85,4.19,2.3,1.36,2.34,2.4.19,3.81-5.76,3.77-12.11,6.11-18.53,8.58-6.93,2.67-13.93,1.28-20.79,2.6-4.02.77-8.13,1.08-12.16,1.81-3.35.6-5.84,4.43-5.56,8.12.35,4.63,3.3,7.81,7.93,7.72,6.13-.12,12.26-.62,18.37-1.2,10.15-.96,19.98-3.3,29.39-7.29,1.38-.59,2.75-1.22,4.91-2.18,0,2.26.01,4.02,0,5.79-.05,5.68-.15,11.36-.15,17.04,0,10,.02,20,.11,30,.08,9.61.18,19.22.42,28.82.05,2.07-.47,3.15-2.49,3.89-1.89.69-3.51,2.08-5.33,2.98-5.21,2.57-10.75,3.97-16.57,4.01-2.46.02-4.37.84-5.83,2.79-.06.08-.15.14-.22.22-5.98,6.09-6.09,7.03-.82,13.67.65.81,2.12,1.38,3.2,1.37,3.47-.03,6.94-.37,10.41-.63.5-.04,1.26-.07,1.45-.38,2.44-4.03,7.58-2.77,10.68-5.52.62-.55,1.74-.88,2.58-.8,5.12.49,8.53-2.6,12.04-5.54,1.49-1.25,3.05-2.41,4.44-3.76,3.37-3.27,7.13-3.11,11.07-1.42,2.16.92,4.32,1.89,6.34,3.07.68.39,1.27,1.48,1.33,2.29.23,3.15.35,6.32.29,9.48-.16,7.88.16,15.68,1.73,23.47.68,3.36-.26,7.05-.45,10.59-.18,3.38,1.39,6.78-.3,10.19-.39.79.34,2.14.55,3.24.24,1.19.67,2.38.7,3.58.17,8.25.24,16.51.37,24.76.02,1.23.14,2.46.26,3.68.43,4.27-1.29,6.29-5.5,7.2-4.95,1.08-9.81,2.61-14.75,3.77-3.13.73-6.34,1.16-9.51,1.7-1.11.19-2.28.14-3.33.49-13.43,4.44-27.3,6.18-41.34,7.03-4.6.28-9.22.7-13.77,1.4-1.73.26-3.3,1.52-4.99,2.23-.72.3-1.55.49-2.33.47-3.78-.07-7.57-.35-11.35-.33-2.49.02-6.59,3.99-7.18,6.63-.83,3.74.36,6.32,3.32,8.5,5.81,4.27,12.15,2.5,18.38,1.88,4.56-.46,9.12-1.01,13.65-1.72,7.71-1.22,15.36-3.11,23.11-3.74,5.13-.42,9.92-2.85,15.22-2.08,1.35.2,2.86-.84,4.32-1.25,2.16-.61,3.3.04,3.27,2.5-.12,9.78-.15,19.56-.23,29.33-.05,6.45-.14,12.9-.16,19.34,0,1.12-.09,2.41.4,3.33,1.82,3.43.38,6.74,0,10.11-.22,2.01.27,4.15-.2,6.08-.41,1.7-1.32,3.8-2.68,4.67-3.55,2.26-7.44,4.02-11.27,5.81-1.06.49-2.38.49-3.59.57-2.27.16-4.77-.53-6.21,2.15-.22.42-1.21.84-1.61.68-2.95-1.16-5.18.51-7.74,1.47-3.21,1.19-6.71,1.54-10.06,2.38-2.87.72-5.64,1.91-8.54,2.38-7.3,1.18-14.65,2.07-21.99,3.06-8.56,1.16-17.11,2.48-25.7,3.39-5.98.64-12.02.73-18.04,1.01-6.32.29-12.64.68-18.96.73-8.05.07-16.09-.19-24.14-.24-1.52,0-3.05.41-4.57.43-3.97.04-7.95,1.79-11.95-.51-1.25-.72-3.2-.28-4.83-.3-2.64-.03-5.28,0-7.93,0-3.45,0-6.91.18-10.34-.08-4.05-.31-8.06-1.11-12.11-1.49-6.52-.61-13.06-.99-19.58-1.57-2.12-.19-4.19-.87-6.31-1.07-3.01-.29-6.08-.09-9.05-.58-5.25-.86-10.42-2.13-15.65-3.12-1.8-.34-3.69-.7-5.47-.49-2.89.33-5.15-.2-7.69-1.93-1.96-1.33-5.01-1.28-7.6-1.44-5.69-.36-10.97-1.47-16.03-4.51-3.22-1.93-7.32-2.48-11.08-3.38-4.93-1.19-5.86-2.69-5.73-7.64.21-8.29,0-16.59-.06-24.88-.02-2.96-.03-5.94-.26-8.89-.21-2.63-.68-5.25-1.1-7.86-.25-1.55.38-2.98.57-4.31.71-4.94.92-10.18-.09-15.02-.44-2.13-.78-4.13-.63-6.23.21-2.79.87-5.56.88-8.34.01-2.3-.64-4.61-1.01-6.98,1.13-.36,2.15-.54,3.04-.98,7.38-3.6,12.99-.39,18.03,4.73,4.65,4.72,10.56,5.74,16.73,5.85,1.98.04,3.54-.14,4.39,2.2.29.81,1.66,1.51,2.66,1.74,5.68,1.32,11.4,2.44,17.09,3.73,4.94,1.12,9.84,2.43,14.79,3.53,1.88.42,3.84.45,5.76.71,4.54.63,9.06,1.4,13.61,1.93,7.38.85,14.76,1.65,22.16,2.28,5.22.44,10.46.54,15.69.82,3.12.17,6.24.39,9.36.64,1.76.14,3.52.39,5.28.6.5.06,1.09.34,1.49.17,4.92-2.1,9.81.73,14.7.05,1.95-.27,3.88-.76,5.81-1.17.5-.11.97-.42,1.46-.44,5.58-.22,11.17-.58,16.75-.55,5.01.02,10.1.77,14.71-1.82,1.07-.6,1.83-1.92,2.46-3.06.41-.76.11-1.9.49-2.69,1.01-2.06.18-3.42-.91-5.26-2.34-3.96-5.45-4.77-9.76-4.37-5.77.54-11.61.39-17.43.55-.61.02-1.32-.06-1.81.22-1.86,1.06-3.61,2.26-5.65.23-.27-.27-1.28.18-1.95.32-2.12.43-4.23,1.02-6.37,1.24-2.09.22-4.22.16-6.32.04-2.41-.14-4.82-.4-7.2-.75-2.28-.33-4.53-1.01-6.82-1.21-.9-.08-1.84.85-2.81,1.09-1.65.39-3.35.6-5.02.88-.05-.26-.1-.52-.14-.77.3-.18.61-.36.93-.55-.15-.1-.29-.29-.43-.28-3.49.18-6.98.5-10.47.53-1.23,0-2.43-.8-3.69-1.03-4.06-.75-8.4.3-12.24-2.08-.74-.46-2.02.05-3.01-.13-1.3-.23-2.54-.79-3.83-1.05-2.38-.47-4.77-1.02-7.17-1.19-6.52-.46-13.04-.73-19.57-1.09-.49-.03-1.12-.08-1.44-.39-3.02-2.89-6.94-3.06-10.73-3.86-4.07-.85-8.08-2.07-12.02-3.4-7.03-2.37-14-4.94-20.98-7.45-.54-.19-.99-.6-1.87-1.15ZM362.73,556.26c.09,0,.18,0,.26,0,0,2.77-.06,5.53.01,8.3.13,5.21,2.46,7.63,7.66,8.04,4.94.39,9.05-2.07,9.28-6.68.36-7.21.05-14.47-.51-21.67-.13-1.71-2.1-3.82-3.78-4.76-5.67-3.15-12.28.48-12.87,6.95-.3,3.25-.05,6.55-.05,9.82ZM141.19,562.16s.08,0,.11,0c0,3.17-.17,6.36.04,9.52.3,4.38,3.65,7.29,8.46,7.66,3.68.29,7.85-2.5,8.09-6.48.44-7.13.49-14.33-.04-21.44-.32-4.33-4.37-6.66-9.04-6.4-4.45.25-7.17,2.69-7.56,7.31-.28,3.25-.05,6.55-.05,9.83ZM340.02,562.66h.08c0-2.87.11-5.74-.03-8.6-.19-3.98-4.58-8.13-8.69-8.07-3.74.06-8.07,2.59-8.31,7.44-.31,6.23-.39,12.5,0,18.72.42,6.77,5.11,9.69,11.57,7.58,3.85-1.26,4.76-4.82,5.28-8.18.45-2.9.09-5.92.09-8.89ZM421.5,445.42c-.66-4.54-1.42-9.08-1.94-13.64-.35-3.03-1.53-5.2-4.55-6.21-3.12-1.05-6.01-.97-8.63,1.29-2.53,2.19-3.47,5.1-3.36,8.24.21,5.5.73,10.98,1.12,16.47.03.41.07.82.16,1.22.73,3.19,3.45,5.77,6.46,6.16,4.28.55,6.03-.71,8.47-3.84,2.4-3.09,1.68-6.36,2.27-9.7ZM316.34,451.69s.04,0,.06,0c.1,1.63.23,3.27.29,4.91.06,1.64-.03,3.28.07,4.91.22,3.85,2.76,6.71,6.51,7.46,5.79,1.15,9.96-2.02,10.11-8.4.15-6.53-.33-13.09-.69-19.63-.14-2.47-3.33-5.43-5.75-6.15-4.49-1.33-11.08,2.84-10.64,7.99.26,2.95.05,5.93.05,8.9ZM202.34,567.37c.05,0,.11,0,.16,0,0,3.68.01,7.36,0,11.04-.02,3.26,1.81,5.06,4.72,5.99,6,1.91,11.3-1.45,11.71-7.88.37-5.8.36-11.66.07-17.47-.27-5.42-4.75-8.83-10.1-8.24-3.44.38-6.59,3.36-6.56,6.14.03,3.47,0,6.95,0,10.42ZM390.05,341.06s.09,0,.13,0c-.23-3.77-.33-7.56-.72-11.31-.4-3.89-2.75-6.09-6.51-6.52-4.57-.52-9.09,3.03-9.34,8.01-.29,5.8-.22,11.66.19,17.45.36,5.09,4.79,9,9.02,8.69,4.15-.3,7.06-4.11,7.22-9.57.07-2.25.01-4.5.01-6.75Z"/>
      <path class="cls-2" d="M255.09,214.71c4.24.95,8.18,2,12.18,2.68,3.01.51,6.11.53,9.17.77,1.32.11,2.63.23,3.87.34-1.41,12.8-2.18,25.39,1.99,37.73,1.88,5.56,5.17,10.22,9.78,13.76,5.28,4.05,14.35,3.26,19.29-1.34.27-.25.66-.39,1.52-.89,0,1.83.4,3.41-.07,4.66-2.09,5.58-4.25,11.16-6.73,16.58-5.4,11.82-11.42,23.25-24.06,29.04-5.54,2.54-13.38,1.96-19.32-5.41-6.44-8-9.69-17.22-11.86-27.06-.66-2.97-1.95-6.13-3.87-8.42-3.13-3.74-8.23-3.32-11.09.68-2.21,3.09-3.37,7.02-5.85,9.83-4.91,5.57-7.21,12.93-13.3,17.74-7.67,6.07-18.54,7.48-25.58-.82-5.74-6.76-7.69-14.66-10.48-22.53-4.84-13.63-5.46-27.6-4.22-41.77.62-7.11,1.41-14.22,2.59-21.25.68-4.07,2.29-7.99,3.63-12.46,2.5.13,5.44.22,8.36.47,3.57.3,7.12.87,10.7,1.07,2.96.16,3.92,1.3,3.81,4.37-.27,7.26-.53,14.57.02,21.8.6,7.8,2.74,15.34,7.45,21.82,4.67,6.41,12.66,8.12,19.76,4.4,5.15-2.7,9.04-6.81,11.81-11.79,5.49-9.86,8.7-20.51,10.02-31.72.05-.39.16-.78.47-2.3Z"/>
      <path class="cls-2" d="M257.29,330.93c-1.17.07-2.35.24-3.51.2-7.09-.25-12.63,2.82-17.18,8-.52.59-1.04,1.4-1.09,2.14-.23,3.71-2.66,3.91-5.54,3.88-5.12-.06-10.32-.14-14.77,3.02-1.55,1.1-2.9,2.49-4.29,3.8-2.19,2.08-4.34,1.63-4.85-1.34-1.68-9.77-7.91-15.15-17.09-16.93-8.7-1.68-17.02-.29-23.46,6.64-2.57,2.76-5.04,5.65-7.19,8.74-1.42,2.05-2.93,2.27-4.62,1.02-7.67-5.68-15.64-4.29-23.6-1.01-5.73,2.36-9.52,7.19-13.56,11.61-.72.79-1.22,1.92-1.51,2.97-2.67,9.61-3.27,19.13,1.28,28.43.44.9.65,1.94.84,2.94.35,1.85-.68,2.42-2.3,2.22-3.52-.43-7.06-.76-10.53-1.41-1.77-.33-3.46-1.19-5.11-1.97-1.57-.74-2.95-2.1-4.57-2.48-4.43-1.04-4.87-4.04-4.85-7.86.05-8.28-.28-16.55-.39-24.83-.11-8.53-.08-17.06-.25-25.59-.04-2.11-.63-4.2-.95-6.31-.09-.6-.39-1.34-.15-1.78,2.49-4.49.8-9.26,1.01-13.9.09-2.09.02-4.19.02-6.48,5.54,1.76,10.4,3.91,15.48,4.78,8.95,1.55,18.02,2.58,27.08,3.32,4.6.38,8.18-2.88,8.69-6.7.48-3.55-2.35-8.16-6.25-9.05-5.33-1.22-10.79-1.99-16.22-2.71-8.58-1.13-16.83-3.2-24.63-7.12-5.26-2.64-4.33-7.18.16-9.79,1.81-1.05,3.87-1.49,4.38-4.18.15-.78,2.57-1.13,3.93-1.69,1.35-.56,2.71-1.11,4.03-1.72,2.2-1.02,4.27-2.57,6.57-3.04,6.67-1.35,13.21-3.07,20.27-2.65,5.16.31,10.44-1.65,15.69-2.43,3.01-.44,6.08-.58,9.12-.78,1.86-.12,2.54.7,2.72,2.72.94,10.61,3.33,20.88,6.37,31.14,2.81,9.47,8.51,16.66,14.88,23.53,5.14,5.54,12.01,8.41,19.33,9.95,2.68.56,5.47.46,7.54-1.92,9.6.36,15.86-5.9,22.3-11.55,3.17-2.79,5.71-6.31,8.64-9.63,2.59,4.66,5.17,9.27,7.7,13.9,2.53,4.63,5.49,8.85,10.72,10.95-.1.29-.19.59-.29.88ZM121.69,341.3c-.24-4.35-.34-7.42-.6-10.47-.39-4.6-3.79-7.74-8.24-7.77-4.72-.03-8,2.79-8.14,7.71-.18,6.02-.08,12.07.34,18.08.38,5.43,3.19,7.4,8.53,7.45,6.02.05,7.81-3.21,8.09-8,.16-2.75.03-5.52.03-6.99Z"/>
      <path class="cls-3" d="M251.74,453.26c-10.57,1.4-18.99-4.28-26.85-12-7.34-7.21-10.87-16.23-13.69-25.67-1-3.35-2.56-5.98-4.92-8.56-4.57-4.98-10.04-9.44-11.26-16.77-.44-2.6-.27-4.62,2.15-6.1,3.06-1.88,5.84-1.88,8.27-.06,5.35,4.03,7.82,9.86,9.95,15.87.95,2.69,1.55,5.51,2.39,8.25,1.72,5.61,9.84,5.65,13.44,3.5,2.4-1.43,4.1-7.95,2.96-10.61-3.1-7.19-6.3-14.34-9.49-21.49-.33-.73-.79-1.43-1.31-2.04-2.54-3-3.08-6.3-1.93-10.05,1.23-3.99,5.16-5.58,8.67-3.3,4.78,3.11,8.26,7.32,10.31,12.65,1.51,3.91,2.76,7.93,4.37,11.81,2.16,5.2,5.58,6.71,10.78,5.04,4.54-1.45,6.28-4.92,5.3-10.23-1.61-8.66-6.38-15.86-10.64-23.29-1.23-2.15-2.11-4.2-1.05-6.65.95-2.19,1.19-4.95,4.37-5.29,3.56-.38,7.16,0,8.83,3.49,2.09,4.38,3.99,9,4.96,13.73,1.23,5.99,1.43,12.19,2.12,18.29.47,4.17,2.57,6.53,6.52,7.49,3.45.84,7.62-.64,9.59-3.43.23-.32.41-.71.52-1.09,1.05-3.72,2.13-7.43,3.09-11.18.93-3.66,3.36-4.95,6.87-3.47,6.03,2.53,8.53,9.07,5.73,14.94-2.02,4.24-4.3,8.39-5.93,12.78-1.31,3.51-1.94,7.29-2.67,10.99-1.72,8.77-5.7,16.49-10.21,24.11-6.87,11.6-16.16,18.75-31.25,18.34Z"/>
      <path class="cls-3" d="M172.41,454.62c-11.49,1.14-20.2-4.37-27.27-12.32-5.88-6.61-8.77-15.01-9.57-23.86-.63-6.9-.57-13.87-1.11-20.78-.32-4.16-1.19-8.27-1.8-12.4-.58-3.93-1.51-7.85-1.63-11.8-.14-4.47,5.13-8.96,9.56-8.48,2.74.3,4.97,1.79,5.37,4.68.46,3.33.46,6.73.61,10.1.2,4.35,2.91,7.41,7.25,8.09,4.39.69,7.84-1.35,9.27-5.72,1.75-5.34,3.49-10.69,4.97-16.1,1.76-6.46,6.67-10.45,11.38-14.41,3.86-3.25,9.21-.59,10.15,4.34.6,3.15-.49,5.11-2.57,7.48-5.31,6.04-10.38,12.34-15.02,18.91-3.64,5.15-1.55,11.43,4.26,13.53,3.2,1.15,3.93,3.29,5.19,6.12,2.14,4.78,5.75,8.89,8.61,13.37,1.84,2.88,3.66,5.82,5.06,8.93,1.67,3.72,2.86,7.65,4.31,11.47.36.95.73,2.16,1.48,2.65,3.71,2.41,1.22,3.81-.74,5.27-2.88,2.13-5.76,4.26-8.73,6.26-5.77,3.88-12.39,4.5-19.02,4.68Z"/>
      <path class="cls-4" d="M20.78,694.71c8.78,2.31,17.59,4.52,26.33,6.97,4.81,1.35,9.59,2.89,14.22,4.75,3.46,1.39,6.6,3.54,9.96,5.19,12.13,5.92,24.39,11.57,36.39,17.75,5.39,2.78,10.32,6.48,15.38,9.88,6.37,4.28,12.77,8.53,18.93,13.1,4.75,3.52,9.2,7.44,13.66,11.33.76.66.86,2.08,1.26,3.15-1.24.35-2.63,1.25-3.69.95-7.82-2.2-15.6-4.56-23.35-7.01-5.93-1.88-11.92-3.66-17.65-6.05-8.38-3.49-16.6-7.37-24.77-11.33-5.76-2.79-11.39-5.87-16.96-9.04-5.95-3.38-12.08-6.56-17.55-10.62-9.51-7.05-18.62-14.64-27.77-22.17-1.99-1.63-3.41-3.95-5.1-5.95.24-.3.47-.6.71-.9Z"/>
      <path class="cls-2" d="M243.18,197.04c-14.19-1.76-28.37-3.53-42.56-5.27-3.05-.37-6.1-.8-9.16-.92-2.79-.11-3.13-1.45-2.15-3.58,1.2-2.59,2.35-5.24,3.87-7.65,4-6.36,8.77-12.15,14.96-16.44,3.66-2.54,7.93-4.2,12.59-3.79.88.08,1.7,1,2.52,1.57.48.34.86.88,1.38,1.1,6.95,2.95,11.75,8.06,14.14,15.11,2.11,6.23,3.62,12.67,5.39,19.02-.33.28-.66.56-.98.84Z"/>
      <path class="cls-2" d="M310.44,184.04c.38,2.3.72,4.33,1.06,6.35.21-.03.43-.05.64-.08-.04-.79-.08-1.57-.12-2.36,2.72,5.4,4.67,10.93,4.04,17.61-18.6-2.54-37.31-3.41-55.64-7.24,1.82-2.92,3.15-5.26,4.68-7.47,3.72-5.36,6.81-11.42,11.45-15.82,8.51-8.06,19.38-9.59,27.58,1.17,1.55,2.03,2.91,4.21,4.46,6.24.57.75,1.45,1.27,1.84,1.6Z"/>
      <path class="cls-3" d="M118.92,423.78c-1.77,5.81,2.78,9.11,4.46,13.53,2.24,5.88,4.72,11.5,8.75,16.4.51.63.27,2.79-.36,3.29-3.2,2.49-6.53,4.87-10.04,6.89-2.45,1.41-4.73-.14-4.72-3.04,0-7.86.18-15.72.24-23.59.03-3.06-.1-6.12-.08-9.19,0-1.37.2-2.73.3-4.1.49-.07.97-.14,1.46-.21Z"/>
      <path class="cls-3" d="M100.13,456.58c.27,5.81.48,10.91.77,16.01.1,1.67-.5,2.41-2.21,2.54-3.08.23-6.09,1.91-9.26.15-3.36-1.87-4.47-5.06-2.37-8.24,3.13-4.74,8.09-7.22,13.06-10.46Z"/>
      <path class="cls-4" d="M381.23,48.93c-6.19,6.22-12.08,12.14-18.51,18.6-5.72-5.66-11.82-11.7-17.36-17.19,5.59-6.25,10.76-11.96,15.82-17.76,1.14-1.31,2.26-1.9,3-.11,2.93,7.17,10.03,9.97,15.14,14.85.65.62,1.37,1.15,1.92,1.61Z"/>
      <path class="cls-4" d="M427.04,165.11c2.67-3.2,5.53-6.36,8.05-9.77,1.47-1.99,2.19-1.7,3.59.01,2.81,3.42,5.86,6.65,8.58,9.7-3.46,3.3-7.03,6.7-10.69,10.19-3.19-3.39-6.34-6.74-9.53-10.13Z"/>
      <path class="cls-4" d="M70.53,164.15c3.18-3.52,6.51-7.2,9.22-10.19,3.69,3.6,7.48,7.3,11.04,10.78-3.08,3.02-6.6,6.48-9.65,9.47-3.38-3.2-6.95-6.59-10.61-10.06Z"/>
      <path class="cls-1" d="M362.73,556.26c0-3.28-.25-6.57.05-9.82.59-6.47,7.21-10.1,12.87-6.95,1.68.93,3.64,3.05,3.78,4.76.57,7.2.87,14.47.51,21.67-.23,4.61-4.34,7.07-9.28,6.68-5.19-.41-7.53-2.83-7.66-8.04-.07-2.76-.01-5.53-.01-8.3-.09,0-.18,0-.26,0Z"/>
      <path class="cls-1" d="M141.19,562.16c0-3.28-.22-6.57.05-9.83.39-4.62,3.11-7.06,7.56-7.31,4.68-.26,8.72,2.07,9.04,6.4.53,7.11.48,14.32.04,21.44-.24,3.97-4.41,6.76-8.09,6.48-4.81-.37-8.17-3.28-8.46-7.66-.21-3.16-.04-6.35-.04-9.52-.04,0-.08,0-.11,0Z"/>
      <path class="cls-1" d="M340.02,562.66c0,2.97.36,5.99-.09,8.89-.52,3.36-1.43,6.92-5.28,8.18-6.46,2.11-11.16-.8-11.57-7.58-.38-6.22-.3-12.5,0-18.72.24-4.85,4.58-7.38,8.31-7.44,4.11-.06,8.49,4.08,8.69,8.07.14,2.86.03,5.73.03,8.6h-.08Z"/>
      <path class="cls-1" d="M421.5,445.42c-.58,3.34.14,6.61-2.27,9.7-2.44,3.13-4.19,4.39-8.47,3.84-3.02-.39-5.73-2.97-6.46-6.16-.09-.4-.13-.81-.16-1.22-.39-5.49-.91-10.97-1.12-16.47-.12-3.14.83-6.05,3.36-8.24,2.62-2.26,5.51-2.34,8.63-1.29,3.02,1.01,4.2,3.18,4.55,6.21.52,4.56,1.28,9.09,1.94,13.64Z"/>
      <path class="cls-1" d="M316.34,451.69c0-2.97.21-5.96-.05-8.9-.45-5.15,6.14-9.33,10.64-7.99,2.43.72,5.62,3.68,5.75,6.15.36,6.54.85,13.09.69,19.63-.15,6.38-4.33,9.54-10.11,8.4-3.75-.75-6.29-3.61-6.51-7.46-.09-1.63-.01-3.28-.07-4.91-.06-1.64-.19-3.27-.29-4.91-.02,0-.04,0-.06,0Z"/>
      <path class="cls-1" d="M202.34,567.37c0-3.47.02-6.95,0-10.42-.02-2.78,3.13-5.76,6.56-6.14,5.35-.59,9.83,2.82,10.1,8.24.29,5.81.3,11.67-.07,17.47-.41,6.43-5.71,9.79-11.71,7.88-2.92-.93-4.74-2.73-4.72-5.99.02-3.68,0-7.36,0-11.04-.05,0-.11,0-.16,0Z"/>
      <path class="cls-1" d="M390.05,341.06c0,2.25.06,4.5-.01,6.75-.17,5.46-3.07,9.27-7.22,9.57-4.24.3-8.66-3.6-9.02-8.69-.41-5.8-.49-11.65-.19-17.45.25-4.98,4.78-8.53,9.34-8.01,3.77.43,6.11,2.63,6.51,6.52.39,3.76.49,7.54.72,11.31-.04,0-.09,0-.13,0Z"/>
      <path class="cls-1" d="M121.69,341.3c0,1.47.13,4.24-.03,6.99-.28,4.79-2.07,8.06-8.09,8-5.34-.05-8.15-2.02-8.53-7.45-.42-6.01-.52-12.06-.34-18.08.15-4.92,3.43-7.74,8.14-7.71,4.45.02,7.85,3.17,8.24,7.77.26,3.05.36,6.12.6,10.47Z"/>
    </g>
  </g>
</svg>