<?xml version="1.0" encoding="UTF-8"?>
<svg id="Capa_2" data-name="Capa 2" xmlns="http://www.w3.org/2000/svg" viewBox="0 0 602.98 517.11">
  <defs>
    <style>
      .cls-1 {
        fill: #ece9da;
      }

      .cls-1, .cls-2, .cls-3, .cls-4, .cls-5 {
        stroke-width: 0px;
      }

      .cls-2 {
        fill: #000;
      }

      .cls-3 {
        fill: #bda1ec;
      }

      .cls-4 {
        fill: #ff814e;
      }

      .cls-5 {
        fill: #fff;
      }
    </style>
  </defs>
  <g id="Capa_1-2" data-name="Capa 1">
    <g>
      <path class="cls-2" d="M179.03,225.38c1.15-9.7,2.36-18.85,3.26-28.03.55-5.6,2.31-7.82,7.49-10.08,10.34-4.51,21.42-5.02,32.33-6.37,2.56-.31,3.01-1.27,3.4-3.25,2.18-11.03,5.52-21.64,12.36-30.77,4.31-5.76,9.54-10.62,16.64-12.6,8.5-2.36,17.42,2.19,21.03,10.27.43.95.73,1.96,1.18,2.91,1.51,3.21,2.49,3.41,5.02.9,4.01-3.99,8.67-6.68,14.39-6.97,8.41-.43,14.27,4.27,18.24,13.01,4.73,10.42,4.34,21.27,3.69,32.17-.18,3.07.46,4.04,3.59,4.75,9.04,2.04,18.19,4.02,26.8,7.32,5.86,2.25,11.85,5.14,15.86,10.8,2.36,3.33,3.14,6.67,2.57,10.46-2.13,13.99-4.39,27.96-6.42,41.97-.18,1.27.57,3.31,1.57,4.01,3.76,2.63,8.38,4.26,9.28,9.69.04.24,2.49.59,3.39.11,5.02-2.68,9.85-5.69,14.85-8.4,3.16-1.71,6.59-2.91,9.71-4.68,1.03-.58,2.11-2.26,2.04-3.38-.56-9.88,2.69-18.26,9.56-25.26,1.79-1.83,2.32-3.64,1.92-6.24-1.23-8.06,2.22-14.81,8.83-18.05,9.67-4.74,20.62,1.45,21.59,12.21.12,1.34.15,2.68.23,4.32,3.46-1.54,6.41-3.11,9.53-4.19,7.5-2.6,14.47-1.28,20.54,3.77,4.38,3.65,5.22,8.67,3.85,13.94-.63,2.43-.31,4.23,1.2,6.1,5.35,6.64,5.16,13.7-.18,20.18-1.02,1.24-1.38,3.16-1.68,4.84-.38,2.15-.13,4.44-.62,6.55-2.14,9.09-9.05,13.55-18.02,10.98-5.61-1.6-10.48-1.34-16.11.49-12.25,3.97-22.87-.22-31.55-9.28-2.05-2.14-3.53-2.73-6.17-1.28-10.56,5.82-21.24,11.4-31.76,17.28-1.19.67-2.26,2.64-2.33,4.06-.44,8.8-.58,17.62-.83,26.43-.11,3.84-1.62,6.8-5.47,8.01-4.53,1.42-9.1,2.69-13.67,4-.97.28-1.98.44-3.22.72.33.92.37,1.8.81,2.09,4.42,2.97,3.98,7.33,3.2,11.61-1.49,8.09-3.24,16.13-4.83,24.2-1.28,6.49-2.6,12.97-3.67,19.49-.5,3.02-2,4.96-4.79,5.78-3.98,1.18-8.03,2.16-12.06,3.18-.97.24-1.98.29-3.36,1.31,1.1.8,2.13,1.73,3.31,2.39,5.94,3.37,11.98,6.57,17.86,10.04,3.71,2.19,10.84.01,12.28-4.09.19-.55.07-1.43-.27-1.92-2.15-3.11-1.31-6.14.6-8.77,8.33-11.46,16.85-22.78,25.2-34.22,1.92-2.63,4.22-2.97,6.62-1.41,4.17,2.7,8.69,5.19,12.05,8.73,15.94,16.78,30.67,34.56,41.39,55.25,2.04,3.94,3.06,8.44,4.29,12.76.67,2.35-.48,4.25-2.54,5.62-12.1,8.09-24.81,10.81-37.95,3.02-8.18-4.85-13.68-12.43-17.43-21.18-.32-.74-.43-1.58-.79-2.31-2.41-4.84-2.93-9.65-.58-14.75.5-1.09-.42-2.85-.69-4.3-1.18.86-3.02,1.49-3.41,2.62-.77,2.23-.95,4.74-1,7.14-.15,7.13-5.51,10.56-12.1,7.8-1.15-.48-2.71.02-4.08.07.5,1.33.66,3,1.58,3.9,1.63,1.61,3.73,2.73,5.61,4.1,7.2,5.24,14.53,10.31,21.55,15.79,4.74,3.7,9.03,7.97,13.51,11.99.26.23.4.62.68.78,5.52,3.05,5.03,7.88,4.06,13.02-2.06,10.94-3.93,21.92-5.92,32.87-.44,2.44-1,4.87-4.04,5.44-3.18.59-5.86.27-7.92-2.77-5.51-8.16-12.71-14.65-20.57-20.53-4.9-3.66-9.26-8.05-14.23-11.6-7.14-5.11-14.5-9.93-21.97-14.56-6.48-4.02-13.41-7.33-19.85-11.4-15.5-9.79-32.47-16.48-49.17-23.75-7.44-3.24-14.89-6.47-22.41-9.51-3.42-1.38-7.06-2.19-10.52-3.47-6.74-2.48-13.44-5.06-20.11-7.71-2.57-1.02-3.38-.23-4.97,2.14-3.19,4.76-1.49,7.3,2.31,10.2,3.68,2.81,4.44,6.51,3.03,11.18-3.39,11.22-6.27,22.58-9.37,33.89-2.36,8.62-5.98,11.28-14.95,11.56-12.42.38-23.7-3.9-34.97-8.28-14-5.44-26.53-13.37-38-22.96-4.95-4.14-9.41-8.84-9.59-15.89-.05-1.9.03-4.26,1.06-5.67,8.33-11.37,18.4-20.34,33.17-22.08,12.46-1.47,28.41,6.99,34.15,18.15.89,1.73,1.29,3.71,1.86,5.6.3,1,.17,2.28.76,3,1.01,1.23,2.43,2.12,3.67,3.15.53-1.37,1.69-2.85,1.47-4.09-.61-3.4-1.69-6.73-2.8-10.02-1.47-4.34-.33-6.47,4.24-7.29,1.02-.18,2.09-.21,3.13-.14,3.22.24,4.91-1.13,5.53-4.37.63-3.26-.86-4.78-3.66-5.6-2.33-.68-4.66-1.39-7.01-2.01-2.92-.77-5.87-1.38-8.78-2.19-11.5-3.2-23.01-6.37-34.46-9.72-10-2.93-20.49-4.97-29.06-11.24-4.96-3.63-9.37-8.26-13.28-13.04-5.52-6.75-9.32-14.62-12.13-22.89-1.45-4.27-2.67-8.63-3.82-13-2.21-8.42-.6-16.11,4.73-23,1.07-1.38,2.17-2.73,3.34-4.02,5.35-5.84,4.84-10.41-2.67-13.24-6.41-2.42-13.4-3.58-20.24-4.56-9.06-1.29-18.25-1.63-27.33-2.79-16.18-2.08-27.48-10.85-33.1-26.15-3.03-8.24-5.27-16.81-7.33-25.37-1.4-5.82,3.64-13.59,9.72-16.25,9.39-4.11,19.34-5.66,29.47-6.24,5.44-.31,10.91-.44,16.36-.34,4.2.08,5.03,1.08,5.34,5.22.73,10.07,1.53,20.14,2.08,30.22.16,2.88,1.22,3.26,3.96,3.68,9.6,1.47,19.11,3.54,28.63,5.5,2.61.54,5.09,1.62,7.69,2.24,7.52,1.8,12.39,7.07,16.73,12.9,1.08,1.45,1.53,3.68,1.55,5.56.04,4.87-.32,9.74-.52,14.62-.46,11.37-.89,22.74-1.38,34.11-.24,5.57-.49,11.13-.87,16.69-.2,2.93,1.08,3.97,3.87,4.59,6.19,1.39,12.25,3.39,18.43,4.86,6.4,1.51,12.89,2.68,19.6,4.05,1.33-5.59,2.79-11.05,3.88-16.58,1.11-5.57,2.06-11.19,2.7-16.83.67-5.91,4.14-9.1,9.57-9.86,3.54-.5,3.89-2.29,3.98-5.11.35-11.95.82-23.9,1.27-35.84.05-1.27.15-2.57.44-3.8.47-2-.08-3.27-1.97-4.24-4.32-2.2-6.8-5.3-5.66-10.68.33-1.57-.73-3.99-1.95-5.23-5.94-6.04-12.19-11.77-18.26-17.69-2.09-2.03-4.03-1.88-6.6-.79-5.09,2.16-10.24,4.56-15.61,5.59-8.21,1.58-15.14-2.55-21.54-7.12-2.47-1.76-4.86-2.56-7.76-2.15-.11.02-.23.02-.35.03-14.12.86-21.39-9.21-16.37-22.56.34-.91-.13-2.16-.33-3.24-.63-3.39-1.63-6.74-1.88-10.15-.32-4.47,2.16-7.74,5.79-10.07,2.95-1.89,4-4.32,3.74-7.88-.39-5.36,3.79-10.26,9.6-11.61,8.64-2.01,16.33-.13,22.82,6.1.84.8,1.64,1.64,2.48,2.44.15.14.42.16.84.31,1.14-2.18,2.14-4.48,3.47-6.57,3.84-6.05,10.27-8.67,16.08-6.72,7.42,2.48,12.8,9.25,11.14,16.34-1.74,7.47-1.01,14.06,1.79,21.01,2.22,5.52,1.58,11.44-.18,17.13-1.05,3.38-.51,5.86,2.79,7.97,3.19,2.04,5.81,4.97,8.79,7.37,1.67,1.34,3.57,2.37,5.44,3.6ZM216.35,365.71c.32-2.78.53-5.43.96-8.05.44-2.67,3.38-4.82,5.77-4.4,2.35.41,4.32,3.56,3.81,6.22-.37,1.94-.87,3.85-1.28,5.78-.47,2.26.22,3.66,2.61,4.46,9.35,3.11,18.71,6.22,27.95,9.63,11.73,4.33,23.32,9.05,35.05,13.4,4.64,1.72,9.47,4.03,14.23,4.05,8.17.03,16.34-1.47,24.5-2.49,1.06-.13,2.62-1.07,2.88-1.95,1.2-3.98,2.14-8.06,2.94-12.14,1.73-8.86,3.14-17.78,5.06-26.6.68-3.11-.08-4.98-2.69-6.29-2.28-1.14-4.74-1.95-6.98-3.16-8.05-4.34-16.59-3.66-25.14-2.46-1.2.17-2.21,1.7-3.3,2.59,1.09.63,2.13,1.65,3.28,1.81,6.96.95,13.95,1.7,20.92,2.51.46.05.93.1,1.38.2,2.46.56,4.91,1.14,4.55,4.55-.32,2.99-2.08,4.29-5.63,4.26-14.39-.13-28.35-3.29-42.15-6.77-11.22-2.83-22.11-7.02-33.1-10.73-1.57-.53-3.37-1.51-4.18-2.82-.86-1.4-1.24-3.63-.76-5.16.33-1.04,2.43-1.74,3.86-2.15,1.17-.34,2.53-.07,3.81,0,20.74,1.13,41.46,3.32,62.25,1.41,12.36-1.13,24.67-2.68,37.01-4.02,3.16-.34,5.11-1.59,5.13-5.23.01-4.29.49-8.58.69-12.87.04-.93-.25-1.88-.38-2.83-.37-.2-.75-.4-1.12-.6-.73,1-1.35,2.12-2.21,2.99-1.7,1.73-3.39,3.54-5.35,4.93-3.08,2.18-6.25,1.41-8.85-1.78-2.78-3.41-3.09-7.24-.44-9.73,5.5-5.16,10.98-10.37,16.82-15.12,3.18-2.59,3.61-5.41,2.75-8.92-.58-2.37-1.72-2.52-3.38-.87-1.39,1.37-2.63,3.11-4.31,3.92-8.22,3.97-17,4.18-25.83,2.98-1.02-.14-2.35-1.85-2.61-3.03-.87-3.99.61-5.43,5.49-5.92,4.59-.46,9.26-.56,13.76-1.49,5.52-1.14,5.72-1.81,6.42-7.47,1.06-8.63,2.21-17.25,3.26-25.88.41-3.4.65-6.82.99-10.44-1.63,0-2.64-.03-3.65,0-5.9.17-11.81.54-17.7.4-1.54-.04-3.69-1.32-4.38-2.64-.59-1.13.03-3.64,1.03-4.63,1.12-1.11,3.22-1.5,4.95-1.68,5.86-.62,11.82-.62,17.61-1.61,4.05-.7,4.48-2.94,1.9-6.23-.63-.8-1.48-1.51-2.38-1.99-10.02-5.37-20.82-8.38-31.91-10.6-3.75-.75-5.06.24-6.16,3.99-3.61,12.37-9.08,23.85-20.81,30.62-9.38,5.42-16.62,4.07-22.83-3.12-2.62-3.03-4.59-6.62-7.67-11.16-.59,1.14-.91,2.42-1.72,3.18-8.08,7.68-16.91,9.04-24.55,3.67-4.28-3.01-7.18-7.2-8.98-12.13-2.37-6.52-3.51-13.19-2.95-20.15.2-2.52-.89-4.72-3.63-4.46-7.38.71-14.74,1.66-22.05,2.9-1.78.3-3.3,2.08-4.94,3.18,1.45,1.23,2.7,3.01,4.38,3.6,6.64,2.36,13.38,4.49,20.16,6.43,3.26.94,3.86,2.85,3.18,5.75-.74,3.17-2.79,4.27-7.54,2.99-6.58-1.77-13.03-4.02-19.53-6.07-1.17-.37-2.31-.81-3.74-1.32-.4,2.22-.81,4.02-1.03,5.83-1.37,11.03-2.67,22.06-4.06,33.09-.38,3.01.75,4.87,3.61,5.86,7.89,2.72,15.7,5.66,23.65,8.2,3.19,1.02,3.79,2.75,3.34,5.72-.48,3.19-2.63,3.6-5.06,3.37-1.82-.17-3.59-.87-5.39-1.28-4.26-.97-8.53-1.9-13.19-2.93-.22,1.73-.46,2.95-.51,4.18-.51,11.13-1.06,22.26-1.43,33.39-.13,4.07-1.3,9.34.73,11.92,2.25,2.86,7.63,3.24,11.62,4.77,2.47.95,5.03,1.8,7.29,3.15,1.11.66,2.51,2.74,2.18,3.48-.6,1.37-2.23,2.56-3.7,3.19-1.16.5-2.8.31-4.11-.03-4.93-1.3-10.05-2.26-14.64-4.35-4.49-2.05-8.42-5.33-12.65-8.1.09-.11-.15.05-.19.24-2.07,10.56-4.02,21.14-6.23,31.67-.51,2.43.12,3.56,2.19,4.68,5.69,3.07,11.79,2.89,18.07,2.83.35-3.02.57-5.92,1.05-8.76.58-3.43,2.45-4.62,5.98-4.09,2.67.41,3.98,2.53,3.43,5.79-.48,2.86-.98,5.73-1.66,8.55-.54,2.23-.18,3.48,2.39,3.87,4.46.66,8.88,1.59,13.81,2.5ZM100.22,345.95l-.92,1.23c1.07,2.14,1.82,4.52,3.27,6.36,3.66,4.63,7.41,9.21,11.53,13.42,4.39,4.48,9.28,8.32,15.82,9.54,5.91,1.1,11.74,2.67,17.58,4.14,4.94,1.24,9.86,2.57,14.77,3.96,7.12,2.02,14.25,4.02,21.31,6.25,5.93,1.88,11.73,4.19,17.65,6.13,12.56,4.12,25.21,7.99,37.73,12.25,5.9,2.01,11.57,4.69,17.34,7.07,8.35,3.44,16.83,6.6,25.02,10.39,11.25,5.2,22.39,10.66,33.37,16.43,10.74,5.64,21.68,11.12,31.7,17.89,14.01,9.46,27.29,20.01,40.79,30.23,2.08,1.58,3.57,3.92,5.46,5.78,2.31,2.27,5.22,1.9,5.75-.73,1.22-6.12,2.47-12.25,3.23-18.43.24-1.92-.47-4.64-1.79-5.94-4.2-4.13-8.71-8-13.44-11.53-8.36-6.22-16.78-12.39-25.51-18.07-11.94-7.76-24.01-15.35-36.38-22.4-9.15-5.21-18.61-10.09-28.39-13.96-15.54-6.15-30.19-14.51-46.66-18.4-7.64-1.8-14.92-5.05-22.46-7.3-14.01-4.17-28.03-8.31-42.16-12.04-13.01-3.43-26.18-6.26-39.27-9.41-5.27-1.27-10.52-2.66-15.77-4.03-6.47-1.69-12.96-3.33-19.38-5.19-3.45-1-6.78-2.42-10.17-3.65ZM449.44,242.34s.09,0,.13,0c0,1.51.09,3.02-.02,4.53-.54,7.49-3.98,13.25-10.53,16.96-2.36,1.34-5.91-.02-7.45-2.6-1.49-2.5.79-3.48,2.05-4.84.79-.85,1.65-1.63,2.51-2.41,5.93-5.35,5.94-11.66.02-17.17-.76-.71-1.52-1.43-2.26-2.17-2.14-2.14-3.38-4.11-.91-7.15,2.19-2.69.28-7.67-2.98-9.13-2.79-1.25-5.98.18-6.87,3.89-.66,2.77-.47,5.93.14,8.75.63,2.92.69,4.76-2.18,6.73-7.24,4.98-10.77,12.24-9.9,20.99,1.79,17.94,19.08,26.64,34.69,17.66,2.44-1.41,4.75-1.59,7.27-.38,2.19,1.06,4.4,2.12,6.68,2.94,2.7.96,4.77-.08,6.09-2.57,1.54-2.89.69-3.92-2.58-4.41-3.15-.47-6.33-1.32-9.25-2.59-2.06-.9-4.17-2.68-2.69-5.51,1.4-2.68,3.59-3.71,6.7-2.65,2.17.74,4.48,1.36,6.75,1.46,3.78.16,7.55-3.9,7.2-7.34-.43-4.3-1.73-4.73-7.56-3.89-3.59.52-7.34.46-10.96.12-2.75-.26-3.73-2.42-3.32-5.14.42-2.8,2.02-3.45,4.79-3.71,3.58-.33,7.37-1.11,10.52-2.75,3.78-1.96,3.31-6.59-.49-8.18-5.06-2.12-9.95-.76-14.33,1.81-3.18,1.86-1.04,5.32-1.28,8.06-.02.23.02.46.03.7ZM118.4,186.96c-6.59,1.22-12.1.06-17.31-3.05-1.29-.77-4.12-1.39-4.47-.88-1.2,1.77-2.29,4.1-2.19,6.16.16,3.32,4.4,6.39,7.96,6.59,2.31.13,4.62.29,6.93.47,2.29.18,2.74,1.7,2.74,3.66,0,1.93.13,4-2.46,4.18-3.56.25-7.13.21-10.7.3-1.58.04-3.84-1.14-4.14,1.59-.26,2.41-.3,5.17,3.01,5.73,1.91.32,4.05.66,5.82.14,5.26-1.56,9.03-.18,12.96,3.76,11.94,11.97,32.2,3.26,35.97-10.83,2.08-7.77,1.2-14.95-3.77-21.42-1.94-2.52-2.64-4.81-.61-7.86,1.42-2.13,2.16-4.89,2.61-7.47.59-3.35-1.74-6.12-4.84-6.43-3.09-.31-5.89,1.91-6.34,5.16-.17,1.25-.15,2.55-.05,3.82.26,3.41-.87,5.46-4.4,6.77-6.82,2.53-8.73,5.6-7.67,12.43.39,2.53,2.3,4.91,3.83,7.15,2.01,2.96,1.51,5.76-1.54,7.18-2.96,1.38-4.94-.2-6.59-2.28-3.32-4.18-5.54-8.81-4.74-14.87ZM15.04,247.04c2.43,7.89,6.12,14,11.57,18.8,5.4,4.77,12.22,6.51,19.26,7.2,10.04.99,20.16,1.45,30.14,2.88,8.02,1.14,16,3.09,22.34,8.84q5.25,4.76,9.66-.87c.29-.37.55-.75.83-1.12,3.31-4.41,3.53-9.44-.43-13.23-2.92-2.79-6.6-5.57-10.4-6.51-9.43-2.32-19.09-3.71-28.7-5.23-16-2.53-32.37-3-47.67-9.2-1.78-.72-3.77-.91-6.59-1.56ZM284.42,161.02c5.67,3.16,7.67,5.79,8.47,12.36,1.12,9.18-.12,18.15-4.46,26.37-3.01,5.7-6.6,11.15-14.56,10.19-2.54-.31-2.62,1.81-1.99,3.3,1.88,4.45,3.77,8.95,6.23,13.09,2.23,3.75,6.37,4.38,9.93,1.76,2.59-1.9,5.13-4.09,7.06-6.63,10.23-13.5,13.88-29.14,14-45.75.05-6.94-1.72-13.51-5.22-19.57-2.41-4.16-6.53-6.08-10.12-4.38-4.08,1.93-7.28,4.85-9.32,9.26ZM246.45,222.51c2.2-1.24,4.49-1.92,5.87-3.43,3.66-3.99,6.42-8.95,10.49-12.39,4.07-3.43,3.27-6.67,2.69-10.99-1.25-9.21.98-17.95,5.62-26.07.67-1.18,1.16-2.85.89-4.11-.75-3.49-1.69-7-3.05-10.29-1.35-3.27-2.89-6.66-5.18-9.27-1.33-1.52-4.81-2.83-6.38-2.12-3.45,1.55-6.5,4.23-9.32,6.87-1.71,1.61-1.42,3.87.65,5.45,3.5,2.68,4.98,6.34,5.05,10.6.07,4.18.05,8.36-.07,12.54-.16,5.73-2.35,10.85-5.15,15.73-2.56,4.46-6.18,7.57-11.47,8.11-2.24.23-2.66,1.39-2.39,3.3.68,4.85,2.44,9.26,6.02,12.64,1.51,1.43,3.64,2.21,5.73,3.43ZM194.68,471.18c.2-.52.41-1.04.61-1.56-1.09-1.27-2.09-2.63-3.27-3.8-14.67-14.38-32.5-23.25-51.8-29.44-4.84-1.55-9.86-2.64-14.88-3.5-1.82-.31-3.87.7-5.82,1.1.96,1.64,1.64,3.55,2.93,4.86,7.13,7.25,15.33,13.01,24.47,17.54,11.34,5.63,22.65,11.31,35.21,13.68,4.11.78,8.37.76,12.56,1.1ZM41.7,217.87c-7.74.73-17.48,1.38-26.6,5.26-5.13,2.18-5.86,6.35-1.81,10.29,1.15,1.12,2.52,2.11,3.95,2.82,9.9,4.9,20.61,6.88,31.42,8.52,3.18.48,4.13-.89,3.97-3.87-.27-4.86-.49-9.72-.48-14.59.02-8.52.1-8.52-10.45-8.44ZM110.42,298.93c-.83.06-1.39-.07-1.69.15-7.77,5.62-14.4,12.2-16.73,21.88-.96,3.99.32,7.69,3.81,10.15,3.31,2.34,6.75,4.53,10.26,6.55,2.92,1.67,3.61,1.19,3.69-2.15.24-9.51.46-19.03.66-28.55.05-2.62,0-5.25,0-8.03ZM118.02,180.8c.97-1.68,2.32-3.37,2.94-5.29.47-1.45.67-3.82-.16-4.72-3.57-3.85-7.94-6.46-13.53-5.56-3.76.6-5.51,4.8-2.93,7.65,1.78,1.97,4.36,3.29,6.72,4.65,2.14,1.23,4.48,2.13,6.95,3.28ZM405.02,398.19c-.36.2-.71.4-1.07.6,2.05,3.63,4.1,7.25,6.14,10.88.48-.28.96-.55,1.44-.83.08-4.82-4.45-7.05-6.51-10.66Z"/>
      <path class="cls-2" d="M580.93,131.61c1.44.84,3.06,1.38,4.09,2.46,5.35,5.62,10.66,11.3,15.77,17.14,3.36,3.84,2.83,6.88-1.41,9.76-9.49,6.44-19.01,12.82-28.56,19.17-3.83,2.55-5.3,2.48-8.48-.85-3.52-3.68-6.75-7.63-10.13-11.45-1.5-1.7-1.32-3.14.17-4.87,8.5-9.8,16.9-19.69,25.4-29.49.69-.79,1.88-1.14,3.15-1.87ZM568.63,168.53c.84-.37,2.54-.87,3.95-1.8,4.93-3.24,9.83-6.55,14.58-10.06.8-.59,1.48-2.68,1.06-3.37-1.56-2.53-3.53-4.85-5.56-7.04-.37-.4-2.17-.19-2.64.33-5.07,5.71-10.14,11.43-14.89,17.41-1.88,2.36-.36,4.58,3.51,4.51Z"/>
      <path class="cls-2" d="M91.76,52.38c-1.54-.9-3.58-1.51-4.75-2.87-7.33-8.52-14.5-17.19-21.65-25.86-4.02-4.87-3.49-8.03,1.82-11.37,5.69-3.58,11.39-7.13,17.14-10.61,4.77-2.89,7.27-2.07,9.63,2.93,4.88,10.37,9.7,20.78,14.73,31.08,1.58,3.23,1.04,5.48-1.82,7.44-3.73,2.55-7.37,5.22-11.13,7.72-1.02.68-2.32.93-3.95,1.54ZM97.52,36.59c-.6-1.5-.94-2.47-1.36-3.4-2.66-5.74-5.45-11.42-7.94-17.23-.96-2.23-2.33-2.89-4.31-2.01-1.77.78-3.34,2.02-5.01,3.05-3.34,2.07-3.41,2.91-.98,5.77,4.34,5.09,8.51,10.33,12.91,15.36.81.93,2.62,1.85,3.58,1.55,1.25-.4,2.11-2.02,3.1-3.08Z"/>
      <path class="cls-2" d="M45.81,149.01c-10.02-1.08-20.04-2.23-30.07-3.19-3.2-.31-3.95-2.1-3.47-4.72,1.48-8.09,2.86-16.2,4.71-24.21,1.17-5.06,3.7-6.16,8.55-4.45,10.28,3.62,20.53,7.3,30.78,10.98.97.35,1.85.95,2.82,1.33,3.14,1.23,3.98,3.22,3,6.57-1.3,4.43-2.03,9.03-3.01,13.55-.57,2.67-2.17,3.93-4.94,3.85-2.78-.08-5.56-.02-8.34-.02-.01.1-.03.21-.04.31ZM37.03,137.1c0,.33,0,.65,0,.98,3.7,0,7.44.3,11.08-.15,1.37-.17,2.74-1.95,3.61-3.32.21-.33-1.39-2.45-2.49-2.87-7.04-2.65-14.17-5.05-21.28-7.53-1.73-.61-2.63.08-2.93,1.81-.44,2.62-.83,5.25-1.41,7.84-.52,2.34.43,3.25,2.65,3.24,3.59,0,7.17,0,10.76,0Z"/>
      <path class="cls-2" d="M133.74,112.69c-3.87,5.77-5.79,12.43-11.25,16.72-.91.72-3.05.66-4.24.12-11.11-4.95-22.21-9.92-33.15-15.22-4.77-2.31-5.13-4.8-2.29-9.11,4.14-6.29,8.25-12.6,12.45-18.85,2.75-4.08,4.4-4.45,8.16-1.34,9.11,7.53,18.11,15.2,27.05,22.93,1.31,1.13,2.05,2.93,3.27,4.74ZM120.87,113.75c-.66-.86-1.54-2.51-2.87-3.64-3.62-3.06-7.28-6.11-11.21-8.73-2.11-1.4-3.31-5.55-6.44-3.82-2.33,1.29-3.84,4.23-5.47,6.61-1.57,2.3-.95,4,1.76,5.13,5.54,2.31,10.97,4.86,16.49,7.21,1.47.63,3.06,1.08,4.63,1.29,2.24.3,3.1-1.09,3.1-4.05Z"/>
      <path class="cls-2" d="M181.01,103.2c1.36-7.98,2.42-16.04,4.19-23.93,1.28-5.72,3.97-6.48,8.87-3.35,8.3,5.31,16.65,10.55,24.81,16.05,1.25.84,2.44,3.02,2.29,4.45-.81,8.07-1.96,16.1-3.15,24.12-1.17,7.87-4.23,9.11-10.98,4.68-7.28-4.77-14.53-9.57-21.87-14.24-2.94-1.86-4.72-4.1-4.17-7.78ZM209.4,113.98c.29-2.23.29-3.39.6-4.46,2.21-7.76,0-13.3-7.69-16.57-3.11-1.32-5.91-3.39-9.27-5.36-.51,4.99-1.11,9.22-1.28,13.47-.04,1.08,1.05,2.54,2.03,3.27,2.69,2,5.57,3.74,8.42,5.51,2.11,1.3,4.3,2.48,7.19,4.14Z"/>
      <path class="cls-2" d="M517.67,250.24c-1.25-1.2-3.28-2.28-3.86-3.88-1.73-4.79-2.88-9.78-4.29-14.69-.81-2.81.15-4.79,2.73-5.99,10.95-5.08,21.87-10.25,32.9-15.15,4.26-1.89,6.55-.81,8.06,3.65,2.42,7.14,4.64,14.35,6.68,21.61,1.32,4.69.04,6.87-4.72,7.78-12.19,2.32-24.44,4.36-37.5,6.67ZM524.82,238.94c8.09-1.54,15.14-2.91,22.21-4.21,2.16-.4,2.28-1.41,1.44-3.19-.79-1.67-1.35-3.45-1.89-5.22-1.21-4.03-2.03-4.56-5.91-2.89-5.64,2.43-11.18,5.08-16.77,7.62-2.13.97-4.39,2.38-3.35,4.83.64,1.51,3.08,2.26,4.27,3.07Z"/>
      <path class="cls-2" d="M154.06,79.76c-3.9-.57-7.82-.99-11.68-1.76-4.1-.82-5.28-2.39-5.29-6.48-.03-11.84-.04-23.68,0-35.52.02-4.6.68-5.62,5.26-5.23,8.31.7,16.59,1.85,24.82,3.2,3.82.63,4.91,2.74,3.94,7.07-1.57,7.01-3.47,13.95-5.27,20.91-1.01,3.92-1.84,7.91-3.18,11.72-2.13,6.04-2.28,5.98-8.61,6.09ZM148.6,68.62c4.09.5,5.58-.66,6.27-3.43,1.68-6.73,3.55-13.42,5.41-20.1.58-2.1-.74-2.39-2.2-2.59-2.87-.39-5.76-.63-8.6-1.13-1.89-.33-2.55.3-2.54,2.13.02,7.53-.1,15.06.08,22.59.03,1.12,1.37,2.21,1.58,2.53Z"/>
      <path class="cls-2" d="M491.94,170.95c0-7.53-.01-15.06,0-22.6,0-3.02,1.11-4.84,4.59-4.32,8.35,1.25,16.76,2.19,25.06,3.7,4.25.77,5.5,3.3,4.39,7.13-3.36,11.57-6.83,23.11-10.13,34.7-.81,2.83-2.38,4.2-5.26,3.82-4.71-.62-9.4-1.41-14.11-2.03-3.65-.48-5.24-2.59-5.24-6.14,0-4.75,0-9.51,0-14.26h.69ZM501.34,154.29c0,9.29-.05,18.05.09,26.8.01.78,1.55,2.3,1.99,2.16,1.59-.48,3.94-1.2,4.35-2.39,2.43-7.1,4.46-14.35,6.42-21.6.21-.79-.7-2.62-1.39-2.8-3.53-.89-7.16-1.41-11.47-2.18Z"/>
      <path class="cls-2" d="M459.18,360.64c-3.95,0-7.89.09-11.84-.02-5.08-.14-6.78-2.83-4.66-7.59,2.5-5.62,5.24-11.14,7.86-16.71,1.53-3.26,3.09-6.5,4.54-9.79,1.15-2.6,2.97-4.08,5.88-4.07,8.13.02,16.27-.19,24.39.11,5.65.21,7.2,2.81,5.03,8.01-3.04,7.27-6.37,14.43-9.58,21.64-.47,1.06-1.29,2.1-1.36,3.18-.25,4.38-3.12,5.25-6.68,5.29-4.53.04-9.06.01-13.58.01,0-.02,0-.03,0-.05ZM478.59,332.26c-4.66,0-7.99,0-11.33,0-2.71,0-4.53,1.04-5.57,3.76-1.03,2.69-2.64,5.15-3.89,7.76-1.05,2.2-1.94,4.48-3.21,7.43,5.49,0,10.21.05,14.92-.06.65-.01,1.62-.64,1.87-1.23,2.37-5.6,4.62-11.26,7.21-17.66Z"/>
      <path class="cls-1" d="M216.35,365.71c-4.93-.91-9.35-1.84-13.81-2.5-2.57-.38-2.93-1.64-2.39-3.87.68-2.82,1.18-5.68,1.66-8.55.55-3.27-.76-5.39-3.43-5.79-3.53-.54-5.41.65-5.98,4.09-.48,2.85-.7,5.74-1.05,8.76-6.28.07-12.38.24-18.07-2.83-2.08-1.12-2.7-2.25-2.19-4.68,2.21-10.53,4.17-21.11,6.23-31.67.04-.19.28-.34.19-.24,4.23,2.77,8.16,6.05,12.65,8.1,4.59,2.09,9.71,3.06,14.64,4.35,1.31.34,2.95.53,4.11.03,1.47-.63,3.1-1.82,3.7-3.19.32-.74-1.07-2.82-2.18-3.48-2.25-1.34-4.81-2.2-7.29-3.15-3.99-1.53-9.37-1.91-11.62-4.77-2.03-2.58-.87-7.85-.73-11.92.36-11.13.92-22.26,1.43-33.39.06-1.23.3-2.46.51-4.18,4.66,1.03,8.93,1.97,13.19,2.93,1.8.41,3.57,1.11,5.39,1.28,2.44.22,4.58-.18,5.06-3.37.45-2.98-.15-4.7-3.34-5.72-7.94-2.54-15.76-5.48-23.65-8.2-2.86-.99-3.99-2.85-3.61-5.86,1.39-11.02,2.69-22.06,4.06-33.09.23-1.82.63-3.61,1.03-5.83,1.43.5,2.57.95,3.74,1.32,6.5,2.06,12.95,4.3,19.53,6.07,4.75,1.28,6.8.18,7.54-2.99.68-2.9.08-4.81-3.18-5.75-6.78-1.94-13.52-4.07-20.16-6.43-1.67-.6-2.93-2.37-4.38-3.6,1.64-1.1,3.17-2.88,4.94-3.18,7.31-1.24,14.67-2.19,22.05-2.9,2.73-.26,3.83,1.94,3.63,4.46-.56,6.96.58,13.63,2.95,20.15,1.8,4.94,4.7,9.13,8.98,12.13,7.65,5.38,16.48,4.01,24.55-3.67.8-.76,1.12-2.04,1.72-3.18,3.08,4.54,5.05,8.13,7.67,11.16,6.21,7.18,13.45,8.54,22.83,3.12,11.72-6.77,17.19-18.25,20.81-30.62,1.1-3.75,2.41-4.74,6.16-3.99,11.09,2.22,21.89,5.23,31.91,10.6.9.48,1.75,1.19,2.38,1.99,2.59,3.29,2.15,5.54-1.9,6.23-5.79,1-11.74,1-17.61,1.61-1.73.18-3.83.57-4.95,1.68-.99.99-1.61,3.5-1.03,4.63.69,1.32,2.84,2.6,4.38,2.64,5.89.14,11.8-.23,17.7-.4,1.01-.03,2.03,0,3.65,0-.34,3.62-.58,7.04-.99,10.44-1.05,8.63-2.2,17.25-3.26,25.88-.7,5.66-.91,6.33-6.42,7.47-4.5.93-9.17,1.02-13.76,1.49-4.88.49-6.37,1.93-5.49,5.92.26,1.18,1.59,2.89,2.61,3.03,8.83,1.2,17.61,1,25.83-2.98,1.68-.81,2.92-2.55,4.31-3.92,1.66-1.64,2.8-1.5,3.38.87.86,3.51.43,6.33-2.75,8.92-5.84,4.75-11.32,9.96-16.82,15.12-2.65,2.49-2.34,6.32.44,9.73,2.6,3.19,5.77,3.96,8.85,1.78,1.97-1.39,3.65-3.2,5.35-4.93.86-.87,1.48-1.99,2.21-2.99.37.2.75.4,1.12.6.14.94.42,1.89.38,2.83-.2,4.29-.68,8.58-.69,12.87-.01,3.64-1.97,4.89-5.13,5.23-12.34,1.34-24.66,2.89-37.01,4.02-20.79,1.9-41.52-.28-62.25-1.41-1.27-.07-2.64-.34-3.81,0-1.43.41-3.53,1.11-3.86,2.15-.48,1.53-.11,3.76.76,5.16.81,1.32,2.61,2.29,4.18,2.82,10.99,3.72,21.88,7.9,33.1,10.73,13.8,3.48,27.76,6.63,42.15,6.77,3.56.03,5.32-1.27,5.63-4.26.36-3.4-2.09-3.99-4.55-4.55-.45-.1-.92-.15-1.38-.2-6.98-.82-13.96-1.57-20.92-2.51-1.15-.16-2.19-1.19-3.28-1.81,1.1-.9,2.1-2.42,3.3-2.59,8.55-1.2,17.09-1.88,25.14,2.46,2.24,1.21,4.7,2.02,6.98,3.16,2.61,1.3,3.37,3.18,2.69,6.29-1.92,8.81-3.33,17.74-5.06,26.6-.8,4.09-1.74,8.16-2.94,12.14-.27.88-1.82,1.82-2.88,1.95-8.15,1.02-16.33,2.52-24.5,2.49-4.75-.02-9.59-2.33-14.23-4.05-11.73-4.35-23.31-9.07-35.05-13.4-9.24-3.41-18.6-6.53-27.95-9.63-2.4-.8-3.09-2.2-2.61-4.46.4-1.93.91-3.84,1.28-5.78.51-2.67-1.46-5.81-3.81-6.22-2.39-.42-5.33,1.73-5.77,4.4-.43,2.61-.64,5.26-.96,8.05ZM305.5,268.09c.17.42.34.83.51,1.25,1.86-.83,4.45-1.17,5.44-2.61,2.13-3.09-.79-8.94-5.08-11.28-3.62-1.97-5.6-1.16-8.18,3.33-2.67,4.65-3.98,4.91-9.05,3.31-2.51-.79-5.64-1.41-7.99-.62-8.34,2.8-16.08,2.72-23.52-2.41-4.67-3.22-9.49-2.98-14.34-.14-2.16,1.27-6.52.2-8.38-1.78-2.21-2.35.44-3.46,1.3-4.96,1.63-2.84.76-5.49-2.36-6.73-4.94-1.97-11.84-.21-15.35,4.46-1.14,1.52-1.88,4.31-1.25,5.9.52,1.32,3.3,2.3,5.14,2.39,1.93.09,2.71.66,3.74,2.19,5.22,7.78,7.67,9.27,16.3,8.19,1.38-.17,2.8-.25,4.12-.65,3.84-1.16,7.23-.46,10.6,1.67,5.95,3.75,12.12,5.02,19.24,2.77,3.76-1.19,8.32-1.09,12.23-.25,4.02.86,7.23.1,10.63-1.59,1.99-.99,4.16-1.63,6.25-2.43ZM229.5,300c-.07,0-.13.01-.2.02.18,2.3.4,4.59.53,6.89.14,2.45,1.96,2.74,3.7,2.66,1.8-.09,4.34.61,4.77-2.2.56-3.65,1.02-7.35,1.09-11.03.06-3.03-1.99-4.57-4.96-4.64-2.97-.06-4.91,1.11-4.76,4.49.06,1.27-.11,2.54-.17,3.81ZM292.44,369.96c-.17-2.73-.56-5.36-3.52-5.83-1.58-.25-4.57.66-4.91,1.69-1.32,4.12-2.15,8.46-2.53,12.78-.22,2.48,2.17,3.14,4.4,3.47,2.14.32,3.33-.52,3.88-2.47.91-3.21,1.78-6.43,2.67-9.64ZM204.98,226.03s-.1-.02-.15-.02c0-.93-.12-1.87.02-2.78.45-2.91-.91-4.4-3.69-4.51-2.72-.1-5.16.46-5.42,3.92-.23,3-.67,6-.68,9.01-.03,4.87,2.35,6.42,6.64,4.29,1.07-.53,2.11-1.88,2.41-3.05.58-2.21.61-4.56.87-6.85ZM290.39,307.1s.04,0,.06,0c0,1.73.08,3.47-.02,5.19-.16,3.01,1.77,3.86,4.16,3.85,2.41,0,4.72-.62,4.92-3.69.19-2.99.34-5.99.37-8.99.03-2.83-.8-5.05-4.26-5-3.76.06-5.11,1.35-5.23,5.17-.04,1.15,0,2.31,0,3.46ZM317.73,368.33c-.27-2.81-.79-4.97-3.87-5.69-2.58-.61-4.57.33-5.27,2.69-1.03,3.52-1.71,7.18-2.23,10.82-.36,2.55,1.56,3.66,3.7,4.29,2.22.65,4.04-.05,4.79-2.22,1.13-3.24,1.93-6.59,2.87-9.9ZM214.24,295.21c-.09-1.46-.23-2.85-.24-4.24-.01-2.64-1.52-3.49-3.84-3.2-2.29.29-5.26-.21-5.37,3.42-.11,3.59-.26,7.21.11,10.77.12,1.15,1.67,2.79,2.84,3.06,4.12.97,5.48-.15,6.03-4.34.24-1.84.32-3.69.47-5.48ZM335.88,248.33c-.04,3.46.12,5.99,3.64,5.85,2.72-.11,5.65.11,5.54-4.17-.06-2.5.74-5.01,1-7.54.25-2.43.58-5.07-2.72-5.82-2.87-.65-5.82,1.29-6.42,4.34-.54,2.71-.78,5.48-1.04,7.34ZM312.01,307.82s-.08,0-.13,0c.07,1.62.16,3.24.22,4.87.09,2.45,1.4,3.49,3.79,3.51,2.32.02,4.35-.49,4.54-3.17.25-3.56.27-7.15.22-10.73-.03-2.27-.73-4.26-3.63-3.95-2.59.27-4.82,1.16-5,4.26-.1,1.73-.02,3.47-.02,5.21Z"/>
      <path class="cls-4" d="M100.22,345.95c3.39,1.23,6.72,2.65,10.17,3.65,6.42,1.86,12.91,3.49,19.38,5.19,5.25,1.37,10.49,2.76,15.77,4.03,13.09,3.15,26.25,5.98,39.27,9.41,14.13,3.72,28.15,7.87,42.16,12.04,7.55,2.25,14.83,5.5,22.46,7.3,16.48,3.89,31.13,12.25,46.66,18.4,9.78,3.87,19.24,8.74,28.39,13.96,12.37,7.05,24.44,14.64,36.38,22.4,8.73,5.67,17.15,11.85,25.51,18.07,4.73,3.52,9.24,7.4,13.44,11.53,1.32,1.29,2.03,4.02,1.79,5.94-.76,6.18-2.01,12.31-3.23,18.43-.53,2.64-3.44,3-5.75.73-1.89-1.86-3.38-4.2-5.46-5.78-13.49-10.21-26.78-20.76-40.79-30.23-10.02-6.77-20.96-12.25-31.7-17.89-10.97-5.76-22.12-11.22-33.37-16.43-8.19-3.79-16.67-6.95-25.02-10.39-5.77-2.38-11.44-5.06-17.34-7.07-12.52-4.26-25.17-8.13-37.73-12.25-5.92-1.94-11.71-4.25-17.65-6.13-7.06-2.24-14.19-4.23-21.31-6.25-4.9-1.39-9.82-2.72-14.77-3.96-5.84-1.47-11.67-3.04-17.58-4.14-6.55-1.22-11.43-5.05-15.82-9.54-4.12-4.21-7.87-8.79-11.53-13.42-1.45-1.83-2.2-4.22-3.27-6.36l.92-1.23Z"/>
      <path class="cls-1" d="M449.44,242.34c-.01-.23-.05-.47-.03-.7.25-2.74-1.89-6.19,1.28-8.06,4.39-2.57,9.27-3.93,14.33-1.81,3.8,1.59,4.27,6.22.49,8.18-3.15,1.64-6.94,2.42-10.52,2.75-2.76.25-4.37.91-4.79,3.71-.41,2.72.57,4.89,3.32,5.14,3.63.34,7.37.39,10.96-.12,5.83-.84,7.13-.41,7.56,3.89.35,3.44-3.41,7.5-7.2,7.34-2.27-.1-4.58-.72-6.75-1.46-3.11-1.06-5.3-.03-6.7,2.65-1.48,2.84.63,4.62,2.69,5.51,2.91,1.27,6.1,2.12,9.25,2.59,3.26.49,4.11,1.52,2.58,4.41-1.32,2.49-3.39,3.53-6.09,2.57-2.29-.81-4.49-1.88-6.68-2.94-2.52-1.22-4.83-1.03-7.27.38-15.61,8.98-32.9.28-34.69-17.66-.87-8.74,2.65-16.01,9.9-20.99,2.87-1.97,2.81-3.81,2.18-6.73-.6-2.82-.79-5.98-.14-8.75.88-3.72,4.08-5.14,6.87-3.89,3.26,1.46,5.16,6.43,2.98,9.13-2.47,3.04-1.24,5.02.91,7.15.74.74,1.5,1.46,2.26,2.17,5.92,5.51,5.9,11.82-.02,17.17-.86.78-1.72,1.56-2.51,2.41-1.26,1.36-3.55,2.35-2.05,4.84,1.54,2.58,5.09,3.93,7.45,2.6,6.55-3.71,9.99-9.47,10.53-16.96.11-1.5.02-3.02.02-4.53-.04,0-.09,0-.13,0Z"/>
      <path class="cls-1" d="M118.4,186.96c-.8,6.07,1.42,10.69,4.74,14.87,1.65,2.08,3.63,3.66,6.59,2.28,3.05-1.42,3.55-4.22,1.54-7.18-1.52-2.24-3.43-4.62-3.83-7.15-1.06-6.83.84-9.9,7.67-12.43,3.53-1.31,4.66-3.36,4.4-6.77-.1-1.27-.12-2.57.05-3.82.45-3.25,3.25-5.47,6.34-5.16,3.1.31,5.43,3.07,4.84,6.43-.45,2.58-1.19,5.33-2.61,7.47-2.03,3.05-1.33,5.34.61,7.86,4.98,6.47,5.85,13.65,3.77,21.42-3.77,14.09-24.03,22.79-35.97,10.83-3.93-3.94-7.7-5.32-12.96-3.76-1.78.53-3.91.19-5.82-.14-3.31-.56-3.28-3.32-3.01-5.73.3-2.74,2.55-1.55,4.14-1.59,3.57-.09,7.15-.05,10.7-.3,2.59-.18,2.46-2.25,2.46-4.18,0-1.96-.45-3.48-2.74-3.66-2.31-.18-4.62-.34-6.93-.47-3.56-.2-7.8-3.27-7.96-6.59-.1-2.06.98-4.39,2.19-6.16.35-.52,3.18.11,4.47.88,5.21,3.1,10.72,4.27,17.31,3.05Z"/>
      <path class="cls-4" d="M15.04,247.04c2.82.65,4.82.84,6.59,1.56,15.3,6.2,31.68,6.68,47.67,9.2,9.61,1.52,19.28,2.91,28.7,5.23,3.8.93,7.48,3.72,10.4,6.51,3.97,3.79,3.74,8.82.43,13.23-.28.37-.55.75-.83,1.12q-4.41,5.63-9.66.87c-6.33-5.74-14.31-7.69-22.34-8.84-9.98-1.42-20.09-1.89-30.14-2.88-7.04-.69-13.86-2.44-19.26-7.2-5.45-4.8-9.13-10.92-11.57-18.8Z"/>
      <path class="cls-1" d="M284.42,161.02c2.04-4.41,5.24-7.34,9.32-9.26,3.6-1.7,7.72.22,10.12,4.38,3.5,6.06,5.27,12.64,5.22,19.57-.12,16.61-3.76,32.25-14,45.75-1.93,2.54-4.47,4.73-7.06,6.63-3.56,2.62-7.7,1.99-9.93-1.76-2.46-4.14-4.35-8.64-6.23-13.09-.63-1.5-.55-3.61,1.99-3.3,7.96.96,11.55-4.49,14.56-10.19,4.34-8.21,5.58-17.18,4.46-26.37-.8-6.58-2.79-9.2-8.47-12.36Z"/>
      <path class="cls-1" d="M246.45,222.51c-2.09-1.22-4.22-2-5.73-3.43-3.57-3.39-5.34-7.79-6.02-12.64-.27-1.91.15-3.07,2.39-3.3,5.3-.55,8.91-3.66,11.47-8.11,2.8-4.88,4.99-10,5.15-15.73.12-4.18.13-8.36.07-12.54-.07-4.27-1.55-7.92-5.05-10.6-2.06-1.58-2.36-3.84-.65-5.45,2.82-2.64,5.87-5.31,9.32-6.87,1.57-.7,5.05.6,6.38,2.12,2.28,2.62,3.82,6,5.18,9.27,1.36,3.29,2.3,6.8,3.05,10.29.27,1.26-.21,2.93-.89,4.11-4.63,8.12-6.87,16.86-5.62,26.07.59,4.32,1.38,7.56-2.69,10.99-4.08,3.44-6.84,8.39-10.49,12.39-1.38,1.51-3.67,2.19-5.87,3.43Z"/>
      <path class="cls-3" d="M194.68,471.18c-4.19-.35-8.45-.33-12.56-1.1-12.56-2.37-23.87-8.06-35.21-13.68-9.14-4.53-17.34-10.29-24.47-17.54-1.29-1.31-1.97-3.23-2.93-4.86,1.95-.41,3.99-1.41,5.82-1.1,5.02.85,10.04,1.94,14.88,3.5,19.3,6.19,37.14,15.06,51.8,29.44,1.19,1.17,2.19,2.53,3.27,3.8-.2.52-.41,1.04-.61,1.56Z"/>
      <path class="cls-3" d="M41.7,217.87c10.55-.09,10.47-.09,10.45,8.44-.01,4.86.2,9.73.48,14.59.17,2.98-.78,4.35-3.97,3.87-10.8-1.64-21.51-3.61-31.42-8.52-1.44-.71-2.8-1.7-3.95-2.82-4.05-3.94-3.32-8.11,1.81-10.29,9.12-3.88,18.86-4.53,26.6-5.26Z"/>
      <path class="cls-3" d="M110.42,298.93c0,2.78.05,5.41,0,8.03-.2,9.52-.42,19.03-.66,28.55-.08,3.34-.78,3.83-3.69,2.15-3.52-2.02-6.95-4.21-10.26-6.55-3.48-2.46-4.77-6.16-3.81-10.15,2.33-9.69,8.96-16.27,16.73-21.88.31-.22.87-.09,1.69-.15Z"/>
      <path class="cls-5" d="M118.02,180.8c-2.47-1.15-4.81-2.05-6.95-3.28-2.36-1.36-4.94-2.68-6.72-4.65-2.57-2.85-.83-7.04,2.93-7.65,5.59-.9,9.96,1.71,13.53,5.56.83.9.63,3.27.16,4.72-.62,1.93-1.97,3.62-2.94,5.29Z"/>
      <path class="cls-3" d="M405.02,398.19c2.06,3.61,6.59,5.84,6.51,10.66-.48.28-.96.55-1.44.83-2.05-3.63-4.1-7.25-6.14-10.88.36-.2.71-.4,1.07-.6Z"/>
      <path class="cls-5" d="M568.63,168.53c-3.87.07-5.38-2.15-3.51-4.51,4.75-5.98,9.82-11.69,14.89-17.41.47-.53,2.27-.73,2.64-.33,2.03,2.19,3.99,4.5,5.56,7.04.42.68-.26,2.77-1.06,3.37-4.75,3.5-9.65,6.81-14.58,10.06-1.41.93-3.1,1.42-3.95,1.8Z"/>
      <path class="cls-5" d="M97.52,36.59c-.99,1.05-1.85,2.68-3.1,3.08-.96.3-2.77-.62-3.58-1.55-4.41-5.03-8.57-10.27-12.91-15.36-2.44-2.86-2.37-3.7.98-5.77,1.66-1.03,3.24-2.26,5.01-3.05,1.98-.88,3.35-.22,4.31,2.01,2.5,5.81,5.29,11.49,7.94,17.23.43.93.77,1.9,1.36,3.4Z"/>
      <path class="cls-5" d="M37.03,137.1c-3.59,0-7.17,0-10.76,0-2.21,0-3.17-.91-2.65-3.24.58-2.59.96-5.22,1.41-7.84.29-1.74,1.2-2.42,2.93-1.81,7.1,2.48,14.24,4.88,21.28,7.53,1.1.41,2.7,2.53,2.49,2.87-.86,1.37-2.24,3.15-3.61,3.32-3.64.45-7.38.15-11.08.15,0-.33,0-.65,0-.98Z"/>
      <path class="cls-5" d="M120.87,113.75c0,2.95-.85,4.34-3.1,4.05-1.58-.21-3.17-.67-4.63-1.29-5.52-2.35-10.96-4.9-16.49-7.21-2.71-1.13-3.34-2.83-1.76-5.13,1.63-2.37,3.13-5.31,5.47-6.61,3.13-1.73,4.33,2.41,6.44,3.82,3.93,2.62,7.59,5.67,11.21,8.73,1.33,1.13,2.21,2.78,2.87,3.64Z"/>
      <path class="cls-5" d="M209.4,113.98c-2.89-1.66-5.08-2.84-7.19-4.14-2.85-1.77-5.74-3.51-8.42-5.51-.98-.73-2.07-2.19-2.03-3.27.17-4.25.76-8.48,1.28-13.47,3.36,1.97,6.16,4.04,9.27,5.36,7.69,3.27,9.9,8.81,7.69,16.57-.31,1.08-.31,2.24-.6,4.46Z"/>
      <path class="cls-5" d="M524.82,238.94c-1.19-.8-3.63-1.55-4.27-3.07-1.03-2.45,1.22-3.86,3.35-4.83,5.59-2.54,11.13-5.19,16.77-7.62,3.88-1.67,4.7-1.14,5.91,2.89.53,1.77,1.1,3.56,1.89,5.22.84,1.78.72,2.8-1.44,3.19-7.06,1.3-14.11,2.67-22.21,4.21Z"/>
      <path class="cls-5" d="M148.6,68.62c-.21-.32-1.55-1.41-1.58-2.53-.18-7.52-.06-15.06-.08-22.59,0-1.83.66-2.46,2.54-2.13,2.85.5,5.74.73,8.6,1.13,1.46.2,2.78.49,2.2,2.59-1.86,6.68-3.73,13.37-5.41,20.1-.69,2.77-2.19,3.93-6.27,3.43Z"/>
      <path class="cls-5" d="M501.34,154.29c4.31.77,7.94,1.28,11.47,2.18.69.17,1.6,2.01,1.39,2.8-1.96,7.25-3.99,14.5-6.42,21.6-.41,1.19-2.76,1.91-4.35,2.39-.44.13-1.98-1.39-1.99-2.16-.15-8.75-.09-17.51-.09-26.8Z"/>
      <path class="cls-5" d="M478.59,332.26c-2.59,6.41-4.84,12.06-7.21,17.66-.25.59-1.22,1.22-1.87,1.23-4.72.1-9.43.06-14.92.06,1.27-2.95,2.16-5.23,3.21-7.43,1.25-2.61,2.85-5.07,3.89-7.76,1.05-2.72,2.87-3.76,5.57-3.76,3.34,0,6.68,0,11.33,0Z"/>
      <path class="cls-2" d="M305.5,268.09c-2.09.8-4.26,1.44-6.25,2.43-3.41,1.69-6.61,2.45-10.63,1.59-3.91-.84-8.47-.94-12.23.25-7.11,2.25-13.29.99-19.24-2.77-3.38-2.13-6.77-2.83-10.6-1.67-1.32.4-2.74.47-4.12.65-8.63,1.08-11.07-.4-16.3-8.19-1.03-1.53-1.81-2.1-3.74-2.19-1.83-.09-4.61-1.07-5.14-2.39-.63-1.59.11-4.38,1.25-5.9,3.51-4.66,10.41-6.43,15.35-4.46,3.13,1.25,3.99,3.89,2.36,6.73-.86,1.5-3.51,2.61-1.3,4.96,1.86,1.98,6.21,3.05,8.38,1.78,4.85-2.84,9.67-3.07,14.34.14,7.45,5.13,15.19,5.21,23.52,2.41,2.35-.79,5.48-.17,7.99.62,5.07,1.6,6.38,1.34,9.05-3.31,2.58-4.5,4.56-5.3,8.18-3.33,4.3,2.34,7.22,8.18,5.08,11.28-.99,1.44-3.58,1.77-5.44,2.61-.17-.42-.34-.83-.51-1.25Z"/>
      <path class="cls-2" d="M229.5,300c.06-1.27.23-2.55.17-3.81-.15-3.38,1.78-4.55,4.76-4.49,2.97.06,5.01,1.6,4.96,4.64-.07,3.68-.54,7.38-1.09,11.03-.43,2.81-2.97,2.12-4.77,2.2-1.74.09-3.56-.21-3.7-2.66-.13-2.3-.35-4.6-.53-6.89.07,0,.13-.01.2-.02Z"/>
      <path class="cls-2" d="M292.44,369.96c-.89,3.21-1.76,6.43-2.67,9.64-.55,1.95-1.74,2.79-3.88,2.47-2.23-.33-4.62-.99-4.4-3.47.38-4.32,1.21-8.66,2.53-12.78.33-1.03,3.33-1.94,4.91-1.69,2.95.46,3.35,3.1,3.52,5.83Z"/>
      <path class="cls-2" d="M204.98,226.03c-.26,2.29-.29,4.64-.87,6.85-.3,1.17-1.34,2.52-2.41,3.05-4.29,2.12-6.67.58-6.64-4.29.02-3,.46-6.01.68-9.01.26-3.46,2.71-4.02,5.42-3.92,2.78.1,4.13,1.6,3.69,4.51-.14.91-.02,1.85-.02,2.78.05,0,.1.02.15.02Z"/>
      <path class="cls-2" d="M290.39,307.1c0-1.15-.03-2.31,0-3.46.12-3.82,1.46-5.11,5.23-5.17,3.46-.05,4.29,2.17,4.26,5-.03,3-.17,6-.37,8.99-.2,3.07-2.51,3.68-4.92,3.69-2.39,0-4.32-.84-4.16-3.85.09-1.73.02-3.46.02-5.19-.02,0-.04,0-.06,0Z"/>
      <path class="cls-2" d="M317.73,368.33c-.94,3.31-1.75,6.66-2.87,9.9-.75,2.17-2.58,2.87-4.79,2.22-2.14-.63-4.06-1.75-3.7-4.29.52-3.64,1.19-7.29,2.23-10.82.7-2.37,2.68-3.3,5.27-2.69,3.07.72,3.6,2.89,3.87,5.69Z"/>
      <path class="cls-2" d="M214.24,295.21c-.15,1.78-.23,3.64-.47,5.48-.55,4.18-1.91,5.31-6.03,4.34-1.17-.28-2.72-1.92-2.84-3.06-.37-3.56-.22-7.18-.11-10.77.11-3.63,3.08-3.13,5.37-3.42,2.33-.29,3.83.56,3.84,3.2,0,1.39.15,2.78.24,4.24Z"/>
      <path class="cls-2" d="M335.88,248.33c.25-1.86.5-4.63,1.04-7.34.61-3.04,3.55-4.99,6.42-4.34,3.3.75,2.97,3.38,2.72,5.82-.26,2.52-1.06,5.04-1,7.54.11,4.28-2.82,4.07-5.54,4.17-3.52.14-3.68-2.39-3.64-5.85Z"/>
      <path class="cls-2" d="M312.01,307.82c0-1.74-.08-3.48.02-5.21.18-3.1,2.4-3.99,5-4.26,2.9-.31,3.6,1.68,3.63,3.95.04,3.58.03,7.16-.22,10.73-.19,2.68-2.22,3.19-4.54,3.17-2.39-.02-3.7-1.06-3.79-3.51-.06-1.62-.14-3.24-.22-4.87.04,0,.08,0,.13,0Z"/>
    </g>
  </g>
</svg>