<?xml version="1.0" encoding="utf-8"?>
<!-- Generator: Adobe Illustrator 27.4.0, SVG Export Plug-In . SVG Version: 6.00 Build 0)  -->
<svg version="1.1" id="Layer_1" xmlns="http://www.w3.org/2000/svg" xmlns:xlink="http://www.w3.org/1999/xlink" x="0px" y="0px"
	 viewBox="0 0 612 580" style="enable-background:new 0 0 612 580;" xml:space="preserve">
<style type="text/css">
	.st0{fill:#F1EDE0;}
	.st1{fill:#FFFFFF;}
	.st2{fill:#BCA9D2;}
</style>
<g>
	<path d="M220.3,566.8c-21-0.1-41.7-6.3-61.3-13.4c-7.2-2.6-15.3-7-15.4-16.2c0-3.7,0.6-7.5,0.2-11.2c-0.3-3.2-0.2-6.3-0.2-9.5
		c0.1-3.3,0.4-6.6,0.3-9.9c-0.1-6.5-0.3-13-0.5-19.5c-0.1-5.3-0.2-10.7-0.1-16c0-1.4-0.6-1.9-1.8-2.2c-6.6-1.5-12.3-4.8-18.2-8
		c-5.7-3.1-7.9-8.1-7.9-14.2c0-8.8,0.4-17.6,0.4-26.4c0-7.5-0.3-15-0.4-22.6c0-2.1,0.1-4.3,0.3-6.4c0.2-2.4,0.3-4.7-0.2-7.2
		c-0.6-3.1-0.2-6.4-0.2-9.6c0-0.7,0-1.4,0-2.1c-2-0.2-3.9-0.3-5.7-0.5c-3.1-0.4-4-1.6-4.2-4.7c-0.5-7.1,1.2-13.6,4.5-19.8
		c5.4-10.1,13.8-15.7,25.1-17.1c9.3-1.1,18.4-0.5,27.4,2.2c4.5,1.4,7.4,4.6,9.5,8.7c0.6,1.1,1,2.5,1.9,3.3c0.7,0.6,2.1,0.8,3.1,0.6
		c0.4-0.1,1-1.7,0.8-2.4c-1.4-4.9-3.4-9.5-8.2-12c-2-1-3.2-2.6-3.2-4.7c0-2.4-0.3-5.2,0.7-7.2c1.1-2,3.5-3.4,5.6-4.5
		c1.3-0.7,1.8-1.2,1.8-2.6c0-3.1,0.1-6.2,0.2-9.2c0-1.2-0.4-1.7-1.7-2.2c-5.7-2.2-11.7-1.5-17.5-2.1c-0.4,0-0.9,0-1.2-0.2
		c-1.9-1.9-4.3-1.9-6.7-2.1c-3.2-0.3-6.4-0.9-9.5-1.6c-5.1-1.2-10.2-2.6-15.3-4c-1.4-0.4-2.6-1.1-4-1.6c-1.4-0.6-2.7-1-4.1-1.7
		c-0.7-0.3-1.2-0.9-1.9-1.3c-1.1-0.8-2.3-1.6-3.3-2.5c-0.6-0.6-1.2-1.6-1.2-2.5c-0.1-5.8-0.1-11.6-0.1-17.4
		c-0.1-9.7-0.1-19.3-0.2-29c0-0.9,0.3-1.9,0-2.8c-1.2-4.2,1-7,3.6-9.7c0.6-0.6,1.4-0.9,2.2-1.2c2.1-0.9,4.3-1.6,6.3-2.6
		c0.8-0.4,1.7-1.5,1.8-2.3c0.2-2.1-0.2-4.3-0.2-6.4c0-3.6-0.1-7.2,0-10.7c0.1-2.3-0.3-2.8-2.7-2.4c-3,0.5-6,1.1-9.1,1.8
		c-11.1,2.4-20.5,7.9-28.3,16.1c-0.6,0.6-1.2,1.2-1.8,1.9c1.7,1.6,3.4,3.1,5,4.8c6,6.2,8.5,13.9,9.5,22.3c0.7,5.6,0.7,11.2-2.1,16.3
		c-2.8,5.2-6.8,8.6-12.9,9.1c-0.5,0-1.2,0.4-1.3,0.8c-1.8,5.1-6,7.4-10.8,8.5c-2.9,0.6-6.1,0.4-9.1,0.4c-2.6,0-5.1-0.3-7.7-0.1
		c-4.1,0.4-8,0.1-11.9-1.3c-0.9-0.3-2-0.5-2.9-0.5c-13.8,0.5-21.2-8.6-21.2-21.7c0-10.3,3-19.8,8.9-28.3c6.4-9,15.4-14.2,26.2-16
		c4.2-0.7,8.5-0.5,12.8-0.5c1.9,0,3.1-0.4,4.3-2.2c4-5.3,8.6-10.1,14.3-13.8c6.5-4.3,13.4-7.7,20.9-9.7c5.8-1.6,11.4-4,17.5-4
		c1.5,0,2.1-0.6,2.1-2.3c0-6.3,0-12.6,0.2-18.8c0.1-2.5,2.4-3.5,4.2-4.8c1.5-1.1,3.2-2.1,5-2.7c1.6-0.6,3.5-0.5,5.7-0.8
		c0-1.8,0-3.9,0-5.9c0-12.3,0-24.6,0-37c0-4.8-0.5-9.6,0-14.3c0.4-4.1,2.3-7.6,6-10.2c5.2-3.5,10.8-6,16.7-7.4
		c4.9-1.2,10-1.8,15-2.5c6.7-0.8,13.3-1.5,20-2.1c2.8-0.3,4-1.4,4.5-4.1c0.6-3.2,0.8-6.4,1.8-9.5c2.7-8.7,5.3-17.5,11.2-24.7
		c5.2-6.3,11.5-9.6,19.8-7.8c5.4,1.2,9.1,4.9,12.4,9.1c1.4,1.8,2.7,3.7,4.2,5.8c0.8-1.4,1.5-2.4,2.1-3.4c2.6-4.2,6.1-7.6,10.7-9.6
		c7.1-3.1,13.2-1.7,19.1,3.6c8.5,7.7,11.6,17.8,13.6,28.5c0.8,4.2,1.2,8.5,1.6,12.8c0.2,1.6,1,2.1,2.4,2.4
		c8.3,1.8,16.7,3.4,24.8,5.9c5,1.5,9.7,4.1,14.3,6.6c3.8,2,5.2,6.7,3.6,10.9c-0.2,0.5-0.6,1.1-0.5,1.6c0.2,3.6,0.6,7.1,0.8,10.7
		c0.1,1,0.2,2,0.1,3c-0.5,3.3-0.7,6.5-0.1,9.9c0.5,2.6-0.3,5.4-0.3,8.1c-0.1,6.6-0.2,13.1-0.3,19.7c0,0.6,0,1.2,0.3,1.6
		c0.7,0.9,0.8,1.6-0.2,2.4c-0.2,0.2-0.4,0.5-0.4,0.7c0.3,3.4-2.4,4.5-4.6,5.7c-2.3,1.3-4.9,2.2-7.5,3.1c-1.5,0.5-2,1.2-1.9,2.8
		c0.1,3.7-0.2,7.4-0.1,11.1c0,0.8,0.6,1.9,1.3,2.5c5.5,4.4,11.8,7.1,18.7,7.9c5.1,0.5,10.3,0.4,15.4,0.4c0.5,0,1.4-0.8,1.5-1.3
		c0.8-4.8,2.2-9.2,5.5-12.8c0.6-0.6,0.7-1.9,0.6-2.8c-0.8-8.7,5.6-16,13.9-18.6c2.3-0.7,3.5-1.9,3.9-4.2c0.8-4,1.7-8,2.6-11.9
		c-2.3-0.2-4.5,0-6.5-0.5c-6.6-1.5-10.5-6.1-13.1-12c-0.6-1.3-1.2-2.7-1.4-4.1c-0.2-2.2-1.4-3.1-3.1-4.1c-4.7-2.8-8.4-6.7-10.7-11.7
		c-0.6-1.3-0.9-2.7-1.1-4.1c-0.6-5.3-1.4-10.6,1.7-15.6c4.1-6.6,9.6-11.4,17.5-12.3c4.5-0.5,7.7-2.3,10.6-5.3
		c4.2-4.3,9.3-6.6,15.4-6c6.2,0.6,10.1,4.6,13.1,9.7c0.9,1.6,1.3,3.4,2.2,5c0.4,0.6,1.4,1.3,2.1,1.2c3.1-0.1,6.3-0.4,9.4-0.9
		c6.3-1,12.7-2.2,19-3.5c2.3-0.5,4.4-1.8,6.7-2.7c0.9-0.3,1.8-0.2,2.7-0.4c1.1-0.2,2.3,0.1,3-1.4c0.3-0.6,2.3-0.3,3.4-0.6
		c0.6-0.1,1.9,0.5,1.6-1.1c0-0.1,0.8-0.5,1.3-0.5c4.5-0.1,8.3-2.5,12.4-3.8c5.6-1.9,11-4,16.5-6c1.8-0.7,3.6-1.3,5.3-2.3
		c2.8-1.6,5.5-3.4,8.3-4.9c5-2.7,9.7-2.4,14.8,0.4c7.7,4.2,10.8,11.4,12.7,19.1c1.5,6.1,2.2,12.5,2.6,18.9
		c0.6,8.9-0.1,17.8-1.4,26.6c-1.4,9.6-3.2,19.1-6.4,28.3c-2.6,7.6-5.5,15.2-8.4,22.7c-3.3,8.7-8.1,16.6-13.9,23.8
		c-1.8,2.3-3.6,4.7-5.9,6.4c-6.2,4.7-12.9,9.2-21.2,6.3c-3.8-1.3-7.5-3.7-9.6-7.5c-2.8-5-6.4-9.1-10.1-13.4
		c-1.8-2.1-4.6-3.4-5.3-6.3c0-0.1-0.1-0.3-0.3-0.3c-3.6-1.5-5.1-5.2-7.7-7.8c-2.7-2.7-5.4-5.3-8.2-7.9c-4.4-4.1-8.8-8.2-13.2-12.3
		c-0.8-0.8-1.8-1.3-3.3-2.4c-0.8,4.1-1.4,7.7-2.1,11.4c-0.2,1.2-0.4,2.5-0.9,3.5c-1.1,2-0.6,3.7,0.6,5.4c5.1,6.9,7.8,14.7,8.6,23.1
		c0.9,10.2-1.2,19.8-7.7,28.1c-1.5,1.9-3.1,3.7-4.8,5.5c-6,6.5-13.4,9.8-22.2,10c-9.5,0.2-17.9-2.4-24.5-9.8
		c-3.8-4.3-5.1-9.3-4.2-15c0.1-0.5,0.1-1,0.1-1.7c-3.7,0-7.4,0.1-11,0c-4.3-0.2-8.5-0.5-12.8-1c-0.7-0.1-1.3-0.9-2-1.4
		c-0.3-0.2-0.7-0.3-1.1-0.4c-2.7-0.8-5.4-1.4-8-2.3c-2.4-0.9-3.1-0.5-3,2.1c0.1,4.9,0.2,9.7,0,14.6c-0.1,3.3-1.8,5.8-5.2,6.9
		c-2.6,0.8-5.1,1.8-8.4,3c-0.1,3.7-0.2,8.2-0.3,12.7c0,3.9,0,7.7,0,11.6c0,3,0.3,6,0.3,9c0,2.8-0.3,5.6-0.3,8.4
		c-0.1,3.8,0.1,7.6-0.2,11.3c-0.3,2.9-1.4,5.6-4.6,6.6c-0.2,0.1-0.5,0.1-0.6,0.3c-2.9,3.9-7.6,3.9-11.6,5.4
		c-2.9,1.1-5.8,1.9-8.5,2.8c1.6,2.5,3.2,5,4.7,7.6c0.6,1.1,1.3,1.5,2.6,1.1c1.7-0.6,3.6-1.1,5.4-1.3c1.2-0.1,2.8,0.2,3.6,0.9
		c1.8,1.8,3.3,3.9,4.9,5.9c0.3,0.4,0.1,1.3-0.2,1.7c-2.4,4.2-2.8,8.9-3.1,13.6c-0.1,1.2,0.4,2.8,1.9,2.6c1-0.1,1.9-1.2,2.6-2
		c0.5-0.6,0.6-1.6,0.7-2.4c0.4-5.8,3-10.7,6.2-15.3c5.5-7.8,11.9-14.5,20.7-18.5c13.2-6.1,28.3-2.6,39.3,8.6
		c0.6,0.6,1.2,1.3,1.8,1.9c4.3,4.1,4.3,6.9,1,12.5c-6.1,10.4-15.1,18.2-24.2,25.7c-7.6,6.2-15.6,11.9-23.4,17.8
		c-0.6,0.4-1.3,0.8-1.7,1.3c-0.4,0.7-0.8,1.5-0.8,2.3c0,0.3,1.2,0.6,1.9,0.8c1.7,0.5,3.5,1,5.3,1.6c1.1,0.3,2.1,0.8,3.2,1.1
		c6,1.8,11.2,4.7,14.3,10.5c0.5,1,0.7,2.2,0.8,3.3c0.1,5.3,0.1,10.6,0.1,15.9c0,7.4-0.1,14.8-0.2,22.3c-0.1,4.8-0.3,9.5-0.3,14.3
		c0.1,6.2,0.3,12.5,0.5,18.7c0.1,2.4,1.2,3.5,3.8,3.8c5,0.7,9.8,1.8,14,4.8c2.2,1.6,4.5,3.1,6.7,4.7c0.5,0.3,1,0.8,1.1,1.2
		c0.8,2.8,1.7,5.6,2.1,8.4c0.4,3.1,0.4,6.3,0.3,9.4c-0.1,4.3-0.4,8.5-0.5,12.7c-0.1,4.9,0.1,9.9,0,14.8c0,8.6-0.2,17.1-0.2,25.7
		c0,2.8,0.1,5.6,0.3,8.4c0.2,3.4-0.9,6.2-3.6,8.2c-3.6,2.7-7.2,5.4-11,7.8c-1.4,0.9-3.2,1.4-5,1.8
		C313.1,567,272.2,567.1,220.3,566.8z M146,105.3c0,0.5,0,0.9,0,1.3c0.3,6.2,0.6,12.3,0.8,18.5c0,1.4-0.9,2.9-0.9,4.3
		c0.2,6.6,0.6,13.3,1,19.9c0,0.8,0.2,1.7-0.1,2.3c-0.9,2.1,0.2,2.4,1.8,2.8c1.9,0.5,3.9,1,5.7,1.8c2.2,1.1,3,3.5,2.4,5.7
		c-0.7,2.3-1.8,3.2-4.8,2.8c-2.3-0.3-4.5-1-6.7-1.8c-2.1-0.8-4.1-2-6.2-2.9c-2.4-1-4.2,1.1-6.3,1.5c-0.2,0-0.4,0.9-0.4,1.3
		c-0.1,4.9-0.2,9.8-0.2,14.8c0,7.5-0.1,15-0.1,22.5c0,3.1,0,6.1,0,9.2c0,1.3,0,2.7,0.1,4c0.1,0.6,0.4,1.5,0.8,1.6
		c3.2,0.9,6.4,1.8,9.7,2.5c1.8,0.4,3.9,0.1,5.2,2c0.1,0.2,0.7,0.2,1,0.2c2,0.1,4.1,0.1,6.1,0.3c3.9,0.3,7.8,0.6,11.7,1.1
		c5,0.6,9.9,1.6,14.9,2.2c2.9,0.4,5.9,0.1,8.8,0.5c4.6,0.7,5.9,2.8,4.6,6.9c-0.5,1.6-1.6,2.6-3.3,2.6c-2.9,0-5.8,0.2-8.6-0.2
		c-9.7-1.3-19.6-1.1-29.1-3.6c-0.8-0.2-1.7,0-2.6-0.1c-1.9-0.2-3.8-0.5-5.7-0.7c-5.2-0.7-10.5-1.6-15.7-1.9
		c-2.6-0.1-5.3,1.1-7.9,1.6c-4,0.8-4.4,1-4.4,5.1c-0.1,6.3,0.1,12.6,0.1,18.9c0,7.5-0.1,15,0,22.6c0,1.2,0.7,2.8,1.6,3.4
		c2,1.4,4.3,2.4,6.5,3.2c2.4,0.9,4.9,1.1,7.4,2.1c3.6,1.6,7.7,2.1,11.6,2.8c6.5,1.2,13.1,2.1,19.7,3.1c1.8,0.3,3.7,0,5.5,0.1
		c0.4,0,0.9,0.1,1.3,0.2c1.8,0.5,3.6,1.3,5.4,1.5c4.9,0.4,9.8,0.6,14.7,0.6c9.5,0.1,19,0.3,28.6,0.1c8.1-0.2,16.1-0.7,24.2-1.3
		c5.6-0.4,11.1-1.2,16.6-2.1c4.4-0.7,8.9-1.1,13.2-2.7c3-1.1,6.5-0.3,9.8-1.8c2.6-1.2,5.8-1.3,8.6-2.2c3.3-1.1,6.5-2.4,9.7-3.8
		c0.3-0.1,0.6-0.8,0.6-1.2c0-3-0.1-6-0.1-9c0-3.4-0.1-6.9,0-10.3c0.2-6.2,0.8-12.4,0.8-18.6c0-2.9-0.7-5.8-1.2-8.7
		c-0.1-0.4-1-1-1.6-1c-3.7,0.2-7.4,0.5-11.1,0.9c-4.1,0.5-8.2,1.1-12.3,1.6c-2.5,0.3-4.4-1.1-4.5-3.2c-0.2-2.9,1.4-6.6,3.6-6.8
		c3.7-0.4,7.4-1.2,11.1-1.7c2.1-0.3,4.3-0.1,6.4-0.5c6.8-1.1,13.5-2.4,20.2-3.7c0.8-0.2,2-1,2-1.7c0.2-3.8,0.2-7.6,0.2-11.4
		c0-6.7-0.1-13.5-0.1-20.2c0-2.4,0-4.8,0.1-7.3c0-1.6-0.6-3.7,0.2-4.8c1.5-2.3-0.3-3.2-1.4-3.7c-2.4-1.1-2.6-3.2-2.7-5.1
		c-0.1-2.1,1.8-2.6,3.5-3.2c4.5-1.5,9.1-3.1,13.6-4.5c1.3-0.4,1.8-1.1,1.8-2.5c0.1-13.8,0.2-27.5,0.2-41.3c0-1.2-0.5-2.4-0.8-3.8
		c-0.8,0.6-1.2,1.1-1.6,1.3c-8.6,4-17.8,4.3-27.1,3.9c-1.4-0.1-2.7-0.5-3.2-2.3c-1.2-4.3,0.4-6.5,4.8-6.9c5.4-0.5,10.8-0.9,16.2-1.8
		c4.2-0.7,8.3-2,11.7-5.8c-1.3-0.9-2.5-1.9-3.9-2.4c-2.6-1-5.4-1.5-7.1-3.9c-1.7,0.8-1.7,0.7-3.7-0.5c-0.4-0.3-1.2,0.2-1.8,0.1
		c-0.9-0.1-2.1-0.1-2.6-0.6c-1.4-1.5-3-2-4.6-1.2c-0.8-0.6-1.5-1.4-2.3-1.5c-2.9-0.5-5.8-0.9-8.7-1.3c-1.2-0.2-1.6,0.5-1.8,1.6
		c-0.7,4.2-1.5,8.3-2.1,12.5c-1.2,7.6-4.2,14.5-8.4,20.7c-3.6,5.4-8.5,9.3-15.4,10.4c-6.3,1-11.1-1.6-15.2-5.7
		c-2.8-2.7-4.9-6.1-7.4-9.2c-0.3,0.4-0.6,0.8-0.9,1.2c-2.3,3.6-5,6.8-8.7,9.1c-2.4,1.4-4.6,3.4-7.2,4.1c-4,1-7.9,0-11.7-2.2
		c-8-4.8-11.3-12.8-14.5-20.9c-0.5-1.2-1.4-2.2-2-3.4c-0.2-0.4,0-1.1,0-1.6c0-1.1,0.3-2.8-0.2-3.1c-1.6-1.1-1.5-2.5-1.6-3.9
		c-0.3-4.1-0.6-8.2-1-12.7c-0.4,0-1,0-1.6,0c-6.3,0.5-12.7,1-19,1.6c-3.8,0.4-7.7,0.7-11.4,1.7c-4.8,1.2-9.9,1.5-13.9,5
		c-2.8-0.2-3.6,2.1-4.8,3.9c-0.7,1-0.5,1.7,0.4,2.4c0.6,0.5,1.3,0.9,2,1.3c4.6,2.8,9.9,3.1,15,4c2.3,0.4,4.7,0.7,6.9,1.3
		c2.1,0.6,3,2.9,2.6,5.3c-0.4,2.3-1.6,3.4-4,3.3c-4.8-0.2-9.5-0.6-14.3-1c-0.8-0.1-1.6-0.5-2.3-0.9c-0.8-0.5-1.5-1.3-2.4-1.5
		C149.9,106,148,105.7,146,105.3z M125.8,408.9c-0.3,1-0.7,1.7-0.6,2.3c0.6,2.9,0.1,5.8,0,8.8c-0.3,5.8,0,11.7,0,17.6
		c0,0.3,0.1,0.7,0.3,1c1.8,2.8,1.2,5.5,0.2,8.3c-0.2,0.6-0.2,1.5,0.2,2c4.1,6,10.4,8.4,16.9,10.3c3.8,1.1,7.4,3,11.6,2.3
		c0.2,0,0.4,0.1,0.6,0.2c3.4,0.9,6.7,2,10.1,2.6c4.4,0.8,8.8,1.1,13.2,1.6c0.5,0.1,0.9,0.4,1.4,0.5c1.1,0.2,2.2,0.5,3.3,0.6
		c1.4,0.1,2.9,0,4.3,0c5.6,0.2,11.3,0.4,16.9,0.8c1.4,0.1,2.7,0.6,4.1,0.8c0.9,0.1,1.9,0.2,2.9,0.1c1.6-0.2,3.3-0.9,4.9-0.9
		c6.8,0.1,13.6,0.4,20.4,0.7c1.7,0.1,3.4,0.4,5.1,0.3c4.1-0.2,8.1-0.7,12.2-0.9c7-0.3,14-0.4,21-0.6c1.1,0,2.3-0.2,3.2,0.3
		c1.3,0.8,2.8,1.9,3.2,3.2c1.1,3.4-3.5,7.4-7.5,7c-1.9-0.2-3.9-0.2-5.9-0.1c-1.9,0.1-3.7,0.5-5.5,0.6c-6.4,0-12.9-0.3-19.3,0
		c-3.3,0.1-6.9-1.1-10.1,0.8c-0.2,0.1-0.5-0.1-0.8-0.1c-1-0.2-2-0.6-3-0.6c-10.8-0.1-21.7-0.2-32.5-0.3c-0.5,0-1-0.4-1.5-0.6
		c-0.8-0.4-1.7-1.1-2.5-1.1c-4.3-0.1-8.6,0-12.9,0.1c-0.5,0-1,0.3-2.1,0.5c1.1,0.4,1.6,0.7,2.1,0.8c4.4,0.7,8.8,1.4,13.2,2
		c1.5,0.2,3.1-0.1,4.5,0.3c4.3,1.5,8.7,0.8,13.1,1.6c2.1,0.4,4.3,0.1,6.4,0.3c5.1,0.4,10.2,1.1,15.3,1.5c5.7,0.4,11.4,0.7,17.1,0.7
		c9.1,0,18.1,0.5,27.2-0.3c7.7-0.7,15.5-0.6,23.2-1c3-0.1,6-0.6,9-0.9c0.5,0,1.1,0.1,1.6,0.1c0.8,0.1,1.6,0.2,2.4,0.1
		c1.1-0.1,2.1-0.6,3.2-0.6c5.9,0.2,11.6-1.3,17.4-2.2c6.8-1.1,13.7-2.2,20.5-3.5c1.7-0.3,3.3-1.4,4.9-2.1c0.7-0.3,1.3-0.8,2.1-1.1
		c1.2-0.5,2.4-0.9,3.6-1.2c0.5-0.1,1.1,0.3,1.8,0.5c1.9-1.7,3.8-3.4,5.8-5.3c-2.6-2.1-4.6-4.4-8-4.7c-1.3-0.1-2.4-1.2-4-2.1
		c-2.4-0.3-5.4-0.6-8.3-1.2c-1.8-0.4-3.2-0.1-4.4,1.4c-1.3,1.6-3.2,1.9-5,2.5c-2.8,1-5.1,3.2-8.4,3.1c-0.1,0-0.2,0.2-0.3,0.3
		c-0.9,0.4-1.7,1-2.7,1.2c-1.9,0.5-3.8,0.7-5.7,1.2c-1.8,0.5-3.3,0.7-3.4-1.9c0-0.5-0.7-1-1.1-1.5c-0.2-0.3-0.6-0.7-0.5-1
		c0-1.5,2.8-4.4,4.3-4.5c7.5-0.9,13.6-4.8,19.3-9.4c0.7-0.6,1.2-1.9,1.2-2.8c0-2.8-0.3-5.6-0.3-8.3c0-3.7,0.4-7.4,0.4-11.1
		c-0.1-6.4-0.6-12.8-0.3-19.2c0.1-3,0.2-5.9-0.2-8.9c-0.3-2,0.1-4,0.1-6c0-1.9,0-3.8,0-6c-2.5,0.9-4.7,1.7-6.9,2.5
		c-4.5,1.7-9,3.1-13.9,3.3c-3,0.2-6,1.1-8.9,1.6c-0.2,0-0.5,0.1-0.6,0.3c-0.7,1.6-2.1,1-3.3,1.1c-1.4,0.2-2.7,0.6-4,1
		c-0.4,0.1-0.8,0.4-1.2,0.5c-4.3,0.3-8.6,0.5-12.8,0.8c-0.9,0.1-1.8,0.2-2.7,0.4c-1.6,0.3-3.1,1-4.7,1.1c-6.3,0.5-12.7,1-19,1.2
		c-3.3,0.1-6.8,1.5-9.4-0.4c-1.6,0.5-2.8,1.1-3.9,1.1c-2.9,0.2-5.7,0.1-8.6,0.1c-9.9-0.1-19.7-0.1-29.6-0.2c-1.2,0-2.4-0.9-3.7-1.2
		c-0.7-0.2-1.5-0.2-2.2,0c-1.4,0.2-2.8,0.9-4.2,0.8c-5.6-0.3-11.1-0.8-16.7-1.2c-1.5-0.1-3.2,0.1-4.4-0.6c-2.2-1.3-4.3-0.9-6.6-1
		c-3.7-0.2-7.4-0.7-11.1-1c-0.1,0-0.3-0.1-0.4-0.2c-1.7-1.4-3.7-1.2-5.7-1c-1.2,0.1-2.6-0.1-3.8-0.4c-1.2-0.3-2.3-1.2-3.5-1.5
		c-3.1-0.7-6.4-0.9-9.4-1.8c-4.2-1.3-8.3-3-12.5-4.4c-1-0.4-2.1-0.6-3.1-0.7c-1.5-0.2-2.3,0.3-2.2,2c0.3,3.6,0.6,7.3,0.7,10.9
		c0,1.2-0.3,2.4-0.6,3.6C124.7,406.1,124.4,407.7,125.8,408.9z M221,559.7c5.3-0.2,10.7,0,16,0.2c1.8,0,3.6,0.3,5.3,0.3
		c8,0.1,16,0.1,24,0.2c1,0,2,0.4,3,0.4c3.7-0.1,7.4-0.3,11.1-0.5c6.8-0.4,13.7-0.9,20.5-1.2c7-0.2,13.9-0.6,20.8-1.8
		c4.3-0.7,8.7-0.1,12.8-2.1c0.8-0.4,2-0.1,3-0.3c2-0.6,4-1.3,5.9-2c0.5-0.2,1.4-0.4,1.7-0.1c1.1,1.1,2.1,0.4,3.1-0.1
		c3.1-1.3,6.1-3.1,9.4-3.8c2.7-0.6,5.2-1.2,7.4-3c1.4-1.1,2.9-2.1,4.4-3c1.6-1.1,4.4-1.5,2-4.5c-0.4-0.5,0.5-2,0.1-2.8
		c-1.1-2.1-0.5-4,0.2-6c0.3-0.8,0.5-1.7,0.5-2.5c0-8.7,0-17.3-0.2-26c-0.1-3.4,0.4-6.7-0.5-10.2c-0.6-2.2,0.6-4.8,0.6-7.1
		c0-1.4-0.6-3-1.5-4c-0.5-0.5-2.4,0.1-3.5,0.5c-7,3.1-13.9,6.5-21.9,6c-0.2,0-0.4,0-0.6,0.1c-3.3,0.9-6.6,2.1-10,2.7
		c-4.9,0.9-9.9,1.4-14.8,1.8c-4.3,0.4-8.6,0.4-12.9,0.6c-0.8,0-1.5,0.3-2.3,0.5c-1.1,0.3-2.1,0.9-3.1,0.9c-3.4,0.2-6.7,0.1-10.1,0.3
		c-1.1,0.1-2.7,1.1-3.1,0.7c-1.5-1.6-3.4-1-4.9-0.9c-3.5,0.2-7.1-0.8-10.5,1.2c-0.5,0.3-1.7,0.4-2.1,0c-1.7-1.7-3.8-1.2-5.7-1.1
		c-3.5,0.2-7.1-1-10.4,1.1c-0.3,0.2-0.8,0-1.2-0.1c-1-0.3-2-0.9-3-0.9c-9.7-0.1-19.5-0.1-29.2-0.2c-0.7,0-1.9-0.1-2-0.4
		c-0.7-2.1-1.9-0.7-2.9-0.5c-1.2,0.2-2.5,0.3-3.7,0.2c-1.1-0.1-2.2-0.9-3.3-1c-2.5-0.2-5-0.1-7.5-0.3c-0.8,0-1.6-0.3-2.4-0.6
		c-1.2-0.4-2.4-0.9-3.6-1.1c-1.9-0.4-3.9-0.7-5.9-1c-0.8-0.1-1.6-0.4-2.3-0.3c-3.4,0.8-6.6-0.7-9.8-1.2c-2.9-0.4-5.6-1.5-8.4-2.4
		c-3.4-1-6.9-2-10.3-3c-1.9-0.6-3.8-1.3-5.9-1.9c0,4.2,0.1,8.1,0,12c-0.1,4.9-0.6,9.8-0.6,14.8c0,5.3,0.4,10.6,0.5,15.9
		c0,1.9-0.2,3.8-0.3,5.7c0,0.9,0,1.8,0,2.8c0.1,2.8,0.5,5.6,0.2,8.3c-0.3,3.4-0.3,3.6,2.6,5.1c2.6,1.3,5.7,2,7.4,4.9
		c0.2,0.3,0.9,0.5,1.4,0.4c3.4-0.8,6.1,1.6,9.2,2.3c4,0.9,7.8,2.4,11.8,3.4c3.2,0.8,6.5,1.1,9.6,1.9 M471.3,141.4
		c-0.3,4.9-0.9,9.8-0.9,14.7c0.1,5,0.7,9.9,1.4,14.8c0.5,3.2-0.1,6.6,1.8,9.7c1.4,2.3,2.1,5.1,3.4,7.6c2.6,4.9,7.3,6.1,11.9,3
		c3.1-2.1,5.8-4.7,8.7-7.1c0.3-0.3,0.6-0.6,0.8-1c1.2-4,5.2-6.2,6.3-10.3c0.7-2.5,2.6-4.6,3.8-7c0.9-1.7,1.4-3.6,2.2-5.4
		c1.5-3.2,3.5-6.3,4.7-9.6c1.8-5,3.1-10.2,4.6-15.4c2.7-9.2,3.7-18.6,5.1-28c0.7-4.5-0.7-9.2,1.5-13.5c0.1-0.2-0.1-0.5-0.2-0.8
		c-0.3-1.4-0.8-2.7-0.9-4.1c-0.5-4.5-0.8-9-1.4-13.4c-0.7-5.1-1.9-10-5-14.2c-2.1-2.8-5.7-4-8.9-2.7c-3.4,1.3-6.8,2.6-8.6,6.3
		c-0.4,0.9-1.4,1.6-2.1,2.5c-1.8,2.4-3.4,5-5.3,7.4c-1.5,1.9-3,3.7-4.1,5.9c-1.9,3.7-4.6,6.9-5.2,11.1c-0.2,1.3,0,1.9,1.1,2.8
		c5.1,3.8,9.1,8.4,10.4,14.9c2.8,13.9-3.3,25.1-16.7,29.9C477.3,140.3,474.5,140.7,471.3,141.4z M460.9,169c0-4.7-0.1-9.2,0-13.8
		c0.2-4.3,0.5-8.7,1-13c0.5-4.6,0.9-9.3,1.7-13.8c0.8-4.7,2-9.3,3.1-14c0.9-3.8,1.8-7.5,2.8-11.2c0.5-1.9,1-3.9,1.8-5.7
		c1.5-3.4,3.1-6.7,4.7-10c2.3-4.7,4.7-9.4,7.1-14.2c0.3-0.6,0.3-1.3,0.4-1.9c-0.6,0-1.2,0-1.8,0.2c-5.5,1.8-10.9,3.9-16.4,5.6
		c-7.2,2.2-14.4,4.2-21.6,6.2c-7.3,2-14.8,3.6-22.4,4.1c-2,0.1-3.9,0.9-5.9,0.9c-3.4,0-6.7-0.4-10.1-0.5c-0.7,0-1.8,0.4-2.2,0.9
		c-1.2,1.8-2.5,3.7-3.3,5.8c-2.5,6.5-3.4,13.4-3.3,20.4c0,2,0.6,2.9,2.5,3.5c2.7,0.9,5.5,1.9,7.8,3.5c7.5,5.1,15.4,9.8,22.2,15.9
		c4.4,4,9.3,7.4,13.3,11.9c2.7,3,6,5.6,8.8,8.5C454.5,161.6,457.6,165.3,460.9,169z M190,301.6c0,3.1-0.1,6.4,0.1,9.7
		c0,0.6,0.8,1.3,1.4,1.6c1.6,0.7,3.4,1.1,5,1.8c0.8,0.4,1.8,1.1,2.1,1.8c1.3,3.3,2.3,6.7,3.5,10.1c0.5,1.5,1.2,2.9,1.7,4.4
		c1.9,5.3,3.7,10.7,5.6,15.9c0.2,0.6,1.4,1.4,2,1.3c6-0.9,12,1,18.2-0.2c2.7-0.5,5.8-0.1,8.8,0c7.4,0.1,14.7,0.5,22.1,0.8
		c4.6,0.2,9.2,0.3,13.7,0.7c4.7,0.4,9.3,1,14.4,1.6c-0.1-1.1,0-2.1-0.3-3c-3.2-8.5-6.5-16.9-9.8-25.4c-1.2-3.1-1.3-6,1-8.6
		c0.9-1,0.9-1.9,0.1-3.1c-2.8-4.1-5.6-8.3-8.2-12.6c-0.8-1.2-1.6-1.8-3-1.6c-1.7,0.3-3.4,0.9-5.1,1.3c-4.5,0.9-9.1-0.1-13.6,1.6
		c-1.9,0.7-4.2,0.3-6.4,0.5c-4.4,0.3-8.7,0.7-12.9,1c0,0,0.3-0.2,0.5-0.3c0-0.3-0.1-0.6-0.1-0.8c-6.5,2.9-13.3,1.7-20,1.9
		C204.2,302.3,197.3,301.8,190,301.6z M276.2,375.5c0-0.2,0-0.4-0.1-0.6c-2.4-0.2-4.8-0.4-7.2-0.6c-5.4-0.3-10.7-0.5-16.1-1
		c-2.7-0.3-3.5-1.9-3.2-5.3c0.2-2.3,1.8-3.8,4.1-3.8c12.3,0.1,24.6,0.7,36.8,2.5c1.6,0.2,3.1,0.3,4.6,0.5c-0.8-2-1.4-3.7-2.2-5.3
		c-0.2-0.4-0.8-0.8-1.2-0.9c-2.9-0.1-5.7,0-8.6-0.2c-6.3-0.5-12.6-0.8-18.7-1.8c-5.2-0.9-10.4-0.4-15.6-0.5c-4.7-0.1-9.4,0-14.1,0
		c-0.4,0-0.8-0.2-1.2-0.4c-1.1-0.6-2-1.1-2.9,0.4c-0.1,0.2-1,0.2-1.5,0.1c-1-0.1-1.9-0.4-2.9-0.4c-1.3,0.1-2.7,0.4-4,0.5
		c-0.6,0.1-1.5,0-1.7-0.3c-1-1.5-2.2-1.2-3.5-0.5c-0.6,0.3-1.1,0.7-1.7,0.8c-2.1,0.2-2.2,0.4-1.4,2.5c0.7,1.9,1.3,3.8,1.6,5.8
		c0.4,2.7-1.6,4.9-4.3,4.9c-14.1,0.1-28.2,0.2-42.3,0.2c-12.5,0-25,0-37.6,0c-0.9,0-1.9,0.1-2.8,0.3c-2.1,0.5-2.7,2.3-1.1,3.6
		c1.9,1.6,4,3.4,6.3,4.3c5.4,2.1,10.7,4.5,16.6,4.7c5.3,0.2,10.1,2.6,15.6,2.7c6.7,0.1,13.3,1.3,19.9,2c0.9,0.1,1.8,0.4,2.7,0.6
		c0.5,0.1,1.1,0.4,1.6,0.4c4.8,0.2,9.5,0.2,14.3,0.5c5.5,0.3,11.1,1,16.6,1.1c4.4,0.1,8.9-1.1,13.3,0c0.8,0.2,1.7-0.1,2.5-0.2
		c5.8-0.9,11.6-1.5,17.3,0.4c0.2,0.1,0.4,0,0.6-0.1c2.4-1.8,5.2-1.2,7.9-1.2c4.8,0,9.6,0.1,14.4-0.3c5.9-0.5,11.7-1.8,17.6-2.4
		c12.3-1.2,24.4-2.8,36.1-6.8c3-1,6.1-1.6,8.9-2.9c1.5-0.7,2.5-2.5,3.8-3.9c-1.3-1.1-2.4-2.7-3.9-3.4c-3.7-1.6-7.5-3-11.4-4.2
		c-4-1.2-8.1-2-12.2-2.9c-0.9-0.2-1.9-0.2-2.7,0.2c-3.5,1.4-6.9,2.9-10.3,4.3c0.2,0.2,0.6,0.5,1.1,0.8c2.1,1.4,3.9,3.2,3.5,5.9
		c-0.4,2.7-2.2,4.7-4.9,5.5c-3.3,1-6.6,2.3-9.9,2.6c-10.5,1.1-21.1,2-31.6,2.5c-8.4,0.4-16.8,0.2-25.1,0c-4.9-0.1-9.7-0.6-14.6-0.8
		c-2.2-0.1-2.5-2.2-3.3-3.5c-0.4-0.6,0-2.2,0.6-2.9c1.6-1.8,3.3-3.5,6.2-3c1.8,0.3,3.7,0.1,5.6,0.1c13.9-0.1,27.8-0.2,41.6-0.3
		C273.6,376.1,274.9,375.7,276.2,375.5z M285.2,89.9c-0.2-0.1-0.4-0.1-0.5-0.2c-0.2,0.2-0.5,0.3-0.6,0.5c-5.3,5.5-10.5,3.8-13.8,0.3
		c-0.9-0.9-1.7-1.9-2.4-3c-3.3-5.4-4-11.6-4.8-17.7c-0.4-3.4,0.3-6.9,0.9-10.4c1.3-8.4,4-15.9,13.7-18.6c-1.7-1.3-3.2-2.4-4.6-3.7
		c-2.8-2.5-8.1-1.6-10.7,0.4c-5.4,4.2-8.2,9.8-10.2,16c-0.6,1.8-1,3.4-2.6,3.6c0.1,5.4,0.4,10.5,0.1,15.6c-0.3,6.2-2,12.1-6,17.1
		c-3.5,4.4-9.7,5.2-13.5,1c-2.1-2.3-3.9-5.1-4.9-8c-3.3-10.2-3.7-20.5,0-30.8c1.9-5.4,4.8-10,11.2-11c0.4-0.1,0.7-0.4,1.3-0.7
		c-1.7-1.4-3-2.7-4.6-3.9c-3.9-2.9-6.3-2.7-10.6-0.3c-4.3,2.4-6.7,6.3-8.5,10.4c-5.1,11.5-6.3,23.7-5.6,36.1
		c0.2,3.6,0.6,7.3,1.3,10.9c1.5,7.2,3,14.5,8.4,20.1c7,7.2,12.6,5.7,17.9-1.2c2.7-3.6,4.1-8.2,6.1-12.3c0.6-1.3,1.4-3,2.5-3.5
		c3.2-1.4,6,0.3,6.7,3.7c1.1,5.8,3.7,10.8,7.8,15.2c4.6,5,11.5,4.8,15.6-0.5c3.8-4.9,6.8-10.2,8.5-16.2
		C284.1,96.1,284.6,93,285.2,89.9z M47.3,267.9c-0.5-0.9-1.2-1.6-1.2-2.4c-0.2-5.2-0.3-10.4-0.2-15.7c0-2,1-3.5,3.2-4
		c4.4-1,6.7,1.1,6.4,5.6c-0.2,2.9-0.4,5.9-0.1,8.8c0.2,2.1,0.9,4.3,2,6c2.1,3.2,5.4,3,8.7,2.1c3-0.8,3.1-1.2,1-3.5
		c-1.2-1.4-2.7-2.8-3.3-4.4c-1.3-4.2-1.4-8.7,0-12.9c0.4-1.2,1.6-2.6,2.8-3.2c3.6-1.8,8.1,1.9,6.9,5.7c-0.5,1.7-0.3,3.7-0.1,5.5
		c0.5,3.1,4.6,4.8,6.8,2.9c3.1-2.7,5.9-5.5,5.2-10.2c-0.2-1.5,0-3-0.1-4.5c0-0.6-0.1-1.1-0.3-1.7c-0.6-1.5-1.4-2.8-1.9-4.3
		c-0.7-1.9-0.9-4.1-1.9-5.9c-3.2-5.7-8.1-9.9-14.3-11.5c-4.4-1.1-9.2-0.7-13.8-0.9c-3-0.1-5.9,0.5-8.4,2.1
		c-3.5,2.2-7.6,3.9-10.2,6.9c-5,5.7-9,12.1-10.2,19.9c-0.6,4.4-0.9,8.7,0.8,12.9c0.3,0.8,0.8,1.5,1.3,2.2c0.2,0,0.5-0.1,0.7-0.1
		c0.1-1.6,0.4-3.2,0.4-4.8c0.1-1.8-0.1-3.6,0-5.4c0.1-3.7,1.8-5.4,5.2-5.4c2.9,0,4.4,1.8,4.6,5.3c0.1,1.9,0,3.9,0.1,5.8
		c0.2,3.7,1.6,6.8,5.1,8.7C44,268.5,45.7,268.7,47.3,267.9z M378.6,169.8c2,0.4,4,0.7,5.8,1.3c4.3,1.5,8.7,2.9,12.8,4.8
		c2.8,1.3,3.6,4.7,2.3,6.7c-1.6,2.4-4.7,3.1-7.3,1.2c-3.5-2.5-7.5-3.5-11.6-4c-2.6-0.3-5.7,1.5-6.9,3.8c-1.6,3.1-2.3,6-0.2,9.4
		c1,1.5,1.6,2,3.2,1.7c5.5-0.8,10.7,0.3,15.7,2.4c2.9,1.2,3.5,5.9,0.9,7.8c-1.6,1.2-6.5,1.2-8.2,0c-0.5-0.3-1.1-0.6-1.7-0.6
		c-1.5-0.1-3-0.1-4.5-0.1c-3-0.1-5.1,1.6-6.4,4c-1.3,2.4,0.4,4.6,1.9,6.2c3.7,4.1,8.7,6,14.1,6.8c4.5,0.6,8.8-0.1,12.8-2.4
		c5.1-2.9,8.6-7.5,11.8-12.2c5.7-8.6,5-17.8,2.6-27.3c-0.8-3.1-2.8-5.3-5-7.5c-3-2.9-5.5-6.8-9.1-8.5
		C393.4,159.2,384.1,159.7,378.6,169.8z M390.9,125.6c-3.1,0-3.6-1.7-3.7-3.7c-0.4-5.8-1.1-11.4-0.4-17.3c0.7-5.8,2.3-11.1,4.6-16.4
		c0.7-1.6,2-3,3.1-4.5c0.2-0.3,0.5-0.7,0.7-1.1c1.8-3.3,4-6,8.1-6.2c-1.6-5-6.2-5.9-10.7-3.6c-3.7,1.9-6.5,4.9-8.6,8.5
		c-4.4,7.5-6,16-7.6,24.4c-1.2,6.6,1.2,12.5,3.9,18.3c0.6,1.2,1.9,2.5,3.2,2.9C385.8,127.6,388.2,127.3,390.9,125.6z M368.2,309.8
		c-0.2-0.3-0.4-0.5-0.6-0.8c-4.2,2.5-8.7,4.6-12.7,7.4c-8.6,6.1-17.1,12.2-25.2,18.9c-6.7,5.4-12.8,11.6-19.1,17.5
		c-1,0.9-1.7,2.2-2.6,3.3c0.2,0.2,0.4,0.4,0.6,0.6C331.4,344.8,351,328.8,368.2,309.8z M396.7,151.2c0.2,0.2,0.6,0.9,1.1,1.1
		c2.7,0.9,5.5,1.5,8.2,2.4c1.7,0.6,2.3,0,2.7-1.6c1.1-4.8,2.1-9.6,3.4-14.4c0.4-1.4,0-1.9-1-2.5c-2.6-1.5-5.1-3.1-7.6-4.7
		c-1.6-1-2.2-0.7-2.7,1.1c-0.5,2-0.9,4-1.3,6.1C398.5,142.7,397.6,146.7,396.7,151.2z M473.7,130.2c4.6,1.6,10.9-3.8,13.4-11.9
		c1.5-4.8-2.5-13.9-6.7-15.4C478.2,112,475.9,121.1,473.7,130.2z M370.7,83.6c-2.8,0.2-6.5,4.8-7.7,9.7c-0.9,3.8,0.6,9.7,3.1,11.2
		C367.6,97.5,369.2,90.6,370.7,83.6z"/>
	<path d="M531.9,214.9c1.3,1,2.9,1.7,3.9,3c8,10.1,15.8,20.3,23.7,30.5c1,1.3,3.1,2.6,1.7,4.6c-1.2,1.7-3,3.1-4.8,4.3
		c-0.5,0.3-2.2-0.6-2.8-1.3c-3.4-4.2-6.6-8.5-9.9-12.7c-5.3-6.7-10.6-13.3-15.9-20c-1.3-1.7-1.5-3.5-0.6-5.4
		C528.1,216.1,529.6,215.4,531.9,214.9z"/>
	<path d="M602.2,79.9c4.5,0,6.1,3,4.7,6.6c-1,2.5-3.3,2.8-5.1,3.7c-9,4.2-18.1,8.1-27.2,12.1c-2.2,1-4.3,2-6.4,3
		c-2.5,1.2-4.2,0.6-6.1-2.2c-1.2-1.8-1.1-3.7,1.1-5.2c3-1.9,6.2-3.4,9.4-4.9c3.5-1.7,7.1-3.3,10.7-4.9c5.7-2.6,11.4-5.2,17.1-7.8
		C601,80,601.9,79.9,602.2,79.9z"/>
	<path d="M558.2,160.6c2.2,0.5,4.5,0.8,6.7,1.5c8.3,2.6,16.6,5.3,24.9,8.1c1.1,0.4,2.4,0.8,3.3,1.5c0.9,0.7,2.3,1.9,2.2,2.7
		c-0.4,1.9-1.4,3.8-2.4,5.5c-0.2,0.4-1.8,0.2-2.6,0c-4.6-1.2-9.2-2.6-13.8-3.9c-5.2-1.5-10.4-3-15.6-4.6c-1.9-0.6-3.8-1.3-5.5-2.2
		c-1.8-0.9-2.9-2.3-2.3-4.6c0.8-3.2,1.3-3.6,4.2-3.8c0.4,0,0.7,0,1.1,0C558.2,160.8,558.2,160.7,558.2,160.6z"/>
	<path class="st0" d="M146,105.3c2.1,0.5,3.9,0.7,5.7,1.3c0.9,0.3,1.6,1.1,2.4,1.5c0.7,0.4,1.5,0.9,2.3,0.9c4.8,0.4,9.5,0.7,14.3,1
		c2.4,0.1,3.6-1,4-3.3c0.4-2.4-0.5-4.7-2.6-5.3c-2.2-0.7-4.6-0.9-6.9-1.3c-5.2-0.8-10.4-1.2-15-4c-0.7-0.4-1.4-0.8-2-1.3
		c-0.9-0.6-1.1-1.4-0.4-2.4c1.2-1.8,2-4.1,4.8-3.9c4-3.5,9.1-3.8,13.9-5c3.7-1,7.6-1.3,11.4-1.7c6.3-0.6,12.7-1.1,19-1.6
		c0.6-0.1,1.2,0,1.6,0c0.3,4.4,0.6,8.5,1,12.7c0.1,1.5,0.1,2.9,1.6,3.9c0.5,0.4,0.2,2,0.2,3.1c0,0.6-0.2,1.2,0,1.6
		c0.6,1.2,1.6,2.2,2,3.4c3.2,8.1,6.5,16.1,14.5,20.9c3.7,2.2,7.6,3.2,11.7,2.2c2.6-0.7,4.8-2.6,7.2-4.1c3.7-2.2,6.3-5.5,8.7-9.1
		c0.3-0.5,0.6-0.9,0.9-1.2c2.5,3.1,4.6,6.5,7.4,9.2c4.1,4,9,6.7,15.2,5.7c6.8-1.1,11.8-5,15.4-10.4c4.2-6.3,7.2-13.2,8.4-20.7
		c0.7-4.2,1.5-8.3,2.1-12.5c0.2-1.1,0.6-1.8,1.8-1.6c2.9,0.4,5.8,0.7,8.7,1.3c0.8,0.1,1.5,0.9,2.3,1.5c1.7-0.9,3.2-0.4,4.6,1.2
		c0.5,0.5,1.7,0.5,2.6,0.6c0.6,0.1,1.4-0.4,1.8-0.1c2,1.2,2,1.2,3.7,0.5c1.7,2.4,4.5,3,7.1,3.9c1.4,0.5,2.5,1.5,3.9,2.4
		c-3.4,3.8-7.5,5.1-11.7,5.8c-5.4,0.9-10.8,1.3-16.2,1.8c-4.4,0.4-6,2.6-4.8,6.9c0.5,1.8,1.9,2.2,3.2,2.3c9.3,0.4,18.5,0.1,27.1-3.9
		c0.5-0.2,0.9-0.7,1.6-1.3c0.3,1.4,0.8,2.6,0.8,3.8c0,13.8-0.2,27.5-0.2,41.3c0,1.4-0.5,2.1-1.8,2.5c-4.5,1.5-9.1,3-13.6,4.5
		c-1.7,0.6-3.6,1.1-3.5,3.2c0.1,1.9,0.3,4.1,2.7,5.1c1.1,0.5,2.9,1.4,1.4,3.7c-0.8,1.1-0.2,3.2-0.2,4.8c0,2.4-0.1,4.8-0.1,7.3
		c0,6.7,0.1,13.5,0.1,20.2c0,3.8,0,7.6-0.2,11.4c0,0.6-1.2,1.5-2,1.7c-6.7,1.3-13.4,2.6-20.2,3.7c-2.1,0.4-4.3,0.2-6.4,0.5
		c-3.7,0.5-7.4,1.3-11.1,1.7c-2.2,0.2-3.8,3.9-3.6,6.8c0.1,2.1,2,3.5,4.5,3.2c4.1-0.4,8.2-1.1,12.3-1.6c3.7-0.4,7.4-0.7,11.1-0.9
		c0.5,0,1.5,0.5,1.6,1c0.5,2.9,1.3,5.8,1.2,8.7c-0.1,6.2-0.6,12.4-0.8,18.6c-0.1,3.4-0.1,6.9,0,10.3c0,3,0.1,6,0.1,9
		c0,0.4-0.3,1.1-0.6,1.2c-3.2,1.3-6.4,2.7-9.7,3.8c-2.8,0.9-5.9,1-8.6,2.2c-3.2,1.5-6.7,0.7-9.8,1.8c-4.3,1.5-8.8,1.9-13.2,2.7
		c-5.5,0.9-11,1.6-16.6,2.1c-8,0.6-16.1,1.2-24.2,1.3c-9.5,0.2-19,0-28.6-0.1c-4.9-0.1-9.8-0.3-14.7-0.6c-1.8-0.1-3.6-1-5.4-1.5
		c-0.4-0.1-0.8-0.2-1.3-0.2c-1.8,0-3.7,0.2-5.5-0.1c-6.6-0.9-13.1-1.9-19.7-3.1c-3.9-0.7-8-1.2-11.6-2.8c-2.5-1.1-5-1.2-7.4-2.1
		c-2.3-0.9-4.5-1.9-6.5-3.2c-0.9-0.6-1.6-2.2-1.6-3.4c-0.1-7.5,0-15,0-22.6c0-6.3-0.1-12.6-0.1-18.9c0-4.1,0.4-4.4,4.4-5.1
		c2.7-0.5,5.3-1.7,7.9-1.6c5.3,0.3,10.5,1.2,15.7,1.9c1.9,0.2,3.8,0.5,5.7,0.7c0.8,0.1,1.8-0.1,2.6,0.1c9.5,2.5,19.4,2.3,29.1,3.6
		c2.8,0.4,5.7,0.2,8.6,0.2c1.7,0,2.8-1,3.3-2.6c1.2-4.1,0-6.2-4.6-6.9c-2.9-0.4-5.9-0.2-8.8-0.5c-5-0.6-9.9-1.5-14.9-2.2
		c-3.9-0.5-7.8-0.8-11.7-1.1c-2-0.2-4.1-0.2-6.1-0.3c-0.3,0-0.9,0-1-0.2c-1.3-1.9-3.4-1.6-5.2-2c-3.2-0.8-6.5-1.6-9.7-2.5
		c-0.4-0.1-0.8-1-0.8-1.6c-0.1-1.3-0.1-2.7-0.1-4c0-3.1,0-6.1,0-9.2c0-7.5,0-15,0.1-22.5c0-4.9,0.1-9.8,0.2-14.8
		c0-0.5,0.2-1.3,0.4-1.3c2.2-0.4,3.9-2.5,6.3-1.5c2.1,0.9,4.1,2.1,6.2,2.9c2.2,0.8,4.4,1.6,6.7,1.8c3,0.4,4.1-0.5,4.8-2.8
		c0.6-2.1-0.2-4.6-2.4-5.7c-1.8-0.9-3.7-1.4-5.7-1.8c-1.6-0.4-2.8-0.7-1.8-2.8c0.3-0.7,0.1-1.6,0.1-2.3c-0.3-6.6-0.7-13.3-1-19.9
		c0-1.4,0.9-2.9,0.9-4.3c-0.2-6.2-0.5-12.3-0.8-18.5C145.9,106.2,146,105.8,146,105.3z M212.1,155c0.6-1.1,1-1.7,1.4-2.4
		c1.6-3.1,0.4-6.8-2.4-7.2c-5.3-0.6-10.4,0-14.2,4.5c-1.8,2.1-3.1,4.4-1.8,7.2c1.4,3,4.2,2.6,6.7,2.2c1.4-0.2,2.5,0.1,3.4,1.2
		c3.2,3.5,7,5,11.9,4.5c4-0.4,8.1-0.2,12.2-0.1c0.8,0,1.6,0.4,2.3,0.8c0.7,0.4,1.2,1.2,1.9,1.5c1.2,0.5,2.6,0.9,3.9,1.2
		c4.6,1.1,9.2,3.1,13.9,0c0.3-0.2,0.8-0.2,1.3-0.3c1.9-0.1,3.4-0.9,4.6-2.3c1.4-1.6,4-1.6,5.8-0.3c0.5,0.4,1.1,0.6,1.8,0.7
		c2.2,0.3,4.5,0.2,6.6,0.9c2.4,0.7,4.6,0.7,7-0.2c3.6-1.3,6-3.7,8.2-6.6c0.7-1,1.4-1.3,2.7-1c4.6,1,6.7-1.3,5.8-5.8
		c-0.8-3.7-3.6-5.5-6.7-7c-3.5-1.8-7.2-2.8-11.1-1c-1.8,0.9-2.9,2.7-2.5,4.6c0.3,1.4,1.8,2.6,2.9,3.9c0.3,0.4,0.9,0.4,1.7,0.8
		c-2,1.5-3.4,3.1-5.8,2.9c-1.7-0.2-3.5-0.2-5.1-0.8c-5.9-2.3-11.6-1.7-17.2,0.9c-0.9,0.4-1.8,0.8-2.8,1.1c-1.4,0.4-3,1-4.3,0.8
		c-3.1-0.6-6.2-1.4-9-2.6c-4.5-1.9-8.9-2.2-13.6-1.6c-2,0.3-4.1,0.2-6.2,0.2C214.3,155.6,213.4,155.3,212.1,155z M236.9,224.8
		c0,0.2,0,0.4,0,0.6c-5.7,0-11.3,0-17,0c-1.5,0-3,0.2-4.4,0.7c-1.9,0.6-3.3,2.7-3.1,4.4c0.2,2,1.6,3.8,3.6,4.3
		c1.3,0.3,2.7,0.4,4,0.4c8.7-0.2,17.5-0.3,26.2-0.6c3-0.1,6-0.4,9-0.8c2.9-0.5,4-1.8,4-4.2c0-3.4-1.3-4.7-4.7-4.8
		C248.6,224.8,242.7,224.8,236.9,224.8z M293,194.1C292.9,194.1,292.9,194.1,293,194.1c-0.1-1.9,0-3.7-0.1-5.6
		c-0.1-2.1-1.9-3.6-4.3-3.7c-2.5-0.1-4.8,1.1-5,3.1c-0.2,4-0.5,8-0.1,12c0.3,3.6,4.3,4.8,7.2,2.7c1.7-1.2,2.5-2.7,2.3-4.7
		C292.9,196.7,293,195.4,293,194.1z M192.1,201.8c0,1.1,0,2.1,0,3.2c0,1.1,0,2.3,0.3,3.4c0.4,2.2,1.8,3.2,4.1,3.2c2,0,4-0.2,4.3-2.8
		c0.4-3.2,0.9-6.5,1-9.7c0.1-1.4-0.5-2.8-1.2-4.1c-0.9-1.9-3.1-2.7-5.2-2.2c-1.8,0.4-3.2,2.2-3.3,4.3
		C192,198.6,192.1,200.2,192.1,201.8z M187.2,259.5c-0.1,0-0.1,0-0.2,0c0-2,0.2-4,0-6c-0.2-2.1-2.6-3.7-4.7-3.5
		c-2.7,0.3-4.7,1.9-4.7,4.1c0,3.6,0.1,7.3,0.3,10.9c0.1,2.6,1.8,3.9,4.6,3.9c2.4,0,4.3-1.5,4.5-3.9
		C187,263.2,187.1,261.4,187.2,259.5z M177.1,197.7c0.1,0,0.1,0,0.2,0c-0.1-1.9,0-3.9-0.3-5.8c-0.3-2.4-2.4-4.1-4.5-4
		c-2.4,0.1-4.3,1.5-4.4,3.8c-0.2,3.9-0.1,7.9,0.1,11.8c0.1,1,0.8,2.2,1.6,2.8c3,2.2,6.7,0.7,7.3-3
		C177.4,201.4,177.1,199.5,177.1,197.7z M268.5,256.8C268.6,256.8,268.6,256.8,268.5,256.8c0,1.9-0.1,3.9,0.1,5.8
		c0.2,2.4,1.9,3.9,4.3,3.9c2.7,0.1,4.6-1.1,4.7-3.6c0.2-3.9,0.3-7.8,0-11.8c-0.2-2.7-1.9-3.7-4.9-3.5c-2.6,0.2-4.1,1.7-4.2,4.2
		C268.5,253.5,268.5,255.1,268.5,256.8z M145.6,191.7C145.6,191.7,145.6,191.7,145.6,191.7c0,1.6,0,3.1,0,4.7c0,2.8,1.4,4.2,4.1,4.4
		c2.7,0.1,4.7-1.4,4.9-4c0.2-2.9,0.4-5.8,0.4-8.8c0-1.2-0.3-2.6-0.9-3.7c-1.2-2.2-3.2-3.1-5.6-2.3c-2.1,0.7-2.9,2.4-2.9,4.5
		C145.6,188.3,145.6,190,145.6,191.7z M159.4,256C159.4,256,159.4,256,159.4,256c0.1-1.1,0.2-2.3,0.1-3.4c-0.1-1.2-0.1-2.4-0.5-3.6
		c-0.7-2-1.8-3.3-4.3-3c-1.8,0.3-4.2,1.9-4.3,3.6c-0.1,4.1,0,8.3,0.4,12.4c0.2,2.3,2.1,3.2,4.6,3c2.5-0.2,3.7-1.2,4-3.6
		C159.5,259.6,159.4,257.8,159.4,256z M164,124.9C164.1,124.9,164.1,124.9,164,124.9c0-1.6,0-3.3,0-4.9c-0.1-2.2-2.2-4.3-4.4-4.3
		c-2.4-0.1-4.5,1.6-4.6,3.9c-0.1,3.5-0.2,7,0,10.5c0.1,2.9,1.9,4.2,4.7,4.1c2.6-0.1,4.3-1.8,4.3-4.5C164.1,128,164,126.4,164,124.9z
		"/>
	<path class="st1" d="M125.8,408.9c-1.3-1.2-1-2.8-0.5-4.5c0.3-1.2,0.7-2.4,0.6-3.6c-0.1-3.6-0.4-7.3-0.7-10.9
		c-0.1-1.7,0.7-2.2,2.2-2c1.1,0.2,2.1,0.4,3.1,0.7c4.2,1.5,8.3,3.2,12.5,4.4c3,0.9,6.3,1.1,9.4,1.8c1.2,0.3,2.3,1.2,3.5,1.5
		c1.2,0.3,2.5,0.5,3.8,0.4c2-0.2,4-0.4,5.7,1c0.1,0.1,0.3,0.1,0.4,0.2c3.7,0.4,7.4,0.9,11.1,1c2.3,0.1,4.4-0.4,6.6,1
		c1.2,0.7,2.9,0.5,4.4,0.6c5.5,0.4,11.1,0.9,16.7,1.2c1.4,0.1,2.8-0.6,4.2-0.8c0.7-0.1,1.5-0.1,2.2,0c1.2,0.3,2.4,1.2,3.7,1.2
		c9.9,0.2,19.7,0.2,29.6,0.2c2.9,0,5.7,0.1,8.6-0.1c1.2-0.1,2.3-0.6,3.9-1.1c2.6,2,6.1,0.6,9.4,0.4c6.4-0.2,12.7-0.7,19-1.2
		c1.6-0.1,3.1-0.7,4.7-1.1c0.9-0.2,1.8-0.3,2.7-0.4c4.3-0.3,8.6-0.5,12.8-0.8c0.4,0,0.8-0.3,1.2-0.5c1.3-0.4,2.6-0.8,4-1
		c1.2-0.2,2.6,0.5,3.3-1.1c0.1-0.1,0.4-0.2,0.6-0.3c3-0.6,5.9-1.5,8.9-1.6c4.9-0.3,9.4-1.7,13.9-3.3c2.2-0.8,4.4-1.6,6.9-2.5
		c0,2.2,0,4.1,0,6c0,2-0.4,4-0.1,6c0.4,3,0.4,5.9,0.2,8.9c-0.3,6.4,0.3,12.8,0.3,19.2c0,3.7-0.3,7.4-0.4,11.1c0,2.8,0.3,5.6,0.3,8.3
		c0,1-0.5,2.3-1.2,2.8c-5.7,4.5-11.8,8.5-19.3,9.4c-1.6,0.2-4.3,3-4.3,4.5c0,0.3,0.3,0.7,0.5,1c0.4,0.5,1.1,1,1.1,1.5
		c0.1,2.6,1.6,2.3,3.4,1.9c1.9-0.5,3.8-0.7,5.7-1.2c0.9-0.2,1.8-0.8,2.7-1.2c0.1-0.1,0.2-0.3,0.3-0.3c3.2,0.2,5.6-2.1,8.4-3.1
		c1.8-0.6,3.7-0.9,5-2.5c1.1-1.4,2.6-1.7,4.4-1.4c2.9,0.6,5.9,0.8,8.3,1.2c1.6,0.9,2.8,2,4,2.1c3.4,0.3,5.4,2.6,8,4.7
		c-2,1.8-4,3.6-5.8,5.3c-0.7-0.2-1.3-0.6-1.8-0.5c-1.2,0.3-2.5,0.7-3.6,1.2c-0.7,0.3-1.4,0.8-2.1,1.1c-1.6,0.7-3.2,1.8-4.9,2.1
		c-6.8,1.3-13.6,2.4-20.5,3.5c-5.8,0.9-11.5,2.4-17.4,2.2c-1,0-2.1,0.4-3.2,0.6c-0.8,0.1-1.6-0.1-2.4-0.1c-0.5,0-1.1-0.2-1.6-0.1
		c-3,0.3-6,0.7-9,0.9c-7.7,0.4-15.5,0.3-23.2,1c-9.1,0.8-18.1,0.3-27.2,0.3c-5.7,0-11.4-0.3-17.1-0.7c-5.1-0.3-10.2-1-15.3-1.5
		c-2.1-0.2-4.3,0.1-6.4-0.3c-4.3-0.8-8.8,0-13.1-1.6c-1.4-0.5-3-0.1-4.5-0.3c-4.4-0.6-8.8-1.3-13.2-2c-0.5-0.1-1-0.4-2.1-0.8
		c1.1-0.3,1.6-0.5,2.1-0.5c4.3-0.1,8.6-0.2,12.9-0.1c0.8,0,1.7,0.8,2.5,1.1c0.5,0.2,1,0.6,1.5,0.6c10.8,0.1,21.7,0.1,32.5,0.3
		c1,0,2,0.4,3,0.6c0.3,0.1,0.6,0.2,0.8,0.1c3.2-2,6.7-0.7,10.1-0.8c6.4-0.3,12.8,0,19.3,0c1.9,0,3.7-0.5,5.5-0.6
		c2-0.1,3.9-0.1,5.9,0.1c4,0.4,8.5-3.6,7.5-7c-0.4-1.3-1.9-2.4-3.2-3.2c-0.8-0.5-2.1-0.4-3.2-0.3c-7,0.2-14,0.3-21,0.6
		c-4.1,0.2-8.1,0.7-12.2,0.9c-1.7,0.1-3.4-0.2-5.1-0.3c-6.8-0.3-13.6-0.6-20.4-0.7c-1.6,0-3.3,0.7-4.9,0.9c-0.9,0.1-1.9,0.1-2.9-0.1
		c-1.4-0.2-2.7-0.8-4.1-0.8c-5.6-0.3-11.3-0.5-16.9-0.8c-1.4-0.1-2.9,0.1-4.3,0c-1.1-0.1-2.2-0.3-3.3-0.6c-0.5-0.1-0.9-0.4-1.4-0.5
		c-4.4-0.5-8.8-0.9-13.2-1.6c-3.4-0.6-6.7-1.7-10.1-2.6c-0.2-0.1-0.4-0.2-0.6-0.2c-4.2,0.7-7.8-1.2-11.6-2.3
		c-6.5-1.9-12.8-4.3-16.9-10.3c-0.3-0.5-0.4-1.4-0.2-2c1-2.8,1.6-5.6-0.2-8.3c-0.2-0.3-0.3-0.7-0.3-1c0-5.9-0.3-11.7,0-17.6
		c0.1-2.9,0.6-5.8,0-8.8C125,410.6,125.5,409.9,125.8,408.9z M181.5,430.2c0,0,0.1,0,0.1,0c0,2.5-0.1,5,0,7.5c0,0.7,0.3,1.5,0.7,1.9
		c1.5,1.2,3.2,1.8,5.2,1.2c1.9-0.6,3.1-1.8,3.2-3.8c0.2-3.2,0.3-6.4,0.4-9.6c0-1.2-0.1-2.4-0.4-3.6c-0.6-2.3-3.1-3.7-5.5-3.3
		c-2.8,0.5-3.8,1.8-3.7,4.8C181.5,426.9,181.5,428.6,181.5,430.2z M311.6,424.9c0,2.1-0.1,4.2,0,6.2c0.1,1.9,0.9,3.4,3,3.9
		c3.6,0.9,6.3-0.9,6.4-4.5c0.1-4.1-0.1-8.3-0.3-12.4c0-0.6-0.3-1.4-0.8-1.9c-1.6-1.5-3.6-2-5.6-1.3c-1.8,0.6-2.7,2.3-2.7,4.3
		C311.5,421,311.6,422.9,311.6,424.9z M149.4,423.4C149.4,423.4,149.4,423.4,149.4,423.4c-0.1,1.9-0.1,3.9,0,5.8
		c0.1,2.7,1.7,4.3,4,4.3c3.1,0.1,5.3-1.6,5.4-4.3c0.1-4,0.1-8,0-12c-0.1-3.5-4.4-5.5-7.3-3.6c-1.5,1-2.1,2.3-2.1,3.9
		C149.4,419.5,149.4,421.5,149.4,423.4z"/>
	<path class="st1" d="M195.1,557.1c-3.2-0.8-6.5-1.1-9.6-1.9c-4-1-7.8-2.5-11.8-3.4c-3.1-0.7-5.7-3.1-9.2-2.3
		c-0.4,0.1-1.2-0.1-1.4-0.4c-1.6-2.9-4.7-3.5-7.4-4.9c-3-1.5-3-1.7-2.6-5.1c0.3-2.7-0.1-5.5-0.2-8.3c0-0.9-0.1-1.8,0-2.8
		c0.1-1.9,0.4-3.8,0.3-5.7c-0.1-5.3-0.5-10.6-0.5-15.9c0-4.9,0.4-9.8,0.6-14.8c0.1-3.9,0-7.8,0-12c2,0.7,4,1.3,5.9,1.9
		c3.4,1,6.8,2,10.3,3c2.8,0.8,5.5,2,8.4,2.4c3.3,0.4,6.4,2,9.8,1.2c0.7-0.2,1.5,0.1,2.3,0.3c2,0.3,3.9,0.6,5.9,1
		c1.2,0.3,2.4,0.8,3.6,1.1c0.8,0.2,1.6,0.5,2.4,0.6c2.5,0.1,5,0,7.5,0.3c1.1,0.1,2.2,0.9,3.3,1c1.2,0.2,2.5,0,3.7-0.2
		c1-0.1,2.2-1.6,2.9,0.5c0.1,0.3,1.3,0.4,2,0.4c9.7,0.1,19.5,0.1,29.2,0.2c1,0,2,0.6,3,0.9c0.4,0.1,0.9,0.3,1.2,0.1
		c3.3-2.1,6.9-0.9,10.4-1.1c1.9-0.1,4-0.6,5.7,1.1c0.3,0.3,1.5,0.3,2.1,0c3.3-1.9,7-0.9,10.5-1.2c1.5-0.1,3.4-0.7,4.9,0.9
		c0.4,0.4,2-0.7,3.1-0.7c3.4-0.2,6.7-0.1,10.1-0.3c1.1-0.1,2.1-0.6,3.1-0.9c0.7-0.2,1.5-0.4,2.3-0.5c4.3-0.2,8.6-0.2,12.9-0.6
		c5-0.4,9.9-1,14.8-1.8c3.4-0.6,6.7-1.8,10-2.7c0.2-0.1,0.4-0.1,0.6-0.1c8,0.6,14.9-2.9,21.9-6c1.1-0.5,3-1.1,3.5-0.5
		c0.9,0.9,1.5,2.6,1.5,4c0,2.4-1.1,5-0.6,7.1c0.9,3.5,0.5,6.8,0.5,10.2c0.2,8.7,0.2,17.3,0.2,26c0,0.8-0.2,1.7-0.5,2.5
		c-0.6,2-1.3,3.9-0.2,6c0.4,0.7-0.5,2.2-0.1,2.8c2.4,3-0.3,3.4-2,4.5c-1.5,1-3,1.9-4.4,3c-2.2,1.8-4.7,2.4-7.4,3
		c-3.2,0.7-6.3,2.4-9.4,3.8c-1,0.4-2,1.2-3.1,0.1c-0.3-0.3-1.1,0-1.7,0.1c-2,0.6-3.9,1.4-5.9,2c-0.9,0.3-2.1-0.1-3,0.3
		c-4.1,2-8.5,1.4-12.8,2.1c-6.9,1.2-13.9,1.5-20.8,1.8c-6.8,0.2-13.7,0.8-20.5,1.2c-3.7,0.2-7.4,0.4-11.1,0.5c-1,0-2-0.4-3-0.4
		c-8-0.1-16-0.1-24-0.2c-1.8,0-3.6-0.2-5.3-0.3c-5.3-0.1-10.7-0.4-16-0.2 M186.3,515.5C186.3,515.5,186.3,515.5,186.3,515.5
		c0-1.9,0.1-3.9,0-5.8c0-3.2-1.2-4.5-4.2-4.7c-3.3-0.2-5.3,1.1-5.4,4.1c-0.2,4.1-0.2,8.1,0,12.2c0.1,2.9,2.4,4.5,5.6,4.3
		c2.7-0.2,4.1-1.9,4.1-4.9C186.3,518.9,186.3,517.2,186.3,515.5z M348.4,516.6c0-1.1,0-2.1,0-3.2c0-1.1-0.1-2.3-0.2-3.4
		c-0.4-2.2-2.1-3.6-4.4-3.6c-2.2-0.1-4.3,1.3-4.5,3.5c-0.4,3.9-0.6,7.9-0.6,11.9c-0.1,2.8,2.4,5.5,4.9,5.5c2.6,0.1,4.6-2.1,4.8-5.2
		C348.5,520.2,348.4,518.4,348.4,516.6z M302.3,523.5C302.3,523.5,302.2,523.5,302.3,523.5c-0.1,1.8-0.1,3.6-0.1,5.4
		c0,3,1.8,5.1,4.4,5.2c2.6,0.1,5-2.1,5-5c0.1-3.8,0-7.6-0.1-11.4c-0.1-2.8-1.9-4.3-4.8-4.3c-2.9,0.1-4.4,1.4-4.5,4.3
		C302.2,519.7,302.3,521.6,302.3,523.5z M218.2,522.1c-0.1,0-0.2,0-0.2,0c0-1.8,0.1-3.6,0-5.4c-0.2-2.9-1.2-4.1-3.7-4.4
		c-3-0.3-4.8,0.6-5,3.6c-0.4,4.5-0.4,9,0.1,13.5c0.3,3,1.8,3.7,4.9,3.5c2.1-0.1,3.4-1.3,3.7-3.9
		C218.1,526.7,218.1,524.4,218.2,522.1z M267.7,525.1C267.7,525.1,267.7,525.1,267.7,525.1c0,2.1,0,4.3,0.1,6.4
		c0.1,2,1.1,3.4,2.9,4.1c1.8,0.7,3.6,0.2,4.7-1.2c0.8-1.1,1.2-2.7,1.3-4.1c0.1-3.6,0-7.3-0.1-10.9c-0.1-3.2-1.5-4.4-4.6-4.3
		c-2.8,0.1-4.1,1.5-4.2,4.5C267.6,521.6,267.7,523.4,267.7,525.1z"/>
	<path class="st1" d="M471.3,141.4c3.1-0.7,6-1.1,8.6-2c13.3-4.8,19.5-16,16.7-29.9c-1.3-6.5-5.3-11.1-10.4-14.9
		c-1.1-0.8-1.3-1.4-1.1-2.8c0.7-4.3,3.4-7.5,5.2-11.1c1.1-2.2,2.6-4,4.1-5.9c1.9-2.4,3.5-4.9,5.3-7.4c0.6-0.9,1.6-1.5,2.1-2.5
		c1.8-3.7,5.1-5,8.6-6.3c3.2-1.2,6.8-0.1,8.9,2.7c3.1,4.2,4.3,9.2,5,14.2c0.6,4.5,0.9,9,1.4,13.4c0.2,1.4,0.6,2.7,0.9,4.1
		c0.1,0.3,0.3,0.6,0.2,0.8c-2.2,4.3-0.8,9-1.5,13.5c-1.4,9.4-2.5,18.9-5.1,28c-1.5,5.1-2.8,10.4-4.6,15.4c-1.2,3.3-3.2,6.4-4.7,9.6
		c-0.8,1.7-1.4,3.6-2.2,5.4c-1.2,2.4-3.2,4.5-3.8,7c-1.1,4.1-5.1,6.3-6.3,10.3c-0.1,0.4-0.4,0.8-0.8,1c-2.9,2.4-5.6,5-8.7,7.1
		c-4.6,3.1-9.3,1.8-11.9-3c-1.3-2.4-2-5.2-3.4-7.6c-1.9-3.1-1.3-6.5-1.8-9.7c-0.7-4.9-1.3-9.9-1.4-14.8
		C470.4,151.2,471,146.3,471.3,141.4z"/>
	<path class="st2" d="M460.9,169c-3.3-3.7-6.4-7.4-9.8-10.9c-2.8-3-6.1-5.5-8.8-8.5c-4-4.5-8.9-7.9-13.3-11.9
		c-6.8-6.2-14.6-10.9-22.2-15.9c-2.3-1.6-5.1-2.6-7.8-3.5c-1.9-0.6-2.5-1.5-2.5-3.5c-0.1-7,0.8-13.8,3.3-20.4c0.8-2,2-3.9,3.3-5.8
		c0.4-0.6,1.4-0.9,2.2-0.9c3.4,0.1,6.7,0.5,10.1,0.5c2,0,3.9-0.8,5.9-0.9c7.6-0.5,15.1-2.1,22.4-4.1c7.2-2,14.5-4,21.6-6.2
		c5.5-1.7,11-3.7,16.4-5.6c0.6-0.2,1.2-0.1,1.8-0.2c-0.1,0.6-0.1,1.4-0.4,1.9c-2.3,4.7-4.7,9.4-7.1,14.2c-1.6,3.3-3.3,6.6-4.7,10
		c-0.8,1.8-1.3,3.8-1.8,5.7c-1,3.7-1.9,7.5-2.8,11.2c-1.1,4.6-2.3,9.3-3.1,14c-0.8,4.6-1.2,9.2-1.7,13.8c-0.4,4.3-0.8,8.7-1,13
		C460.8,159.8,460.9,164.4,460.9,169z"/>
	<path class="st1" d="M276.2,375.5c-1.3,0.2-2.7,0.6-4,0.6c-13.9,0.2-27.8,0.2-41.6,0.3c-1.9,0-3.8,0.2-5.6-0.1
		c-2.9-0.5-4.6,1.2-6.2,3c-0.6,0.7-1,2.2-0.6,2.9c0.8,1.4,1.1,3.4,3.3,3.5c4.9,0.3,9.7,0.7,14.6,0.8c8.4,0.1,16.8,0.4,25.1,0
		c10.6-0.5,21.1-1.5,31.6-2.5c3.4-0.3,6.6-1.6,9.9-2.6c2.7-0.8,4.5-2.7,4.9-5.5c0.4-2.7-1.4-4.5-3.5-5.9c-0.4-0.3-0.9-0.7-1.1-0.8
		c3.4-1.5,6.9-3,10.3-4.3c0.8-0.3,1.9-0.4,2.7-0.2c4.1,0.9,8.2,1.7,12.2,2.9c3.9,1.2,7.7,2.5,11.4,4.2c1.5,0.7,2.6,2.2,3.9,3.4
		c-1.2,1.3-2.2,3.2-3.8,3.9c-2.8,1.3-6,1.9-8.9,2.9c-11.7,4.1-23.9,5.6-36.1,6.8c-5.9,0.6-11.7,1.8-17.6,2.4
		c-4.8,0.4-9.6,0.3-14.4,0.3c-2.7,0-5.4-0.6-7.9,1.2c-0.1,0.1-0.4,0.1-0.6,0.1c-5.7-1.9-11.5-1.3-17.3-0.4c-0.8,0.1-1.7,0.4-2.5,0.2
		c-4.5-1.1-8.9,0-13.3,0c-5.5-0.1-11.1-0.8-16.6-1.1c-4.8-0.3-9.5-0.3-14.3-0.5c-0.5,0-1.1-0.3-1.6-0.4c-0.9-0.2-1.8-0.5-2.7-0.6
		c-6.6-0.7-13.3-1.9-19.9-2c-5.4-0.1-10.3-2.5-15.6-2.7c-5.9-0.3-11.3-2.6-16.6-4.7c-2.3-0.9-4.4-2.7-6.3-4.3
		c-1.6-1.4-1-3.1,1.1-3.6c0.9-0.2,1.8-0.3,2.8-0.3c12.5,0,25,0.1,37.6,0c14.1,0,28.2-0.1,42.3-0.2c2.7,0,4.8-2.2,4.3-4.9
		c-0.3-2-1-3.9-1.6-5.8c-0.7-2.1-0.7-2.3,1.4-2.5c0.6-0.1,1.1-0.5,1.7-0.8c1.3-0.6,2.5-1,3.5,0.5c0.2,0.3,1.1,0.3,1.7,0.3
		c1.3-0.1,2.7-0.5,4-0.5c0.9,0,1.9,0.3,2.9,0.4c0.5,0,1.3,0.1,1.5-0.1c0.8-1.5,1.8-1,2.9-0.4c0.4,0.2,0.8,0.4,1.2,0.4
		c4.7,0,9.4-0.1,14.1,0c5.2,0.1,10.4-0.4,15.6,0.5c6.2,1,12.5,1.3,18.7,1.8c2.8,0.2,5.7,0.1,8.6,0.2c0.4,0,1,0.5,1.2,0.9
		c0.8,1.6,1.4,3.4,2.2,5.3c-1.5-0.2-3-0.2-4.6-0.5c-12.2-1.8-24.5-2.4-36.8-2.5c-2.4,0-3.9,1.4-4.1,3.8c-0.3,3.4,0.5,5,3.2,5.3
		c5.3,0.5,10.7,0.7,16.1,1c2.4,0.2,4.8,0.4,7.2,0.6C276.2,375.1,276.2,375.3,276.2,375.5z"/>
	<path class="st0" d="M285.2,89.9c-0.7,3.1-1.1,6.2-2,9.2c-1.8,5.9-4.8,11.3-8.5,16.2c-4.1,5.3-11,5.5-15.6,0.5
		c-4-4.4-6.6-9.4-7.8-15.2c-0.7-3.5-3.5-5.2-6.7-3.7c-1.1,0.5-1.8,2.2-2.5,3.5c-2.1,4.1-3.4,8.7-6.1,12.3
		c-5.3,6.9-10.9,8.4-17.9,1.2c-5.4-5.6-7-12.9-8.4-20.1c-0.7-3.6-1.2-7.2-1.3-10.9c-0.6-12.4,0.5-24.6,5.6-36.1
		c1.8-4.2,4.2-8,8.5-10.4c4.3-2.4,6.7-2.6,10.6,0.3c1.5,1.1,2.9,2.5,4.6,3.9c-0.6,0.3-0.9,0.6-1.3,0.7c-6.3,1-9.2,5.6-11.2,11
		c-3.7,10.2-3.3,20.6,0,30.8c0.9,2.9,2.8,5.7,4.9,8c3.8,4.1,9.9,3.4,13.5-1c4-5,5.7-10.9,6-17.1c0.3-5.1,0-10.3-0.1-15.6
		c1.6-0.2,2-1.8,2.6-3.6c2-6.2,4.8-11.9,10.2-16c2.6-2,7.9-2.9,10.7-0.4c1.4,1.3,2.9,2.4,4.6,3.7c-9.7,2.7-12.4,10.3-13.7,18.6
		c-0.5,3.4-1.3,7-0.9,10.4c0.8,6.1,1.5,12.2,4.8,17.7c0.7,1.1,1.5,2.1,2.4,3c3.3,3.5,8.6,5.2,13.8-0.3c0.2-0.2,0.4-0.3,0.6-0.5
		C284.9,89.8,285.1,89.8,285.2,89.9z"/>
	<path class="st0" d="M47.3,267.9c-1.6,0.8-3.3,0.7-5-0.3c-3.4-1.9-4.8-4.9-5.1-8.7c-0.1-1.9,0-3.9-0.1-5.8
		c-0.2-3.6-1.7-5.3-4.6-5.3c-3.4,0-5.1,1.8-5.2,5.4c-0.1,1.8,0.1,3.6,0,5.4c-0.1,1.6-0.3,3.2-0.4,4.8c-0.2,0-0.5,0.1-0.7,0.1
		c-0.4-0.7-1-1.4-1.3-2.2c-1.7-4.2-1.4-8.5-0.8-12.9c1.1-7.8,5.2-14.3,10.2-19.9c2.6-3,6.7-4.7,10.2-6.9c2.6-1.6,5.4-2.2,8.4-2.1
		c4.6,0.2,9.4-0.2,13.8,0.9c6.3,1.6,11.1,5.8,14.3,11.5c1,1.8,1.2,4,1.9,5.9c0.5,1.5,1.3,2.9,1.9,4.3c0.2,0.5,0.3,1.1,0.3,1.7
		c0.1,1.5-0.1,3,0.1,4.5c0.7,4.7-2.1,7.5-5.2,10.2c-2.2,1.9-6.3,0.1-6.8-2.9c-0.3-1.8-0.5-3.8,0.1-5.5c1.2-3.8-3.3-7.5-6.9-5.7
		c-1.2,0.6-2.4,1.9-2.8,3.2c-1.3,4.3-1.3,8.7,0,12.9c0.5,1.7,2,3,3.3,4.4c2,2.3,1.9,2.7-1,3.5c-3.3,0.9-6.6,1.1-8.7-2.1
		c-1.1-1.7-1.8-3.9-2-6c-0.3-2.9-0.1-5.9,0.1-8.8c0.3-4.5-2-6.6-6.4-5.6c-2.2,0.5-3.2,2.1-3.2,4c-0.1,5.2,0,10.4,0.2,15.7
		C46.1,266.3,46.8,267,47.3,267.9z"/>
	<path class="st0" d="M378.6,169.8c5.4-10.2,14.8-10.7,23.3-6.4c3.6,1.8,6.1,5.6,9.1,8.5c2.2,2.1,4.2,4.4,5,7.5
		c2.5,9.4,3.2,18.7-2.6,27.3c-3.2,4.7-6.7,9.3-11.8,12.2c-4,2.2-8.3,3-12.8,2.4c-5.4-0.8-10.4-2.7-14.1-6.8
		c-1.5-1.6-3.2-3.8-1.9-6.2c1.3-2.3,3.4-4.1,6.4-4c1.5,0,3,0,4.5,0.1c0.6,0,1.2,0.3,1.7,0.6c1.7,1.2,6.5,1.2,8.2,0
		c2.5-1.9,2-6.7-0.9-7.8c-5-2-10.3-3.1-15.7-2.4c-1.6,0.2-2.3-0.2-3.2-1.7c-2.2-3.4-1.4-6.3,0.2-9.4c1.2-2.3,4.3-4.1,6.9-3.8
		c4.2,0.4,8.1,1.4,11.6,4c2.6,1.9,5.6,1.2,7.3-1.2c1.4-2,0.5-5.5-2.3-6.7c-4.1-1.9-8.5-3.3-12.8-4.8
		C382.6,170.5,380.6,170.3,378.6,169.8z"/>
	<path class="st1" d="M390.9,125.6c-2.7,1.7-5.2,2-7.5,1.3c-1.3-0.4-2.6-1.7-3.2-2.9c-2.7-5.8-5.1-11.7-3.9-18.3
		c1.5-8.4,3.2-16.9,7.6-24.4c2.1-3.6,5-6.6,8.6-8.5c4.4-2.2,9.1-1.3,10.7,3.6c-4.1,0.2-6.3,2.9-8.1,6.2c-0.2,0.4-0.4,0.7-0.7,1.1
		c-1,1.5-2.4,2.9-3.1,4.5c-2.3,5.2-3.9,10.6-4.6,16.4c-0.7,5.9,0.1,11.5,0.4,17.3C387.3,123.9,387.9,125.6,390.9,125.6z"/>
	<path class="st2" d="M368.2,309.8c-17.2,19-36.7,35-59.5,46.9c-0.2-0.2-0.4-0.4-0.6-0.6c0.8-1.1,1.6-2.4,2.6-3.3
		c6.3-5.9,12.4-12.1,19.1-17.5c8.1-6.6,16.7-12.8,25.2-18.9c4-2.8,8.4-5,12.7-7.4C367.8,309.3,368,309.5,368.2,309.8z"/>
	<path class="st2" d="M396.7,151.2c1-4.6,1.8-8.5,2.7-12.5c0.4-2,0.9-4,1.3-6.1c0.4-1.9,1.1-2.1,2.7-1.1c2.5,1.6,5.1,3.2,7.6,4.7
		c1.1,0.6,1.4,1.1,1,2.5c-1.3,4.8-2.3,9.6-3.4,14.4c-0.4,1.6-1,2.2-2.7,1.6c-2.7-0.9-5.5-1.6-8.2-2.4
		C397.2,152.1,396.9,151.4,396.7,151.2z"/>
	<path class="st1" d="M473.7,130.2c2.2-9,4.5-18.1,6.7-27.2c4.2,1.5,8.2,10.5,6.7,15.4C484.6,126.3,478.3,131.8,473.7,130.2z"/>
	<path class="st2" d="M370.7,83.6c-1.5,7-3,13.9-4.6,20.8c-2.5-1.5-4.1-7.3-3.1-11.2C364.2,88.4,367.9,83.8,370.7,83.6z"/>
	<path d="M212.1,155c1.3,0.3,2.2,0.6,3,0.6c2.1,0,4.2,0,6.2-0.2c4.7-0.6,9.2-0.4,13.6,1.6c2.9,1.2,6,2,9,2.6
		c1.3,0.3,2.9-0.4,4.3-0.8c1-0.2,1.9-0.6,2.8-1.1c5.6-2.6,11.3-3.3,17.2-0.9c1.6,0.6,3.4,0.6,5.1,0.8c2.4,0.3,3.9-1.4,5.8-2.9
		c-0.7-0.3-1.4-0.4-1.7-0.8c-1.1-1.2-2.6-2.4-2.9-3.9c-0.4-1.8,0.7-3.7,2.5-4.6c3.8-1.9,7.6-0.8,11.1,1c3,1.5,5.9,3.3,6.7,7
		c0.9,4.5-1.2,6.8-5.8,5.8c-1.3-0.3-2,0.1-2.7,1c-2.1,2.9-4.6,5.3-8.2,6.6c-2.4,0.9-4.6,0.9-7,0.2c-2.1-0.6-4.4-0.6-6.6-0.9
		c-0.6-0.1-1.3-0.3-1.8-0.7c-1.8-1.3-4.3-1.3-5.8,0.3c-1.3,1.4-2.8,2.2-4.6,2.3c-0.4,0-0.9,0-1.3,0.3c-4.6,3-9.3,1.1-13.9,0
		c-1.3-0.3-2.6-0.7-3.9-1.2c-0.7-0.3-1.2-1.1-1.9-1.5c-0.7-0.4-1.5-0.8-2.3-0.8c-4.1-0.1-8.2-0.3-12.2,0.1c-4.9,0.5-8.7-1-11.9-4.5
		c-1-1.1-2-1.4-3.4-1.2c-2.6,0.4-5.3,0.8-6.7-2.2c-1.3-2.8-0.1-5.1,1.8-7.2c3.8-4.5,8.9-5.1,14.2-4.5c2.8,0.3,4,4.1,2.4,7.2
		C213.2,153.3,212.8,153.9,212.1,155z"/>
	<path d="M236.9,224.8c5.9,0,11.7,0,17.6,0c3.4,0,4.7,1.4,4.7,4.8c0,2.4-1.1,3.7-4,4.2c-3,0.5-6,0.7-9,0.8
		c-8.7,0.3-17.5,0.5-26.2,0.6c-1.3,0-2.7-0.1-4-0.4c-2-0.5-3.5-2.2-3.6-4.3c-0.1-1.7,1.2-3.9,3.1-4.4c1.4-0.4,2.9-0.7,4.4-0.7
		c5.7-0.1,11.3,0,17,0C236.9,225.2,236.9,225,236.9,224.8z"/>
	<path d="M293,194.1c0,1.3-0.1,2.6,0,3.9c0.2,2.1-0.6,3.5-2.3,4.7c-2.9,2.1-6.8,0.9-7.2-2.7c-0.4-4-0.2-8,0.1-12
		c0.1-2,2.5-3.3,5-3.1c2.4,0.1,4.1,1.6,4.3,3.7C293,190.3,292.9,192.2,293,194.1C292.9,194.1,292.9,194.1,293,194.1z"/>
	<path d="M192.1,201.8c0-1.6,0-3.1,0-4.7c0.1-2.1,1.5-3.8,3.3-4.3c2.1-0.5,4.3,0.3,5.2,2.2c0.6,1.3,1.2,2.7,1.2,4.1
		c-0.1,3.2-0.6,6.5-1,9.7c-0.3,2.6-2.3,2.8-4.3,2.8c-2.3,0-3.7-1.1-4.1-3.2c-0.2-1.1-0.2-2.3-0.3-3.4
		C192.1,203.9,192.1,202.9,192.1,201.8z"/>
	<path d="M187.2,259.5c-0.1,1.9-0.1,3.7-0.3,5.6c-0.2,2.4-2.1,3.9-4.5,3.9c-2.7,0-4.4-1.4-4.6-3.9c-0.2-3.6-0.3-7.3-0.3-10.9
		c0-2.2,2-3.9,4.7-4.1c2.1-0.2,4.5,1.4,4.7,3.5c0.2,2,0,4,0,6C187,259.5,187.1,259.5,187.2,259.5z"/>
	<path d="M177.1,197.7c0,1.9,0.2,3.7-0.1,5.6c-0.6,3.7-4.3,5.2-7.3,3c-0.8-0.6-1.6-1.8-1.6-2.8c-0.2-3.9-0.3-7.9-0.1-11.8
		c0.1-2.3,2-3.7,4.4-3.8c2.1-0.1,4.2,1.6,4.5,4c0.3,1.9,0.2,3.8,0.3,5.8C177.3,197.7,177.2,197.7,177.1,197.7z"/>
	<path d="M268.5,256.8c0-1.6,0-3.3,0-4.9c0.1-2.5,1.7-4,4.2-4.2c3-0.2,4.7,0.8,4.9,3.5c0.2,3.9,0.2,7.8,0,11.8
		c-0.1,2.5-2,3.7-4.7,3.6c-2.4-0.1-4.1-1.5-4.3-3.9C268.5,260.6,268.6,258.7,268.5,256.8C268.6,256.8,268.6,256.8,268.5,256.8z"/>
	<path d="M145.6,191.7c0-1.7,0-3.4,0-5.1c0-2.1,0.8-3.8,2.9-4.5c2.3-0.8,4.4,0.1,5.6,2.3c0.6,1.1,0.9,2.4,0.9,3.7
		c0,2.9-0.2,5.9-0.4,8.8c-0.2,2.6-2.1,4.1-4.9,4c-2.7-0.1-4.1-1.6-4.1-4.4C145.6,194.8,145.6,193.3,145.6,191.7
		C145.6,191.7,145.6,191.7,145.6,191.7z"/>
	<path d="M159.4,256c0,1.8,0.1,3.6,0,5.3c-0.2,2.4-1.5,3.4-4,3.6c-2.6,0.2-4.4-0.7-4.6-3c-0.4-4.1-0.4-8.2-0.4-12.4
		c0-1.7,2.5-3.3,4.3-3.6c2.4-0.4,3.6,1,4.3,3c0.4,1.1,0.4,2.4,0.5,3.6C159.5,253.7,159.5,254.9,159.4,256
		C159.4,256,159.4,256,159.4,256z"/>
	<path d="M164,124.9c0,1.6,0,3.1,0,4.7c-0.1,2.7-1.7,4.4-4.3,4.5c-2.8,0.1-4.5-1.2-4.7-4.1c-0.2-3.5-0.1-7,0-10.5
		c0.1-2.3,2.2-3.9,4.6-3.9c2.2,0,4.4,2.1,4.4,4.3C164.1,121.6,164.1,123.2,164,124.9C164.1,124.9,164.1,124.9,164,124.9z"/>
	<path d="M181.5,430.2c0-1.6,0.1-3.3,0-4.9c-0.1-3,0.8-4.3,3.7-4.8c2.4-0.4,4.9,1,5.5,3.3c0.3,1.2,0.5,2.4,0.4,3.6
		c0,3.2-0.2,6.4-0.4,9.6c-0.1,2-1.3,3.2-3.2,3.8c-2,0.6-3.7,0-5.2-1.2c-0.5-0.4-0.7-1.2-0.7-1.9c-0.1-2.5,0-5,0-7.5
		C181.6,430.2,181.5,430.2,181.5,430.2z"/>
	<path d="M311.6,424.9c0-1.9,0-3.9,0-5.8c0-2,0.9-3.6,2.7-4.3c2-0.7,4-0.2,5.6,1.3c0.5,0.4,0.8,1.2,0.8,1.9
		c0.2,4.1,0.4,8.3,0.3,12.4c-0.1,3.7-2.8,5.4-6.4,4.5c-2.1-0.5-2.9-2-3-3.9C311.5,429,311.6,426.9,311.6,424.9z"/>
	<path d="M149.4,423.4c0-1.9,0-3.9,0-5.8c0-1.7,0.7-3,2.1-3.9c2.9-1.9,7.1,0.1,7.3,3.6c0.2,4,0.1,8,0,12c-0.1,2.7-2.3,4.3-5.4,4.3
		c-2.4,0-4-1.7-4-4.3C149.3,427.3,149.3,425.3,149.4,423.4C149.4,423.4,149.4,423.4,149.4,423.4z"/>
	<path d="M186.3,515.5c0,1.7,0,3.4,0,5.1c0.1,3-1.4,4.7-4.1,4.9c-3.1,0.2-5.4-1.4-5.6-4.3c-0.2-4.1-0.2-8.1,0-12.2
		c0.2-3,2.1-4.3,5.4-4.1c3,0.2,4.2,1.5,4.2,4.7C186.3,511.6,186.3,513.5,186.3,515.5C186.3,515.5,186.3,515.5,186.3,515.5z"/>
	<path d="M348.4,516.6c0,1.8,0.1,3.6,0,5.4c-0.2,3.2-2.2,5.3-4.8,5.2c-2.5-0.1-5-2.7-4.9-5.5c0.1-4,0.2-7.9,0.6-11.9
		c0.2-2.1,2.3-3.5,4.5-3.5c2.3,0.1,4,1.5,4.4,3.6c0.2,1.1,0.2,2.3,0.2,3.4C348.5,514.4,348.4,515.5,348.4,516.6z"/>
	<path d="M302.3,523.5c0-1.9-0.1-3.9,0-5.8c0.1-2.9,1.6-4.3,4.5-4.3c2.9-0.1,4.7,1.5,4.8,4.3c0.1,3.8,0.2,7.6,0.1,11.4
		c-0.1,2.9-2.4,5.2-5,5c-2.7-0.1-4.4-2.2-4.4-5.2C302.2,527.1,302.2,525.3,302.3,523.5C302.2,523.5,302.3,523.5,302.3,523.5z"/>
	<path d="M218.2,522.1c-0.1,2.3-0.1,4.6-0.3,6.9c-0.3,2.6-1.6,3.8-3.7,3.9c-3.1,0.2-4.6-0.4-4.9-3.5c-0.4-4.5-0.4-9-0.1-13.5
		c0.3-3,2.1-3.9,5-3.6c2.4,0.3,3.5,1.5,3.7,4.4c0.1,1.8,0,3.6,0,5.4C218,522.1,218.1,522.1,218.2,522.1z"/>
	<path d="M267.7,525.1c0-1.8,0-3.6,0-5.4c0.1-3.1,1.4-4.4,4.2-4.5c3.1-0.1,4.5,1.1,4.6,4.3c0.1,3.6,0.2,7.3,0.1,10.9
		c-0.1,1.4-0.5,3.1-1.3,4.1c-1.1,1.4-2.9,1.9-4.7,1.2c-1.8-0.7-2.8-2.2-2.9-4.1C267.7,529.4,267.7,527.3,267.7,525.1
		C267.7,525.1,267.7,525.1,267.7,525.1z"/>
</g>
</svg>
