<?xml version="1.0" encoding="utf-8"?>
<!-- Generator: Adobe Illustrator 27.4.0, SVG Export Plug-In . SVG Version: 6.00 Build 0)  -->
<svg version="1.1" id="Layer_1" xmlns="http://www.w3.org/2000/svg" xmlns:xlink="http://www.w3.org/1999/xlink" x="0px" y="0px"
	 viewBox="0 0 612 196" style="enable-background:new 0 0 612 196;" xml:space="preserve">
<style type="text/css">
	.st0{fill:#232323;}
	.st1{fill:#EBE8DA;}
</style>
<g>
	<g>
		<g>
			<path class="st0" d="M199.3,66.2h19.5l19.1,47l18.9-47h19.4v67.9h-16.5V93.4l-15.2,40.7h-13.4l-15.3-40.8v40.8h-16.5V66.2z"/>
			<path class="st0" d="M312.7,134.9c-15.9,0-27.9-10.6-27.9-27.8c0-17.1,12.3-27.8,28.1-27.8c15.9,0,28.1,10.6,28.1,27.8
				C340.9,124.2,328.5,134.9,312.7,134.9z M312.7,120.6c5.9,0,11.4-4.4,11.4-13.4c0-9.2-5.4-13.4-11.2-13.4c-6,0-11.2,4.3-11.2,13.4
				C301.6,116.2,306.7,120.6,312.7,120.6z"/>
			<path class="st0" d="M387,104.8c0-7.4-4.1-11.4-10.4-11.4c-6.3,0-10.4,4.1-10.4,11.4v29.3h-16.5v-54h16.5v7.2
				c3.3-4.5,9.1-7.7,16.4-7.7c12.5,0,20.8,8.5,20.8,23v31.5H387V104.8z"/>
			<path class="st0" d="M438.9,134.9c-15.9,0-27.3-10.6-27.3-27.8c0-17.1,11.2-27.8,27.3-27.8c15.8,0,26.9,10.4,26.9,26.9
				c0,1.5-0.1,3.2-0.3,4.8h-37.4c0.6,7.1,4.9,10.4,10.3,10.4c4.6,0,7.3-2.3,8.6-5.2h17.6C461.9,126.8,452.4,134.9,438.9,134.9z
				 M428.2,101.9h20.7c0-5.9-4.6-9.3-10.2-9.3C433.3,92.6,429.1,95.9,428.2,101.9z"/>
			<path class="st0" d="M476.2,93.9h-6V80.1h6v-1.5c0-14.1,8.7-21.1,25.2-20.2v14c-6.4-0.4-8.6,1.5-8.6,7.3v0.5h8.9v13.7h-8.9v40.2
				h-16.5V93.9z"/>
			<path class="st0" d="M507.8,65.6c0-5,4-9,9.9-9c5.8,0,9.8,4,9.8,9c0,4.9-4,8.9-9.8,8.9C511.8,74.5,507.8,70.5,507.8,65.6z
				 M509.4,80.1h16.5v54h-16.5V80.1z"/>
			<path class="st0" d="M575.1,104.8c0-7.4-4.1-11.4-10.4-11.4c-6.3,0-10.4,4.1-10.4,11.4v29.3h-16.5v-54h16.5v7.2
				c3.3-4.5,9.1-7.7,16.4-7.7c12.5,0,20.8,8.5,20.8,23v31.5h-16.4V104.8z"/>
		</g>
	</g>
	<g>
		<path class="st1" d="M46.3,123.6c-0.6,1.1-1.8,3-3.4,2.7c-0.8-0.2-1.3-0.7-1.6-1.2c-0.5-0.9-0.7-2-0.4-2.9
			c0.2-0.7-0.2-1.4-0.9-1.7c-0.7-0.2-1.4,0.2-1.7,0.9c-0.5,1.6-0.2,3.5,0.7,5c0.5,0.8,1.1,1.4,1.9,1.9c-0.4,0.8-1.2,1.7-2.9,1.7
			c0,0,0,0,0,0c0,0,0,0-0.1,0c-1.4,0.1-2.3-0.3-3-1c-1.4-1.8-0.8-5.6-0.5-7c0.2-0.7-0.2-1.4-0.9-1.6c-0.7-0.2-1.4,0.2-1.6,0.9
			c-0.2,0.6-1.4,5.4,0.5,8.6c-1.7,0-3-0.3-3.8-1.1c-1.3-1.2-1.6-3.3-1-6.6c0.1-0.7-0.3-1.4-1.1-1.5c-0.7-0.1-1.4,0.3-1.6,1.1
			c-0.4,1.9-0.7,4.5,0.2,6.7c-1-0.4-1.7-1.1-2-2.3c-1.5-5,1.6-12.2,6.3-14.7c3.8-2.1,8.6-1.9,12,0.3
			C44.7,113.8,48.1,120.1,46.3,123.6z"/>
		<path class="st1" d="M175.2,124.9c-0.8,0.8-1.8,1.2-3.1,1.4c1.6-1.6,2.5-3.9,2.7-6.5c0-0.7-0.5-1.4-1.2-1.4
			c-0.7-0.1-1.4,0.5-1.4,1.2c-0.2,2.5-1.4,4.7-3.2,5.8c-1.1,0.7-2.4,0.9-3.8,0.6c0.1-0.1,0.3-0.3,0.4-0.4c2.8-2.9,2.5-8.3,2.5-8.5
			c0-0.7-0.6-1.3-1.3-1.3c0,0-0.1,0-0.1,0c-0.7,0-1.3,0.7-1.3,1.4c0.1,1.2-0.1,4.8-1.8,6.5c-0.6,0.6-1.4,1-2.5,0.9c0,0,0,0,0,0
			c-1.7,0-2.6-0.9-3.1-1.8c0.7-0.2,1.3-0.6,1.6-1c1.9-2,1.4-5.6,1.3-6c-0.1-0.7-0.8-1.2-1.5-1.1c-0.7,0.1-1.2,0.8-1.1,1.5
			c0.1,0.7,0.2,2.9-0.6,3.7c-0.2,0.2-0.6,0.4-1.4,0.4c0,0,0,0-0.1,0c-1.3-0.2-2.3-0.8-2.9-1.7c-1-1.7-0.7-4.4,0.6-7.5
			c2.9-6.5,9.2-6.4,12.7-5.7c5.4,1,10,6,10.2,11C177.3,120.6,176.7,123.4,175.2,124.9z"/>
		<path class="st1" d="M126.5,46.9c-1.5-0.2-3-0.5-4.6-0.7c-0.1,3.6-0.7,12.4-5.5,17.1c-2,1.9-4.4,2.9-7.2,2.9H109
			c-4.3-0.1-7.1-3.3-8.8-6.2c-2,3.4-5.4,6.6-10.4,5.7C82.3,64.4,79,54.7,79,45c-0.9,0.1-1.9,0.2-2.8,0.4
			c-11.1,1.7-14.6,4.1-14.9,5.2c-0.1,0.4-0.1,0.7,0.2,1c1.5,2,7.8,3.2,11.8,3.4c1.1,0.1,1.9,1,1.9,2.1c-0.1,1.1-1,2-2.1,1.9
			c-1.5-0.1-7.7-0.5-11.9-2.6v20c0.9,0.9,2.6,2.5,4.3,2.6c1.1,0.1,1.9,1,1.8,2.1c-0.1,1-0.9,1.8-2,1.8c-0.1,0-0.1,0-0.1,0
			c-2.9-0.2-5.3-2.2-6.6-3.5c-0.8,0.4-1.9,1.5-2,4c-0.2,4.7-0.1,16.2,0,19.9c2.8,1.4,11.7,5,23.9,4.3c1.1-0.1,2,0.8,2.1,1.9
			s-0.8,2-1.9,2.1c-1.2,0.1-2.4,0.1-3.6,0.1c-6.5,0-11.9-1.1-16-2.3v18.3c0.4,0.9,4.8,7.5,36.4,8.1c30.7,0.6,42.4-4.8,45.2-6.5
			v-20.8c-0.5-0.3-1.8-0.8-4.3-0.7c-3,1.6-8.6,3.4-18.9,3.9h-0.1c-1.1,0-1.9-0.8-2-1.9c-0.1-1.1,0.8-2,1.9-2.1
			c9.1-0.4,14-1.9,16.5-3.1c0.3-0.4,0.8-0.7,1.4-0.8c0.3-0.2,0.5-0.4,0.7-0.5V82.6c-0.9,0.1-1.8,0.2-2.8,0.2c-1.1,0-2-0.9-2-2
			s0.9-2,2-2c4.1,0,6.5-1.5,7.5-2.2V57c-4.1,1.7-10.1,1.9-12.6,1.9c-0.6,0-0.9,0-1.1,0c-1.1,0-2-0.9-1.9-2c0-1.1,0.9-2,2-1.9
			c4.1,0.1,11.5-0.4,13.6-2.5c0.1-0.1,0.2-0.3,0.3-0.4c0,0,0-0.1,0-0.1c0-0.1,0-0.2,0.1-0.2C142.9,51.5,140.9,49.2,126.5,46.9z
			 M68.6,69.5c0,1.1-0.9,2-2,2c-1.1,0-2-0.9-2-2v-5c0-1.1,0.9-2,2-2c1.1,0,2,0.9,2,2V69.5z M76.9,98.3c0,1.1-0.9,2-2,2
			c-1.1,0-2-0.9-2-2v-5c0-1.1,0.9-2,2-2c1.1,0,2,0.9,2,2V98.3z M80.5,122.1c0,1.1-0.9,2-2,2c-1.1,0-2-0.9-2-2v-5c0-1.1,0.9-2,2-2
			c1.1,0,2,0.9,2,2V122.1z M127.8,117.1c0-1.1,0.9-2,2-2c1.1,0,2,0.9,2,2v5c0,1.1-0.9,2-2,2c-1.1,0-2-0.9-2-2V117.1z M134.1,65.5
			c0-1.1,0.9-2,2-2c1.1,0,2,0.9,2,2v5c0,1.1-0.9,2-2,2c-1.1,0-2-0.9-2-2V65.5z M87.4,100.3c0,1.1-0.9,2-2,2c-1.1,0-2-0.9-2-2v-5
			c0-1.1,0.9-2,2-2c1.1,0,2,0.9,2,2V100.3z M92.2,124.2c0,1.1-0.9,2-2,2c-1.1,0-2-0.9-2-2v-5c0-1.1,0.9-2,2-2c1.1,0,2,0.9,2,2V124.2
			z M112.6,111.6c-3.8,0.8-7.2,1-10,1c-5.6,0-8.9-1-9.2-1.1c-1-0.3-1.6-1.4-1.3-2.5c0.3-1,1.4-1.6,2.5-1.3c0.1,0,6.9,2,17.2-0.1
			c1.1-0.2,2.1,0.5,2.3,1.5C114.3,110.3,113.6,111.3,112.6,111.6z M117.7,100.3c0,1.1-0.9,2-2,2c-1.1,0-2-0.9-2-2v-5
			c0-1.1,0.9-2,2-2c1.1,0,2,0.9,2,2V100.3z M122.5,79.2c-0.3,0.2-0.6,0.2-1,0.2c-0.7,0-1.4-0.4-1.7-1c0,0,0,0,0,0
			c-0.5,0.7-1.4,1.7-2.7,2.8c-2.6,2-5.5,0.8-7.2,0.1c-0.3-0.1-0.7-0.3-1-0.4c-0.3,0.1-0.9,0.4-1.4,0.6c-1.7,0.7-4,1.8-6.4,1.8
			c-1,0-2-0.2-2.9-0.7c-3-1.5-3.7-1.7-7.7-1.2c-4.2,0.5-6-1.4-6.9-2.4c-0.1-0.1-0.2-0.2-0.3-0.3c-0.2-0.1-0.4-0.3-0.6-0.5
			c0,0.1,0,0.1,0,0.1c-0.1,1.1-0.9,1.9-2,1.9c0,0-0.1,0-0.1,0c-1.1-0.1-1.9-1-1.9-2.1c0-0.3,0.2-2.8,2.2-4.3
			c0.9-0.7,2.5-1.5,4.9-1.1c1.1,0.2,1.8,1.2,1.7,2.3c-0.1,0.6-0.5,1.1-0.9,1.4c0.7,0.7,1.3,1.3,3.5,1.1c4.6-0.5,6.2-0.3,9.9,1.6
			c1.5,0.7,4.1-0.4,5.9-1.2c1.2-0.5,2.1-0.9,3-0.9c0.8,0,1.7,0.3,2.5,0.7c1.7,0.7,2.5,0.9,3.2,0.4c0.7-0.6,1.2-1.1,1.5-1.4
			c-0.2-0.1-0.4-0.1-0.6-0.1c-1.1-0.2-1.8-1.2-1.6-2.3c0.2-1.1,1.2-1.8,2.3-1.6c0.9,0.2,5.6,1.1,7.1,3.9
			C123.8,77.5,123.4,78.7,122.5,79.2z M127.3,92.8v5c0,1.1-0.9,2-2,2c-1.1,0-2-0.9-2-2v-5c0-1.1,0.9-2,2-2
			C126.4,90.8,127.3,91.7,127.3,92.8z"/>
		<path class="st0" d="M179.7,116.4c-0.3-6.3-5.8-12.2-12.4-13.5c-0.3-0.1-0.7-0.1-1-0.2l0,0c-4.8-13.2-19.6-17.9-24.3-19.1v-2.1
			c2.7-1.1,4.1-2.6,4.2-2.7c0.3-0.4,0.5-0.8,0.5-1.3V53.4c0.2-0.5,0.3-1.1,0.3-1.6c0-3.8-5.5-6.3-18.8-8.5c-2.1-0.3-4.2-0.7-6.4-0.9
			c0,1.6,0,3,0,3.9c0,0,0,0,0,0.1c1.5,0.2,3.1,0.4,4.6,0.7c14.5,2.3,16.4,4.5,16.7,4.9c0,0.1,0,0.1-0.1,0.2c0,0,0,0.1,0,0.1
			c-0.1,0.1-0.1,0.2-0.3,0.4c-2.1,2-9.4,2.6-13.6,2.5c-1.1,0-2,0.8-2,1.9c0,1.1,0.8,2,1.9,2c0.2,0,0.6,0,1.1,0
			c2.6,0,8.6-0.2,12.6-1.9v19.6c-1,0.8-3.5,2.2-7.5,2.2c-1.1,0-2,0.9-2,2s0.9,2,2,2c1,0,1.9-0.1,2.8-0.2v20.6
			c-0.2,0.1-0.4,0.3-0.7,0.5c-0.4,0.2-0.8,0.5-1.4,0.8c-2.5,1.2-7.4,2.6-16.5,3.1c-1.1,0.1-1.9,1-1.9,2.1c0.1,1.1,0.9,1.9,2,1.9h0.1
			c10.3-0.5,15.9-2.3,18.9-3.9c2.5-0.1,3.7,0.4,4.3,0.7v20.8c-2.8,1.7-14.5,7.1-45.2,6.5c-31.6-0.6-35.9-7.2-36.4-8.1v-18.3
			c4,1.2,9.4,2.3,16,2.3c1.2,0,2.3,0,3.6-0.1c1.1-0.1,1.9-1,1.9-2.1s-1-1.9-2.1-1.9c-12.2,0.7-21.1-2.9-23.9-4.3
			c-0.1-3.7-0.2-15.3,0-19.9c0.1-2.5,1.2-3.6,2-4c1.3,1.3,3.7,3.3,6.6,3.5c0,0,0.1,0,0.1,0c1,0,1.9-0.8,2-1.8c0.1-1.1-0.7-2-1.8-2.1
			c-1.7-0.1-3.4-1.6-4.3-2.6v-20c4.2,2.2,10.4,2.6,11.9,2.6c1.1,0.1,2-0.8,2.1-1.9c0.1-1.1-0.8-2-1.9-2.1c-4-0.2-10.4-1.4-11.8-3.4
			c-0.2-0.3-0.3-0.6-0.2-1c0.3-1,3.8-3.5,14.9-5.2c0.9-0.1,1.8-0.3,2.8-0.4c0-0.6,0-1.2,0-1.7c0-0.8,0.1-1.5,0.2-2.3
			c-1.2,0.1-2.4,0.3-3.6,0.5C59,44,57.8,48.2,57.5,49.5c-0.2,0.9-0.3,1.8,0,2.7c-0.1,0.2-0.2,0.5-0.2,0.8v22.6
			c-2.1,0.9-4.5,3.1-4.6,7.6c-0.1,1.3-0.1,3-0.1,4.9c-6,1.4-15.4,8.5-17.6,19.4c-2.2,0.1-4.5,0.7-6.5,1.8
			c-5.8,3.1-9.4,11.6-7.6,17.8c0.8,2.7,3,4.4,5.9,4.4c0.1,0,0.2,0,0.3,0c0.2,0,0.4-0.1,0.5-0.1c1.3,0.9,2.9,1.3,5,1.3
			c0.9,0,1.9-0.1,3-0.3c0.6,0.2,1.4,0.3,2.2,0.3c0.1,0,0.2,0,0.4,0c3.2,0,4.9-2,5.5-3.7c2-0.2,3.7-1.6,5-4.2
			c2.5-5-1.7-12.6-5.5-15.1c-0.5-0.4-1.1-0.7-1.7-0.9c1.5-7.4,7.5-12.2,11-13.7c0,4.9,0.1,9.2,0.1,9.5c0,0.7,0.4,1.3,1,1.7
			c0.1,0.1,1.4,0.8,3.7,1.7v20c0,0.1,0,0.2,0,0.2c0.2,1.5,2.2,7.9,23.6,10.5c-0.1,4.6,0.3,8.5,1.1,11.8c-2.8,1.4-3.5,4-3.5,4
			s4.3,1.7,6.9,3.9c0.7,0.6,1.2,1.1,1.5,1.7c0.4,0.8,0.4,1.6-0.2,2.3c-3,3.3-3,1.2-6.8-2.4c-3.5-2-8-3-12.4-2.7
			c-4.5,0.3-8.7,2.1-11.5,5.5c-5.5,6.9-1.5,11.9-1.5,11.9h46.1c0,0,0.1,0,1.2,0h43c0,0,4.8-5-5.2-14.6c-6.9-5.5-18.1-1.4-18.1-1.4
			s-3.1,1-4.8,3.1c-1.7,2.1-6.1,2.3-3.5-2.2c2.6-3.8,5.5-4.8,5.5-4.8s1.7-2.8-1.6-4.3c0.9-4.7,0.3-9.6,0-11.4
			c22-1.7,28.8-7.1,29.1-7.3c0.5-0.4,0.7-0.9,0.7-1.5v-22.7c0-0.3-0.1-0.7-0.3-1c-0.2-0.4-1.3-1.9-4.5-2.6c0,0,0,0,0,0V90.5
			c4.4,1.3,13.4,4.9,17.3,12.6c-3.4,1-6.1,3.4-7.6,7c-1.7,3.9-1.9,7.4-0.5,9.9c0.8,1.5,2.2,2.5,4,2.9c0.7,1.9,2.4,4.4,5.9,4.4h0.2
			c0.2,0,0.5,0,0.7,0c0.1,0.3,0.4,0.5,0.7,0.7c1.2,0.5,2.4,0.8,3.6,0.8c1.2,0,2.4-0.3,3.4-0.8c0.2,0.5,0.6,0.9,1.2,1
			c0.1,0,0.2,0,0.3,0c2.4,0,4.4-0.7,5.8-2.2C179.1,124.6,180,121.3,179.7,116.4z M41.7,111.9c3,2,6.3,8.2,4.6,11.7
			c-0.6,1.1-1.8,3-3.4,2.7c-0.8-0.2-1.3-0.7-1.6-1.2c-0.5-0.9-0.7-2-0.4-2.9c0.2-0.7-0.2-1.4-0.9-1.7c-0.7-0.2-1.4,0.2-1.7,0.9
			c-0.5,1.6-0.2,3.5,0.7,5c0.5,0.8,1.1,1.4,1.9,1.9c-0.4,0.8-1.2,1.7-2.9,1.7c0,0,0,0,0,0c0,0,0,0-0.1,0c-1.4,0.1-2.3-0.3-3-1
			c-1.4-1.8-0.8-5.6-0.5-7c0.2-0.7-0.2-1.4-0.9-1.6c-0.7-0.2-1.4,0.2-1.6,0.9c-0.2,0.6-1.4,5.4,0.5,8.6c-1.7,0-3-0.3-3.8-1.1
			c-1.3-1.2-1.6-3.3-1-6.6c0.1-0.7-0.3-1.4-1.1-1.5c-0.7-0.1-1.4,0.3-1.6,1.1c-0.4,1.9-0.7,4.5,0.2,6.7c-1-0.4-1.7-1.1-2-2.3
			c-1.5-5,1.6-12.2,6.3-14.7C33.5,109.5,38.4,109.7,41.7,111.9z M110.4,149.6h-0.1c-3.1,1-4.8,1.9-4.8,1.9l-6.6,17.3
			c-1.8-5.7-4.7-14.2-7-18.5c-1.2-0.3-2.3-0.6-3.3-0.7c-0.7-2.4-1.1-5.8-1.1-10.4c3,0.2,6.4,0.4,10,0.4c1.6,0,3.1,0,4.6,0
			c3.5,0,6.7-0.1,9.7-0.2l-1.5,0.3C110.8,142.1,111.1,146.3,110.4,149.6z M175.2,124.9c-0.8,0.8-1.8,1.2-3.1,1.4
			c1.6-1.6,2.5-3.9,2.7-6.5c0-0.7-0.5-1.4-1.2-1.4c-0.7-0.1-1.4,0.5-1.4,1.2c-0.2,2.5-1.4,4.7-3.2,5.8c-1.1,0.7-2.4,0.9-3.8,0.6
			c0.1-0.1,0.3-0.3,0.4-0.4c2.8-2.9,2.5-8.3,2.5-8.5c0-0.7-0.6-1.3-1.3-1.3c0,0-0.1,0-0.1,0c-0.7,0-1.3,0.7-1.3,1.4
			c0.1,1.2-0.1,4.8-1.8,6.5c-0.6,0.6-1.4,1-2.5,0.9c0,0,0,0,0,0c-1.7,0-2.6-0.9-3.1-1.8c0.7-0.2,1.3-0.6,1.6-1c1.9-2,1.4-5.6,1.3-6
			c-0.1-0.7-0.8-1.2-1.5-1.1c-0.7,0.1-1.2,0.8-1.1,1.5c0.1,0.7,0.2,2.9-0.6,3.7c-0.2,0.2-0.6,0.4-1.4,0.4c0,0,0,0-0.1,0
			c-1.3-0.2-2.3-0.8-2.9-1.7c-1-1.7-0.7-4.4,0.6-7.5c2.9-6.5,9.2-6.4,12.7-5.7c5.4,1,10,6,10.2,11
			C177.3,120.6,176.7,123.4,175.2,124.9z"/>
		<path class="st0" d="M111.8,107.7c-10.2,2.1-17,0.1-17.2,0c-1-0.3-2.2,0.3-2.5,1.3c-0.3,1,0.3,2.2,1.3,2.5
			c0.2,0.1,3.6,1.1,9.1,1.1c2.8,0,6.2-0.3,10-1c1.1-0.2,1.8-1.3,1.5-2.3C113.9,108.1,112.8,107.4,111.8,107.7z"/>
		<path class="st0" d="M137.4,103.8c-0.4,0.2-0.8,0.5-1.4,0.8C136.3,104.1,136.8,103.8,137.4,103.8z"/>
		<path class="st0" d="M115.8,93.3c-1.1,0-2,0.9-2,2v5c0,1.1,0.9,2,2,2s2-0.9,2-2v-5C117.7,94.2,116.9,93.3,115.8,93.3z"/>
		<path class="st0" d="M90.2,117.2c-1.1,0-2,0.9-2,2v5c0,1.1,0.9,2,2,2s2-0.9,2-2v-5C92.2,118.1,91.3,117.2,90.2,117.2z"/>
		<path class="st0" d="M78.5,115.2c-1.1,0-2,0.9-2,2v5c0,1.1,0.9,2,2,2s2-0.9,2-2v-5C80.5,116,79.6,115.2,78.5,115.2z"/>
		<path class="st0" d="M85.4,93.3c-1.1,0-2,0.9-2,2v5c0,1.1,0.9,2,2,2s2-0.9,2-2v-5C87.4,94.2,86.5,93.3,85.4,93.3z"/>
		<path class="st0" d="M74.9,91.3c-1.1,0-2,0.9-2,2v5c0,1.1,0.9,2,2,2s2-0.9,2-2v-5C76.9,92.2,76,91.3,74.9,91.3z"/>
		<path class="st0" d="M125.3,90.8c-1.1,0-2,0.9-2,2v5c0,1.1,0.9,2,2,2s2-0.9,2-2v-5C127.3,91.7,126.4,90.8,125.3,90.8z"/>
		<path class="st0" d="M129.8,124.1c1.1,0,2-0.9,2-2v-5c0-1.1-0.9-2-2-2s-2,0.9-2,2v5C127.8,123.2,128.7,124.1,129.8,124.1z"/>
		<path class="st0" d="M136.1,72.5c1.1,0,2-0.9,2-2v-5c0-1.1-0.9-2-2-2s-2,0.9-2,2v5C134.1,71.6,135,72.5,136.1,72.5z"/>
		<path class="st0" d="M66.6,62.5c-1.1,0-2,0.9-2,2v5c0,1.1,0.9,2,2,2s2-0.9,2-2v-5C68.6,63.4,67.7,62.5,66.6,62.5z"/>
		<path class="st0" d="M122.5,79.2c-0.3,0.2-0.6,0.2-1,0.2c-0.7,0-1.4-0.4-1.7-1c0,0,0,0,0,0c-0.5,0.7-1.4,1.7-2.7,2.8
			c-2.6,2-5.5,0.8-7.2,0.1c-0.3-0.1-0.7-0.3-1-0.4c-0.3,0.1-0.9,0.4-1.4,0.6c-1.7,0.7-4,1.8-6.4,1.8c-1,0-2-0.2-2.9-0.7
			c-3-1.5-3.7-1.7-7.7-1.2c-4.2,0.5-6-1.4-6.9-2.4c-0.1-0.1-0.2-0.2-0.3-0.3c-0.2-0.1-0.4-0.3-0.6-0.5c0,0.1,0,0.1,0,0.1
			c-0.1,1.1-0.9,1.9-2,1.9c0,0-0.1,0-0.1,0c-1.1-0.1-1.9-1-1.9-2.1c0-0.3,0.2-2.8,2.2-4.3c0.9-0.7,2.5-1.5,4.9-1.1
			c1.1,0.2,1.8,1.2,1.7,2.3c-0.1,0.6-0.5,1.1-0.9,1.4c0.7,0.7,1.3,1.3,3.5,1.1c4.6-0.5,6.2-0.3,9.9,1.6c1.5,0.7,4.1-0.4,5.9-1.2
			c1.2-0.5,2.1-0.9,3-0.9c0.8,0,1.7,0.3,2.5,0.7c1.7,0.7,2.5,0.9,3.2,0.4c0.7-0.6,1.2-1.1,1.5-1.4c-0.2-0.1-0.4-0.1-0.6-0.1
			c-1.1-0.2-1.8-1.2-1.6-2.3c0.2-1.1,1.2-1.8,2.3-1.6c0.9,0.2,5.6,1.1,7.1,3.9C123.8,77.5,123.4,78.7,122.5,79.2z"/>
		<path class="st1" d="M117.7,49.9c-0.5,4.1-1.7,8.3-4,10.6c-1.2,1.2-2.7,1.8-4.4,1.8c0,0-0.1,0-0.1,0c-4.6-0.1-6.9-7.7-7-7.8
			c-0.2-0.9-1-1.4-1.9-1.4h0c-0.9,0-1.7,0.6-1.9,1.5c0,0.1-2.2,8.2-7.8,7.3c-5.2-0.9-7.7-9.2-7.6-17.3c0-0.4,0-0.8,0-1.1
			c0-0.9,0.1-1.9,0.2-2.9c0.9-7.4,3.9-14.7,9.4-15.3c1.2-0.1,2.5,1,3.7,2.7c-3.1,0.6-5.6,5.4-5.6,11.4c0,0.2,0,0.5,0,0.7
			c0,1.4,0.2,2.7,0.5,4c1,4,3.1,6.7,5.7,6.7c2.5,0,4.6-2.7,5.6-6.5c0.3-1.2,0.5-2.5,0.6-3.9c0-0.3,0-0.7,0-1c0-1.6-0.2-3.2-0.5-4.6
			c0.5-0.3,0.8-0.9,0.8-1.5c0.1-1.2,0.8-4.8,2.9-6.4c1.2-0.9,2.7-1.1,4.7-0.7c1.3,0.3,2.4,1,3.4,2.2c-3.2,0.4-5.8,5.3-5.8,11.4
			c0,0.3,0,0.7,0,1c0.1,1.4,0.3,2.8,0.6,4c1,3.8,3.1,6.4,5.6,6.4C115.8,51.2,116.8,50.8,117.7,49.9z"/>
		<path class="st0" d="M121.9,42.3c-0.2-6.9-1.6-18-10-19.9c-3.1-0.7-5.8-0.3-7.9,1.3c-1.4,1.1-2.4,2.5-3.1,3.9
			c-2-3.2-5-6.6-8.7-6.2C84.3,22.1,80,31.4,79.1,41c-0.1,0.8-0.1,1.5-0.2,2.3c0,0.6,0,1.2,0,1.7c0,9.7,3.3,19.4,10.9,20.8
			c5,0.9,8.4-2.3,10.4-5.7c1.7,2.9,4.5,6.1,8.8,6.2h0.2c2.8,0,5.2-1,7.2-2.9c4.8-4.7,5.5-13.5,5.5-17.1c0,0,0-0.1,0-0.1
			C121.9,45.2,121.9,43.8,121.9,42.3z M113.6,60.5c-1.2,1.2-2.7,1.8-4.4,1.8c0,0-0.1,0-0.1,0c-4.6-0.1-6.9-7.7-7-7.8
			c-0.2-0.9-1-1.4-1.9-1.4h0c-0.9,0-1.7,0.6-1.9,1.5c0,0.1-2.2,8.2-7.8,7.3c-5.2-0.9-7.7-9.2-7.6-17.3c0-0.4,0-0.8,0-1.1
			c0-0.9,0.1-1.9,0.2-2.9c0.9-7.4,3.9-14.7,9.4-15.3c1.2-0.1,2.5,1,3.7,2.7c-3.1,0.6-5.6,5.4-5.6,11.4c0,0.2,0,0.5,0,0.7
			c0,1.4,0.2,2.7,0.5,4c1,4,3.1,6.7,5.7,6.7c2.5,0,4.6-2.7,5.6-6.5c0.3-1.2,0.5-2.5,0.6-3.9c0-0.3,0-0.7,0-1c0-1.6-0.2-3.2-0.5-4.6
			c0.5-0.3,0.8-0.9,0.8-1.5c0.1-1.2,0.8-4.8,2.9-6.4c1.2-0.9,2.7-1.1,4.7-0.7c1.3,0.3,2.4,1,3.4,2.2c-3.2,0.4-5.8,5.3-5.8,11.4
			c0,0.3,0,0.7,0,1c0.1,1.4,0.3,2.8,0.6,4c1,3.8,3.1,6.4,5.6,6.4c1,0,2-0.5,2.9-1.3C117.2,54,116,58.3,113.6,60.5z"/>
		<path class="st0" d="M86.9,160c-0.6-0.5-1.1-1.1-1.5-1.7C86.1,158.8,86.6,159.4,86.9,160z"/>
	</g>
</g>
</svg>
